max v2;
#N vpatcher 15 55 386 179;
#P origin 35 -16;
#P window setfont "Sans Serif" 9.;
#P window linecount 1;
#P hidden message 59 58 151 9109513 window exec \, window flags nogrow;
#N thispatcher;
#Q end;
#P hidden newobj 0 69 54 9109513 thispatcher;
#P hidden message 204 93 40 9109513 dispose;
#P hidden newex 209 73 49 9109513 delay 500;
#P hidden newex 209 52 45 9109513 loadbang;
#N thispatcher;
#Q end;
#P hidden newobj 204 113 54 9109513 thispatcher;
#P hidden newex 66 88 105 9109513 wacom;
#P window setfont "Sans Serif" 24.;
#P comment 51 42 274 9109528 wacom device loading...;
#P hidden fasten 3 0 7 0 214 92 64 92;
#P hidden connect 4 0 5 0;
#P hidden fasten 7 0 2 0 64 83 209 83;
#P hidden connect 5 0 2 0;
#P hidden connect 3 0 4 0;
#P pop;
