{
	"patcher" : 	{
		"fileversion" : 1,
		"appversion" : 		{
			"major" : 7,
			"minor" : 1,
			"revision" : 0,
			"architecture" : "x64",
			"modernui" : 1
		}
,
		"rect" : [ 50.0, 78.0, 942.0, 912.0 ],
		"openrect" : [ 50.0, 50.0, 0.0, 0.0 ],
		"bgcolor" : [ 1.0, 1.0, 1.0, 1.0 ],
		"editing_bgcolor" : [ 1.0, 1.0, 1.0, 1.0 ],
		"bglocked" : 0,
		"openinpresentation" : 0,
		"default_fontsize" : 12.0,
		"default_fontface" : 0,
		"default_fontname" : "Arial",
		"gridonopen" : 1,
		"gridsize" : [ 15.0, 15.0 ],
		"gridsnaponopen" : 1,
		"objectsnaponopen" : 1,
		"statusbarvisible" : 2,
		"toolbarvisible" : 1,
		"lefttoolbarpinned" : 0,
		"toptoolbarpinned" : 0,
		"righttoolbarpinned" : 0,
		"bottomtoolbarpinned" : 0,
		"toolbars_unpinned_last_save" : 0,
		"tallnewobj" : 0,
		"boxanimatetime" : 200,
		"enablehscroll" : 1,
		"enablevscroll" : 1,
		"devicewidth" : 0.0,
		"description" : "",
		"digest" : "",
		"tags" : "",
		"style" : "EAMIR",
		"subpatcher_template" : "",
		"boxes" : [ 			{
				"box" : 				{
					"fontname" : "Arial",
					"fontsize" : 24.0,
					"id" : "obj-33",
					"maxclass" : "comment",
					"numinlets" : 1,
					"numoutlets" : 0,
					"patching_rect" : [ 606.0, 272.0, 167.0, 33.0 ],
					"style" : "",
					"text" : "Harmonization"
				}

			}
, 			{
				"box" : 				{
					"fontname" : "Arial",
					"fontsize" : 12.0,
					"id" : "obj-32",
					"maxclass" : "newobj",
					"numinlets" : 0,
					"numoutlets" : 1,
					"outlettype" : [ "" ],
					"patcher" : 					{
						"fileversion" : 1,
						"appversion" : 						{
							"major" : 7,
							"minor" : 1,
							"revision" : 0,
							"architecture" : "x64",
							"modernui" : 1
						}
,
						"rect" : [ 25.0, 69.0, 708.0, 264.0 ],
						"bglocked" : 0,
						"openinpresentation" : 0,
						"default_fontsize" : 12.0,
						"default_fontface" : 0,
						"default_fontname" : "Arial",
						"gridonopen" : 1,
						"gridsize" : [ 15.0, 15.0 ],
						"gridsnaponopen" : 1,
						"objectsnaponopen" : 1,
						"statusbarvisible" : 2,
						"toolbarvisible" : 1,
						"lefttoolbarpinned" : 0,
						"toptoolbarpinned" : 0,
						"righttoolbarpinned" : 0,
						"bottomtoolbarpinned" : 0,
						"toolbars_unpinned_last_save" : 0,
						"tallnewobj" : 0,
						"boxanimatetime" : 200,
						"enablehscroll" : 1,
						"enablevscroll" : 1,
						"devicewidth" : 0.0,
						"description" : "",
						"digest" : "",
						"tags" : "",
						"style" : "",
						"subpatcher_template" : "",
						"boxes" : [ 							{
								"box" : 								{
									"fontname" : "Arial",
									"fontsize" : 12.0,
									"id" : "obj-29",
									"maxclass" : "message",
									"numinlets" : 2,
									"numoutlets" : 1,
									"outlettype" : [ "" ],
									"patching_rect" : [ 558.0, 118.0, 32.5, 18.0 ],
									"style" : "",
									"text" : "8"
								}

							}
, 							{
								"box" : 								{
									"fontname" : "Arial",
									"fontsize" : 12.0,
									"id" : "obj-30",
									"maxclass" : "message",
									"numinlets" : 2,
									"numoutlets" : 1,
									"outlettype" : [ "" ],
									"patching_rect" : [ 489.0, 118.0, 32.5, 18.0 ],
									"style" : "",
									"text" : "7"
								}

							}
, 							{
								"box" : 								{
									"fontname" : "Arial",
									"fontsize" : 12.0,
									"id" : "obj-27",
									"maxclass" : "message",
									"numinlets" : 2,
									"numoutlets" : 1,
									"outlettype" : [ "" ],
									"patching_rect" : [ 413.0, 118.0, 32.5, 18.0 ],
									"style" : "",
									"text" : "6"
								}

							}
, 							{
								"box" : 								{
									"fontname" : "Arial",
									"fontsize" : 12.0,
									"id" : "obj-28",
									"maxclass" : "message",
									"numinlets" : 2,
									"numoutlets" : 1,
									"outlettype" : [ "" ],
									"patching_rect" : [ 344.0, 118.0, 32.5, 18.0 ],
									"style" : "",
									"text" : "5"
								}

							}
, 							{
								"box" : 								{
									"fontname" : "Arial",
									"fontsize" : 12.0,
									"id" : "obj-25",
									"maxclass" : "message",
									"numinlets" : 2,
									"numoutlets" : 1,
									"outlettype" : [ "" ],
									"patching_rect" : [ 268.0, 118.0, 32.5, 18.0 ],
									"style" : "",
									"text" : "4"
								}

							}
, 							{
								"box" : 								{
									"fontname" : "Arial",
									"fontsize" : 12.0,
									"id" : "obj-26",
									"maxclass" : "message",
									"numinlets" : 2,
									"numoutlets" : 1,
									"outlettype" : [ "" ],
									"patching_rect" : [ 199.0, 118.0, 32.5, 18.0 ],
									"style" : "",
									"text" : "3"
								}

							}
, 							{
								"box" : 								{
									"fontname" : "Arial",
									"fontsize" : 12.0,
									"id" : "obj-6",
									"maxclass" : "message",
									"numinlets" : 2,
									"numoutlets" : 1,
									"outlettype" : [ "" ],
									"patching_rect" : [ 119.0, 118.0, 32.5, 18.0 ],
									"style" : "",
									"text" : "2"
								}

							}
, 							{
								"box" : 								{
									"fontname" : "Arial",
									"fontsize" : 12.0,
									"id" : "obj-3",
									"maxclass" : "message",
									"numinlets" : 2,
									"numoutlets" : 1,
									"outlettype" : [ "" ],
									"patching_rect" : [ 50.0, 118.0, 32.5, 18.0 ],
									"style" : "",
									"text" : "1"
								}

							}
, 							{
								"box" : 								{
									"fontname" : "Arial",
									"fontsize" : 10.0,
									"hidden" : 1,
									"id" : "obj-146",
									"maxclass" : "newobj",
									"numinlets" : 0,
									"numoutlets" : 1,
									"outlettype" : [ "" ],
									"patching_rect" : [ 610.0, 118.0, 63.0, 18.0 ],
									"style" : "",
									"text" : "r mol_chord"
								}

							}
, 							{
								"box" : 								{
									"fontname" : "Arial",
									"fontsize" : 12.0,
									"id" : "obj-5",
									"maxclass" : "comment",
									"numinlets" : 1,
									"numoutlets" : 0,
									"patching_rect" : [ 563.0, 100.0, 87.0, 20.0 ],
									"style" : "",
									"text" : "1 Chord (8va)"
								}

							}
, 							{
								"box" : 								{
									"fontname" : "Arial",
									"fontsize" : 12.0,
									"id" : "obj-39",
									"maxclass" : "comment",
									"numinlets" : 1,
									"numoutlets" : 0,
									"patching_rect" : [ 489.0, 100.0, 65.0, 20.0 ],
									"style" : "",
									"text" : "7 Chord"
								}

							}
, 							{
								"box" : 								{
									"fontname" : "Arial",
									"fontsize" : 12.0,
									"id" : "obj-40",
									"maxclass" : "comment",
									"numinlets" : 1,
									"numoutlets" : 0,
									"patching_rect" : [ 408.0, 100.0, 65.0, 20.0 ],
									"style" : "",
									"text" : "6 Chord"
								}

							}
, 							{
								"box" : 								{
									"fontname" : "Arial",
									"fontsize" : 12.0,
									"id" : "obj-41",
									"maxclass" : "comment",
									"numinlets" : 1,
									"numoutlets" : 0,
									"patching_rect" : [ 343.0, 100.0, 65.0, 20.0 ],
									"style" : "",
									"text" : "5 Chord"
								}

							}
, 							{
								"box" : 								{
									"fontname" : "Arial",
									"fontsize" : 12.0,
									"id" : "obj-36",
									"maxclass" : "comment",
									"numinlets" : 1,
									"numoutlets" : 0,
									"patching_rect" : [ 274.0, 100.0, 65.0, 20.0 ],
									"style" : "",
									"text" : "4 Chord"
								}

							}
, 							{
								"box" : 								{
									"fontname" : "Arial",
									"fontsize" : 12.0,
									"id" : "obj-37",
									"maxclass" : "comment",
									"numinlets" : 1,
									"numoutlets" : 0,
									"patching_rect" : [ 199.0, 100.0, 65.0, 20.0 ],
									"style" : "",
									"text" : "3 Chord"
								}

							}
, 							{
								"box" : 								{
									"fontname" : "Arial",
									"fontsize" : 12.0,
									"id" : "obj-35",
									"maxclass" : "comment",
									"numinlets" : 1,
									"numoutlets" : 0,
									"patching_rect" : [ 118.0, 100.0, 65.0, 20.0 ],
									"style" : "",
									"text" : "2 Chord"
								}

							}
, 							{
								"box" : 								{
									"fontname" : "Arial",
									"fontsize" : 12.0,
									"id" : "obj-34",
									"maxclass" : "comment",
									"numinlets" : 1,
									"numoutlets" : 0,
									"patching_rect" : [ 53.0, 100.0, 65.0, 20.0 ],
									"style" : "",
									"text" : "1 Chord"
								}

							}
, 							{
								"box" : 								{
									"comment" : "",
									"id" : "obj-22",
									"maxclass" : "outlet",
									"numinlets" : 1,
									"numoutlets" : 0,
									"patching_rect" : [ 333.888885, 196.0, 25.0, 25.0 ],
									"style" : ""
								}

							}
 ],
						"lines" : [ 							{
								"patchline" : 								{
									"destination" : [ "obj-22", 0 ],
									"disabled" : 0,
									"hidden" : 0,
									"source" : [ "obj-146", 0 ]
								}

							}
, 							{
								"patchline" : 								{
									"destination" : [ "obj-22", 0 ],
									"disabled" : 0,
									"hidden" : 0,
									"source" : [ "obj-25", 0 ]
								}

							}
, 							{
								"patchline" : 								{
									"destination" : [ "obj-22", 0 ],
									"disabled" : 0,
									"hidden" : 0,
									"source" : [ "obj-26", 0 ]
								}

							}
, 							{
								"patchline" : 								{
									"destination" : [ "obj-22", 0 ],
									"disabled" : 0,
									"hidden" : 0,
									"source" : [ "obj-27", 0 ]
								}

							}
, 							{
								"patchline" : 								{
									"destination" : [ "obj-22", 0 ],
									"disabled" : 0,
									"hidden" : 0,
									"source" : [ "obj-28", 0 ]
								}

							}
, 							{
								"patchline" : 								{
									"destination" : [ "obj-22", 0 ],
									"disabled" : 0,
									"hidden" : 0,
									"source" : [ "obj-29", 0 ]
								}

							}
, 							{
								"patchline" : 								{
									"destination" : [ "obj-22", 0 ],
									"disabled" : 0,
									"hidden" : 0,
									"source" : [ "obj-3", 0 ]
								}

							}
, 							{
								"patchline" : 								{
									"destination" : [ "obj-22", 0 ],
									"disabled" : 0,
									"hidden" : 0,
									"source" : [ "obj-30", 0 ]
								}

							}
, 							{
								"patchline" : 								{
									"destination" : [ "obj-22", 0 ],
									"disabled" : 0,
									"hidden" : 0,
									"source" : [ "obj-6", 0 ]
								}

							}
 ]
					}
,
					"patching_rect" : [ 628.0, 386.0, 93.0, 22.0 ],
					"saved_object_attributes" : 					{
						"description" : "",
						"digest" : "",
						"globalpatchername" : "",
						"style" : "",
						"tags" : ""
					}
,
					"style" : "",
					"text" : "p some_chords"
				}

			}
, 			{
				"box" : 				{
					"fontname" : "Arial",
					"fontsize" : 24.0,
					"id" : "obj-24",
					"maxclass" : "comment",
					"numinlets" : 1,
					"numoutlets" : 0,
					"patching_rect" : [ 10.0, 16.0, 138.0, 33.0 ],
					"style" : "",
					"text" : "MIDI Input"
				}

			}
, 			{
				"box" : 				{
					"bgmode" : 0,
					"border" : 1,
					"clickthrough" : 0,
					"enablehscroll" : 0,
					"enablevscroll" : 0,
					"id" : "obj-31",
					"lockeddragscroll" : 0,
					"maxclass" : "bpatcher",
					"name" : "EAMIR_MIDI_in.maxpat",
					"numinlets" : 0,
					"numoutlets" : 6,
					"offset" : [ 0.0, 0.0 ],
					"outlettype" : [ "int", "int", "int", "", "int", "int" ],
					"patching_rect" : [ 9.0, 15.0, 444.0, 126.0 ],
					"varname" : "EAMIR_MIDI_in",
					"viewvisibility" : 1
				}

			}
, 			{
				"box" : 				{
					"bgmode" : 0,
					"border" : 1,
					"clickthrough" : 0,
					"enablehscroll" : 0,
					"enablevscroll" : 0,
					"id" : "obj-21",
					"lockeddragscroll" : 0,
					"maxclass" : "bpatcher",
					"name" : "EAMIR_pcmatch.maxpat",
					"numinlets" : 3,
					"numoutlets" : 36,
					"offset" : [ 0.0, 0.0 ],
					"outlettype" : [ "", "", "", "", "", "", "", "", "", "", "", "", "", "", "", "", "", "", "", "", "", "", "", "", "", "", "", "", "", "", "", "", "", "", "", "" ],
					"patching_rect" : [ 9.0, 150.0, 804.0, 195.0 ],
					"varname" : "EAMIR_chord_generation[1]",
					"viewvisibility" : 1
				}

			}
, 			{
				"box" : 				{
					"fontname" : "Arial",
					"fontsize" : 10.0,
					"id" : "obj-20",
					"maxclass" : "comment",
					"numinlets" : 1,
					"numoutlets" : 0,
					"patching_rect" : [ 723.0, 389.0, 65.0, 18.0 ],
					"style" : "",
					"text" : "double-click"
				}

			}
, 			{
				"box" : 				{
					"fontname" : "Arial",
					"fontsize" : 12.0,
					"id" : "obj-9",
					"maxclass" : "newobj",
					"numinlets" : 0,
					"numoutlets" : 0,
					"patcher" : 					{
						"fileversion" : 1,
						"appversion" : 						{
							"major" : 7,
							"minor" : 1,
							"revision" : 0,
							"architecture" : "x64",
							"modernui" : 1
						}
,
						"rect" : [ 121.0, 95.0, 670.0, 327.0 ],
						"bglocked" : 0,
						"openinpresentation" : 1,
						"default_fontsize" : 12.0,
						"default_fontface" : 0,
						"default_fontname" : "Arial",
						"gridonopen" : 1,
						"gridsize" : [ 15.0, 15.0 ],
						"gridsnaponopen" : 1,
						"objectsnaponopen" : 1,
						"statusbarvisible" : 2,
						"toolbarvisible" : 0,
						"lefttoolbarpinned" : 0,
						"toptoolbarpinned" : 0,
						"righttoolbarpinned" : 0,
						"bottomtoolbarpinned" : 0,
						"toolbars_unpinned_last_save" : 0,
						"tallnewobj" : 0,
						"boxanimatetime" : 200,
						"enablehscroll" : 1,
						"enablevscroll" : 1,
						"devicewidth" : 0.0,
						"description" : "",
						"digest" : "",
						"tags" : "",
						"style" : "",
						"subpatcher_template" : "",
						"boxes" : [ 							{
								"box" : 								{
									"fontface" : 1,
									"fontname" : "Arial",
									"fontsize" : 16.0,
									"id" : "obj-2",
									"linecount" : 2,
									"maxclass" : "comment",
									"numinlets" : 1,
									"numoutlets" : 0,
									"patching_rect" : [ 67.0, 30.0, 276.0, 42.0 ],
									"presentation" : 1,
									"presentation_rect" : [ 10.0, 1.0, 479.0, 24.0 ],
									"style" : "",
									"text" : "Available Chords - - just type them into a message box"
								}

							}
, 							{
								"box" : 								{
									"fontname" : "Arial",
									"fontsize" : 12.0,
									"id" : "obj-177",
									"maxclass" : "comment",
									"numinlets" : 1,
									"numoutlets" : 0,
									"patching_rect" : [ 780.0, 339.0, 90.0, 20.0 ],
									"presentation" : 1,
									"presentation_rect" : [ 374.0, 29.0, 90.0, 20.0 ],
									"style" : "",
									"text" : "Tonicizations"
								}

							}
, 							{
								"box" : 								{
									"delay" : 1,
									"hint" : "The V Chord Tonicization Chords produce a Dominant 7th chord for each scale degree in the selected mode. That is, the root, 3rd, 5th, and 7th will form a Dominant 7th Chord exactly one perfect 5th above a given scale degree. The 9th, 11th, 13th are inferred according to the selected mode and NOT the mode from which the tonicizing chord prevails.",
									"id" : "obj-162",
									"maxclass" : "hint",
									"numinlets" : 1,
									"numoutlets" : 0,
									"patching_rect" : [ 748.0, 365.0, 51.0, 20.0 ],
									"presentation" : 1,
									"presentation_rect" : [ 371.0, 50.0, 51.0, 20.0 ]
								}

							}
, 							{
								"box" : 								{
									"delay" : 1,
									"hint" : "The chords built from chromatic roots create a weak tonicization. For example, the 7/2 tonicizes the 2 chord of a selected mode It is, in fact, the 1 chord of the mode with a raised root. In some instances, raising the root of a chord does not create a chromatic tone (for example the 7/4 in C Major is the same as the 3 in C Major). It should also be noted that the concept of tonicizing a diminished triad is even weaker. This collection is best used for light chromaticism. 7/n raises the root of the chord function 1 semitone except in instances where chord functions are semiton apart. This creates a tonicization some cases. For example, in C Major, the chord between the I chord and the ii chord is C#- E - G (the 7/2). The iii chord (e minor) and IV chord (F Major) are a semiton apart so the 7/4 is still e minor.",
									"id" : "obj-156",
									"maxclass" : "hint",
									"numinlets" : 1,
									"numoutlets" : 0,
									"patching_rect" : [ 748.0, 433.0, 57.0, 21.0 ],
									"presentation" : 1,
									"presentation_rect" : [ 597.0, 77.0, 57.0, 21.0 ]
								}

							}
, 							{
								"box" : 								{
									"fontname" : "Arial",
									"fontsize" : 10.0,
									"hidden" : 1,
									"id" : "obj-146",
									"maxclass" : "newobj",
									"numinlets" : 1,
									"numoutlets" : 0,
									"patching_rect" : [ 746.0, 459.0, 65.0, 18.0 ],
									"presentation" : 1,
									"presentation_rect" : [ 595.0, 103.0, 65.0, 18.0 ],
									"style" : "",
									"text" : "s mol_chord"
								}

							}
, 							{
								"box" : 								{
									"allowdrag" : 0,
									"bgcolor" : [ 1.0, 1.0, 1.0, 1.0 ],
									"bgfillcolor_angle" : 270.0,
									"bgfillcolor_color" : [ 1.0, 1.0, 1.0, 1.0 ],
									"bgfillcolor_color1" : [ 0.376471, 0.384314, 0.4, 1.0 ],
									"bgfillcolor_color2" : [ 0.290196, 0.309804, 0.301961, 1.0 ],
									"bgfillcolor_proportion" : 0.39,
									"bgfillcolor_type" : "color",
									"id" : "obj-66",
									"items" : [ "iv/1", ",", "iv/2", ",", "iv/3", ",", "iv/4", ",", "iv/5", ",", "iv/6", ",", "iv/7" ],
									"labelclick" : 1,
									"maxclass" : "umenu",
									"numinlets" : 1,
									"numoutlets" : 3,
									"outlettype" : [ "int", "", "" ],
									"parameter_enable" : 0,
									"patching_rect" : [ 748.0, 404.0, 51.0, 20.0 ],
									"presentation" : 1,
									"presentation_rect" : [ 370.0, 82.0, 51.0, 20.0 ],
									"style" : "",
									"textcolor" : [ 0.0, 0.0, 0.0, 1.0 ]
								}

							}
, 							{
								"box" : 								{
									"fontname" : "Arial",
									"fontsize" : 12.0,
									"id" : "obj-67",
									"linecount" : 3,
									"maxclass" : "comment",
									"numinlets" : 1,
									"numoutlets" : 0,
									"patching_rect" : [ 799.0, 395.0, 104.0, 47.0 ],
									"presentation" : 1,
									"presentation_linecount" : 2,
									"presentation_rect" : [ 420.0, 74.0, 170.0, 33.0 ],
									"style" : "",
									"text" : "produces a iv borrowed chord tonicization"
								}

							}
, 							{
								"box" : 								{
									"allowdrag" : 0,
									"bgcolor" : [ 1.0, 1.0, 1.0, 1.0 ],
									"bgfillcolor_angle" : 270.0,
									"bgfillcolor_color" : [ 1.0, 1.0, 1.0, 1.0 ],
									"bgfillcolor_color1" : [ 0.376471, 0.384314, 0.4, 1.0 ],
									"bgfillcolor_color2" : [ 0.290196, 0.309804, 0.301961, 1.0 ],
									"bgfillcolor_proportion" : 0.39,
									"bgfillcolor_type" : "color",
									"id" : "obj-72",
									"items" : [ "V/1", ",", "V/2", ",", "V/3", ",", "V/4", ",", "V/5", ",", "V/6", ",", "V/7" ],
									"labelclick" : 1,
									"maxclass" : "umenu",
									"numinlets" : 1,
									"numoutlets" : 3,
									"outlettype" : [ "int", "", "" ],
									"parameter_enable" : 0,
									"patching_rect" : [ 748.0, 365.0, 51.0, 20.0 ],
									"presentation" : 1,
									"presentation_rect" : [ 371.0, 50.0, 51.0, 20.0 ],
									"style" : "",
									"textcolor" : [ 0.0, 0.0, 0.0, 1.0 ]
								}

							}
, 							{
								"box" : 								{
									"allowdrag" : 0,
									"bgcolor" : [ 1.0, 1.0, 1.0, 1.0 ],
									"bgfillcolor_angle" : 270.0,
									"bgfillcolor_color" : [ 1.0, 1.0, 1.0, 1.0 ],
									"bgfillcolor_color1" : [ 0.376471, 0.384314, 0.4, 1.0 ],
									"bgfillcolor_color2" : [ 0.290196, 0.309804, 0.301961, 1.0 ],
									"bgfillcolor_proportion" : 0.39,
									"bgfillcolor_type" : "color",
									"id" : "obj-75",
									"items" : [ "7/1", ",", "7/2", ",", "7/3", ",", "7/4", ",", "7/5", ",", "7/6", ",", "7/7" ],
									"labelclick" : 1,
									"maxclass" : "umenu",
									"numinlets" : 1,
									"numoutlets" : 3,
									"outlettype" : [ "int", "", "" ],
									"parameter_enable" : 0,
									"patching_rect" : [ 748.0, 434.0, 56.0, 20.0 ],
									"presentation" : 1,
									"presentation_rect" : [ 597.0, 77.0, 56.0, 20.0 ],
									"style" : "",
									"textcolor" : [ 0.0, 0.0, 0.0, 1.0 ]
								}

							}
, 							{
								"box" : 								{
									"fontname" : "Arial",
									"fontsize" : 12.0,
									"id" : "obj-116",
									"linecount" : 2,
									"maxclass" : "comment",
									"numinlets" : 1,
									"numoutlets" : 0,
									"patching_rect" : [ 800.0, 360.0, 102.0, 33.0 ],
									"presentation" : 1,
									"presentation_rect" : [ 423.0, 47.0, 197.0, 20.0 ],
									"style" : "",
									"text" : "produces a V7 chord tonicization"
								}

							}
, 							{
								"box" : 								{
									"angle" : 1.16,
									"grad1" : [ 0.894118, 0.917647, 1.0, 1.0 ],
									"grad2" : [ 0.66, 0.66, 0.72, 1.0 ],
									"id" : "obj-175",
									"maxclass" : "panel",
									"mode" : 1,
									"numinlets" : 1,
									"numoutlets" : 0,
									"patching_rect" : [ 743.0, 338.0, 159.0, 120.0 ],
									"presentation" : 1,
									"presentation_rect" : [ 365.0, 29.0, 294.0, 79.0 ],
									"proportion" : 0.39,
									"rounded" : 30,
									"style" : ""
								}

							}
, 							{
								"box" : 								{
									"fontname" : "Arial",
									"fontsize" : 12.0,
									"id" : "obj-170",
									"maxclass" : "comment",
									"numinlets" : 1,
									"numoutlets" : 0,
									"patching_rect" : [ 561.0, 368.0, 150.0, 20.0 ],
									"presentation" : 1,
									"presentation_rect" : [ 205.0, 33.0, 150.0, 20.0 ],
									"style" : "",
									"text" : "Formatting Altered Chords"
								}

							}
, 							{
								"box" : 								{
									"bgcolor" : [ 1.0, 1.0, 1.0, 1.0 ],
									"bgcolor2" : [ 1.0, 1.0, 1.0, 1.0 ],
									"bgfillcolor_angle" : 270.0,
									"bgfillcolor_autogradient" : 0.0,
									"bgfillcolor_color" : [ 0.290196, 0.309804, 0.301961, 1.0 ],
									"bgfillcolor_color1" : [ 1.0, 1.0, 1.0, 1.0 ],
									"bgfillcolor_color2" : [ 1.0, 1.0, 1.0, 1.0 ],
									"bgfillcolor_proportion" : 0.39,
									"bgfillcolor_type" : "gradient",
									"fontname" : "Arial",
									"fontsize" : 12.0,
									"gradient" : 1,
									"id" : "obj-169",
									"maxclass" : "message",
									"numinlets" : 2,
									"numoutlets" : 1,
									"outlettype" : [ "" ],
									"patching_rect" : [ 627.0, 416.0, 46.0, 18.0 ],
									"presentation" : 1,
									"presentation_rect" : [ 271.0, 81.0, 46.0, 18.0 ],
									"style" : "",
									"text" : "Cb5#9",
									"textcolor" : [ 0.0, 0.0, 0.0, 1.0 ]
								}

							}
, 							{
								"box" : 								{
									"bgcolor" : [ 1.0, 1.0, 1.0, 1.0 ],
									"bgcolor2" : [ 1.0, 1.0, 1.0, 1.0 ],
									"bgfillcolor_angle" : 270.0,
									"bgfillcolor_autogradient" : 0.0,
									"bgfillcolor_color" : [ 0.290196, 0.309804, 0.301961, 1.0 ],
									"bgfillcolor_color1" : [ 1.0, 1.0, 1.0, 1.0 ],
									"bgfillcolor_color2" : [ 1.0, 1.0, 1.0, 1.0 ],
									"bgfillcolor_proportion" : 0.39,
									"bgfillcolor_type" : "gradient",
									"fontname" : "Arial",
									"fontsize" : 12.0,
									"gradient" : 1,
									"id" : "obj-168",
									"maxclass" : "message",
									"numinlets" : 2,
									"numoutlets" : 1,
									"outlettype" : [ "" ],
									"patching_rect" : [ 571.0, 416.0, 32.5, 18.0 ],
									"presentation" : 1,
									"presentation_rect" : [ 215.0, 81.0, 32.5, 18.0 ],
									"style" : "",
									"text" : "5#1",
									"textcolor" : [ 0.0, 0.0, 0.0, 1.0 ]
								}

							}
, 							{
								"box" : 								{
									"bgcolor" : [ 1.0, 1.0, 1.0, 1.0 ],
									"bgcolor2" : [ 1.0, 1.0, 1.0, 1.0 ],
									"bgfillcolor_angle" : 270.0,
									"bgfillcolor_autogradient" : 0.0,
									"bgfillcolor_color" : [ 0.290196, 0.309804, 0.301961, 1.0 ],
									"bgfillcolor_color1" : [ 1.0, 1.0, 1.0, 1.0 ],
									"bgfillcolor_color2" : [ 1.0, 1.0, 1.0, 1.0 ],
									"bgfillcolor_proportion" : 0.39,
									"bgfillcolor_type" : "gradient",
									"fontname" : "Arial",
									"fontsize" : 12.0,
									"gradient" : 1,
									"id" : "obj-165",
									"maxclass" : "message",
									"numinlets" : 2,
									"numoutlets" : 1,
									"outlettype" : [ "" ],
									"patching_rect" : [ 627.0, 390.0, 82.0, 18.0 ],
									"presentation" : 1,
									"presentation_rect" : [ 271.0, 55.0, 82.0, 18.0 ],
									"style" : "",
									"text" : "Gdom7b9#11",
									"textcolor" : [ 0.0, 0.0, 0.0, 1.0 ]
								}

							}
, 							{
								"box" : 								{
									"bgcolor" : [ 1.0, 1.0, 1.0, 1.0 ],
									"bgcolor2" : [ 1.0, 1.0, 1.0, 1.0 ],
									"bgfillcolor_angle" : 270.0,
									"bgfillcolor_autogradient" : 0.0,
									"bgfillcolor_color" : [ 0.290196, 0.309804, 0.301961, 1.0 ],
									"bgfillcolor_color1" : [ 1.0, 1.0, 1.0, 1.0 ],
									"bgfillcolor_color2" : [ 1.0, 1.0, 1.0, 1.0 ],
									"bgfillcolor_proportion" : 0.39,
									"bgfillcolor_type" : "gradient",
									"fontname" : "Arial",
									"fontsize" : 12.0,
									"gradient" : 1,
									"id" : "obj-166",
									"maxclass" : "message",
									"numinlets" : 2,
									"numoutlets" : 1,
									"outlettype" : [ "" ],
									"patching_rect" : [ 571.0, 390.0, 32.5, 18.0 ],
									"presentation" : 1,
									"presentation_rect" : [ 215.0, 55.0, 32.5, 18.0 ],
									"style" : "",
									"text" : "1b1",
									"textcolor" : [ 0.0, 0.0, 0.0, 1.0 ]
								}

							}
, 							{
								"box" : 								{
									"fontname" : "Arial",
									"fontsize" : 10.0,
									"hidden" : 1,
									"id" : "obj-164",
									"maxclass" : "newobj",
									"numinlets" : 1,
									"numoutlets" : 0,
									"patching_rect" : [ 571.0, 438.0, 65.0, 18.0 ],
									"presentation" : 1,
									"presentation_rect" : [ 215.0, 103.0, 65.0, 18.0 ],
									"style" : "",
									"text" : "s mol_chord"
								}

							}
, 							{
								"box" : 								{
									"fontname" : "Arial",
									"fontsize" : 10.0,
									"hidden" : 1,
									"id" : "obj-145",
									"maxclass" : "newobj",
									"numinlets" : 1,
									"numoutlets" : 0,
									"patching_rect" : [ 466.0, 526.0, 65.0, 18.0 ],
									"presentation" : 1,
									"presentation_rect" : [ 237.0, 178.0, 65.0, 18.0 ],
									"style" : "",
									"text" : "s mol_chord"
								}

							}
, 							{
								"box" : 								{
									"bgcolor" : [ 1.0, 1.0, 1.0, 1.0 ],
									"bgcolor2" : [ 1.0, 1.0, 1.0, 1.0 ],
									"bgfillcolor_angle" : 270.0,
									"bgfillcolor_autogradient" : 0.0,
									"bgfillcolor_color" : [ 0.290196, 0.309804, 0.301961, 1.0 ],
									"bgfillcolor_color1" : [ 1.0, 1.0, 1.0, 1.0 ],
									"bgfillcolor_color2" : [ 1.0, 1.0, 1.0, 1.0 ],
									"bgfillcolor_proportion" : 0.39,
									"bgfillcolor_type" : "gradient",
									"fontname" : "Arial",
									"fontsize" : 12.0,
									"gradient" : 1,
									"id" : "obj-86",
									"maxclass" : "message",
									"numinlets" : 2,
									"numoutlets" : 1,
									"outlettype" : [ "" ],
									"patching_rect" : [ 523.0, 502.0, 18.0, 18.0 ],
									"presentation" : 1,
									"presentation_rect" : [ 294.0, 154.0, 18.0, 18.0 ],
									"style" : "",
									"text" : "8",
									"textcolor" : [ 0.0, 0.0, 0.0, 1.0 ]
								}

							}
, 							{
								"box" : 								{
									"bgcolor" : [ 1.0, 1.0, 1.0, 1.0 ],
									"bgcolor2" : [ 1.0, 1.0, 1.0, 1.0 ],
									"bgfillcolor_angle" : 270.0,
									"bgfillcolor_autogradient" : 0.0,
									"bgfillcolor_color" : [ 0.290196, 0.309804, 0.301961, 1.0 ],
									"bgfillcolor_color1" : [ 1.0, 1.0, 1.0, 1.0 ],
									"bgfillcolor_color2" : [ 1.0, 1.0, 1.0, 1.0 ],
									"bgfillcolor_proportion" : 0.39,
									"bgfillcolor_type" : "gradient",
									"fontname" : "Arial",
									"fontsize" : 12.0,
									"gradient" : 1,
									"id" : "obj-91",
									"maxclass" : "message",
									"numinlets" : 2,
									"numoutlets" : 1,
									"outlettype" : [ "" ],
									"patching_rect" : [ 523.0, 480.0, 18.0, 18.0 ],
									"presentation" : 1,
									"presentation_rect" : [ 294.0, 132.0, 18.0, 18.0 ],
									"style" : "",
									"text" : "4",
									"textcolor" : [ 0.0, 0.0, 0.0, 1.0 ]
								}

							}
, 							{
								"box" : 								{
									"bgcolor" : [ 1.0, 1.0, 1.0, 1.0 ],
									"bgcolor2" : [ 1.0, 1.0, 1.0, 1.0 ],
									"bgfillcolor_angle" : 270.0,
									"bgfillcolor_autogradient" : 0.0,
									"bgfillcolor_color" : [ 0.290196, 0.309804, 0.301961, 1.0 ],
									"bgfillcolor_color1" : [ 1.0, 1.0, 1.0, 1.0 ],
									"bgfillcolor_color2" : [ 1.0, 1.0, 1.0, 1.0 ],
									"bgfillcolor_proportion" : 0.39,
									"bgfillcolor_type" : "gradient",
									"fontname" : "Arial",
									"fontsize" : 12.0,
									"gradient" : 1,
									"id" : "obj-92",
									"maxclass" : "message",
									"numinlets" : 2,
									"numoutlets" : 1,
									"outlettype" : [ "" ],
									"patching_rect" : [ 504.0, 502.0, 18.0, 18.0 ],
									"presentation" : 1,
									"presentation_rect" : [ 275.0, 154.0, 18.0, 18.0 ],
									"style" : "",
									"text" : "7",
									"textcolor" : [ 0.0, 0.0, 0.0, 1.0 ]
								}

							}
, 							{
								"box" : 								{
									"bgcolor" : [ 1.0, 1.0, 1.0, 1.0 ],
									"bgcolor2" : [ 1.0, 1.0, 1.0, 1.0 ],
									"bgfillcolor_angle" : 270.0,
									"bgfillcolor_autogradient" : 0.0,
									"bgfillcolor_color" : [ 0.290196, 0.309804, 0.301961, 1.0 ],
									"bgfillcolor_color1" : [ 1.0, 1.0, 1.0, 1.0 ],
									"bgfillcolor_color2" : [ 1.0, 1.0, 1.0, 1.0 ],
									"bgfillcolor_proportion" : 0.39,
									"bgfillcolor_type" : "gradient",
									"fontname" : "Arial",
									"fontsize" : 12.0,
									"gradient" : 1,
									"id" : "obj-93",
									"maxclass" : "message",
									"numinlets" : 2,
									"numoutlets" : 1,
									"outlettype" : [ "" ],
									"patching_rect" : [ 485.0, 502.0, 18.0, 18.0 ],
									"presentation" : 1,
									"presentation_rect" : [ 256.0, 154.0, 18.0, 18.0 ],
									"style" : "",
									"text" : "6",
									"textcolor" : [ 0.0, 0.0, 0.0, 1.0 ]
								}

							}
, 							{
								"box" : 								{
									"bgcolor" : [ 1.0, 1.0, 1.0, 1.0 ],
									"bgcolor2" : [ 1.0, 1.0, 1.0, 1.0 ],
									"bgfillcolor_angle" : 270.0,
									"bgfillcolor_autogradient" : 0.0,
									"bgfillcolor_color" : [ 0.290196, 0.309804, 0.301961, 1.0 ],
									"bgfillcolor_color1" : [ 1.0, 1.0, 1.0, 1.0 ],
									"bgfillcolor_color2" : [ 1.0, 1.0, 1.0, 1.0 ],
									"bgfillcolor_proportion" : 0.39,
									"bgfillcolor_type" : "gradient",
									"fontname" : "Arial",
									"fontsize" : 12.0,
									"gradient" : 1,
									"id" : "obj-94",
									"maxclass" : "message",
									"numinlets" : 2,
									"numoutlets" : 1,
									"outlettype" : [ "" ],
									"patching_rect" : [ 465.0, 502.0, 18.0, 18.0 ],
									"presentation" : 1,
									"presentation_rect" : [ 236.0, 154.0, 18.0, 18.0 ],
									"style" : "",
									"text" : "5",
									"textcolor" : [ 0.0, 0.0, 0.0, 1.0 ]
								}

							}
, 							{
								"box" : 								{
									"bgcolor" : [ 1.0, 1.0, 1.0, 1.0 ],
									"bgcolor2" : [ 1.0, 1.0, 1.0, 1.0 ],
									"bgfillcolor_angle" : 270.0,
									"bgfillcolor_autogradient" : 0.0,
									"bgfillcolor_color" : [ 0.290196, 0.309804, 0.301961, 1.0 ],
									"bgfillcolor_color1" : [ 1.0, 1.0, 1.0, 1.0 ],
									"bgfillcolor_color2" : [ 1.0, 1.0, 1.0, 1.0 ],
									"bgfillcolor_proportion" : 0.39,
									"bgfillcolor_type" : "gradient",
									"fontname" : "Arial",
									"fontsize" : 12.0,
									"gradient" : 1,
									"id" : "obj-95",
									"maxclass" : "message",
									"numinlets" : 2,
									"numoutlets" : 1,
									"outlettype" : [ "" ],
									"patching_rect" : [ 504.0, 480.0, 18.0, 18.0 ],
									"presentation" : 1,
									"presentation_rect" : [ 275.0, 132.0, 18.0, 18.0 ],
									"style" : "",
									"text" : "3",
									"textcolor" : [ 0.0, 0.0, 0.0, 1.0 ]
								}

							}
, 							{
								"box" : 								{
									"bgcolor" : [ 1.0, 1.0, 1.0, 1.0 ],
									"bgcolor2" : [ 1.0, 1.0, 1.0, 1.0 ],
									"bgfillcolor_angle" : 270.0,
									"bgfillcolor_autogradient" : 0.0,
									"bgfillcolor_color" : [ 0.290196, 0.309804, 0.301961, 1.0 ],
									"bgfillcolor_color1" : [ 1.0, 1.0, 1.0, 1.0 ],
									"bgfillcolor_color2" : [ 1.0, 1.0, 1.0, 1.0 ],
									"bgfillcolor_proportion" : 0.39,
									"bgfillcolor_type" : "gradient",
									"fontname" : "Arial",
									"fontsize" : 12.0,
									"gradient" : 1,
									"id" : "obj-96",
									"maxclass" : "message",
									"numinlets" : 2,
									"numoutlets" : 1,
									"outlettype" : [ "" ],
									"patching_rect" : [ 485.0, 480.0, 18.0, 18.0 ],
									"presentation" : 1,
									"presentation_rect" : [ 256.0, 132.0, 18.0, 18.0 ],
									"style" : "",
									"text" : "2",
									"textcolor" : [ 0.0, 0.0, 0.0, 1.0 ]
								}

							}
, 							{
								"box" : 								{
									"bgcolor" : [ 1.0, 1.0, 1.0, 1.0 ],
									"bgcolor2" : [ 1.0, 1.0, 1.0, 1.0 ],
									"bgfillcolor_angle" : 270.0,
									"bgfillcolor_autogradient" : 0.0,
									"bgfillcolor_color" : [ 0.290196, 0.309804, 0.301961, 1.0 ],
									"bgfillcolor_color1" : [ 1.0, 1.0, 1.0, 1.0 ],
									"bgfillcolor_color2" : [ 1.0, 1.0, 1.0, 1.0 ],
									"bgfillcolor_proportion" : 0.39,
									"bgfillcolor_type" : "gradient",
									"fontname" : "Arial",
									"fontsize" : 12.0,
									"gradient" : 1,
									"id" : "obj-97",
									"maxclass" : "message",
									"numinlets" : 2,
									"numoutlets" : 1,
									"outlettype" : [ "" ],
									"patching_rect" : [ 465.0, 480.0, 18.0, 18.0 ],
									"presentation" : 1,
									"presentation_rect" : [ 236.0, 132.0, 18.0, 18.0 ],
									"style" : "",
									"text" : "1",
									"textcolor" : [ 0.0, 0.0, 0.0, 1.0 ]
								}

							}
, 							{
								"box" : 								{
									"fontname" : "Arial",
									"fontsize" : 12.0,
									"id" : "obj-108",
									"maxclass" : "number",
									"maximum" : 8,
									"minimum" : 1,
									"numinlets" : 1,
									"numoutlets" : 2,
									"outlettype" : [ "", "bang" ],
									"parameter_enable" : 0,
									"patching_rect" : [ 550.0, 481.0, 20.0, 20.0 ],
									"presentation" : 1,
									"presentation_rect" : [ 321.0, 133.0, 20.0, 20.0 ],
									"style" : "",
									"triangle" : 0,
									"triscale" : 0.9
								}

							}
, 							{
								"box" : 								{
									"fontname" : "Arial",
									"fontsize" : 12.0,
									"id" : "obj-113",
									"maxclass" : "comment",
									"numinlets" : 1,
									"numoutlets" : 0,
									"patching_rect" : [ 436.0, 461.0, 206.0, 20.0 ],
									"presentation" : 1,
									"presentation_rect" : [ 207.0, 113.0, 206.0, 20.0 ],
									"style" : "",
									"text" : "Diatonic Chord Functions (numbers)"
								}

							}
, 							{
								"box" : 								{
									"fontname" : "Arial",
									"fontsize" : 10.0,
									"hidden" : 1,
									"id" : "obj-144",
									"maxclass" : "newobj",
									"numinlets" : 1,
									"numoutlets" : 0,
									"patching_rect" : [ 826.0, 805.0, 65.0, 18.0 ],
									"presentation" : 1,
									"presentation_rect" : [ 116.0, 306.0, 65.0, 18.0 ],
									"style" : "",
									"text" : "s mol_chord"
								}

							}
, 							{
								"box" : 								{
									"allowdrag" : 0,
									"bgcolor" : [ 1.0, 1.0, 1.0, 1.0 ],
									"bgfillcolor_angle" : 270.0,
									"bgfillcolor_color" : [ 1.0, 1.0, 1.0, 1.0 ],
									"bgfillcolor_color1" : [ 0.376471, 0.384314, 0.4, 1.0 ],
									"bgfillcolor_color2" : [ 0.290196, 0.309804, 0.301961, 1.0 ],
									"bgfillcolor_proportion" : 0.39,
									"bgfillcolor_type" : "color",
									"id" : "obj-56",
									"items" : [ "c0", ",", "c#0", ",", "d0", ",", "d#0", ",", "e0", ",", "f0", ",", "f#0", ",", "g0", ",", "g#0", ",", "a0", ",", "a#0", ",", "b0", ",", "bb0", ",", "ab0", ",", "gb0", ",", "eb0", ",", "db0" ],
									"labelclick" : 1,
									"maxclass" : "umenu",
									"numinlets" : 1,
									"numoutlets" : 3,
									"outlettype" : [ "int", "", "" ],
									"parameter_enable" : 0,
									"patching_rect" : [ 812.0, 788.0, 46.0, 20.0 ],
									"presentation" : 1,
									"presentation_rect" : [ 102.0, 289.0, 46.0, 20.0 ],
									"style" : "",
									"textcolor" : [ 0.0, 0.0, 0.0, 1.0 ]
								}

							}
, 							{
								"box" : 								{
									"allowdrag" : 0,
									"bgcolor" : [ 1.0, 1.0, 1.0, 1.0 ],
									"bgfillcolor_angle" : 270.0,
									"bgfillcolor_color" : [ 1.0, 1.0, 1.0, 1.0 ],
									"bgfillcolor_color1" : [ 0.376471, 0.384314, 0.4, 1.0 ],
									"bgfillcolor_color2" : [ 0.290196, 0.309804, 0.301961, 1.0 ],
									"bgfillcolor_proportion" : 0.39,
									"bgfillcolor_type" : "color",
									"id" : "obj-57",
									"items" : [ "C+", ",", "C#+", ",", "D+", ",", "D#+", ",", "E+", ",", "F+", ",", "F#+", ",", "G+", ",", "G#+", ",", "A+", ",", "A#+", ",", "B+", ",", "Bb+", ",", "Ab+", ",", "Gb+", ",", "Eb+", ",", "Db+" ],
									"labelclick" : 1,
									"maxclass" : "umenu",
									"numinlets" : 1,
									"numoutlets" : 3,
									"outlettype" : [ "int", "", "" ],
									"parameter_enable" : 0,
									"patching_rect" : [ 812.0, 765.0, 46.0, 20.0 ],
									"presentation" : 1,
									"presentation_rect" : [ 102.0, 266.0, 46.0, 20.0 ],
									"style" : "",
									"textcolor" : [ 0.0, 0.0, 0.0, 1.0 ]
								}

							}
, 							{
								"box" : 								{
									"allowdrag" : 0,
									"bgcolor" : [ 1.0, 1.0, 1.0, 1.0 ],
									"bgfillcolor_angle" : 270.0,
									"bgfillcolor_color" : [ 1.0, 1.0, 1.0, 1.0 ],
									"bgfillcolor_color1" : [ 0.376471, 0.384314, 0.4, 1.0 ],
									"bgfillcolor_color2" : [ 0.290196, 0.309804, 0.301961, 1.0 ],
									"bgfillcolor_proportion" : 0.39,
									"bgfillcolor_type" : "color",
									"id" : "obj-58",
									"items" : [ "c", ",", "c#", ",", "d", ",", "d#", ",", "e", ",", "f", ",", "f#", ",", "g", ",", "g#", ",", "a", ",", "a#", ",", "b", ",", "bb", ",", "ab", ",", "gb", ",", "eb", ",", "db" ],
									"labelclick" : 1,
									"maxclass" : "umenu",
									"numinlets" : 1,
									"numoutlets" : 3,
									"outlettype" : [ "int", "", "" ],
									"parameter_enable" : 0,
									"patching_rect" : [ 812.0, 739.0, 46.0, 20.0 ],
									"presentation" : 1,
									"presentation_rect" : [ 102.0, 240.0, 46.0, 20.0 ],
									"style" : "",
									"textcolor" : [ 0.0, 0.0, 0.0, 1.0 ]
								}

							}
, 							{
								"box" : 								{
									"allowdrag" : 0,
									"bgcolor" : [ 1.0, 1.0, 1.0, 1.0 ],
									"bgfillcolor_angle" : 270.0,
									"bgfillcolor_color" : [ 1.0, 1.0, 1.0, 1.0 ],
									"bgfillcolor_color1" : [ 0.376471, 0.384314, 0.4, 1.0 ],
									"bgfillcolor_color2" : [ 0.290196, 0.309804, 0.301961, 1.0 ],
									"bgfillcolor_proportion" : 0.39,
									"bgfillcolor_type" : "color",
									"id" : "obj-59",
									"items" : [ "C", ",", "C#", ",", "D", ",", "D#", ",", "E", ",", "F", ",", "F#", ",", "G", ",", "G#", ",", "A", ",", "A#", ",", "B", ",", "Bb", ",", "Ab", ",", "Gb", ",", "Eb", ",", "Db" ],
									"labelclick" : 1,
									"maxclass" : "umenu",
									"numinlets" : 1,
									"numoutlets" : 3,
									"outlettype" : [ "int", "", "" ],
									"parameter_enable" : 0,
									"patching_rect" : [ 812.0, 715.0, 46.0, 20.0 ],
									"presentation" : 1,
									"presentation_rect" : [ 102.0, 216.0, 46.0, 20.0 ],
									"style" : "",
									"textcolor" : [ 0.0, 0.0, 0.0, 1.0 ]
								}

							}
, 							{
								"box" : 								{
									"fontname" : "Arial",
									"fontsize" : 12.0,
									"id" : "obj-60",
									"linecount" : 2,
									"maxclass" : "comment",
									"numinlets" : 1,
									"numoutlets" : 0,
									"patching_rect" : [ 725.0, 683.0, 156.0, 33.0 ],
									"presentation" : 1,
									"presentation_linecount" : 2,
									"presentation_rect" : [ 15.0, 184.0, 156.0, 33.0 ],
									"style" : "",
									"text" : "Case sensitive chord qualities (with pitch letters):"
								}

							}
, 							{
								"box" : 								{
									"fontname" : "Arial",
									"fontsize" : 12.0,
									"id" : "obj-120",
									"maxclass" : "comment",
									"numinlets" : 1,
									"numoutlets" : 0,
									"patching_rect" : [ 742.0, 788.0, 112.0, 20.0 ],
									"presentation" : 1,
									"presentation_rect" : [ 32.0, 289.0, 112.0, 20.0 ],
									"style" : "",
									"text" : "Augmented"
								}

							}
, 							{
								"box" : 								{
									"fontname" : "Arial",
									"fontsize" : 12.0,
									"id" : "obj-121",
									"maxclass" : "comment",
									"numinlets" : 1,
									"numoutlets" : 0,
									"patching_rect" : [ 742.0, 767.0, 113.0, 20.0 ],
									"presentation" : 1,
									"presentation_rect" : [ 32.0, 268.0, 113.0, 20.0 ],
									"style" : "",
									"text" : "Diminished"
								}

							}
, 							{
								"box" : 								{
									"fontname" : "Arial",
									"fontsize" : 12.0,
									"id" : "obj-122",
									"maxclass" : "comment",
									"numinlets" : 1,
									"numoutlets" : 0,
									"patching_rect" : [ 773.0, 741.0, 46.0, 20.0 ],
									"presentation" : 1,
									"presentation_rect" : [ 63.0, 242.0, 46.0, 20.0 ],
									"style" : "",
									"text" : "Minor"
								}

							}
, 							{
								"box" : 								{
									"fontname" : "Arial",
									"fontsize" : 12.0,
									"id" : "obj-123",
									"maxclass" : "comment",
									"numinlets" : 1,
									"numoutlets" : 0,
									"patching_rect" : [ 773.0, 718.0, 46.0, 20.0 ],
									"presentation" : 1,
									"presentation_rect" : [ 63.0, 219.0, 46.0, 20.0 ],
									"style" : "",
									"text" : "Major"
								}

							}
, 							{
								"box" : 								{
									"fontname" : "Arial",
									"fontsize" : 10.0,
									"hidden" : 1,
									"id" : "obj-142",
									"maxclass" : "newobj",
									"numinlets" : 1,
									"numoutlets" : 0,
									"patching_rect" : [ 634.0, 803.0, 67.0, 18.0 ],
									"presentation" : 1,
									"presentation_rect" : [ 120.0, 161.0, 67.0, 18.0 ],
									"style" : "",
									"text" : "s mol_chord"
								}

							}
, 							{
								"box" : 								{
									"allowdrag" : 0,
									"bgcolor" : [ 1.0, 1.0, 1.0, 1.0 ],
									"bgfillcolor_angle" : 270.0,
									"bgfillcolor_color" : [ 1.0, 1.0, 1.0, 1.0 ],
									"bgfillcolor_color1" : [ 0.376471, 0.384314, 0.4, 1.0 ],
									"bgfillcolor_color2" : [ 0.290196, 0.309804, 0.301961, 1.0 ],
									"bgfillcolor_proportion" : 0.39,
									"bgfillcolor_type" : "color",
									"id" : "obj-61",
									"items" : [ "I+", ",", "II+", ",", "III+", ",", "IV+", ",", "V+", ",", "VI+", ",", "VII+", ",", "VIII+" ],
									"labelclick" : 1,
									"maxclass" : "umenu",
									"numinlets" : 1,
									"numoutlets" : 3,
									"outlettype" : [ "int", "", "" ],
									"parameter_enable" : 0,
									"patching_rect" : [ 620.0, 780.0, 46.0, 20.0 ],
									"presentation" : 1,
									"presentation_rect" : [ 106.0, 138.0, 46.0, 20.0 ],
									"style" : "",
									"textcolor" : [ 0.0, 0.0, 0.0, 1.0 ]
								}

							}
, 							{
								"box" : 								{
									"allowdrag" : 0,
									"bgcolor" : [ 1.0, 1.0, 1.0, 1.0 ],
									"bgfillcolor_angle" : 270.0,
									"bgfillcolor_color" : [ 1.0, 1.0, 1.0, 1.0 ],
									"bgfillcolor_color1" : [ 0.376471, 0.384314, 0.4, 1.0 ],
									"bgfillcolor_color2" : [ 0.290196, 0.309804, 0.301961, 1.0 ],
									"bgfillcolor_proportion" : 0.39,
									"bgfillcolor_type" : "color",
									"id" : "obj-62",
									"items" : [ "i0", ",", "ii0", ",", "iii0", ",", "iv0", ",", "v0", ",", "vi0", ",", "vii0", ",", "viii0" ],
									"labelclick" : 1,
									"maxclass" : "umenu",
									"numinlets" : 1,
									"numoutlets" : 3,
									"outlettype" : [ "int", "", "" ],
									"parameter_enable" : 0,
									"patching_rect" : [ 620.0, 759.0, 46.0, 20.0 ],
									"presentation" : 1,
									"presentation_rect" : [ 106.0, 117.0, 46.0, 20.0 ],
									"style" : "",
									"textcolor" : [ 0.0, 0.0, 0.0, 1.0 ]
								}

							}
, 							{
								"box" : 								{
									"allowdrag" : 0,
									"bgcolor" : [ 1.0, 1.0, 1.0, 1.0 ],
									"bgfillcolor_angle" : 270.0,
									"bgfillcolor_color" : [ 1.0, 1.0, 1.0, 1.0 ],
									"bgfillcolor_color1" : [ 0.376471, 0.384314, 0.4, 1.0 ],
									"bgfillcolor_color2" : [ 0.290196, 0.309804, 0.301961, 1.0 ],
									"bgfillcolor_proportion" : 0.39,
									"bgfillcolor_type" : "color",
									"id" : "obj-63",
									"items" : [ "i", ",", "ii", ",", "iii", ",", "iv", ",", "v", ",", "vi", ",", "vii", ",", "viii" ],
									"labelclick" : 1,
									"maxclass" : "umenu",
									"numinlets" : 1,
									"numoutlets" : 3,
									"outlettype" : [ "int", "", "" ],
									"parameter_enable" : 0,
									"patching_rect" : [ 620.0, 738.0, 46.0, 20.0 ],
									"presentation" : 1,
									"presentation_rect" : [ 106.0, 96.0, 46.0, 20.0 ],
									"style" : "",
									"textcolor" : [ 0.0, 0.0, 0.0, 1.0 ]
								}

							}
, 							{
								"box" : 								{
									"allowdrag" : 0,
									"bgcolor" : [ 1.0, 1.0, 1.0, 1.0 ],
									"bgfillcolor_angle" : 270.0,
									"bgfillcolor_color" : [ 1.0, 1.0, 1.0, 1.0 ],
									"bgfillcolor_color1" : [ 0.376471, 0.384314, 0.4, 1.0 ],
									"bgfillcolor_color2" : [ 0.290196, 0.309804, 0.301961, 1.0 ],
									"bgfillcolor_proportion" : 0.39,
									"bgfillcolor_type" : "color",
									"id" : "obj-64",
									"items" : [ "I", ",", "II", ",", "III", ",", "IV", ",", "V", ",", "VI", ",", "VII", ",", "VIII" ],
									"labelclick" : 1,
									"maxclass" : "umenu",
									"numinlets" : 1,
									"numoutlets" : 3,
									"outlettype" : [ "int", "", "" ],
									"parameter_enable" : 0,
									"patching_rect" : [ 620.0, 715.0, 46.0, 20.0 ],
									"presentation" : 1,
									"presentation_rect" : [ 106.0, 73.0, 46.0, 20.0 ],
									"style" : "",
									"textcolor" : [ 0.0, 0.0, 0.0, 1.0 ]
								}

							}
, 							{
								"box" : 								{
									"fontname" : "Arial",
									"fontsize" : 12.0,
									"id" : "obj-65",
									"linecount" : 2,
									"maxclass" : "comment",
									"numinlets" : 1,
									"numoutlets" : 0,
									"patching_rect" : [ 523.0, 682.0, 192.0, 33.0 ],
									"presentation" : 1,
									"presentation_linecount" : 2,
									"presentation_rect" : [ 9.0, 40.0, 192.0, 33.0 ],
									"style" : "",
									"text" : "Case sensitive chord qualities (Roman numeral chord functions):"
								}

							}
, 							{
								"box" : 								{
									"fontname" : "Arial",
									"fontsize" : 12.0,
									"id" : "obj-124",
									"maxclass" : "comment",
									"numinlets" : 1,
									"numoutlets" : 0,
									"patching_rect" : [ 547.0, 783.0, 112.0, 20.0 ],
									"presentation" : 1,
									"presentation_rect" : [ 33.0, 141.0, 112.0, 20.0 ],
									"style" : "",
									"text" : "Augmented"
								}

							}
, 							{
								"box" : 								{
									"fontname" : "Arial",
									"fontsize" : 12.0,
									"id" : "obj-125",
									"maxclass" : "comment",
									"numinlets" : 1,
									"numoutlets" : 0,
									"patching_rect" : [ 547.0, 762.0, 113.0, 20.0 ],
									"presentation" : 1,
									"presentation_rect" : [ 33.0, 120.0, 113.0, 20.0 ],
									"style" : "",
									"text" : "Diminished"
								}

							}
, 							{
								"box" : 								{
									"fontname" : "Arial",
									"fontsize" : 12.0,
									"id" : "obj-126",
									"maxclass" : "comment",
									"numinlets" : 1,
									"numoutlets" : 0,
									"patching_rect" : [ 582.0, 740.0, 111.0, 20.0 ],
									"presentation" : 1,
									"presentation_rect" : [ 68.0, 98.0, 111.0, 20.0 ],
									"style" : "",
									"text" : "Minor"
								}

							}
, 							{
								"box" : 								{
									"fontname" : "Arial",
									"fontsize" : 12.0,
									"id" : "obj-127",
									"maxclass" : "comment",
									"numinlets" : 1,
									"numoutlets" : 0,
									"patching_rect" : [ 582.0, 717.0, 111.0, 20.0 ],
									"presentation" : 1,
									"presentation_rect" : [ 68.0, 75.0, 111.0, 20.0 ],
									"style" : "",
									"text" : "Major"
								}

							}
, 							{
								"box" : 								{
									"fontname" : "Arial",
									"fontsize" : 10.0,
									"hidden" : 1,
									"id" : "obj-141",
									"maxclass" : "newobj",
									"numinlets" : 1,
									"numoutlets" : 0,
									"patching_rect" : [ 652.0, 636.0, 65.0, 18.0 ],
									"presentation" : 1,
									"presentation_rect" : [ 423.0, 288.0, 65.0, 18.0 ],
									"style" : "",
									"text" : "s mol_chord"
								}

							}
, 							{
								"box" : 								{
									"fontname" : "Arial",
									"fontsize" : 12.0,
									"id" : "obj-16",
									"linecount" : 3,
									"maxclass" : "comment",
									"numinlets" : 1,
									"numoutlets" : 0,
									"patching_rect" : [ 712.0, 615.0, 157.0, 47.0 ],
									"presentation" : 1,
									"presentation_linecount" : 3,
									"presentation_rect" : [ 483.0, 267.0, 157.0, 47.0 ],
									"style" : "",
									"text" : "builds a French Sixth chord (in root position) or tonicize another chord with an N 6th"
								}

							}
, 							{
								"box" : 								{
									"allowdrag" : 0,
									"bgcolor" : [ 1.0, 1.0, 1.0, 1.0 ],
									"bgfillcolor_angle" : 270.0,
									"bgfillcolor_color" : [ 1.0, 1.0, 1.0, 1.0 ],
									"bgfillcolor_color1" : [ 0.376471, 0.384314, 0.4, 1.0 ],
									"bgfillcolor_color2" : [ 0.290196, 0.309804, 0.301961, 1.0 ],
									"bgfillcolor_proportion" : 0.39,
									"bgfillcolor_type" : "color",
									"id" : "obj-17",
									"items" : [ "Fr6", ",", "Fr6/2", ",", "Fr6/3", ",", "Fr6/4", ",", "Fr6/5", ",", "Fr6/6", ",", "Fr6/7", ",", "Fr6/8" ],
									"labelclick" : 1,
									"maxclass" : "umenu",
									"numinlets" : 1,
									"numoutlets" : 3,
									"outlettype" : [ "int", "", "" ],
									"parameter_enable" : 0,
									"patching_rect" : [ 654.0, 623.0, 57.0, 20.0 ],
									"presentation" : 1,
									"presentation_rect" : [ 425.0, 275.0, 57.0, 20.0 ],
									"style" : "",
									"textcolor" : [ 0.0, 0.0, 0.0, 1.0 ]
								}

							}
, 							{
								"box" : 								{
									"fontname" : "Arial",
									"fontsize" : 12.0,
									"id" : "obj-18",
									"linecount" : 3,
									"maxclass" : "comment",
									"numinlets" : 1,
									"numoutlets" : 0,
									"patching_rect" : [ 712.0, 564.0, 174.0, 47.0 ],
									"presentation" : 1,
									"presentation_linecount" : 3,
									"presentation_rect" : [ 483.0, 216.0, 174.0, 47.0 ],
									"style" : "",
									"text" : "builds a German Sixth chord (in root position) or tonicize another chord with an N 6th"
								}

							}
, 							{
								"box" : 								{
									"fontname" : "Arial",
									"fontsize" : 12.0,
									"id" : "obj-19",
									"linecount" : 3,
									"maxclass" : "comment",
									"numinlets" : 1,
									"numoutlets" : 0,
									"patching_rect" : [ 712.0, 515.0, 170.0, 47.0 ],
									"presentation" : 1,
									"presentation_linecount" : 3,
									"presentation_rect" : [ 483.0, 167.0, 170.0, 47.0 ],
									"style" : "",
									"text" : "builds an Italian Sixth chord (in root position) or tonicize another chord with an N 6th"
								}

							}
, 							{
								"box" : 								{
									"allowdrag" : 0,
									"bgcolor" : [ 1.0, 1.0, 1.0, 1.0 ],
									"bgfillcolor_angle" : 270.0,
									"bgfillcolor_color" : [ 1.0, 1.0, 1.0, 1.0 ],
									"bgfillcolor_color1" : [ 0.376471, 0.384314, 0.4, 1.0 ],
									"bgfillcolor_color2" : [ 0.290196, 0.309804, 0.301961, 1.0 ],
									"bgfillcolor_proportion" : 0.39,
									"bgfillcolor_type" : "color",
									"id" : "obj-20",
									"items" : [ "Gr6", ",", "Gr6/2", ",", "Gr6/3", ",", "Gr6/4", ",", "Gr6/5", ",", "Gr6/6", ",", "Gr6/7", ",", "Gr6/8" ],
									"labelclick" : 1,
									"maxclass" : "umenu",
									"numinlets" : 1,
									"numoutlets" : 3,
									"outlettype" : [ "int", "", "" ],
									"parameter_enable" : 0,
									"patching_rect" : [ 654.0, 574.0, 57.0, 20.0 ],
									"presentation" : 1,
									"presentation_rect" : [ 425.0, 226.0, 57.0, 20.0 ],
									"style" : "",
									"textcolor" : [ 0.0, 0.0, 0.0, 1.0 ]
								}

							}
, 							{
								"box" : 								{
									"allowdrag" : 0,
									"bgcolor" : [ 1.0, 1.0, 1.0, 1.0 ],
									"bgfillcolor_angle" : 270.0,
									"bgfillcolor_color" : [ 1.0, 1.0, 1.0, 1.0 ],
									"bgfillcolor_color1" : [ 0.376471, 0.384314, 0.4, 1.0 ],
									"bgfillcolor_color2" : [ 0.290196, 0.309804, 0.301961, 1.0 ],
									"bgfillcolor_proportion" : 0.39,
									"bgfillcolor_type" : "color",
									"id" : "obj-43",
									"items" : [ "It6", ",", "It6/2", ",", "It6/3", ",", "It6/4", ",", "It6/5", ",", "It6/6", ",", "It6/7", ",", "It6/8" ],
									"labelclick" : 1,
									"maxclass" : "umenu",
									"numinlets" : 1,
									"numoutlets" : 3,
									"outlettype" : [ "int", "", "" ],
									"parameter_enable" : 0,
									"patching_rect" : [ 654.0, 522.0, 57.0, 20.0 ],
									"presentation" : 1,
									"presentation_rect" : [ 425.0, 174.0, 57.0, 20.0 ],
									"style" : "",
									"textcolor" : [ 0.0, 0.0, 0.0, 1.0 ]
								}

							}
, 							{
								"box" : 								{
									"fontname" : "Arial",
									"fontsize" : 12.0,
									"id" : "obj-44",
									"linecount" : 3,
									"maxclass" : "comment",
									"numinlets" : 1,
									"numoutlets" : 0,
									"patching_rect" : [ 712.0, 466.0, 179.0, 47.0 ],
									"presentation" : 1,
									"presentation_linecount" : 3,
									"presentation_rect" : [ 483.0, 118.0, 179.0, 47.0 ],
									"style" : "",
									"text" : "builds a Neopolitan Sixth chord (in root position) or tonicize another chord with an N 6th"
								}

							}
, 							{
								"box" : 								{
									"allowdrag" : 0,
									"bgcolor" : [ 1.0, 1.0, 1.0, 1.0 ],
									"bgfillcolor_angle" : 270.0,
									"bgfillcolor_color" : [ 1.0, 1.0, 1.0, 1.0 ],
									"bgfillcolor_color1" : [ 0.376471, 0.384314, 0.4, 1.0 ],
									"bgfillcolor_color2" : [ 0.290196, 0.309804, 0.301961, 1.0 ],
									"bgfillcolor_proportion" : 0.39,
									"bgfillcolor_type" : "color",
									"id" : "obj-45",
									"items" : [ "N6", ",", "N6/2", ",", "N6/3", ",", "N6/4", ",", "N6/5", ",", "N6/6", ",", "N6/7", ",", "N6/8" ],
									"labelclick" : 1,
									"maxclass" : "umenu",
									"numinlets" : 1,
									"numoutlets" : 3,
									"outlettype" : [ "int", "", "" ],
									"parameter_enable" : 0,
									"patching_rect" : [ 654.0, 477.0, 57.0, 20.0 ],
									"presentation" : 1,
									"presentation_rect" : [ 425.0, 129.0, 57.0, 20.0 ],
									"style" : "",
									"textcolor" : [ 0.0, 0.0, 0.0, 1.0 ]
								}

							}
, 							{
								"box" : 								{
									"fontname" : "Arial",
									"fontsize" : 12.0,
									"id" : "obj-88",
									"linecount" : 10,
									"maxclass" : "comment",
									"numinlets" : 1,
									"numoutlets" : 0,
									"patching_rect" : [ 433.0, 524.0, 206.0, 141.0 ],
									"presentation" : 1,
									"presentation_linecount" : 10,
									"presentation_rect" : [ 204.0, 176.0, 206.0, 141.0 ],
									"style" : "",
									"text" : "Chords qualities (major, minor, augmented, diminished) are derived from the chord function of each number. For example, in C major \"4\" will give an F Major chord. In C minor, F will give an F minor chord because of the function of chord 4 in the selected mode. The 7th, 9th, 11th, and 13th are also inferred by the selected mode."
								}

							}
, 							{
								"box" : 								{
									"angle" : 1.16,
									"grad1" : [ 0.894118, 0.917647, 1.0, 1.0 ],
									"grad2" : [ 0.66, 0.66, 0.72, 1.0 ],
									"id" : "obj-137",
									"maxclass" : "panel",
									"mode" : 1,
									"numinlets" : 1,
									"numoutlets" : 0,
									"patching_rect" : [ 556.0, 366.0, 163.0, 77.0 ],
									"presentation" : 1,
									"presentation_rect" : [ 200.0, 31.0, 163.0, 77.0 ],
									"proportion" : 0.39,
									"rounded" : 30,
									"style" : ""
								}

							}
, 							{
								"box" : 								{
									"angle" : 1.16,
									"grad1" : [ 0.894118, 0.917647, 1.0, 1.0 ],
									"grad2" : [ 0.66, 0.66, 0.72, 1.0 ],
									"id" : "obj-171",
									"maxclass" : "panel",
									"mode" : 1,
									"numinlets" : 1,
									"numoutlets" : 0,
									"patching_rect" : [ 428.0, 458.0, 212.0, 212.0 ],
									"presentation" : 1,
									"presentation_rect" : [ 199.0, 110.0, 212.0, 212.0 ],
									"proportion" : 0.39,
									"rounded" : 30,
									"style" : ""
								}

							}
, 							{
								"box" : 								{
									"angle" : 1.16,
									"grad1" : [ 0.894118, 0.917647, 1.0, 1.0 ],
									"grad2" : [ 0.66, 0.66, 0.72, 1.0 ],
									"id" : "obj-172",
									"maxclass" : "panel",
									"mode" : 1,
									"numinlets" : 1,
									"numoutlets" : 0,
									"patching_rect" : [ 720.0, 676.0, 167.0, 141.0 ],
									"presentation" : 1,
									"presentation_rect" : [ 10.0, 177.0, 185.0, 141.0 ],
									"proportion" : 0.39,
									"rounded" : 30,
									"style" : ""
								}

							}
, 							{
								"box" : 								{
									"angle" : 1.16,
									"grad1" : [ 0.894118, 0.917647, 1.0, 1.0 ],
									"grad2" : [ 0.66, 0.66, 0.72, 1.0 ],
									"id" : "obj-173",
									"maxclass" : "panel",
									"mode" : 1,
									"numinlets" : 1,
									"numoutlets" : 0,
									"patching_rect" : [ 523.0, 677.0, 187.0, 139.0 ],
									"presentation" : 1,
									"presentation_rect" : [ 9.0, 35.0, 187.0, 139.0 ],
									"proportion" : 0.39,
									"rounded" : 30,
									"style" : ""
								}

							}
, 							{
								"box" : 								{
									"angle" : 1.16,
									"grad1" : [ 0.894118, 0.917647, 1.0, 1.0 ],
									"grad2" : [ 0.66, 0.66, 0.72, 1.0 ],
									"id" : "obj-174",
									"maxclass" : "panel",
									"mode" : 1,
									"numinlets" : 1,
									"numoutlets" : 0,
									"patching_rect" : [ 645.0, 459.0, 243.0, 209.0 ],
									"presentation" : 1,
									"presentation_rect" : [ 416.0, 111.0, 243.0, 209.0 ],
									"proportion" : 0.39,
									"rounded" : 30,
									"style" : ""
								}

							}
 ],
						"lines" : [ 							{
								"patchline" : 								{
									"destination" : [ "obj-145", 0 ],
									"disabled" : 0,
									"hidden" : 1,
									"source" : [ "obj-108", 0 ]
								}

							}
, 							{
								"patchline" : 								{
									"destination" : [ "obj-164", 0 ],
									"disabled" : 0,
									"hidden" : 1,
									"source" : [ "obj-165", 0 ]
								}

							}
, 							{
								"patchline" : 								{
									"destination" : [ "obj-164", 0 ],
									"disabled" : 0,
									"hidden" : 1,
									"source" : [ "obj-166", 0 ]
								}

							}
, 							{
								"patchline" : 								{
									"destination" : [ "obj-164", 0 ],
									"disabled" : 0,
									"hidden" : 1,
									"source" : [ "obj-168", 0 ]
								}

							}
, 							{
								"patchline" : 								{
									"destination" : [ "obj-164", 0 ],
									"disabled" : 0,
									"hidden" : 1,
									"source" : [ "obj-169", 0 ]
								}

							}
, 							{
								"patchline" : 								{
									"destination" : [ "obj-141", 0 ],
									"disabled" : 0,
									"hidden" : 1,
									"source" : [ "obj-17", 1 ]
								}

							}
, 							{
								"patchline" : 								{
									"destination" : [ "obj-141", 0 ],
									"disabled" : 0,
									"hidden" : 1,
									"source" : [ "obj-20", 1 ]
								}

							}
, 							{
								"patchline" : 								{
									"destination" : [ "obj-141", 0 ],
									"disabled" : 0,
									"hidden" : 1,
									"source" : [ "obj-43", 1 ]
								}

							}
, 							{
								"patchline" : 								{
									"destination" : [ "obj-141", 0 ],
									"disabled" : 0,
									"hidden" : 1,
									"source" : [ "obj-45", 1 ]
								}

							}
, 							{
								"patchline" : 								{
									"destination" : [ "obj-144", 0 ],
									"disabled" : 0,
									"hidden" : 1,
									"source" : [ "obj-56", 1 ]
								}

							}
, 							{
								"patchline" : 								{
									"destination" : [ "obj-144", 0 ],
									"disabled" : 0,
									"hidden" : 1,
									"source" : [ "obj-57", 1 ]
								}

							}
, 							{
								"patchline" : 								{
									"destination" : [ "obj-144", 0 ],
									"disabled" : 0,
									"hidden" : 1,
									"source" : [ "obj-58", 1 ]
								}

							}
, 							{
								"patchline" : 								{
									"destination" : [ "obj-144", 0 ],
									"disabled" : 0,
									"hidden" : 1,
									"source" : [ "obj-59", 1 ]
								}

							}
, 							{
								"patchline" : 								{
									"destination" : [ "obj-142", 0 ],
									"disabled" : 0,
									"hidden" : 1,
									"source" : [ "obj-61", 1 ]
								}

							}
, 							{
								"patchline" : 								{
									"destination" : [ "obj-142", 0 ],
									"disabled" : 0,
									"hidden" : 1,
									"source" : [ "obj-62", 1 ]
								}

							}
, 							{
								"patchline" : 								{
									"destination" : [ "obj-142", 0 ],
									"disabled" : 0,
									"hidden" : 1,
									"source" : [ "obj-63", 1 ]
								}

							}
, 							{
								"patchline" : 								{
									"destination" : [ "obj-142", 0 ],
									"disabled" : 0,
									"hidden" : 1,
									"source" : [ "obj-64", 1 ]
								}

							}
, 							{
								"patchline" : 								{
									"destination" : [ "obj-146", 0 ],
									"disabled" : 0,
									"hidden" : 1,
									"source" : [ "obj-66", 1 ]
								}

							}
, 							{
								"patchline" : 								{
									"destination" : [ "obj-146", 0 ],
									"disabled" : 0,
									"hidden" : 1,
									"source" : [ "obj-72", 1 ]
								}

							}
, 							{
								"patchline" : 								{
									"destination" : [ "obj-146", 0 ],
									"disabled" : 0,
									"hidden" : 1,
									"source" : [ "obj-75", 1 ]
								}

							}
, 							{
								"patchline" : 								{
									"destination" : [ "obj-145", 0 ],
									"disabled" : 0,
									"hidden" : 1,
									"source" : [ "obj-86", 0 ]
								}

							}
, 							{
								"patchline" : 								{
									"destination" : [ "obj-145", 0 ],
									"disabled" : 0,
									"hidden" : 1,
									"source" : [ "obj-91", 0 ]
								}

							}
, 							{
								"patchline" : 								{
									"destination" : [ "obj-145", 0 ],
									"disabled" : 0,
									"hidden" : 1,
									"source" : [ "obj-92", 0 ]
								}

							}
, 							{
								"patchline" : 								{
									"destination" : [ "obj-145", 0 ],
									"disabled" : 0,
									"hidden" : 1,
									"source" : [ "obj-93", 0 ]
								}

							}
, 							{
								"patchline" : 								{
									"destination" : [ "obj-145", 0 ],
									"disabled" : 0,
									"hidden" : 1,
									"source" : [ "obj-94", 0 ]
								}

							}
, 							{
								"patchline" : 								{
									"destination" : [ "obj-145", 0 ],
									"disabled" : 0,
									"hidden" : 1,
									"source" : [ "obj-95", 0 ]
								}

							}
, 							{
								"patchline" : 								{
									"destination" : [ "obj-145", 0 ],
									"disabled" : 0,
									"hidden" : 1,
									"source" : [ "obj-96", 0 ]
								}

							}
, 							{
								"patchline" : 								{
									"destination" : [ "obj-145", 0 ],
									"disabled" : 0,
									"hidden" : 1,
									"source" : [ "obj-97", 0 ]
								}

							}
 ]
					}
,
					"patching_rect" : [ 629.0, 415.0, 129.0, 22.0 ],
					"saved_object_attributes" : 					{
						"description" : "",
						"digest" : "",
						"globalpatchername" : "",
						"style" : "",
						"tags" : ""
					}
,
					"style" : "",
					"text" : "p all_available_chords"
				}

			}
, 			{
				"box" : 				{
					"fontname" : "Arial",
					"fontsize" : 14.0,
					"id" : "obj-7",
					"linecount" : 4,
					"maxclass" : "comment",
					"numinlets" : 1,
					"numoutlets" : 0,
					"patching_rect" : [ 634.0, 609.0, 248.0, 69.0 ],
					"style" : "",
					"text" : "note that this patch has a fixed velocity of 100 going to the MIDI output. sending the message \"50\" will change the velocity for all new chords."
				}

			}
, 			{
				"box" : 				{
					"fontname" : "Arial",
					"fontsize" : 12.0,
					"hidden" : 1,
					"id" : "obj-4",
					"maxclass" : "message",
					"numinlets" : 2,
					"numoutlets" : 1,
					"outlettype" : [ "" ],
					"patching_rect" : [ 208.0, 632.0, 32.5, 22.0 ],
					"style" : "",
					"text" : "50"
				}

			}
, 			{
				"box" : 				{
					"fontname" : "Arial",
					"fontsize" : 12.0,
					"hidden" : 1,
					"id" : "obj-13",
					"maxclass" : "newobj",
					"numinlets" : 1,
					"numoutlets" : 1,
					"outlettype" : [ "" ],
					"patching_rect" : [ 106.0, 630.0, 85.0, 22.0 ],
					"style" : "",
					"text" : "loadmess 100"
				}

			}
, 			{
				"box" : 				{
					"fontname" : "Arial",
					"fontsize" : 12.0,
					"id" : "obj-12",
					"maxclass" : "comment",
					"numinlets" : 1,
					"numoutlets" : 0,
					"patching_rect" : [ 133.0, 630.0, 63.0, 20.0 ],
					"style" : "",
					"text" : "Velocity"
				}

			}
, 			{
				"box" : 				{
					"fontname" : "Arial",
					"fontsize" : 24.0,
					"id" : "obj-2",
					"linecount" : 2,
					"maxclass" : "comment",
					"numinlets" : 1,
					"numoutlets" : 0,
					"patching_rect" : [ 536.0, 529.0, 92.0, 60.0 ],
					"style" : "",
					"text" : "Chord Voicing"
				}

			}
, 			{
				"box" : 				{
					"bgmode" : 0,
					"border" : 1,
					"clickthrough" : 0,
					"enablehscroll" : 0,
					"enablevscroll" : 0,
					"id" : "obj-1",
					"lockeddragscroll" : 0,
					"maxclass" : "bpatcher",
					"name" : "EAMIR_chord_voicing.maxpat",
					"numinlets" : 8,
					"numoutlets" : 2,
					"offset" : [ 0.0, 0.0 ],
					"outlettype" : [ "", "" ],
					"patching_rect" : [ 9.0, 505.0, 525.0, 123.0 ],
					"varname" : "EAMIR_chord_voicing",
					"viewvisibility" : 1
				}

			}
, 			{
				"box" : 				{
					"fontname" : "Arial",
					"fontsize" : 24.0,
					"id" : "obj-46",
					"linecount" : 2,
					"maxclass" : "comment",
					"numinlets" : 1,
					"numoutlets" : 0,
					"patching_rect" : [ 21.0, 430.0, 143.0, 60.0 ],
					"style" : "",
					"text" : "Chord Generation"
				}

			}
, 			{
				"box" : 				{
					"fontname" : "Arial",
					"fontsize" : 12.0,
					"id" : "obj-42",
					"maxclass" : "comment",
					"numinlets" : 1,
					"numoutlets" : 0,
					"patching_rect" : [ 13.0, 373.0, 181.0, 20.0 ],
					"style" : "",
					"text" : "any chord message goes here"
				}

			}
, 			{
				"box" : 				{
					"id" : "obj-17",
					"maxclass" : "button",
					"numinlets" : 1,
					"numoutlets" : 1,
					"outlettype" : [ "bang" ],
					"patching_rect" : [ 494.0, 628.0, 20.0, 20.0 ],
					"style" : ""
				}

			}
, 			{
				"box" : 				{
					"fontname" : "Arial",
					"fontsize" : 12.0,
					"id" : "obj-18",
					"maxclass" : "comment",
					"numinlets" : 1,
					"numoutlets" : 0,
					"patching_rect" : [ 514.0, 628.0, 106.0, 20.0 ],
					"style" : "",
					"text" : "Release Sustain "
				}

			}
, 			{
				"box" : 				{
					"fontname" : "Arial",
					"fontsize" : 12.0,
					"id" : "obj-23",
					"maxclass" : "comment",
					"numinlets" : 1,
					"numoutlets" : 0,
					"patching_rect" : [ 19.0, 635.0, 61.0, 20.0 ],
					"style" : "",
					"text" : "Pitch"
				}

			}
, 			{
				"box" : 				{
					"fontname" : "Arial",
					"fontsize" : 24.0,
					"id" : "obj-15",
					"linecount" : 2,
					"maxclass" : "comment",
					"numinlets" : 1,
					"numoutlets" : 0,
					"patching_rect" : [ 419.0, 675.0, 87.0, 60.0 ],
					"style" : "",
					"text" : "MIDI Output"
				}

			}
, 			{
				"box" : 				{
					"bgmode" : 0,
					"border" : 1,
					"clickthrough" : 0,
					"enablehscroll" : 0,
					"enablevscroll" : 0,
					"id" : "obj-16",
					"lockeddragscroll" : 0,
					"maxclass" : "bpatcher",
					"name" : "EAMIR_MIDI_out.maxpat",
					"numinlets" : 5,
					"numoutlets" : 0,
					"offset" : [ 0.0, 0.0 ],
					"patching_rect" : [ 9.0, 655.0, 504.0, 173.0 ],
					"varname" : "EAMIR_MIDI_out[1]",
					"viewvisibility" : 1
				}

			}
, 			{
				"box" : 				{
					"bgmode" : 0,
					"border" : 1,
					"clickthrough" : 0,
					"enablehscroll" : 0,
					"enablevscroll" : 0,
					"id" : "obj-14",
					"lockeddragscroll" : 0,
					"maxclass" : "bpatcher",
					"name" : "EAMIR_chord_generation.maxpat",
					"numinlets" : 2,
					"numoutlets" : 9,
					"offset" : [ 0.0, 0.0 ],
					"outlettype" : [ "", "", "", "", "", "", "", "bang", "" ],
					"patching_rect" : [ 9.0, 362.0, 609.0, 137.0 ],
					"varname" : "EAMIR_chord_generation",
					"viewvisibility" : 1
				}

			}
, 			{
				"box" : 				{
					"bgmode" : 0,
					"border" : 0,
					"clickthrough" : 0,
					"enablehscroll" : 0,
					"enablevscroll" : 0,
					"id" : "obj-8",
					"lockeddragscroll" : 0,
					"maxclass" : "bpatcher",
					"name" : "EAMIR_info.maxpat",
					"numinlets" : 0,
					"numoutlets" : 0,
					"offset" : [ 0.0, 0.0 ],
					"patching_rect" : [ 630.0, 446.0, 72.0, 112.0 ],
					"viewvisibility" : 1
				}

			}
, 			{
				"box" : 				{
					"fontname" : "Arial",
					"fontsize" : 14.0,
					"id" : "obj-11",
					"linecount" : 3,
					"maxclass" : "comment",
					"numinlets" : 1,
					"numoutlets" : 0,
					"patching_rect" : [ 634.0, 553.0, 242.0, 53.0 ],
					"style" : "",
					"text" : "to change the voicings from the default settings, double click on one of the note voicing icons. "
				}

			}
, 			{
				"box" : 				{
					"fontname" : "Arial",
					"fontsize" : 14.0,
					"id" : "obj-10",
					"linecount" : 2,
					"maxclass" : "comment",
					"numinlets" : 1,
					"numoutlets" : 0,
					"patching_rect" : [ 476.0, 88.0, 240.0, 38.0 ],
					"style" : "",
					"text" : "this patch contains everything you need to harmonize notes with chords"
				}

			}
, 			{
				"box" : 				{
					"fontface" : 1,
					"fontname" : "Arial",
					"fontsize" : 28.0,
					"id" : "obj-19",
					"linecount" : 2,
					"maxclass" : "comment",
					"numinlets" : 1,
					"numoutlets" : 0,
					"patching_rect" : [ 476.0, 22.0, 241.0, 69.0 ],
					"style" : "",
					"text" : "Harmonization Basics",
					"textcolor" : [ 0.211765, 0.027451, 0.431373, 1.0 ]
				}

			}
 ],
		"lines" : [ 			{
				"patchline" : 				{
					"destination" : [ "obj-16", 0 ],
					"disabled" : 0,
					"hidden" : 0,
					"source" : [ "obj-1", 0 ]
				}

			}
, 			{
				"patchline" : 				{
					"destination" : [ "obj-16", 1 ],
					"disabled" : 0,
					"hidden" : 1,
					"source" : [ "obj-13", 0 ]
				}

			}
, 			{
				"patchline" : 				{
					"destination" : [ "obj-1", 6 ],
					"disabled" : 0,
					"hidden" : 0,
					"midpoints" : [ 461.0, 499.0, 452.214286, 499.0 ],
					"source" : [ "obj-14", 6 ]
				}

			}
, 			{
				"patchline" : 				{
					"destination" : [ "obj-1", 5 ],
					"disabled" : 0,
					"hidden" : 0,
					"midpoints" : [ 387.25, 499.0, 379.928571, 499.0 ],
					"source" : [ "obj-14", 5 ]
				}

			}
, 			{
				"patchline" : 				{
					"destination" : [ "obj-1", 4 ],
					"disabled" : 0,
					"hidden" : 0,
					"midpoints" : [ 313.5, 499.0, 307.642857, 499.0 ],
					"source" : [ "obj-14", 4 ]
				}

			}
, 			{
				"patchline" : 				{
					"destination" : [ "obj-1", 3 ],
					"disabled" : 0,
					"hidden" : 0,
					"midpoints" : [ 239.75, 499.0, 235.357143, 499.0 ],
					"source" : [ "obj-14", 3 ]
				}

			}
, 			{
				"patchline" : 				{
					"destination" : [ "obj-1", 2 ],
					"disabled" : 0,
					"hidden" : 0,
					"midpoints" : [ 166.0, 499.0, 163.071429, 499.0 ],
					"source" : [ "obj-14", 2 ]
				}

			}
, 			{
				"patchline" : 				{
					"destination" : [ "obj-1", 1 ],
					"disabled" : 0,
					"hidden" : 0,
					"midpoints" : [ 92.25, 499.0, 90.785714, 499.0 ],
					"source" : [ "obj-14", 1 ]
				}

			}
, 			{
				"patchline" : 				{
					"destination" : [ "obj-1", 0 ],
					"disabled" : 0,
					"hidden" : 0,
					"midpoints" : [ 18.5, 499.0, 18.5, 499.0 ],
					"source" : [ "obj-14", 0 ]
				}

			}
, 			{
				"patchline" : 				{
					"destination" : [ "obj-17", 0 ],
					"disabled" : 0,
					"hidden" : 0,
					"midpoints" : [ 534.75, 647.5, 503.5, 647.5 ],
					"source" : [ "obj-14", 7 ]
				}

			}
, 			{
				"patchline" : 				{
					"destination" : [ "obj-16", 4 ],
					"disabled" : 0,
					"hidden" : 0,
					"midpoints" : [ 503.5, 651.0, 503.5, 651.0 ],
					"source" : [ "obj-17", 0 ]
				}

			}
, 			{
				"patchline" : 				{
					"destination" : [ "obj-14", 0 ],
					"disabled" : 0,
					"hidden" : 0,
					"midpoints" : [ 781.071429, 351.0, 18.5, 351.0 ],
					"source" : [ "obj-21", 34 ]
				}

			}
, 			{
				"patchline" : 				{
					"destination" : [ "obj-14", 0 ],
					"disabled" : 0,
					"hidden" : 0,
					"midpoints" : [ 758.642857, 351.0, 18.5, 351.0 ],
					"source" : [ "obj-21", 33 ]
				}

			}
, 			{
				"patchline" : 				{
					"destination" : [ "obj-14", 0 ],
					"disabled" : 0,
					"hidden" : 0,
					"midpoints" : [ 736.214286, 351.0, 18.5, 351.0 ],
					"source" : [ "obj-21", 32 ]
				}

			}
, 			{
				"patchline" : 				{
					"destination" : [ "obj-14", 0 ],
					"disabled" : 0,
					"hidden" : 0,
					"midpoints" : [ 713.785714, 351.0, 18.5, 351.0 ],
					"source" : [ "obj-21", 31 ]
				}

			}
, 			{
				"patchline" : 				{
					"destination" : [ "obj-14", 0 ],
					"disabled" : 0,
					"hidden" : 0,
					"midpoints" : [ 691.357143, 351.0, 18.5, 351.0 ],
					"source" : [ "obj-21", 30 ]
				}

			}
, 			{
				"patchline" : 				{
					"destination" : [ "obj-14", 0 ],
					"disabled" : 0,
					"hidden" : 0,
					"midpoints" : [ 668.928571, 351.0, 18.5, 351.0 ],
					"source" : [ "obj-21", 29 ]
				}

			}
, 			{
				"patchline" : 				{
					"destination" : [ "obj-14", 0 ],
					"disabled" : 0,
					"hidden" : 0,
					"midpoints" : [ 646.5, 351.0, 18.5, 351.0 ],
					"source" : [ "obj-21", 28 ]
				}

			}
, 			{
				"patchline" : 				{
					"destination" : [ "obj-14", 0 ],
					"disabled" : 0,
					"hidden" : 0,
					"midpoints" : [ 624.071429, 351.0, 18.5, 351.0 ],
					"source" : [ "obj-21", 27 ]
				}

			}
, 			{
				"patchline" : 				{
					"destination" : [ "obj-14", 0 ],
					"disabled" : 0,
					"hidden" : 0,
					"midpoints" : [ 601.642857, 351.0, 18.5, 351.0 ],
					"source" : [ "obj-21", 26 ]
				}

			}
, 			{
				"patchline" : 				{
					"destination" : [ "obj-14", 0 ],
					"disabled" : 0,
					"hidden" : 0,
					"midpoints" : [ 579.214286, 351.0, 18.5, 351.0 ],
					"source" : [ "obj-21", 25 ]
				}

			}
, 			{
				"patchline" : 				{
					"destination" : [ "obj-14", 0 ],
					"disabled" : 0,
					"hidden" : 0,
					"midpoints" : [ 556.785714, 351.0, 18.5, 351.0 ],
					"source" : [ "obj-21", 24 ]
				}

			}
, 			{
				"patchline" : 				{
					"destination" : [ "obj-14", 0 ],
					"disabled" : 0,
					"hidden" : 0,
					"midpoints" : [ 534.357143, 351.0, 18.5, 351.0 ],
					"source" : [ "obj-21", 23 ]
				}

			}
, 			{
				"patchline" : 				{
					"destination" : [ "obj-14", 0 ],
					"disabled" : 0,
					"hidden" : 0,
					"midpoints" : [ 511.928571, 351.0, 18.5, 351.0 ],
					"source" : [ "obj-21", 22 ]
				}

			}
, 			{
				"patchline" : 				{
					"destination" : [ "obj-14", 0 ],
					"disabled" : 0,
					"hidden" : 0,
					"midpoints" : [ 489.5, 351.0, 18.5, 351.0 ],
					"source" : [ "obj-21", 21 ]
				}

			}
, 			{
				"patchline" : 				{
					"destination" : [ "obj-14", 0 ],
					"disabled" : 0,
					"hidden" : 0,
					"midpoints" : [ 467.071429, 351.0, 18.5, 351.0 ],
					"source" : [ "obj-21", 20 ]
				}

			}
, 			{
				"patchline" : 				{
					"destination" : [ "obj-14", 0 ],
					"disabled" : 0,
					"hidden" : 0,
					"midpoints" : [ 444.642857, 351.0, 18.5, 351.0 ],
					"source" : [ "obj-21", 19 ]
				}

			}
, 			{
				"patchline" : 				{
					"destination" : [ "obj-14", 0 ],
					"disabled" : 0,
					"hidden" : 0,
					"midpoints" : [ 422.214286, 351.0, 18.5, 351.0 ],
					"source" : [ "obj-21", 18 ]
				}

			}
, 			{
				"patchline" : 				{
					"destination" : [ "obj-14", 0 ],
					"disabled" : 0,
					"hidden" : 0,
					"midpoints" : [ 399.785714, 351.0, 18.5, 351.0 ],
					"source" : [ "obj-21", 17 ]
				}

			}
, 			{
				"patchline" : 				{
					"destination" : [ "obj-14", 0 ],
					"disabled" : 0,
					"hidden" : 0,
					"midpoints" : [ 377.357143, 351.0, 18.5, 351.0 ],
					"source" : [ "obj-21", 16 ]
				}

			}
, 			{
				"patchline" : 				{
					"destination" : [ "obj-14", 0 ],
					"disabled" : 0,
					"hidden" : 0,
					"midpoints" : [ 354.928571, 351.0, 18.5, 351.0 ],
					"source" : [ "obj-21", 15 ]
				}

			}
, 			{
				"patchline" : 				{
					"destination" : [ "obj-14", 0 ],
					"disabled" : 0,
					"hidden" : 0,
					"midpoints" : [ 332.5, 351.0, 18.5, 351.0 ],
					"source" : [ "obj-21", 14 ]
				}

			}
, 			{
				"patchline" : 				{
					"destination" : [ "obj-14", 0 ],
					"disabled" : 0,
					"hidden" : 0,
					"midpoints" : [ 310.071429, 351.0, 18.5, 351.0 ],
					"source" : [ "obj-21", 13 ]
				}

			}
, 			{
				"patchline" : 				{
					"destination" : [ "obj-14", 0 ],
					"disabled" : 0,
					"hidden" : 0,
					"midpoints" : [ 287.642857, 351.0, 18.5, 351.0 ],
					"source" : [ "obj-21", 12 ]
				}

			}
, 			{
				"patchline" : 				{
					"destination" : [ "obj-14", 0 ],
					"disabled" : 0,
					"hidden" : 0,
					"midpoints" : [ 265.214286, 351.0, 18.5, 351.0 ],
					"source" : [ "obj-21", 11 ]
				}

			}
, 			{
				"patchline" : 				{
					"destination" : [ "obj-14", 0 ],
					"disabled" : 0,
					"hidden" : 0,
					"midpoints" : [ 242.785714, 351.0, 18.5, 351.0 ],
					"source" : [ "obj-21", 10 ]
				}

			}
, 			{
				"patchline" : 				{
					"destination" : [ "obj-14", 0 ],
					"disabled" : 0,
					"hidden" : 0,
					"midpoints" : [ 220.357143, 351.0, 18.5, 351.0 ],
					"source" : [ "obj-21", 9 ]
				}

			}
, 			{
				"patchline" : 				{
					"destination" : [ "obj-14", 0 ],
					"disabled" : 0,
					"hidden" : 0,
					"midpoints" : [ 197.928571, 351.0, 18.5, 351.0 ],
					"source" : [ "obj-21", 8 ]
				}

			}
, 			{
				"patchline" : 				{
					"destination" : [ "obj-14", 0 ],
					"disabled" : 0,
					"hidden" : 0,
					"midpoints" : [ 175.5, 351.0, 18.5, 351.0 ],
					"source" : [ "obj-21", 7 ]
				}

			}
, 			{
				"patchline" : 				{
					"destination" : [ "obj-14", 0 ],
					"disabled" : 0,
					"hidden" : 0,
					"midpoints" : [ 153.071429, 351.0, 18.5, 351.0 ],
					"source" : [ "obj-21", 6 ]
				}

			}
, 			{
				"patchline" : 				{
					"destination" : [ "obj-14", 0 ],
					"disabled" : 0,
					"hidden" : 0,
					"midpoints" : [ 130.642857, 351.0, 18.5, 351.0 ],
					"source" : [ "obj-21", 5 ]
				}

			}
, 			{
				"patchline" : 				{
					"destination" : [ "obj-14", 0 ],
					"disabled" : 0,
					"hidden" : 0,
					"midpoints" : [ 108.214286, 351.0, 18.5, 351.0 ],
					"source" : [ "obj-21", 4 ]
				}

			}
, 			{
				"patchline" : 				{
					"destination" : [ "obj-14", 0 ],
					"disabled" : 0,
					"hidden" : 0,
					"midpoints" : [ 85.785714, 351.0, 18.5, 351.0 ],
					"source" : [ "obj-21", 3 ]
				}

			}
, 			{
				"patchline" : 				{
					"destination" : [ "obj-14", 0 ],
					"disabled" : 0,
					"hidden" : 0,
					"midpoints" : [ 63.357143, 351.0, 18.5, 351.0 ],
					"source" : [ "obj-21", 2 ]
				}

			}
, 			{
				"patchline" : 				{
					"destination" : [ "obj-14", 0 ],
					"disabled" : 0,
					"hidden" : 0,
					"midpoints" : [ 40.928571, 351.0, 18.5, 351.0 ],
					"source" : [ "obj-21", 1 ]
				}

			}
, 			{
				"patchline" : 				{
					"destination" : [ "obj-14", 0 ],
					"disabled" : 0,
					"hidden" : 0,
					"midpoints" : [ 18.5, 351.0, 18.5, 351.0 ],
					"source" : [ "obj-21", 0 ]
				}

			}
, 			{
				"patchline" : 				{
					"destination" : [ "obj-21", 1 ],
					"disabled" : 0,
					"hidden" : 0,
					"midpoints" : [ 103.5, 147.0, 411.0, 147.0 ],
					"source" : [ "obj-31", 1 ]
				}

			}
, 			{
				"patchline" : 				{
					"destination" : [ "obj-21", 0 ],
					"disabled" : 0,
					"hidden" : 0,
					"source" : [ "obj-31", 0 ]
				}

			}
, 			{
				"patchline" : 				{
					"destination" : [ "obj-14", 0 ],
					"disabled" : 0,
					"hidden" : 0,
					"midpoints" : [ 637.5, 415.0, 622.0, 415.0, 622.0, 352.0, 18.5, 352.0 ],
					"source" : [ "obj-32", 0 ]
				}

			}
, 			{
				"patchline" : 				{
					"destination" : [ "obj-16", 1 ],
					"disabled" : 0,
					"hidden" : 1,
					"midpoints" : [ 217.5, 652.0, 139.75, 652.0 ],
					"source" : [ "obj-4", 0 ]
				}

			}
 ],
		"dependency_cache" : [ 			{
				"name" : "EAMIR_info.maxpat",
				"bootpath" : "~/Documents/Max 7/Packages/EAMIR SDK/patchers/EAMIR_modules",
				"type" : "JSON",
				"implicit" : 1
			}
, 			{
				"name" : "EAMIR_logo.png",
				"bootpath" : "~/Documents/Max 7/Packages/EAMIR SDK/patchers",
				"type" : "PNG ",
				"implicit" : 1
			}
, 			{
				"name" : "EAMIR_chord_generation.maxpat",
				"bootpath" : "~/Documents/Max 7/Packages/EAMIR SDK/patchers/EAMIR_modules",
				"type" : "JSON",
				"implicit" : 1
			}
, 			{
				"name" : "EAMIR_MIDI_out.maxpat",
				"bootpath" : "~/Documents/Max 7/Packages/EAMIR SDK/patchers/EAMIR_modules",
				"type" : "JSON",
				"implicit" : 1
			}
, 			{
				"name" : "EAMIR_chord_voicing.maxpat",
				"bootpath" : "~/Documents/Max 7/Packages/EAMIR SDK/patchers/EAMIR_modules",
				"type" : "JSON",
				"implicit" : 1
			}
, 			{
				"name" : "EAMIR_pcmatch.maxpat",
				"bootpath" : "~/Documents/Max 7/Packages/EAMIR SDK/patchers/EAMIR_modules",
				"type" : "JSON",
				"implicit" : 1
			}
, 			{
				"name" : "modal_pc_match.maxpat",
				"bootpath" : "~/Documents/Max 7/Packages/EAMIR SDK/externals/Modal_Object_Library/modal_pc_match/modal_pc_match_1.1",
				"type" : "JSON",
				"implicit" : 1
			}
, 			{
				"name" : "modal_pc_match_core.pat",
				"bootpath" : "~/Documents/Max 7/Packages/EAMIR SDK/externals/Modal_Object_Library/aux_files/p_data",
				"type" : "maxb",
				"implicit" : 1
			}
, 			{
				"name" : "modal_dpc_match.pat",
				"bootpath" : "~/Documents/Max 7/Packages/EAMIR SDK/externals/Modal_Object_Library/aux_files/p_data",
				"type" : "maxb",
				"implicit" : 1
			}
, 			{
				"name" : "modal_degree_getter.pat",
				"bootpath" : "~/Documents/Max 7/Packages/EAMIR SDK/externals/Modal_Object_Library/aux_files/p_data",
				"type" : "maxb",
				"implicit" : 1
			}
, 			{
				"name" : "EAMIR_pc_match_messages.txt",
				"bootpath" : "~/Documents/Max 7/Packages/EAMIR SDK/patchers/EAMIR_support/p_data/pc_match",
				"type" : "TEXT",
				"implicit" : 1
			}
, 			{
				"name" : "EAMIR_MIDI_in.maxpat",
				"bootpath" : "~/Documents/Max 7/Packages/EAMIR SDK/patchers/EAMIR_modules",
				"type" : "JSON",
				"implicit" : 1
			}
, 			{
				"name" : "modal_triad.mxo",
				"type" : "iLaX"
			}
, 			{
				"name" : "modal_change.mxo",
				"type" : "iLaX"
			}
 ],
		"autosave" : 0,
		"styles" : [ 			{
				"name" : "EAMIR",
				"newobj" : 				{
					"accentcolor" : [ 0.466667, 0.254902, 0.607843, 1.0 ],
					"fontface" : [ 0 ],
					"textcolor_inverse" : [ 0.231373, 0.121569, 0.305882, 1.0 ],
					"bgcolor" : [ 0.93025, 0.756547, 1.0, 0.25 ]
				}
,
				"default" : 				{
					"accentcolor" : [ 0.466667, 0.254902, 0.607843, 1.0 ],
					"elementcolor" : [ 0.376471, 0.384314, 0.4, 0.39 ],
					"color" : [ 0.8, 0.4, 1.0, 1.0 ],
					"bgfillcolor" : 					{
						"type" : "color",
						"color" : [ 0.850253, 0.837059, 0.878431, 1.0 ],
						"color1" : [ 1.0, 1.0, 1.0, 1.0 ],
						"color2" : [ 0.290196, 0.309804, 0.301961, 1.0 ],
						"angle" : 270.0,
						"proportion" : 0.39,
						"autogradient" : 0
					}
,
					"fontface" : [ 0 ],
					"textcolor_inverse" : [ 0.231373, 0.121569, 0.305882, 1.0 ],
					"patchlinecolor" : [ 0.231373, 0.121569, 0.305882, 0.9 ],
					"bgcolor" : [ 0.929412, 0.756863, 1.0, 1.0 ]
				}
,
				"umenu" : 				{
					"bgfillcolor" : 					{
						"type" : "color",
						"color" : [ 0.701961, 0.415686, 0.886275, 0.37 ],
						"color1" : [ 1.0, 1.0, 1.0, 1.0 ],
						"color2" : [ 0.290196, 0.309804, 0.301961, 1.0 ],
						"angle" : 270.0,
						"proportion" : 0.39,
						"autogradient" : 0
					}
,
					"fontface" : [ 0 ],
					"textcolor_inverse" : [ 0.231373, 0.121569, 0.305882, 1.0 ]
				}
,
				"parentstyle" : "",
				"multi" : 0
			}
 ]
	}

}
