{
	"patcher" : 	{
		"fileversion" : 1,
		"rect" : [ 77.0, 128.0, 1094.0, 506.0 ],
		"bglocked" : 0,
		"defrect" : [ 77.0, 128.0, 1094.0, 506.0 ],
		"openrect" : [ 0.0, 0.0, 0.0, 0.0 ],
		"openinpresentation" : 1,
		"default_fontsize" : 12.0,
		"default_fontface" : 0,
		"default_fontname" : "Arial",
		"gridonopen" : 0,
		"gridsize" : [ 15.0, 15.0 ],
		"gridsnaponopen" : 0,
		"toolbarvisible" : 1,
		"boxanimatetime" : 200,
		"imprint" : 0,
		"enablehscroll" : 1,
		"enablevscroll" : 1,
		"devicewidth" : 0.0,
		"boxes" : [ 			{
				"box" : 				{
					"maxclass" : "newobj",
					"text" : "p establish_defaults",
					"fontname" : "Arial",
					"numinlets" : 1,
					"numoutlets" : 0,
					"patching_rect" : [ 132.0, 296.0, 81.0, 16.0 ],
					"fontsize" : 8.0,
					"id" : "obj-14",
					"patcher" : 					{
						"fileversion" : 1,
						"rect" : [ 0.0, 0.0, 640.0, 480.0 ],
						"bglocked" : 0,
						"defrect" : [ 0.0, 0.0, 640.0, 480.0 ],
						"openrect" : [ 0.0, 0.0, 0.0, 0.0 ],
						"openinpresentation" : 0,
						"default_fontsize" : 12.0,
						"default_fontface" : 0,
						"default_fontname" : "Arial",
						"gridonopen" : 0,
						"gridsize" : [ 15.0, 15.0 ],
						"gridsnaponopen" : 0,
						"toolbarvisible" : 1,
						"boxanimatetime" : 200,
						"imprint" : 0,
						"enablehscroll" : 1,
						"enablevscroll" : 1,
						"devicewidth" : 0.0,
						"boxes" : [ 							{
								"box" : 								{
									"maxclass" : "message",
									"text" : "55",
									"fontname" : "Arial",
									"numinlets" : 2,
									"numoutlets" : 1,
									"patching_rect" : [ 50.0, 100.0, 32.5, 18.0 ],
									"fontsize" : 12.0,
									"id" : "obj-29",
									"outlettype" : [ "" ]
								}

							}
, 							{
								"box" : 								{
									"maxclass" : "newobj",
									"text" : "change",
									"fontname" : "Arial",
									"numinlets" : 1,
									"numoutlets" : 3,
									"patching_rect" : [ 50.0, 123.0, 50.0, 20.0 ],
									"fontsize" : 12.0,
									"id" : "obj-22",
									"outlettype" : [ "", "int", "int" ]
								}

							}
, 							{
								"box" : 								{
									"maxclass" : "button",
									"numinlets" : 1,
									"numoutlets" : 1,
									"patching_rect" : [ 50.0, 147.0, 20.0, 20.0 ],
									"id" : "obj-27",
									"outlettype" : [ "bang" ]
								}

							}
, 							{
								"box" : 								{
									"maxclass" : "newobj",
									"text" : "t b b",
									"fontname" : "Arial",
									"numinlets" : 1,
									"numoutlets" : 2,
									"patching_rect" : [ 50.0, 171.0, 34.0, 20.0 ],
									"fontsize" : 12.0,
									"id" : "obj-25",
									"outlettype" : [ "bang", "bang" ]
								}

							}
, 							{
								"box" : 								{
									"maxclass" : "comment",
									"text" : "Restore MIDI defaults",
									"fontname" : "Arial",
									"numinlets" : 1,
									"numoutlets" : 0,
									"patching_rect" : [ 67.0, 245.0, 150.0, 20.0 ],
									"fontsize" : 12.0,
									"id" : "obj-15"
								}

							}
, 							{
								"box" : 								{
									"maxclass" : "newobj",
									"text" : "s eamir_MIDI_out_default",
									"fontname" : "Arial",
									"numinlets" : 1,
									"numoutlets" : 0,
									"patching_rect" : [ 50.0, 268.0, 125.0, 18.0 ],
									"fontsize" : 10.0,
									"id" : "obj-16"
								}

							}
, 							{
								"box" : 								{
									"maxclass" : "hint",
									"hint" : "restores MIDI output, device, and timbre to default. Otherwise, the software will load the last settings you used when it loads up.",
									"numinlets" : 1,
									"numoutlets" : 0,
									"delay" : 1,
									"patching_rect" : [ 51.0, 245.0, 20.0, 21.0 ],
									"id" : "obj-17"
								}

							}
, 							{
								"box" : 								{
									"maxclass" : "button",
									"numinlets" : 1,
									"numoutlets" : 1,
									"patching_rect" : [ 50.0, 245.0, 20.0, 20.0 ],
									"id" : "obj-18",
									"outlettype" : [ "bang" ],
									"blinkcolor" : [ 1.0, 0.0, 0.0, 1.0 ]
								}

							}
, 							{
								"box" : 								{
									"maxclass" : "comment",
									"text" : "Restore Moustate defaults",
									"fontname" : "Arial",
									"numinlets" : 1,
									"numoutlets" : 0,
									"patching_rect" : [ 82.0, 197.0, 150.0, 20.0 ],
									"fontsize" : 12.0,
									"id" : "obj-19"
								}

							}
, 							{
								"box" : 								{
									"maxclass" : "newobj",
									"text" : "s eamir_moustate",
									"fontname" : "Arial",
									"numinlets" : 1,
									"numoutlets" : 0,
									"patching_rect" : [ 65.0, 220.0, 90.0, 18.0 ],
									"fontsize" : 10.0,
									"id" : "obj-23"
								}

							}
, 							{
								"box" : 								{
									"maxclass" : "button",
									"numinlets" : 1,
									"numoutlets" : 1,
									"patching_rect" : [ 65.0, 197.0, 20.0, 20.0 ],
									"id" : "obj-24",
									"outlettype" : [ "bang" ],
									"blinkcolor" : [ 1.0, 0.0, 0.0, 1.0 ]
								}

							}
, 							{
								"box" : 								{
									"maxclass" : "inlet",
									"numinlets" : 0,
									"numoutlets" : 1,
									"patching_rect" : [ 50.0, 40.0, 25.0, 25.0 ],
									"id" : "obj-12",
									"outlettype" : [ "int" ],
									"comment" : ""
								}

							}
 ],
						"lines" : [ 							{
								"patchline" : 								{
									"source" : [ "obj-18", 0 ],
									"destination" : [ "obj-16", 0 ],
									"hidden" : 0,
									"midpoints" : [  ]
								}

							}
, 							{
								"patchline" : 								{
									"source" : [ "obj-27", 0 ],
									"destination" : [ "obj-25", 0 ],
									"hidden" : 0,
									"midpoints" : [  ]
								}

							}
, 							{
								"patchline" : 								{
									"source" : [ "obj-25", 0 ],
									"destination" : [ "obj-18", 0 ],
									"hidden" : 0,
									"midpoints" : [  ]
								}

							}
, 							{
								"patchline" : 								{
									"source" : [ "obj-25", 1 ],
									"destination" : [ "obj-24", 0 ],
									"hidden" : 0,
									"midpoints" : [  ]
								}

							}
, 							{
								"patchline" : 								{
									"source" : [ "obj-24", 0 ],
									"destination" : [ "obj-23", 0 ],
									"hidden" : 0,
									"midpoints" : [  ]
								}

							}
, 							{
								"patchline" : 								{
									"source" : [ "obj-29", 0 ],
									"destination" : [ "obj-22", 0 ],
									"hidden" : 0,
									"midpoints" : [  ]
								}

							}
, 							{
								"patchline" : 								{
									"source" : [ "obj-22", 0 ],
									"destination" : [ "obj-27", 0 ],
									"hidden" : 0,
									"midpoints" : [  ]
								}

							}
, 							{
								"patchline" : 								{
									"source" : [ "obj-12", 0 ],
									"destination" : [ "obj-29", 0 ],
									"hidden" : 0,
									"midpoints" : [  ]
								}

							}
 ]
					}
,
					"saved_object_attributes" : 					{
						"default_fontname" : "Arial",
						"fontname" : "Arial",
						"default_fontsize" : 12.0,
						"fontface" : 0,
						"fontsize" : 12.0,
						"default_fontface" : 0,
						"globalpatchername" : ""
					}

				}

			}
, 			{
				"box" : 				{
					"maxclass" : "outlet",
					"numinlets" : 1,
					"numoutlets" : 0,
					"patching_rect" : [ 37.0, 327.0, 25.0, 25.0 ],
					"id" : "obj-2",
					"comment" : "mouse button X = click"
				}

			}
, 			{
				"box" : 				{
					"maxclass" : "newobj",
					"text" : "r eamir_moustate",
					"fontname" : "Arial",
					"numinlets" : 0,
					"numoutlets" : 1,
					"patching_rect" : [ 68.0, 65.0, 88.0, 18.0 ],
					"fontsize" : 10.0,
					"id" : "obj-50",
					"outlettype" : [ "" ]
				}

			}
, 			{
				"box" : 				{
					"maxclass" : "newobj",
					"text" : "loadbang",
					"fontname" : "Arial",
					"numinlets" : 1,
					"numoutlets" : 1,
					"patching_rect" : [ 799.0, 168.0, 43.0, 16.0 ],
					"fontsize" : 8.0,
					"id" : "obj-320",
					"outlettype" : [ "bang" ]
				}

			}
, 			{
				"box" : 				{
					"maxclass" : "message",
					"text" : "patcher \"EAMIR Mousestate\"",
					"fontname" : "Arial",
					"numinlets" : 2,
					"numoutlets" : 1,
					"patching_rect" : [ 799.0, 187.0, 161.0, 18.0 ],
					"fontsize" : 11.595187,
					"id" : "obj-316",
					"outlettype" : [ "" ]
				}

			}
, 			{
				"box" : 				{
					"maxclass" : "newobj",
					"text" : "thispatcher",
					"fontname" : "Arial",
					"numinlets" : 1,
					"numoutlets" : 2,
					"patching_rect" : [ 799.0, 211.0, 50.0, 16.0 ],
					"fontsize" : 8.0,
					"id" : "obj-309",
					"outlettype" : [ "", "" ],
					"save" : [ "#N", "thispatcher", ";", "#Q", "end", ";" ]
				}

			}
, 			{
				"box" : 				{
					"maxclass" : "comment",
					"text" : "Restore Mousestate defaults",
					"linecount" : 2,
					"fontname" : "Arial",
					"presentation_rect" : [ 28.0, 80.0, 166.0, 20.0 ],
					"numinlets" : 1,
					"numoutlets" : 0,
					"patching_rect" : [ 819.0, 88.0, 150.0, 34.0 ],
					"presentation" : 1,
					"fontsize" : 12.0,
					"id" : "obj-198"
				}

			}
, 			{
				"box" : 				{
					"maxclass" : "comment",
					"text" : "vj@vjmanzo.com",
					"fontname" : "Arial",
					"numinlets" : 1,
					"hidden" : 1,
					"numoutlets" : 0,
					"patching_rect" : [ 852.0, 367.0, 85.0, 18.0 ],
					"fontsize" : 10.0,
					"id" : "obj-196"
				}

			}
, 			{
				"box" : 				{
					"maxclass" : "newobj",
					"text" : "p launchURL",
					"fontname" : "Arial",
					"numinlets" : 1,
					"hidden" : 1,
					"numoutlets" : 0,
					"patching_rect" : [ 799.400024, 403.200073, 62.0, 17.0 ],
					"fontsize" : 9.0,
					"id" : "obj-190",
					"patcher" : 					{
						"fileversion" : 1,
						"rect" : [ 15.0, 55.0, 600.0, 426.0 ],
						"bglocked" : 0,
						"defrect" : [ 15.0, 55.0, 600.0, 426.0 ],
						"openrect" : [ 0.0, 0.0, 0.0, 0.0 ],
						"openinpresentation" : 0,
						"default_fontsize" : 12.0,
						"default_fontface" : 0,
						"default_fontname" : "Arial",
						"gridonopen" : 0,
						"gridsize" : [ 15.0, 15.0 ],
						"gridsnaponopen" : 0,
						"toolbarvisible" : 1,
						"boxanimatetime" : 200,
						"imprint" : 0,
						"enablehscroll" : 1,
						"enablevscroll" : 1,
						"devicewidth" : 0.0,
						"boxes" : [ 							{
								"box" : 								{
									"maxclass" : "newobj",
									"text" : "t b s",
									"fontname" : "Arial",
									"numinlets" : 1,
									"numoutlets" : 2,
									"patching_rect" : [ 50.0, 50.0, 27.0, 17.0 ],
									"fontsize" : 9.0,
									"id" : "obj-1",
									"outlettype" : [ "bang", "" ]
								}

							}
, 							{
								"box" : 								{
									"maxclass" : "message",
									"text" : ";\rmax launch_browser http://www.vjmanzo.com/portfolio",
									"linecount" : 2,
									"fontname" : "Arial",
									"numinlets" : 2,
									"numoutlets" : 1,
									"patching_rect" : [ 67.0, 108.0, 344.0, 25.0 ],
									"fontsize" : 9.0,
									"id" : "obj-2",
									"outlettype" : [ "" ]
								}

							}
, 							{
								"box" : 								{
									"maxclass" : "newobj",
									"text" : "sprintf set \\; max launch_browser %s",
									"fontname" : "Arial",
									"numinlets" : 1,
									"numoutlets" : 1,
									"patching_rect" : [ 67.0, 79.0, 164.0, 17.0 ],
									"fontsize" : 9.0,
									"id" : "obj-3",
									"outlettype" : [ "" ]
								}

							}
, 							{
								"box" : 								{
									"maxclass" : "inlet",
									"numinlets" : 0,
									"numoutlets" : 1,
									"patching_rect" : [ 50.0, 30.0, 15.0, 15.0 ],
									"id" : "obj-4",
									"outlettype" : [ "" ],
									"comment" : ""
								}

							}
 ],
						"lines" : [ 							{
								"patchline" : 								{
									"source" : [ "obj-4", 0 ],
									"destination" : [ "obj-1", 0 ],
									"hidden" : 0,
									"midpoints" : [  ]
								}

							}
, 							{
								"patchline" : 								{
									"source" : [ "obj-1", 1 ],
									"destination" : [ "obj-3", 0 ],
									"hidden" : 0,
									"midpoints" : [  ]
								}

							}
, 							{
								"patchline" : 								{
									"source" : [ "obj-3", 0 ],
									"destination" : [ "obj-2", 0 ],
									"hidden" : 0,
									"midpoints" : [  ]
								}

							}
, 							{
								"patchline" : 								{
									"source" : [ "obj-1", 0 ],
									"destination" : [ "obj-2", 0 ],
									"hidden" : 0,
									"midpoints" : [ 59.5, 102.0, 76.5, 102.0 ]
								}

							}
 ]
					}
,
					"saved_object_attributes" : 					{
						"default_fontname" : "Arial",
						"fontname" : "Arial",
						"default_fontsize" : 12.0,
						"fontface" : 0,
						"fontsize" : 12.0,
						"default_fontface" : 0,
						"globalpatchername" : ""
					}

				}

			}
, 			{
				"box" : 				{
					"maxclass" : "message",
					"text" : "http://www.vjmanzo.com/portfolio",
					"bgcolor2" : [ 1.0, 1.0, 1.0, 1.0 ],
					"gradient" : 1,
					"fontname" : "Arial",
					"numinlets" : 2,
					"hidden" : 1,
					"numoutlets" : 1,
					"patching_rect" : [ 796.400024, 386.199951, 157.0, 16.0 ],
					"fontsize" : 10.0,
					"id" : "obj-191",
					"outlettype" : [ "" ],
					"bgcolor" : [ 0.792157, 0.898039, 1.0, 1.0 ]
				}

			}
, 			{
				"box" : 				{
					"maxclass" : "ubutton",
					"handoff" : "",
					"presentation_rect" : [ 440.0, 71.0, 57.0, 36.0 ],
					"numinlets" : 1,
					"numoutlets" : 4,
					"patching_rect" : [ 796.0, 344.0, 142.0, 40.0 ],
					"presentation" : 1,
					"id" : "obj-192",
					"outlettype" : [ "bang", "bang", "", "int" ]
				}

			}
, 			{
				"box" : 				{
					"maxclass" : "newobj",
					"text" : "p launchURL",
					"fontname" : "Arial",
					"numinlets" : 1,
					"hidden" : 1,
					"numoutlets" : 0,
					"patching_rect" : [ 800.400024, 261.200073, 62.0, 17.0 ],
					"fontsize" : 9.0,
					"id" : "obj-101",
					"patcher" : 					{
						"fileversion" : 1,
						"rect" : [ 15.0, 55.0, 600.0, 426.0 ],
						"bglocked" : 0,
						"defrect" : [ 15.0, 55.0, 600.0, 426.0 ],
						"openrect" : [ 0.0, 0.0, 0.0, 0.0 ],
						"openinpresentation" : 0,
						"default_fontsize" : 12.0,
						"default_fontface" : 0,
						"default_fontname" : "Arial",
						"gridonopen" : 0,
						"gridsize" : [ 15.0, 15.0 ],
						"gridsnaponopen" : 0,
						"toolbarvisible" : 1,
						"boxanimatetime" : 200,
						"imprint" : 0,
						"enablehscroll" : 1,
						"enablevscroll" : 1,
						"devicewidth" : 0.0,
						"boxes" : [ 							{
								"box" : 								{
									"maxclass" : "newobj",
									"text" : "t b s",
									"fontname" : "Arial",
									"numinlets" : 1,
									"numoutlets" : 2,
									"patching_rect" : [ 50.0, 50.0, 27.0, 17.0 ],
									"fontsize" : 9.0,
									"id" : "obj-1",
									"outlettype" : [ "bang", "" ]
								}

							}
, 							{
								"box" : 								{
									"maxclass" : "message",
									"text" : ";\rmax launch_browser http://www.eamir.org",
									"linecount" : 2,
									"fontname" : "Arial",
									"numinlets" : 2,
									"numoutlets" : 1,
									"patching_rect" : [ 67.0, 108.0, 344.0, 25.0 ],
									"fontsize" : 9.0,
									"id" : "obj-2",
									"outlettype" : [ "" ]
								}

							}
, 							{
								"box" : 								{
									"maxclass" : "newobj",
									"text" : "sprintf set \\; max launch_browser %s",
									"fontname" : "Arial",
									"numinlets" : 1,
									"numoutlets" : 1,
									"patching_rect" : [ 67.0, 79.0, 164.0, 17.0 ],
									"fontsize" : 9.0,
									"id" : "obj-3",
									"outlettype" : [ "" ]
								}

							}
, 							{
								"box" : 								{
									"maxclass" : "inlet",
									"numinlets" : 0,
									"numoutlets" : 1,
									"patching_rect" : [ 50.0, 30.0, 15.0, 15.0 ],
									"id" : "obj-4",
									"outlettype" : [ "" ],
									"comment" : ""
								}

							}
 ],
						"lines" : [ 							{
								"patchline" : 								{
									"source" : [ "obj-4", 0 ],
									"destination" : [ "obj-1", 0 ],
									"hidden" : 0,
									"midpoints" : [  ]
								}

							}
, 							{
								"patchline" : 								{
									"source" : [ "obj-1", 1 ],
									"destination" : [ "obj-3", 0 ],
									"hidden" : 0,
									"midpoints" : [  ]
								}

							}
, 							{
								"patchline" : 								{
									"source" : [ "obj-3", 0 ],
									"destination" : [ "obj-2", 0 ],
									"hidden" : 0,
									"midpoints" : [  ]
								}

							}
, 							{
								"patchline" : 								{
									"source" : [ "obj-1", 0 ],
									"destination" : [ "obj-2", 0 ],
									"hidden" : 0,
									"midpoints" : [ 59.5, 102.0, 76.5, 102.0 ]
								}

							}
 ]
					}
,
					"saved_object_attributes" : 					{
						"default_fontname" : "Arial",
						"fontname" : "Arial",
						"default_fontsize" : 12.0,
						"fontface" : 0,
						"fontsize" : 12.0,
						"default_fontface" : 0,
						"globalpatchername" : ""
					}

				}

			}
, 			{
				"box" : 				{
					"maxclass" : "message",
					"text" : "http://www.eamir.org",
					"bgcolor2" : [ 1.0, 1.0, 1.0, 1.0 ],
					"gradient" : 1,
					"fontname" : "Arial",
					"numinlets" : 2,
					"hidden" : 1,
					"numoutlets" : 1,
					"patching_rect" : [ 797.400024, 244.200012, 102.0, 16.0 ],
					"fontsize" : 10.0,
					"id" : "obj-132",
					"outlettype" : [ "" ],
					"bgcolor" : [ 0.917647, 0.85098, 1.0, 1.0 ]
				}

			}
, 			{
				"box" : 				{
					"maxclass" : "ubutton",
					"handoff" : "",
					"presentation_rect" : [ 439.0, 6.0, 60.0, 61.0 ],
					"numinlets" : 1,
					"hltcolor" : [ 0.305882, 0.0, 0.407843, 0.501961 ],
					"numoutlets" : 4,
					"patching_rect" : [ 797.0, 281.0, 64.0, 62.0 ],
					"presentation" : 1,
					"id" : "obj-188",
					"outlettype" : [ "bang", "bang", "", "int" ]
				}

			}
, 			{
				"box" : 				{
					"maxclass" : "comment",
					"text" : "EAMIR\ncreated by\nV.J. Manzo",
					"linecount" : 3,
					"presentation_linecount" : 3,
					"fontname" : "Arial",
					"presentation_rect" : [ 436.400024, 68.200073, 62.0, 41.0 ],
					"numinlets" : 1,
					"numoutlets" : 0,
					"patching_rect" : [ 796.400024, 344.200073, 143.0, 41.0 ],
					"presentation" : 1,
					"fontsize" : 10.0,
					"id" : "obj-189"
				}

			}
, 			{
				"box" : 				{
					"maxclass" : "fpic",
					"presentation_rect" : [ 436.0, 5.0, 65.0, 63.0 ],
					"numinlets" : 1,
					"numoutlets" : 0,
					"patching_rect" : [ 796.0, 281.0, 65.0, 63.0 ],
					"pic" : "EAMIR_logo.png",
					"presentation" : 1,
					"id" : "obj-185"
				}

			}
, 			{
				"box" : 				{
					"maxclass" : "newobj",
					"text" : "s eamir_moustate",
					"fontname" : "Arial",
					"numinlets" : 1,
					"numoutlets" : 0,
					"patching_rect" : [ 797.0, 123.0, 90.0, 18.0 ],
					"fontsize" : 10.0,
					"id" : "obj-76"
				}

			}
, 			{
				"box" : 				{
					"maxclass" : "button",
					"presentation_rect" : [ 11.0, 80.0, 20.0, 20.0 ],
					"numinlets" : 1,
					"numoutlets" : 1,
					"patching_rect" : [ 797.0, 100.0, 20.0, 20.0 ],
					"presentation" : 1,
					"id" : "obj-75",
					"outlettype" : [ "bang" ],
					"blinkcolor" : [ 1.0, 0.0, 0.0, 1.0 ]
				}

			}
, 			{
				"box" : 				{
					"maxclass" : "message",
					"text" : "1",
					"fontname" : "Arial",
					"numinlets" : 2,
					"numoutlets" : 1,
					"patching_rect" : [ 68.0, 113.0, 32.5, 18.0 ],
					"fontsize" : 12.0,
					"id" : "obj-49",
					"outlettype" : [ "" ]
				}

			}
, 			{
				"box" : 				{
					"maxclass" : "button",
					"numinlets" : 1,
					"numoutlets" : 1,
					"patching_rect" : [ 68.0, 89.0, 20.0, 20.0 ],
					"id" : "obj-45",
					"outlettype" : [ "bang" ]
				}

			}
, 			{
				"box" : 				{
					"maxclass" : "comment",
					"text" : "Maximum\nVertical Position",
					"linecount" : 3,
					"presentation_linecount" : 2,
					"fontname" : "Arial",
					"presentation_rect" : [ 258.0, 39.0, 147.0, 33.0 ],
					"numinlets" : 1,
					"numoutlets" : 0,
					"patching_rect" : [ 690.0, 244.0, 62.0, 46.0 ],
					"presentation" : 1,
					"fontsize" : 11.595187,
					"id" : "obj-42"
				}

			}
, 			{
				"box" : 				{
					"maxclass" : "comment",
					"text" : "Maximum\nHorizontal Position",
					"linecount" : 3,
					"presentation_linecount" : 2,
					"fontname" : "Arial",
					"presentation_rect" : [ 56.0, 34.0, 131.0, 33.0 ],
					"numinlets" : 1,
					"numoutlets" : 0,
					"patching_rect" : [ 524.0, 241.0, 65.0, 46.0 ],
					"presentation" : 1,
					"fontsize" : 11.595187,
					"id" : "obj-41"
				}

			}
, 			{
				"box" : 				{
					"maxclass" : "number",
					"fontname" : "Arial",
					"presentation_rect" : [ 208.0, 44.0, 50.0, 20.0 ],
					"numinlets" : 1,
					"numoutlets" : 2,
					"patching_rect" : [ 641.0, 249.0, 50.0, 20.0 ],
					"presentation" : 1,
					"fontsize" : 12.0,
					"id" : "obj-40",
					"outlettype" : [ "int", "bang" ],
					"triangle" : 0
				}

			}
, 			{
				"box" : 				{
					"maxclass" : "number",
					"fontname" : "Arial",
					"presentation_rect" : [ 7.0, 41.0, 50.0, 20.0 ],
					"numinlets" : 1,
					"numoutlets" : 2,
					"patching_rect" : [ 584.0, 248.0, 50.0, 20.0 ],
					"presentation" : 1,
					"fontsize" : 12.0,
					"id" : "obj-39",
					"outlettype" : [ "int", "bang" ],
					"triangle" : 0
				}

			}
, 			{
				"box" : 				{
					"maxclass" : "newobj",
					"text" : "loadbang",
					"fontname" : "Arial",
					"numinlets" : 1,
					"numoutlets" : 1,
					"patching_rect" : [ 537.0, 141.0, 60.0, 20.0 ],
					"fontsize" : 12.0,
					"id" : "obj-37",
					"outlettype" : [ "bang" ]
				}

			}
, 			{
				"box" : 				{
					"maxclass" : "newobj",
					"text" : "- 1",
					"fontname" : "Arial",
					"numinlets" : 2,
					"numoutlets" : 1,
					"patching_rect" : [ 584.0, 216.0, 22.0, 16.0 ],
					"fontsize" : 8.0,
					"id" : "obj-36",
					"outlettype" : [ "int" ]
				}

			}
, 			{
				"box" : 				{
					"maxclass" : "newobj",
					"text" : "- 1",
					"fontname" : "Arial",
					"numinlets" : 2,
					"numoutlets" : 1,
					"patching_rect" : [ 607.0, 216.0, 22.0, 16.0 ],
					"fontsize" : 8.0,
					"id" : "obj-35",
					"outlettype" : [ "int" ]
				}

			}
, 			{
				"box" : 				{
					"maxclass" : "newobj",
					"text" : "unpack 0 0 0 0",
					"fontname" : "Arial",
					"numinlets" : 1,
					"numoutlets" : 4,
					"patching_rect" : [ 537.0, 188.0, 89.0, 20.0 ],
					"fontsize" : 12.0,
					"id" : "obj-20",
					"outlettype" : [ "int", "int", "int", "int" ]
				}

			}
, 			{
				"box" : 				{
					"maxclass" : "newobj",
					"text" : "screensize",
					"fontname" : "Arial",
					"numinlets" : 1,
					"numoutlets" : 2,
					"patching_rect" : [ 537.0, 164.0, 68.0, 20.0 ],
					"fontsize" : 12.0,
					"id" : "obj-11",
					"outlettype" : [ "list", "list" ]
				}

			}
, 			{
				"box" : 				{
					"maxclass" : "outlet",
					"numinlets" : 1,
					"numoutlets" : 0,
					"patching_rect" : [ 65.0, 327.0, 25.0, 25.0 ],
					"id" : "obj-9",
					"comment" : "Current Horizontal Mouse Position"
				}

			}
, 			{
				"box" : 				{
					"maxclass" : "outlet",
					"numinlets" : 1,
					"numoutlets" : 0,
					"patching_rect" : [ 280.0, 329.0, 25.0, 25.0 ],
					"id" : "obj-8",
					"comment" : "Current Vertical Mouse Position"
				}

			}
, 			{
				"box" : 				{
					"maxclass" : "outlet",
					"numinlets" : 1,
					"numoutlets" : 0,
					"patching_rect" : [ 315.0, 328.0, 25.0, 25.0 ],
					"id" : "obj-6",
					"comment" : "Maximum Vertical Position"
				}

			}
, 			{
				"box" : 				{
					"maxclass" : "outlet",
					"ignoreclick" : 1,
					"numinlets" : 1,
					"numoutlets" : 0,
					"patching_rect" : [ 97.0, 327.0, 25.0, 25.0 ],
					"id" : "obj-3",
					"comment" : "Maximum Horizontal Position"
				}

			}
, 			{
				"box" : 				{
					"maxclass" : "newobj",
					"text" : "loadmess 1",
					"fontname" : "Arial",
					"numinlets" : 1,
					"numoutlets" : 1,
					"patching_rect" : [ 83.0, 146.0, 72.0, 20.0 ],
					"fontsize" : 12.0,
					"id" : "obj-1",
					"outlettype" : [ "" ]
				}

			}
, 			{
				"box" : 				{
					"maxclass" : "comment",
					"text" : "Current\nVertical Mouse Position",
					"linecount" : 2,
					"presentation_linecount" : 2,
					"fontname" : "Arial",
					"presentation_rect" : [ 258.0, 3.0, 149.0, 33.0 ],
					"numinlets" : 1,
					"numoutlets" : 0,
					"patching_rect" : [ 348.0, 248.0, 149.0, 33.0 ],
					"presentation" : 1,
					"fontsize" : 11.595187,
					"id" : "obj-30"
				}

			}
, 			{
				"box" : 				{
					"maxclass" : "comment",
					"text" : "Current\nHorizontal Mouse Position",
					"linecount" : 2,
					"presentation_linecount" : 2,
					"fontname" : "Arial",
					"presentation_rect" : [ 56.0, 3.0, 149.0, 33.0 ],
					"numinlets" : 1,
					"numoutlets" : 0,
					"patching_rect" : [ 146.0, 252.0, 149.0, 33.0 ],
					"presentation" : 1,
					"fontsize" : 11.595187,
					"id" : "obj-21"
				}

			}
, 			{
				"box" : 				{
					"maxclass" : "number",
					"fontname" : "Arial",
					"presentation_rect" : [ 208.0, 11.0, 50.0, 20.0 ],
					"numinlets" : 1,
					"numoutlets" : 2,
					"patching_rect" : [ 298.0, 248.0, 50.0, 20.0 ],
					"presentation" : 1,
					"fontsize" : 12.0,
					"id" : "obj-13",
					"outlettype" : [ "int", "bang" ],
					"triangle" : 0
				}

			}
, 			{
				"box" : 				{
					"maxclass" : "number",
					"fontname" : "Arial",
					"presentation_rect" : [ 7.0, 11.0, 50.0, 20.0 ],
					"numinlets" : 1,
					"numoutlets" : 2,
					"patching_rect" : [ 97.0, 245.0, 50.0, 20.0 ],
					"presentation" : 1,
					"fontsize" : 12.0,
					"id" : "obj-10",
					"outlettype" : [ "int", "bang" ],
					"triangle" : 0
				}

			}
, 			{
				"box" : 				{
					"maxclass" : "toggle",
					"numinlets" : 1,
					"numoutlets" : 1,
					"patching_rect" : [ 83.0, 170.0, 20.0, 20.0 ],
					"id" : "obj-7",
					"outlettype" : [ "int" ]
				}

			}
, 			{
				"box" : 				{
					"maxclass" : "newobj",
					"text" : "metro 20",
					"fontname" : "Arial",
					"numinlets" : 2,
					"numoutlets" : 1,
					"patching_rect" : [ 83.0, 194.0, 65.0, 20.0 ],
					"fontsize" : 12.0,
					"id" : "obj-5",
					"outlettype" : [ "bang" ]
				}

			}
, 			{
				"box" : 				{
					"maxclass" : "newobj",
					"text" : "mousestate",
					"fontname" : "Arial",
					"numinlets" : 1,
					"numoutlets" : 5,
					"patching_rect" : [ 83.0, 219.0, 73.0, 20.0 ],
					"fontsize" : 12.0,
					"id" : "obj-4",
					"outlettype" : [ "int", "int", "int", "int", "int" ]
				}

			}
 ],
		"lines" : [ 			{
				"patchline" : 				{
					"source" : [ "obj-10", 0 ],
					"destination" : [ "obj-14", 0 ],
					"hidden" : 0,
					"midpoints" : [ 106.5, 285.5, 141.5, 285.5 ]
				}

			}
, 			{
				"patchline" : 				{
					"source" : [ "obj-4", 0 ],
					"destination" : [ "obj-2", 0 ],
					"hidden" : 0,
					"midpoints" : [ 92.5, 254.0, 46.5, 254.0 ]
				}

			}
, 			{
				"patchline" : 				{
					"source" : [ "obj-50", 0 ],
					"destination" : [ "obj-45", 0 ],
					"hidden" : 0,
					"midpoints" : [  ]
				}

			}
, 			{
				"patchline" : 				{
					"source" : [ "obj-75", 0 ],
					"destination" : [ "obj-76", 0 ],
					"hidden" : 0,
					"midpoints" : [  ]
				}

			}
, 			{
				"patchline" : 				{
					"source" : [ "obj-132", 0 ],
					"destination" : [ "obj-101", 0 ],
					"hidden" : 1,
					"midpoints" : [ 806.900024, 260.200012, 809.900024, 260.200012 ]
				}

			}
, 			{
				"patchline" : 				{
					"source" : [ "obj-188", 0 ],
					"destination" : [ "obj-132", 0 ],
					"hidden" : 1,
					"midpoints" : [  ]
				}

			}
, 			{
				"patchline" : 				{
					"source" : [ "obj-191", 0 ],
					"destination" : [ "obj-190", 0 ],
					"hidden" : 1,
					"midpoints" : [ 805.900024, 402.200012, 808.900024, 402.200012 ]
				}

			}
, 			{
				"patchline" : 				{
					"source" : [ "obj-192", 0 ],
					"destination" : [ "obj-191", 0 ],
					"hidden" : 1,
					"midpoints" : [  ]
				}

			}
, 			{
				"patchline" : 				{
					"source" : [ "obj-320", 0 ],
					"destination" : [ "obj-316", 0 ],
					"hidden" : 0,
					"midpoints" : [  ]
				}

			}
, 			{
				"patchline" : 				{
					"source" : [ "obj-316", 0 ],
					"destination" : [ "obj-309", 0 ],
					"hidden" : 0,
					"midpoints" : [  ]
				}

			}
, 			{
				"patchline" : 				{
					"source" : [ "obj-49", 0 ],
					"destination" : [ "obj-7", 0 ],
					"hidden" : 0,
					"midpoints" : [ 77.5, 168.0, 92.5, 168.0 ]
				}

			}
, 			{
				"patchline" : 				{
					"source" : [ "obj-40", 0 ],
					"destination" : [ "obj-6", 0 ],
					"hidden" : 0,
					"midpoints" : [ 650.5, 286.0, 324.5, 286.0 ]
				}

			}
, 			{
				"patchline" : 				{
					"source" : [ "obj-39", 0 ],
					"destination" : [ "obj-3", 0 ],
					"hidden" : 0,
					"midpoints" : [ 593.5, 285.0, 106.5, 285.0 ]
				}

			}
, 			{
				"patchline" : 				{
					"source" : [ "obj-45", 0 ],
					"destination" : [ "obj-11", 0 ],
					"hidden" : 0,
					"midpoints" : [ 77.5, 167.0, 546.5, 167.0 ]
				}

			}
, 			{
				"patchline" : 				{
					"source" : [ "obj-45", 0 ],
					"destination" : [ "obj-49", 0 ],
					"hidden" : 0,
					"midpoints" : [  ]
				}

			}
, 			{
				"patchline" : 				{
					"source" : [ "obj-35", 0 ],
					"destination" : [ "obj-40", 0 ],
					"hidden" : 0,
					"midpoints" : [ 616.5, 240.0, 650.5, 240.0 ]
				}

			}
, 			{
				"patchline" : 				{
					"source" : [ "obj-36", 0 ],
					"destination" : [ "obj-39", 0 ],
					"hidden" : 0,
					"midpoints" : [  ]
				}

			}
, 			{
				"patchline" : 				{
					"source" : [ "obj-37", 0 ],
					"destination" : [ "obj-11", 0 ],
					"hidden" : 0,
					"midpoints" : [  ]
				}

			}
, 			{
				"patchline" : 				{
					"source" : [ "obj-20", 3 ],
					"destination" : [ "obj-35", 0 ],
					"hidden" : 0,
					"midpoints" : [  ]
				}

			}
, 			{
				"patchline" : 				{
					"source" : [ "obj-20", 2 ],
					"destination" : [ "obj-36", 0 ],
					"hidden" : 0,
					"midpoints" : [  ]
				}

			}
, 			{
				"patchline" : 				{
					"source" : [ "obj-11", 0 ],
					"destination" : [ "obj-20", 0 ],
					"hidden" : 0,
					"midpoints" : [  ]
				}

			}
, 			{
				"patchline" : 				{
					"source" : [ "obj-10", 0 ],
					"destination" : [ "obj-9", 0 ],
					"hidden" : 0,
					"midpoints" : [ 106.5, 270.0, 74.5, 270.0 ]
				}

			}
, 			{
				"patchline" : 				{
					"source" : [ "obj-13", 0 ],
					"destination" : [ "obj-8", 0 ],
					"hidden" : 0,
					"midpoints" : [ 307.5, 288.0, 289.5, 288.0 ]
				}

			}
, 			{
				"patchline" : 				{
					"source" : [ "obj-1", 0 ],
					"destination" : [ "obj-7", 0 ],
					"hidden" : 0,
					"midpoints" : [  ]
				}

			}
, 			{
				"patchline" : 				{
					"source" : [ "obj-5", 0 ],
					"destination" : [ "obj-4", 0 ],
					"hidden" : 0,
					"midpoints" : [  ]
				}

			}
, 			{
				"patchline" : 				{
					"source" : [ "obj-7", 0 ],
					"destination" : [ "obj-5", 0 ],
					"hidden" : 0,
					"midpoints" : [  ]
				}

			}
, 			{
				"patchline" : 				{
					"source" : [ "obj-4", 1 ],
					"destination" : [ "obj-10", 0 ],
					"hidden" : 0,
					"midpoints" : [  ]
				}

			}
, 			{
				"patchline" : 				{
					"source" : [ "obj-4", 2 ],
					"destination" : [ "obj-13", 0 ],
					"hidden" : 0,
					"midpoints" : [ 119.5, 243.0, 307.5, 243.0 ]
				}

			}
 ]
	}

}
