{
	"patcher" : 	{
		"fileversion" : 1,
		"rect" : [ 243.0, 180.0, 712.0, 521.0 ],
		"bglocked" : 0,
		"defrect" : [ 243.0, 180.0, 712.0, 521.0 ],
		"openrect" : [ 0.0, 0.0, 0.0, 0.0 ],
		"openinpresentation" : 1,
		"default_fontsize" : 12.0,
		"default_fontface" : 0,
		"default_fontname" : "Arial",
		"gridonopen" : 0,
		"gridsize" : [ 15.0, 15.0 ],
		"gridsnaponopen" : 0,
		"toolbarvisible" : 1,
		"boxanimatetime" : 200,
		"imprint" : 0,
		"enablehscroll" : 1,
		"enablevscroll" : 1,
		"devicewidth" : 0.0,
		"boxes" : [ 			{
				"box" : 				{
					"maxclass" : "comment",
					"text" : "message types",
					"numoutlets" : 0,
					"fontsize" : 12.0,
					"patching_rect" : [ 76.0, 130.0, 150.0, 20.0 ],
					"id" : "obj-69",
					"fontname" : "Arial",
					"numinlets" : 1
				}

			}
, 			{
				"box" : 				{
					"maxclass" : "comment",
					"text" : "allows pads to stack",
					"numoutlets" : 0,
					"fontsize" : 12.0,
					"patching_rect" : [ 149.0, 279.0, 120.0, 20.0 ],
					"id" : "obj-67",
					"fontname" : "Arial",
					"numinlets" : 1
				}

			}
, 			{
				"box" : 				{
					"maxclass" : "message",
					"text" : "0",
					"numoutlets" : 1,
					"fontsize" : 12.0,
					"patching_rect" : [ 118.0, 281.0, 32.5, 18.0 ],
					"outlettype" : [ "" ],
					"id" : "obj-65",
					"fontname" : "Arial",
					"numinlets" : 2
				}

			}
, 			{
				"box" : 				{
					"maxclass" : "newobj",
					"text" : "t l b",
					"numoutlets" : 2,
					"fontsize" : 12.0,
					"patching_rect" : [ 48.0, 280.0, 32.5, 20.0 ],
					"outlettype" : [ "", "bang" ],
					"id" : "obj-63",
					"fontname" : "Arial",
					"numinlets" : 1
				}

			}
, 			{
				"box" : 				{
					"maxclass" : "message",
					"text" : "1 2 3 4 5 6 7 8 9 10 11 12 13 14 15 16",
					"linecount" : 7,
					"numoutlets" : 1,
					"fontsize" : 12.0,
					"patching_rect" : [ 75.0, 155.0, 43.0, 101.0 ],
					"outlettype" : [ "" ],
					"id" : "obj-62",
					"fontname" : "Arial",
					"numinlets" : 2
				}

			}
, 			{
				"box" : 				{
					"maxclass" : "newobj",
					"text" : "prepend 0",
					"numoutlets" : 1,
					"fontsize" : 12.0,
					"patching_rect" : [ 48.0, 309.0, 65.0, 20.0 ],
					"outlettype" : [ "" ],
					"id" : "obj-61",
					"fontname" : "Arial",
					"numinlets" : 1
				}

			}
, 			{
				"box" : 				{
					"maxclass" : "message",
					"text" : "3 4 5 6 7",
					"numoutlets" : 1,
					"fontsize" : 12.0,
					"patching_rect" : [ 124.0, 178.0, 57.0, 18.0 ],
					"outlettype" : [ "" ],
					"id" : "obj-47",
					"fontname" : "Arial",
					"numinlets" : 2
				}

			}
, 			{
				"box" : 				{
					"maxclass" : "number",
					"triscale" : 0.9,
					"numoutlets" : 2,
					"fontsize" : 11.595187,
					"patching_rect" : [ 571.0, 367.0, 35.0, 20.0 ],
					"outlettype" : [ "int", "bang" ],
					"id" : "obj-37",
					"fontname" : "Arial",
					"numinlets" : 1
				}

			}
, 			{
				"box" : 				{
					"maxclass" : "number",
					"triscale" : 0.9,
					"numoutlets" : 2,
					"fontsize" : 11.595187,
					"patching_rect" : [ 397.0, 367.0, 35.0, 20.0 ],
					"outlettype" : [ "int", "bang" ],
					"id" : "obj-42",
					"fontname" : "Arial",
					"numinlets" : 1
				}

			}
, 			{
				"box" : 				{
					"maxclass" : "number",
					"triscale" : 0.9,
					"numoutlets" : 2,
					"fontsize" : 11.595187,
					"patching_rect" : [ 432.0, 367.0, 35.0, 20.0 ],
					"outlettype" : [ "int", "bang" ],
					"id" : "obj-43",
					"fontname" : "Arial",
					"numinlets" : 1
				}

			}
, 			{
				"box" : 				{
					"maxclass" : "number",
					"triscale" : 0.9,
					"numoutlets" : 2,
					"fontsize" : 11.595187,
					"patching_rect" : [ 467.0, 367.0, 35.0, 20.0 ],
					"outlettype" : [ "int", "bang" ],
					"id" : "obj-44",
					"fontname" : "Arial",
					"numinlets" : 1
				}

			}
, 			{
				"box" : 				{
					"maxclass" : "number",
					"triscale" : 0.9,
					"numoutlets" : 2,
					"fontsize" : 11.595187,
					"patching_rect" : [ 502.0, 367.0, 35.0, 20.0 ],
					"outlettype" : [ "int", "bang" ],
					"id" : "obj-45",
					"fontname" : "Arial",
					"numinlets" : 1
				}

			}
, 			{
				"box" : 				{
					"maxclass" : "number",
					"triscale" : 0.9,
					"numoutlets" : 2,
					"fontsize" : 11.595187,
					"patching_rect" : [ 537.0, 367.0, 35.0, 20.0 ],
					"outlettype" : [ "int", "bang" ],
					"id" : "obj-46",
					"fontname" : "Arial",
					"numinlets" : 1
				}

			}
, 			{
				"box" : 				{
					"maxclass" : "number",
					"triscale" : 0.9,
					"numoutlets" : 2,
					"fontsize" : 11.595187,
					"patching_rect" : [ 222.0, 368.0, 35.0, 20.0 ],
					"outlettype" : [ "int", "bang" ],
					"id" : "obj-32",
					"fontname" : "Arial",
					"numinlets" : 1
				}

			}
, 			{
				"box" : 				{
					"maxclass" : "number",
					"triscale" : 0.9,
					"numoutlets" : 2,
					"fontsize" : 11.595187,
					"patching_rect" : [ 257.0, 368.0, 35.0, 20.0 ],
					"outlettype" : [ "int", "bang" ],
					"id" : "obj-33",
					"fontname" : "Arial",
					"numinlets" : 1
				}

			}
, 			{
				"box" : 				{
					"maxclass" : "number",
					"triscale" : 0.9,
					"numoutlets" : 2,
					"fontsize" : 11.595187,
					"patching_rect" : [ 292.0, 368.0, 35.0, 20.0 ],
					"outlettype" : [ "int", "bang" ],
					"id" : "obj-34",
					"fontname" : "Arial",
					"numinlets" : 1
				}

			}
, 			{
				"box" : 				{
					"maxclass" : "number",
					"triscale" : 0.9,
					"numoutlets" : 2,
					"fontsize" : 11.595187,
					"patching_rect" : [ 327.0, 368.0, 35.0, 20.0 ],
					"outlettype" : [ "int", "bang" ],
					"id" : "obj-35",
					"fontname" : "Arial",
					"numinlets" : 1
				}

			}
, 			{
				"box" : 				{
					"maxclass" : "number",
					"triscale" : 0.9,
					"numoutlets" : 2,
					"fontsize" : 11.595187,
					"patching_rect" : [ 362.0, 368.0, 35.0, 20.0 ],
					"outlettype" : [ "int", "bang" ],
					"id" : "obj-36",
					"fontname" : "Arial",
					"numinlets" : 1
				}

			}
, 			{
				"box" : 				{
					"maxclass" : "newobj",
					"text" : "spray 16",
					"numoutlets" : 16,
					"fontsize" : 11.595187,
					"patching_rect" : [ 48.0, 344.0, 548.5, 20.0 ],
					"outlettype" : [ "", "", "", "", "", "", "", "", "", "", "", "", "", "", "", "" ],
					"id" : "obj-28",
					"fontname" : "Arial",
					"numinlets" : 1
				}

			}
, 			{
				"box" : 				{
					"maxclass" : "number",
					"triscale" : 0.9,
					"numoutlets" : 2,
					"fontsize" : 11.595187,
					"patching_rect" : [ 48.0, 368.0, 35.0, 20.0 ],
					"outlettype" : [ "int", "bang" ],
					"id" : "obj-29",
					"fontname" : "Arial",
					"numinlets" : 1
				}

			}
, 			{
				"box" : 				{
					"maxclass" : "number",
					"triscale" : 0.9,
					"numoutlets" : 2,
					"fontsize" : 11.595187,
					"patching_rect" : [ 83.0, 368.0, 35.0, 20.0 ],
					"outlettype" : [ "int", "bang" ],
					"id" : "obj-30",
					"fontname" : "Arial",
					"numinlets" : 1
				}

			}
, 			{
				"box" : 				{
					"maxclass" : "number",
					"triscale" : 0.9,
					"numoutlets" : 2,
					"fontsize" : 11.595187,
					"patching_rect" : [ 118.0, 368.0, 35.0, 20.0 ],
					"outlettype" : [ "int", "bang" ],
					"id" : "obj-16",
					"fontname" : "Arial",
					"numinlets" : 1
				}

			}
, 			{
				"box" : 				{
					"maxclass" : "number",
					"triscale" : 0.9,
					"numoutlets" : 2,
					"fontsize" : 11.595187,
					"patching_rect" : [ 153.0, 368.0, 35.0, 20.0 ],
					"outlettype" : [ "int", "bang" ],
					"id" : "obj-17",
					"fontname" : "Arial",
					"numinlets" : 1
				}

			}
, 			{
				"box" : 				{
					"maxclass" : "number",
					"triscale" : 0.9,
					"numoutlets" : 2,
					"fontsize" : 11.595187,
					"patching_rect" : [ 188.0, 368.0, 35.0, 20.0 ],
					"outlettype" : [ "int", "bang" ],
					"id" : "obj-31",
					"fontname" : "Arial",
					"numinlets" : 1
				}

			}
, 			{
				"box" : 				{
					"maxclass" : "newobj",
					"text" : "gate 1 1",
					"numoutlets" : 1,
					"fontsize" : 12.0,
					"patching_rect" : [ 118.0, 310.0, 54.0, 20.0 ],
					"outlettype" : [ "" ],
					"id" : "obj-18",
					"fontname" : "Arial",
					"numinlets" : 2
				}

			}
, 			{
				"box" : 				{
					"maxclass" : "message",
					"text" : "1 2 3 4 5",
					"numoutlets" : 1,
					"fontsize" : 12.0,
					"patching_rect" : [ 125.0, 154.0, 57.0, 18.0 ],
					"outlettype" : [ "" ],
					"id" : "obj-14",
					"fontname" : "Arial",
					"numinlets" : 2
				}

			}
, 			{
				"box" : 				{
					"maxclass" : "inlet",
					"numoutlets" : 1,
					"patching_rect" : [ 235.0, 185.0, 25.0, 25.0 ],
					"outlettype" : [ "" ],
					"id" : "obj-13",
					"numinlets" : 0,
					"comment" : "reset"
				}

			}
, 			{
				"box" : 				{
					"maxclass" : "inlet",
					"numoutlets" : 1,
					"patching_rect" : [ 48.0, 208.0, 25.0, 25.0 ],
					"outlettype" : [ "" ],
					"id" : "obj-12",
					"numinlets" : 0,
					"comment" : "list of pad numbers"
				}

			}
, 			{
				"box" : 				{
					"maxclass" : "comment",
					"text" : "set to:",
					"fontface" : 1,
					"numoutlets" : 0,
					"fontsize" : 12.0,
					"patching_rect" : [ 317.0, 114.0, 45.0, 20.0 ],
					"presentation" : 1,
					"id" : "obj-11",
					"fontname" : "Arial",
					"numinlets" : 1,
					"presentation_rect" : [ 10.0, 3.0, 45.0, 20.0 ]
				}

			}
, 			{
				"box" : 				{
					"maxclass" : "comment",
					"text" : "padKONTROL CTRL",
					"numoutlets" : 0,
					"fontsize" : 12.0,
					"patching_rect" : [ 356.0, 114.0, 134.0, 20.0 ],
					"presentation" : 1,
					"id" : "obj-10",
					"fontname" : "Arial",
					"numinlets" : 1,
					"presentation_rect" : [ 48.0, 3.0, 134.0, 20.0 ]
				}

			}
, 			{
				"box" : 				{
					"maxclass" : "newobj",
					"text" : "t b clear",
					"numoutlets" : 2,
					"fontsize" : 12.0,
					"patching_rect" : [ 279.0, 41.0, 53.0, 20.0 ],
					"outlettype" : [ "bang", "clear" ],
					"id" : "obj-8",
					"fontname" : "Arial",
					"numinlets" : 1
				}

			}
, 			{
				"box" : 				{
					"maxclass" : "newobj",
					"text" : "loadbang",
					"numoutlets" : 1,
					"fontsize" : 8.0,
					"patching_rect" : [ 279.0, 17.0, 43.0, 16.0 ],
					"outlettype" : [ "bang" ],
					"id" : "obj-3",
					"fontname" : "Arial",
					"numinlets" : 1
				}

			}
, 			{
				"box" : 				{
					"maxclass" : "newobj",
					"text" : "midiinfo",
					"numoutlets" : 1,
					"fontsize" : 12.0,
					"patching_rect" : [ 279.0, 85.0, 52.0, 20.0 ],
					"outlettype" : [ "" ],
					"id" : "obj-5",
					"fontname" : "Arial",
					"numinlets" : 2
				}

			}
, 			{
				"box" : 				{
					"maxclass" : "button",
					"numoutlets" : 1,
					"patching_rect" : [ 279.0, 64.0, 20.0, 20.0 ],
					"outlettype" : [ "bang" ],
					"id" : "obj-26",
					"numinlets" : 1
				}

			}
, 			{
				"box" : 				{
					"maxclass" : "button",
					"numoutlets" : 1,
					"patching_rect" : [ 235.0, 227.0, 20.0, 20.0 ],
					"outlettype" : [ "bang" ],
					"id" : "obj-4",
					"numinlets" : 1
				}

			}
, 			{
				"box" : 				{
					"maxclass" : "newobj",
					"text" : "loadbang",
					"numoutlets" : 1,
					"fontsize" : 8.0,
					"patching_rect" : [ 145.0, 416.0, 43.0, 16.0 ],
					"outlettype" : [ "bang" ],
					"id" : "obj-320",
					"fontname" : "Arial",
					"numinlets" : 1
				}

			}
, 			{
				"box" : 				{
					"maxclass" : "message",
					"text" : "patcher \"EAMIR padKontrol blinkies\"",
					"numoutlets" : 1,
					"fontsize" : 11.595187,
					"patching_rect" : [ 145.0, 435.0, 199.0, 18.0 ],
					"outlettype" : [ "" ],
					"id" : "obj-316",
					"fontname" : "Arial",
					"numinlets" : 2
				}

			}
, 			{
				"box" : 				{
					"maxclass" : "newobj",
					"text" : "thispatcher",
					"numoutlets" : 2,
					"fontsize" : 8.0,
					"patching_rect" : [ 145.0, 459.0, 50.0, 16.0 ],
					"outlettype" : [ "", "" ],
					"id" : "obj-309",
					"fontname" : "Arial",
					"numinlets" : 1,
					"save" : [ "#N", "thispatcher", ";", "#Q", "end", ";" ]
				}

			}
, 			{
				"box" : 				{
					"maxclass" : "comment",
					"text" : "vj@vjmanzo.com",
					"hidden" : 1,
					"numoutlets" : 0,
					"fontsize" : 10.0,
					"patching_rect" : [ 580.0, 246.0, 85.0, 18.0 ],
					"id" : "obj-196",
					"fontname" : "Arial",
					"numinlets" : 1
				}

			}
, 			{
				"box" : 				{
					"maxclass" : "newobj",
					"text" : "p launchURL",
					"hidden" : 1,
					"numoutlets" : 0,
					"fontsize" : 9.0,
					"patching_rect" : [ 527.400024, 282.200073, 62.0, 17.0 ],
					"id" : "obj-190",
					"fontname" : "Arial",
					"numinlets" : 1,
					"patcher" : 					{
						"fileversion" : 1,
						"rect" : [ 15.0, 55.0, 600.0, 426.0 ],
						"bglocked" : 0,
						"defrect" : [ 15.0, 55.0, 600.0, 426.0 ],
						"openrect" : [ 0.0, 0.0, 0.0, 0.0 ],
						"openinpresentation" : 0,
						"default_fontsize" : 12.0,
						"default_fontface" : 0,
						"default_fontname" : "Arial",
						"gridonopen" : 0,
						"gridsize" : [ 15.0, 15.0 ],
						"gridsnaponopen" : 0,
						"toolbarvisible" : 1,
						"boxanimatetime" : 200,
						"imprint" : 0,
						"enablehscroll" : 1,
						"enablevscroll" : 1,
						"devicewidth" : 0.0,
						"boxes" : [ 							{
								"box" : 								{
									"maxclass" : "newobj",
									"text" : "t b s",
									"numoutlets" : 2,
									"fontsize" : 9.0,
									"patching_rect" : [ 50.0, 50.0, 27.0, 17.0 ],
									"outlettype" : [ "bang", "" ],
									"id" : "obj-1",
									"fontname" : "Arial",
									"numinlets" : 1
								}

							}
, 							{
								"box" : 								{
									"maxclass" : "message",
									"text" : ";\rmax launch_browser http://www.vjmanzo.com/portfolio",
									"linecount" : 2,
									"numoutlets" : 1,
									"fontsize" : 9.0,
									"patching_rect" : [ 67.0, 108.0, 344.0, 25.0 ],
									"outlettype" : [ "" ],
									"id" : "obj-2",
									"fontname" : "Arial",
									"numinlets" : 2
								}

							}
, 							{
								"box" : 								{
									"maxclass" : "newobj",
									"text" : "sprintf set \\; max launch_browser %s",
									"numoutlets" : 1,
									"fontsize" : 9.0,
									"patching_rect" : [ 67.0, 79.0, 164.0, 17.0 ],
									"outlettype" : [ "" ],
									"id" : "obj-3",
									"fontname" : "Arial",
									"numinlets" : 1
								}

							}
, 							{
								"box" : 								{
									"maxclass" : "inlet",
									"numoutlets" : 1,
									"patching_rect" : [ 50.0, 30.0, 15.0, 15.0 ],
									"outlettype" : [ "" ],
									"id" : "obj-4",
									"numinlets" : 0,
									"comment" : ""
								}

							}
 ],
						"lines" : [ 							{
								"patchline" : 								{
									"source" : [ "obj-1", 0 ],
									"destination" : [ "obj-2", 0 ],
									"hidden" : 0,
									"midpoints" : [ 59.5, 102.0, 76.5, 102.0 ]
								}

							}
, 							{
								"patchline" : 								{
									"source" : [ "obj-3", 0 ],
									"destination" : [ "obj-2", 0 ],
									"hidden" : 0,
									"midpoints" : [  ]
								}

							}
, 							{
								"patchline" : 								{
									"source" : [ "obj-1", 1 ],
									"destination" : [ "obj-3", 0 ],
									"hidden" : 0,
									"midpoints" : [  ]
								}

							}
, 							{
								"patchline" : 								{
									"source" : [ "obj-4", 0 ],
									"destination" : [ "obj-1", 0 ],
									"hidden" : 0,
									"midpoints" : [  ]
								}

							}
 ]
					}
,
					"saved_object_attributes" : 					{
						"fontface" : 0,
						"fontsize" : 12.0,
						"default_fontname" : "Arial",
						"default_fontsize" : 12.0,
						"fontname" : "Arial",
						"globalpatchername" : "",
						"default_fontface" : 0
					}

				}

			}
, 			{
				"box" : 				{
					"maxclass" : "message",
					"text" : "http://www.vjmanzo.com/portfolio",
					"hidden" : 1,
					"numoutlets" : 1,
					"fontsize" : 10.0,
					"bgcolor" : [ 0.792157, 0.898039, 1.0, 1.0 ],
					"patching_rect" : [ 524.400024, 265.200012, 157.0, 16.0 ],
					"outlettype" : [ "" ],
					"bgcolor2" : [ 1.0, 1.0, 1.0, 1.0 ],
					"id" : "obj-191",
					"fontname" : "Arial",
					"gradient" : 1,
					"numinlets" : 2
				}

			}
, 			{
				"box" : 				{
					"maxclass" : "ubutton",
					"numoutlets" : 4,
					"patching_rect" : [ 524.0, 223.0, 142.0, 40.0 ],
					"outlettype" : [ "bang", "bang", "", "int" ],
					"presentation" : 1,
					"handoff" : "",
					"id" : "obj-192",
					"numinlets" : 1,
					"presentation_rect" : [ 14.0, 123.0, 57.0, 36.0 ]
				}

			}
, 			{
				"box" : 				{
					"maxclass" : "newobj",
					"text" : "p launchURL",
					"hidden" : 1,
					"numoutlets" : 0,
					"fontsize" : 9.0,
					"patching_rect" : [ 528.400024, 140.200073, 62.0, 17.0 ],
					"id" : "obj-101",
					"fontname" : "Arial",
					"numinlets" : 1,
					"patcher" : 					{
						"fileversion" : 1,
						"rect" : [ 15.0, 55.0, 600.0, 426.0 ],
						"bglocked" : 0,
						"defrect" : [ 15.0, 55.0, 600.0, 426.0 ],
						"openrect" : [ 0.0, 0.0, 0.0, 0.0 ],
						"openinpresentation" : 0,
						"default_fontsize" : 12.0,
						"default_fontface" : 0,
						"default_fontname" : "Arial",
						"gridonopen" : 0,
						"gridsize" : [ 15.0, 15.0 ],
						"gridsnaponopen" : 0,
						"toolbarvisible" : 1,
						"boxanimatetime" : 200,
						"imprint" : 0,
						"enablehscroll" : 1,
						"enablevscroll" : 1,
						"devicewidth" : 0.0,
						"boxes" : [ 							{
								"box" : 								{
									"maxclass" : "newobj",
									"text" : "t b s",
									"numoutlets" : 2,
									"fontsize" : 9.0,
									"patching_rect" : [ 50.0, 50.0, 27.0, 17.0 ],
									"outlettype" : [ "bang", "" ],
									"id" : "obj-1",
									"fontname" : "Arial",
									"numinlets" : 1
								}

							}
, 							{
								"box" : 								{
									"maxclass" : "message",
									"text" : ";\rmax launch_browser http://www.eamir.org",
									"linecount" : 2,
									"numoutlets" : 1,
									"fontsize" : 9.0,
									"patching_rect" : [ 67.0, 108.0, 344.0, 25.0 ],
									"outlettype" : [ "" ],
									"id" : "obj-2",
									"fontname" : "Arial",
									"numinlets" : 2
								}

							}
, 							{
								"box" : 								{
									"maxclass" : "newobj",
									"text" : "sprintf set \\; max launch_browser %s",
									"numoutlets" : 1,
									"fontsize" : 9.0,
									"patching_rect" : [ 67.0, 79.0, 164.0, 17.0 ],
									"outlettype" : [ "" ],
									"id" : "obj-3",
									"fontname" : "Arial",
									"numinlets" : 1
								}

							}
, 							{
								"box" : 								{
									"maxclass" : "inlet",
									"numoutlets" : 1,
									"patching_rect" : [ 50.0, 30.0, 15.0, 15.0 ],
									"outlettype" : [ "" ],
									"id" : "obj-4",
									"numinlets" : 0,
									"comment" : ""
								}

							}
 ],
						"lines" : [ 							{
								"patchline" : 								{
									"source" : [ "obj-1", 0 ],
									"destination" : [ "obj-2", 0 ],
									"hidden" : 0,
									"midpoints" : [ 59.5, 102.0, 76.5, 102.0 ]
								}

							}
, 							{
								"patchline" : 								{
									"source" : [ "obj-3", 0 ],
									"destination" : [ "obj-2", 0 ],
									"hidden" : 0,
									"midpoints" : [  ]
								}

							}
, 							{
								"patchline" : 								{
									"source" : [ "obj-1", 1 ],
									"destination" : [ "obj-3", 0 ],
									"hidden" : 0,
									"midpoints" : [  ]
								}

							}
, 							{
								"patchline" : 								{
									"source" : [ "obj-4", 0 ],
									"destination" : [ "obj-1", 0 ],
									"hidden" : 0,
									"midpoints" : [  ]
								}

							}
 ]
					}
,
					"saved_object_attributes" : 					{
						"fontface" : 0,
						"fontsize" : 12.0,
						"default_fontname" : "Arial",
						"default_fontsize" : 12.0,
						"fontname" : "Arial",
						"globalpatchername" : "",
						"default_fontface" : 0
					}

				}

			}
, 			{
				"box" : 				{
					"maxclass" : "message",
					"text" : "http://www.eamir.org",
					"hidden" : 1,
					"numoutlets" : 1,
					"fontsize" : 10.0,
					"bgcolor" : [ 0.917647, 0.85098, 1.0, 1.0 ],
					"patching_rect" : [ 525.400024, 123.200012, 102.0, 16.0 ],
					"outlettype" : [ "" ],
					"bgcolor2" : [ 1.0, 1.0, 1.0, 1.0 ],
					"id" : "obj-132",
					"fontname" : "Arial",
					"gradient" : 1,
					"numinlets" : 2
				}

			}
, 			{
				"box" : 				{
					"maxclass" : "ubutton",
					"numoutlets" : 4,
					"patching_rect" : [ 525.0, 160.0, 64.0, 62.0 ],
					"outlettype" : [ "bang", "bang", "", "int" ],
					"presentation" : 1,
					"handoff" : "",
					"id" : "obj-188",
					"hltcolor" : [ 0.305882, 0.0, 0.407843, 0.501961 ],
					"numinlets" : 1,
					"presentation_rect" : [ 13.0, 58.0, 60.0, 61.0 ]
				}

			}
, 			{
				"box" : 				{
					"maxclass" : "comment",
					"text" : "EAMIR\ncreated by\nV.J. Manzo",
					"linecount" : 3,
					"presentation_linecount" : 3,
					"numoutlets" : 0,
					"fontsize" : 10.0,
					"patching_rect" : [ 524.400024, 223.200073, 143.0, 41.0 ],
					"presentation" : 1,
					"id" : "obj-189",
					"fontname" : "Arial",
					"numinlets" : 1,
					"presentation_rect" : [ 10.400024, 120.200073, 62.0, 41.0 ]
				}

			}
, 			{
				"box" : 				{
					"maxclass" : "fpic",
					"numoutlets" : 0,
					"patching_rect" : [ 524.0, 160.0, 65.0, 63.0 ],
					"pic" : "EAMIR_logo.png",
					"presentation" : 1,
					"id" : "obj-185",
					"numinlets" : 1,
					"presentation_rect" : [ 10.0, 57.0, 65.0, 63.0 ]
				}

			}
, 			{
				"box" : 				{
					"maxclass" : "hint",
					"hint" : "padKontrol Output Device",
					"delay" : 1,
					"numoutlets" : 0,
					"patching_rect" : [ 314.0, 166.0, 175.0, 18.0 ],
					"presentation" : 1,
					"id" : "obj-57",
					"numinlets" : 1,
					"presentation_rect" : [ 8.0, 21.0, 175.0, 18.0 ]
				}

			}
, 			{
				"box" : 				{
					"maxclass" : "comment",
					"text" : "sets all UI objects to save settings on close",
					"linecount" : 2,
					"numoutlets" : 0,
					"fontsize" : 12.0,
					"patching_rect" : [ 354.0, 411.0, 154.0, 34.0 ],
					"id" : "obj-15",
					"fontname" : "Arial",
					"numinlets" : 1
				}

			}
, 			{
				"box" : 				{
					"maxclass" : "newobj",
					"varname" : "eamir_padKontrol_blinkies[1]",
					"text" : "autopattr eamir_padKontrol_blinkies",
					"numoutlets" : 4,
					"fontsize" : 12.0,
					"patching_rect" : [ 353.0, 470.0, 203.0, 20.0 ],
					"outlettype" : [ "", "", "", "" ],
					"id" : "obj-7",
					"fontname" : "Arial",
					"numinlets" : 1,
					"restore" : 					{
						"eamir_padKontrol_blinkies[2]" : [ 2 ]
					}

				}

			}
, 			{
				"box" : 				{
					"maxclass" : "newobj",
					"varname" : "eamir_padKontrol_blinkies",
					"text" : "pattr eamir_padKontrol_blinkies",
					"numoutlets" : 3,
					"fontsize" : 12.0,
					"patching_rect" : [ 353.0, 446.0, 179.0, 20.0 ],
					"outlettype" : [ "", "", "" ],
					"id" : "obj-6",
					"fontname" : "Arial",
					"numinlets" : 1,
					"restore" : [ 0 ],
					"saved_object_attributes" : 					{
						"parameter_enable" : 0
					}

				}

			}
, 			{
				"box" : 				{
					"maxclass" : "umenu",
					"varname" : "eamir_padKontrol_blinkies[2]",
					"numoutlets" : 3,
					"fontsize" : 11.595187,
					"types" : [  ],
					"items" : [ "AU DLS Synth 1", ",", "IAC Driver Bus 1", ",", "from MaxMSP 1", ",", "from MaxMSP 2" ],
					"patching_rect" : [ 313.0, 133.0, 177.0, 20.0 ],
					"outlettype" : [ "int", "", "" ],
					"presentation" : 1,
					"id" : "obj-25",
					"fontname" : "Arial",
					"numinlets" : 1,
					"presentation_rect" : [ 7.0, 21.0, 177.0, 20.0 ]
				}

			}
, 			{
				"box" : 				{
					"maxclass" : "newobj",
					"text" : "p blinkies",
					"numoutlets" : 1,
					"fontsize" : 12.0,
					"patching_rect" : [ 48.0, 410.0, 61.0, 20.0 ],
					"outlettype" : [ "" ],
					"id" : "obj-269",
					"fontname" : "Arial",
					"numinlets" : 2,
					"patcher" : 					{
						"fileversion" : 1,
						"rect" : [ 620.0, 195.0, 803.0, 543.0 ],
						"bglocked" : 0,
						"defrect" : [ 620.0, 195.0, 803.0, 543.0 ],
						"openrect" : [ 0.0, 0.0, 0.0, 0.0 ],
						"openinpresentation" : 0,
						"default_fontsize" : 12.0,
						"default_fontface" : 0,
						"default_fontname" : "Arial",
						"gridonopen" : 0,
						"gridsize" : [ 15.0, 15.0 ],
						"gridsnaponopen" : 0,
						"toolbarvisible" : 1,
						"boxanimatetime" : 200,
						"imprint" : 0,
						"enablehscroll" : 1,
						"enablevscroll" : 1,
						"devicewidth" : 0.0,
						"boxes" : [ 							{
								"box" : 								{
									"maxclass" : "inlet",
									"numoutlets" : 1,
									"patching_rect" : [ 191.0, 7.0, 25.0, 25.0 ],
									"outlettype" : [ "" ],
									"id" : "obj-3",
									"numinlets" : 0,
									"comment" : "all off"
								}

							}
, 							{
								"box" : 								{
									"maxclass" : "button",
									"numoutlets" : 1,
									"patching_rect" : [ 190.513306, 44.0, 20.0, 20.0 ],
									"outlettype" : [ "bang" ],
									"id" : "obj-191",
									"numinlets" : 1
								}

							}
, 							{
								"box" : 								{
									"maxclass" : "newobj",
									"text" : "s eamir_eamir_metro_off",
									"numoutlets" : 0,
									"fontsize" : 12.0,
									"patching_rect" : [ 191.0, 68.631584, 142.0, 20.0 ],
									"id" : "obj-187",
									"fontname" : "Arial",
									"numinlets" : 1
								}

							}
, 							{
								"box" : 								{
									"maxclass" : "inlet",
									"numoutlets" : 1,
									"patching_rect" : [ 97.0, 6.0, 25.0, 25.0 ],
									"outlettype" : [ "int" ],
									"id" : "obj-1",
									"numinlets" : 0,
									"comment" : "button to blink"
								}

							}
, 							{
								"box" : 								{
									"maxclass" : "newobj",
									"text" : "sel 1 2 3 4 5 6 7 8 9 10 11 12 13 14 15 16",
									"numoutlets" : 17,
									"fontsize" : 12.0,
									"patching_rect" : [ 96.671143, 100.0, 235.0, 20.0 ],
									"outlettype" : [ "bang", "bang", "bang", "bang", "bang", "bang", "bang", "bang", "bang", "bang", "bang", "bang", "bang", "bang", "bang", "bang", "" ],
									"id" : "obj-267",
									"fontname" : "Arial",
									"numinlets" : 1
								}

							}
, 							{
								"box" : 								{
									"maxclass" : "newobj",
									"text" : "r eamir_eamir_metro_off",
									"numoutlets" : 1,
									"fontsize" : 9.0,
									"patching_rect" : [ 603.184326, 373.355377, 107.0, 17.0 ],
									"outlettype" : [ "" ],
									"id" : "obj-247",
									"fontname" : "Arial",
									"numinlets" : 0
								}

							}
, 							{
								"box" : 								{
									"maxclass" : "message",
									"text" : "0",
									"numoutlets" : 1,
									"fontsize" : 9.0,
									"patching_rect" : [ 603.184326, 393.881714, 31.0, 15.0 ],
									"outlettype" : [ "" ],
									"id" : "obj-248",
									"fontname" : "Arial",
									"numinlets" : 2
								}

							}
, 							{
								"box" : 								{
									"maxclass" : "toggle",
									"numoutlets" : 1,
									"patching_rect" : [ 604.02417, 411.317108, 20.0, 20.0 ],
									"outlettype" : [ "int" ],
									"id" : "obj-249",
									"numinlets" : 1
								}

							}
, 							{
								"box" : 								{
									"maxclass" : "button",
									"numoutlets" : 1,
									"patching_rect" : [ 603.555176, 452.152039, 20.0, 20.0 ],
									"outlettype" : [ "bang" ],
									"id" : "obj-250",
									"numinlets" : 1
								}

							}
, 							{
								"box" : 								{
									"maxclass" : "newobj",
									"text" : "metro 100",
									"numoutlets" : 1,
									"fontsize" : 9.0,
									"patching_rect" : [ 603.490601, 433.441498, 49.0, 17.0 ],
									"outlettype" : [ "bang" ],
									"id" : "obj-251",
									"fontname" : "Arial",
									"numinlets" : 2
								}

							}
, 							{
								"box" : 								{
									"maxclass" : "newobj",
									"text" : "r eamir_eamir_metro_off",
									"numoutlets" : 1,
									"fontsize" : 9.0,
									"patching_rect" : [ 530.315918, 373.355377, 107.0, 17.0 ],
									"outlettype" : [ "" ],
									"id" : "obj-252",
									"fontname" : "Arial",
									"numinlets" : 0
								}

							}
, 							{
								"box" : 								{
									"maxclass" : "message",
									"text" : "0",
									"numoutlets" : 1,
									"fontsize" : 9.0,
									"patching_rect" : [ 530.315918, 393.881714, 31.0, 15.0 ],
									"outlettype" : [ "" ],
									"id" : "obj-253",
									"fontname" : "Arial",
									"numinlets" : 2
								}

							}
, 							{
								"box" : 								{
									"maxclass" : "toggle",
									"numoutlets" : 1,
									"patching_rect" : [ 531.155762, 411.317108, 20.0, 20.0 ],
									"outlettype" : [ "int" ],
									"id" : "obj-254",
									"numinlets" : 1
								}

							}
, 							{
								"box" : 								{
									"maxclass" : "button",
									"numoutlets" : 1,
									"patching_rect" : [ 530.68689, 452.152039, 20.0, 20.0 ],
									"outlettype" : [ "bang" ],
									"id" : "obj-255",
									"numinlets" : 1
								}

							}
, 							{
								"box" : 								{
									"maxclass" : "newobj",
									"text" : "metro 100",
									"numoutlets" : 1,
									"fontsize" : 9.0,
									"patching_rect" : [ 530.622192, 433.441498, 49.0, 17.0 ],
									"outlettype" : [ "bang" ],
									"id" : "obj-256",
									"fontname" : "Arial",
									"numinlets" : 2
								}

							}
, 							{
								"box" : 								{
									"maxclass" : "newobj",
									"text" : "r eamir_eamir_metro_off",
									"numoutlets" : 1,
									"fontsize" : 9.0,
									"patching_rect" : [ 447.184326, 373.86853, 107.0, 17.0 ],
									"outlettype" : [ "" ],
									"id" : "obj-257",
									"fontname" : "Arial",
									"numinlets" : 0
								}

							}
, 							{
								"box" : 								{
									"maxclass" : "message",
									"text" : "0",
									"numoutlets" : 1,
									"fontsize" : 9.0,
									"patching_rect" : [ 447.184326, 394.394867, 31.0, 15.0 ],
									"outlettype" : [ "" ],
									"id" : "obj-258",
									"fontname" : "Arial",
									"numinlets" : 2
								}

							}
, 							{
								"box" : 								{
									"maxclass" : "toggle",
									"numoutlets" : 1,
									"patching_rect" : [ 448.02417, 411.830261, 20.0, 20.0 ],
									"outlettype" : [ "int" ],
									"id" : "obj-259",
									"numinlets" : 1
								}

							}
, 							{
								"box" : 								{
									"maxclass" : "button",
									"numoutlets" : 1,
									"patching_rect" : [ 447.555176, 452.665192, 20.0, 20.0 ],
									"outlettype" : [ "bang" ],
									"id" : "obj-260",
									"numinlets" : 1
								}

							}
, 							{
								"box" : 								{
									"maxclass" : "newobj",
									"text" : "metro 100",
									"numoutlets" : 1,
									"fontsize" : 9.0,
									"patching_rect" : [ 447.490601, 433.954651, 49.0, 17.0 ],
									"outlettype" : [ "bang" ],
									"id" : "obj-261",
									"fontname" : "Arial",
									"numinlets" : 2
								}

							}
, 							{
								"box" : 								{
									"maxclass" : "newobj",
									"text" : "r eamir_eamir_metro_off",
									"numoutlets" : 1,
									"fontsize" : 9.0,
									"patching_rect" : [ 374.315918, 373.86853, 107.0, 17.0 ],
									"outlettype" : [ "" ],
									"id" : "obj-262",
									"fontname" : "Arial",
									"numinlets" : 0
								}

							}
, 							{
								"box" : 								{
									"maxclass" : "message",
									"text" : "0",
									"numoutlets" : 1,
									"fontsize" : 9.0,
									"patching_rect" : [ 374.315918, 394.394867, 31.0, 15.0 ],
									"outlettype" : [ "" ],
									"id" : "obj-263",
									"fontname" : "Arial",
									"numinlets" : 2
								}

							}
, 							{
								"box" : 								{
									"maxclass" : "toggle",
									"numoutlets" : 1,
									"patching_rect" : [ 375.155762, 411.830261, 20.0, 20.0 ],
									"outlettype" : [ "int" ],
									"id" : "obj-264",
									"numinlets" : 1
								}

							}
, 							{
								"box" : 								{
									"maxclass" : "button",
									"numoutlets" : 1,
									"patching_rect" : [ 374.686768, 452.665192, 20.0, 20.0 ],
									"outlettype" : [ "bang" ],
									"id" : "obj-265",
									"numinlets" : 1
								}

							}
, 							{
								"box" : 								{
									"maxclass" : "newobj",
									"text" : "metro 100",
									"numoutlets" : 1,
									"fontsize" : 9.0,
									"patching_rect" : [ 374.622192, 433.954651, 49.0, 17.0 ],
									"outlettype" : [ "bang" ],
									"id" : "obj-266",
									"fontname" : "Arial",
									"numinlets" : 2
								}

							}
, 							{
								"box" : 								{
									"maxclass" : "newobj",
									"text" : "r eamir_eamir_metro_off",
									"numoutlets" : 1,
									"fontsize" : 9.0,
									"patching_rect" : [ 278.868408, 292.789551, 107.0, 17.0 ],
									"outlettype" : [ "" ],
									"id" : "obj-227",
									"fontname" : "Arial",
									"numinlets" : 0
								}

							}
, 							{
								"box" : 								{
									"maxclass" : "message",
									"text" : "0",
									"numoutlets" : 1,
									"fontsize" : 9.0,
									"patching_rect" : [ 278.868408, 313.315887, 31.0, 15.0 ],
									"outlettype" : [ "" ],
									"id" : "obj-228",
									"fontname" : "Arial",
									"numinlets" : 2
								}

							}
, 							{
								"box" : 								{
									"maxclass" : "toggle",
									"numoutlets" : 1,
									"patching_rect" : [ 279.708252, 330.751282, 20.0, 20.0 ],
									"outlettype" : [ "int" ],
									"id" : "obj-229",
									"numinlets" : 1
								}

							}
, 							{
								"box" : 								{
									"maxclass" : "button",
									"numoutlets" : 1,
									"patching_rect" : [ 279.239258, 371.586212, 20.0, 20.0 ],
									"outlettype" : [ "bang" ],
									"id" : "obj-230",
									"numinlets" : 1
								}

							}
, 							{
								"box" : 								{
									"maxclass" : "newobj",
									"text" : "metro 100",
									"numoutlets" : 1,
									"fontsize" : 9.0,
									"patching_rect" : [ 279.174683, 352.875671, 49.0, 17.0 ],
									"outlettype" : [ "bang" ],
									"id" : "obj-231",
									"fontname" : "Arial",
									"numinlets" : 2
								}

							}
, 							{
								"box" : 								{
									"maxclass" : "newobj",
									"text" : "r eamir_eamir_metro_off",
									"numoutlets" : 1,
									"fontsize" : 9.0,
									"patching_rect" : [ 206.0, 292.789551, 107.0, 17.0 ],
									"outlettype" : [ "" ],
									"id" : "obj-232",
									"fontname" : "Arial",
									"numinlets" : 0
								}

							}
, 							{
								"box" : 								{
									"maxclass" : "message",
									"text" : "0",
									"numoutlets" : 1,
									"fontsize" : 9.0,
									"patching_rect" : [ 206.0, 313.315887, 31.0, 15.0 ],
									"outlettype" : [ "" ],
									"id" : "obj-233",
									"fontname" : "Arial",
									"numinlets" : 2
								}

							}
, 							{
								"box" : 								{
									"maxclass" : "toggle",
									"numoutlets" : 1,
									"patching_rect" : [ 206.839844, 330.751282, 20.0, 20.0 ],
									"outlettype" : [ "int" ],
									"id" : "obj-234",
									"numinlets" : 1
								}

							}
, 							{
								"box" : 								{
									"maxclass" : "button",
									"numoutlets" : 1,
									"patching_rect" : [ 206.370972, 371.586212, 20.0, 20.0 ],
									"outlettype" : [ "bang" ],
									"id" : "obj-235",
									"numinlets" : 1
								}

							}
, 							{
								"box" : 								{
									"maxclass" : "newobj",
									"text" : "metro 100",
									"numoutlets" : 1,
									"fontsize" : 9.0,
									"patching_rect" : [ 206.306274, 352.875671, 49.0, 17.0 ],
									"outlettype" : [ "bang" ],
									"id" : "obj-236",
									"fontname" : "Arial",
									"numinlets" : 2
								}

							}
, 							{
								"box" : 								{
									"maxclass" : "newobj",
									"text" : "r eamir_eamir_metro_off",
									"numoutlets" : 1,
									"fontsize" : 9.0,
									"patching_rect" : [ 122.868408, 293.302704, 107.0, 17.0 ],
									"outlettype" : [ "" ],
									"id" : "obj-237",
									"fontname" : "Arial",
									"numinlets" : 0
								}

							}
, 							{
								"box" : 								{
									"maxclass" : "message",
									"text" : "0",
									"numoutlets" : 1,
									"fontsize" : 9.0,
									"patching_rect" : [ 122.868408, 313.829041, 31.0, 15.0 ],
									"outlettype" : [ "" ],
									"id" : "obj-238",
									"fontname" : "Arial",
									"numinlets" : 2
								}

							}
, 							{
								"box" : 								{
									"maxclass" : "toggle",
									"numoutlets" : 1,
									"patching_rect" : [ 123.708252, 331.264435, 20.0, 20.0 ],
									"outlettype" : [ "int" ],
									"id" : "obj-239",
									"numinlets" : 1
								}

							}
, 							{
								"box" : 								{
									"maxclass" : "button",
									"numoutlets" : 1,
									"patching_rect" : [ 123.239258, 372.099365, 20.0, 20.0 ],
									"outlettype" : [ "bang" ],
									"id" : "obj-240",
									"numinlets" : 1
								}

							}
, 							{
								"box" : 								{
									"maxclass" : "newobj",
									"text" : "metro 100",
									"numoutlets" : 1,
									"fontsize" : 9.0,
									"patching_rect" : [ 123.174683, 353.388824, 49.0, 17.0 ],
									"outlettype" : [ "bang" ],
									"id" : "obj-241",
									"fontname" : "Arial",
									"numinlets" : 2
								}

							}
, 							{
								"box" : 								{
									"maxclass" : "newobj",
									"text" : "r eamir_eamir_metro_off",
									"numoutlets" : 1,
									"fontsize" : 9.0,
									"patching_rect" : [ 50.0, 293.302704, 107.0, 17.0 ],
									"outlettype" : [ "" ],
									"id" : "obj-242",
									"fontname" : "Arial",
									"numinlets" : 0
								}

							}
, 							{
								"box" : 								{
									"maxclass" : "message",
									"text" : "0",
									"numoutlets" : 1,
									"fontsize" : 9.0,
									"patching_rect" : [ 50.0, 313.829041, 31.0, 15.0 ],
									"outlettype" : [ "" ],
									"id" : "obj-243",
									"fontname" : "Arial",
									"numinlets" : 2
								}

							}
, 							{
								"box" : 								{
									"maxclass" : "toggle",
									"numoutlets" : 1,
									"patching_rect" : [ 50.839844, 331.264435, 20.0, 20.0 ],
									"outlettype" : [ "int" ],
									"id" : "obj-244",
									"numinlets" : 1
								}

							}
, 							{
								"box" : 								{
									"maxclass" : "button",
									"numoutlets" : 1,
									"patching_rect" : [ 50.37085, 372.099365, 20.0, 20.0 ],
									"outlettype" : [ "bang" ],
									"id" : "obj-245",
									"numinlets" : 1
								}

							}
, 							{
								"box" : 								{
									"maxclass" : "newobj",
									"text" : "metro 100",
									"numoutlets" : 1,
									"fontsize" : 9.0,
									"patching_rect" : [ 50.306274, 353.388824, 49.0, 17.0 ],
									"outlettype" : [ "bang" ],
									"id" : "obj-246",
									"fontname" : "Arial",
									"numinlets" : 2
								}

							}
, 							{
								"box" : 								{
									"maxclass" : "newobj",
									"text" : "r eamir_eamir_metro_off",
									"numoutlets" : 1,
									"fontsize" : 9.0,
									"patching_rect" : [ 609.855347, 219.407944, 107.0, 17.0 ],
									"outlettype" : [ "" ],
									"id" : "obj-207",
									"fontname" : "Arial",
									"numinlets" : 0
								}

							}
, 							{
								"box" : 								{
									"maxclass" : "message",
									"text" : "0",
									"numoutlets" : 1,
									"fontsize" : 9.0,
									"patching_rect" : [ 609.855347, 239.93428, 31.0, 15.0 ],
									"outlettype" : [ "" ],
									"id" : "obj-208",
									"fontname" : "Arial",
									"numinlets" : 2
								}

							}
, 							{
								"box" : 								{
									"maxclass" : "toggle",
									"numoutlets" : 1,
									"patching_rect" : [ 610.69519, 257.369659, 20.0, 20.0 ],
									"outlettype" : [ "int" ],
									"id" : "obj-209",
									"numinlets" : 1
								}

							}
, 							{
								"box" : 								{
									"maxclass" : "button",
									"numoutlets" : 1,
									"patching_rect" : [ 610.226196, 298.20462, 20.0, 20.0 ],
									"outlettype" : [ "bang" ],
									"id" : "obj-210",
									"numinlets" : 1
								}

							}
, 							{
								"box" : 								{
									"maxclass" : "newobj",
									"text" : "metro 100",
									"numoutlets" : 1,
									"fontsize" : 9.0,
									"patching_rect" : [ 610.161621, 279.494049, 49.0, 17.0 ],
									"outlettype" : [ "bang" ],
									"id" : "obj-211",
									"fontname" : "Arial",
									"numinlets" : 2
								}

							}
, 							{
								"box" : 								{
									"maxclass" : "newobj",
									"text" : "r eamir_eamir_metro_off",
									"numoutlets" : 1,
									"fontsize" : 9.0,
									"patching_rect" : [ 536.986938, 219.407944, 107.0, 17.0 ],
									"outlettype" : [ "" ],
									"id" : "obj-212",
									"fontname" : "Arial",
									"numinlets" : 0
								}

							}
, 							{
								"box" : 								{
									"maxclass" : "message",
									"text" : "0",
									"numoutlets" : 1,
									"fontsize" : 9.0,
									"patching_rect" : [ 536.986938, 239.93428, 31.0, 15.0 ],
									"outlettype" : [ "" ],
									"id" : "obj-213",
									"fontname" : "Arial",
									"numinlets" : 2
								}

							}
, 							{
								"box" : 								{
									"maxclass" : "toggle",
									"numoutlets" : 1,
									"patching_rect" : [ 537.826782, 257.369659, 20.0, 20.0 ],
									"outlettype" : [ "int" ],
									"id" : "obj-214",
									"numinlets" : 1
								}

							}
, 							{
								"box" : 								{
									"maxclass" : "button",
									"numoutlets" : 1,
									"patching_rect" : [ 537.35791, 298.20462, 20.0, 20.0 ],
									"outlettype" : [ "bang" ],
									"id" : "obj-215",
									"numinlets" : 1
								}

							}
, 							{
								"box" : 								{
									"maxclass" : "newobj",
									"text" : "metro 100",
									"numoutlets" : 1,
									"fontsize" : 9.0,
									"patching_rect" : [ 537.293213, 279.494049, 49.0, 17.0 ],
									"outlettype" : [ "bang" ],
									"id" : "obj-216",
									"fontname" : "Arial",
									"numinlets" : 2
								}

							}
, 							{
								"box" : 								{
									"maxclass" : "newobj",
									"text" : "r eamir_eamir_metro_off",
									"numoutlets" : 1,
									"fontsize" : 9.0,
									"patching_rect" : [ 453.855347, 219.921097, 107.0, 17.0 ],
									"outlettype" : [ "" ],
									"id" : "obj-217",
									"fontname" : "Arial",
									"numinlets" : 0
								}

							}
, 							{
								"box" : 								{
									"maxclass" : "message",
									"text" : "0",
									"numoutlets" : 1,
									"fontsize" : 9.0,
									"patching_rect" : [ 453.855347, 240.447433, 31.0, 15.0 ],
									"outlettype" : [ "" ],
									"id" : "obj-218",
									"fontname" : "Arial",
									"numinlets" : 2
								}

							}
, 							{
								"box" : 								{
									"maxclass" : "toggle",
									"numoutlets" : 1,
									"patching_rect" : [ 454.69519, 257.882812, 20.0, 20.0 ],
									"outlettype" : [ "int" ],
									"id" : "obj-219",
									"numinlets" : 1
								}

							}
, 							{
								"box" : 								{
									"maxclass" : "button",
									"numoutlets" : 1,
									"patching_rect" : [ 454.226196, 298.717773, 20.0, 20.0 ],
									"outlettype" : [ "bang" ],
									"id" : "obj-220",
									"numinlets" : 1
								}

							}
, 							{
								"box" : 								{
									"maxclass" : "newobj",
									"text" : "metro 100",
									"numoutlets" : 1,
									"fontsize" : 9.0,
									"patching_rect" : [ 454.161621, 280.007202, 49.0, 17.0 ],
									"outlettype" : [ "bang" ],
									"id" : "obj-221",
									"fontname" : "Arial",
									"numinlets" : 2
								}

							}
, 							{
								"box" : 								{
									"maxclass" : "newobj",
									"text" : "r eamir_eamir_metro_off",
									"numoutlets" : 1,
									"fontsize" : 9.0,
									"patching_rect" : [ 380.986938, 219.921097, 107.0, 17.0 ],
									"outlettype" : [ "" ],
									"id" : "obj-222",
									"fontname" : "Arial",
									"numinlets" : 0
								}

							}
, 							{
								"box" : 								{
									"maxclass" : "message",
									"text" : "0",
									"numoutlets" : 1,
									"fontsize" : 9.0,
									"patching_rect" : [ 380.986938, 240.447433, 31.0, 15.0 ],
									"outlettype" : [ "" ],
									"id" : "obj-223",
									"fontname" : "Arial",
									"numinlets" : 2
								}

							}
, 							{
								"box" : 								{
									"maxclass" : "toggle",
									"numoutlets" : 1,
									"patching_rect" : [ 381.826782, 257.882812, 20.0, 20.0 ],
									"outlettype" : [ "int" ],
									"id" : "obj-224",
									"numinlets" : 1
								}

							}
, 							{
								"box" : 								{
									"maxclass" : "button",
									"numoutlets" : 1,
									"patching_rect" : [ 381.357788, 298.717773, 20.0, 20.0 ],
									"outlettype" : [ "bang" ],
									"id" : "obj-225",
									"numinlets" : 1
								}

							}
, 							{
								"box" : 								{
									"maxclass" : "newobj",
									"text" : "metro 100",
									"numoutlets" : 1,
									"fontsize" : 9.0,
									"patching_rect" : [ 381.293213, 280.007202, 49.0, 17.0 ],
									"outlettype" : [ "bang" ],
									"id" : "obj-226",
									"fontname" : "Arial",
									"numinlets" : 2
								}

							}
, 							{
								"box" : 								{
									"maxclass" : "newobj",
									"text" : "r eamir_eamir_metro_off",
									"numoutlets" : 1,
									"fontsize" : 9.0,
									"patching_rect" : [ 326.078979, 135.250015, 107.0, 17.0 ],
									"outlettype" : [ "" ],
									"id" : "obj-197",
									"fontname" : "Arial",
									"numinlets" : 0
								}

							}
, 							{
								"box" : 								{
									"maxclass" : "message",
									"text" : "0",
									"numoutlets" : 1,
									"fontsize" : 9.0,
									"patching_rect" : [ 326.078979, 155.776352, 31.0, 15.0 ],
									"outlettype" : [ "" ],
									"id" : "obj-198",
									"fontname" : "Arial",
									"numinlets" : 2
								}

							}
, 							{
								"box" : 								{
									"maxclass" : "toggle",
									"numoutlets" : 1,
									"patching_rect" : [ 326.918823, 173.211746, 20.0, 20.0 ],
									"outlettype" : [ "int" ],
									"id" : "obj-199",
									"numinlets" : 1
								}

							}
, 							{
								"box" : 								{
									"maxclass" : "button",
									"numoutlets" : 1,
									"patching_rect" : [ 326.449829, 214.046692, 20.0, 20.0 ],
									"outlettype" : [ "bang" ],
									"id" : "obj-200",
									"numinlets" : 1
								}

							}
, 							{
								"box" : 								{
									"maxclass" : "newobj",
									"text" : "metro 100",
									"numoutlets" : 1,
									"fontsize" : 9.0,
									"patching_rect" : [ 326.385254, 195.336136, 49.0, 17.0 ],
									"outlettype" : [ "bang" ],
									"id" : "obj-201",
									"fontname" : "Arial",
									"numinlets" : 2
								}

							}
, 							{
								"box" : 								{
									"maxclass" : "newobj",
									"text" : "r eamir_eamir_metro_off",
									"numoutlets" : 1,
									"fontsize" : 9.0,
									"patching_rect" : [ 253.210571, 135.250015, 107.0, 17.0 ],
									"outlettype" : [ "" ],
									"id" : "obj-202",
									"fontname" : "Arial",
									"numinlets" : 0
								}

							}
, 							{
								"box" : 								{
									"maxclass" : "message",
									"text" : "0",
									"numoutlets" : 1,
									"fontsize" : 9.0,
									"patching_rect" : [ 253.210571, 155.776352, 31.0, 15.0 ],
									"outlettype" : [ "" ],
									"id" : "obj-203",
									"fontname" : "Arial",
									"numinlets" : 2
								}

							}
, 							{
								"box" : 								{
									"maxclass" : "toggle",
									"numoutlets" : 1,
									"patching_rect" : [ 254.050415, 173.211746, 20.0, 20.0 ],
									"outlettype" : [ "int" ],
									"id" : "obj-204",
									"numinlets" : 1
								}

							}
, 							{
								"box" : 								{
									"maxclass" : "button",
									"numoutlets" : 1,
									"patching_rect" : [ 253.581543, 214.046692, 20.0, 20.0 ],
									"outlettype" : [ "bang" ],
									"id" : "obj-205",
									"numinlets" : 1
								}

							}
, 							{
								"box" : 								{
									"maxclass" : "newobj",
									"text" : "metro 100",
									"numoutlets" : 1,
									"fontsize" : 9.0,
									"patching_rect" : [ 253.516846, 195.336136, 49.0, 17.0 ],
									"outlettype" : [ "bang" ],
									"id" : "obj-206",
									"fontname" : "Arial",
									"numinlets" : 2
								}

							}
, 							{
								"box" : 								{
									"maxclass" : "newobj",
									"text" : "r eamir_eamir_metro_off",
									"numoutlets" : 1,
									"fontsize" : 9.0,
									"patching_rect" : [ 170.078979, 135.763168, 107.0, 17.0 ],
									"outlettype" : [ "" ],
									"id" : "obj-192",
									"fontname" : "Arial",
									"numinlets" : 0
								}

							}
, 							{
								"box" : 								{
									"maxclass" : "message",
									"text" : "0",
									"numoutlets" : 1,
									"fontsize" : 9.0,
									"patching_rect" : [ 170.078979, 156.289505, 31.0, 15.0 ],
									"outlettype" : [ "" ],
									"id" : "obj-193",
									"fontname" : "Arial",
									"numinlets" : 2
								}

							}
, 							{
								"box" : 								{
									"maxclass" : "toggle",
									"numoutlets" : 1,
									"patching_rect" : [ 170.918823, 173.724899, 20.0, 20.0 ],
									"outlettype" : [ "int" ],
									"id" : "obj-194",
									"numinlets" : 1
								}

							}
, 							{
								"box" : 								{
									"maxclass" : "button",
									"numoutlets" : 1,
									"patching_rect" : [ 170.449829, 214.559845, 20.0, 20.0 ],
									"outlettype" : [ "bang" ],
									"id" : "obj-195",
									"numinlets" : 1
								}

							}
, 							{
								"box" : 								{
									"maxclass" : "newobj",
									"text" : "metro 100",
									"numoutlets" : 1,
									"fontsize" : 9.0,
									"patching_rect" : [ 170.385254, 195.849289, 49.0, 17.0 ],
									"outlettype" : [ "bang" ],
									"id" : "obj-196",
									"fontname" : "Arial",
									"numinlets" : 2
								}

							}
, 							{
								"box" : 								{
									"maxclass" : "newobj",
									"text" : "r eamir_eamir_metro_off",
									"numoutlets" : 1,
									"fontsize" : 9.0,
									"patching_rect" : [ 97.210571, 135.763168, 107.0, 17.0 ],
									"outlettype" : [ "" ],
									"id" : "obj-186",
									"fontname" : "Arial",
									"numinlets" : 0
								}

							}
, 							{
								"box" : 								{
									"maxclass" : "message",
									"text" : "0",
									"numoutlets" : 1,
									"fontsize" : 9.0,
									"patching_rect" : [ 97.210571, 156.289505, 31.0, 15.0 ],
									"outlettype" : [ "" ],
									"id" : "obj-185",
									"fontname" : "Arial",
									"numinlets" : 2
								}

							}
, 							{
								"box" : 								{
									"maxclass" : "toggle",
									"numoutlets" : 1,
									"patching_rect" : [ 98.050415, 173.724899, 20.0, 20.0 ],
									"outlettype" : [ "int" ],
									"id" : "obj-115",
									"numinlets" : 1
								}

							}
, 							{
								"box" : 								{
									"maxclass" : "button",
									"numoutlets" : 1,
									"patching_rect" : [ 97.581421, 214.559845, 20.0, 20.0 ],
									"outlettype" : [ "bang" ],
									"id" : "obj-113",
									"numinlets" : 1
								}

							}
, 							{
								"box" : 								{
									"maxclass" : "newobj",
									"text" : "metro 100",
									"numoutlets" : 1,
									"fontsize" : 9.0,
									"patching_rect" : [ 97.516846, 195.849289, 49.0, 17.0 ],
									"outlettype" : [ "bang" ],
									"id" : "obj-111",
									"fontname" : "Arial",
									"numinlets" : 2
								}

							}
, 							{
								"box" : 								{
									"maxclass" : "message",
									"text" : "58 1",
									"numoutlets" : 1,
									"fontsize" : 12.0,
									"patching_rect" : [ 577.723511, 477.789429, 34.0, 18.0 ],
									"outlettype" : [ "" ],
									"id" : "obj-107",
									"fontname" : "Arial",
									"numinlets" : 2
								}

							}
, 							{
								"box" : 								{
									"maxclass" : "message",
									"text" : "54 1",
									"numoutlets" : 1,
									"fontsize" : 12.0,
									"patching_rect" : [ 518.723511, 478.789429, 34.0, 18.0 ],
									"outlettype" : [ "" ],
									"id" : "obj-108",
									"fontname" : "Arial",
									"numinlets" : 2
								}

							}
, 							{
								"box" : 								{
									"maxclass" : "message",
									"text" : "52 1",
									"numoutlets" : 1,
									"fontsize" : 12.0,
									"patching_rect" : [ 440.723511, 478.789429, 34.0, 18.0 ],
									"outlettype" : [ "" ],
									"id" : "obj-109",
									"fontname" : "Arial",
									"numinlets" : 2
								}

							}
, 							{
								"box" : 								{
									"maxclass" : "message",
									"text" : "48 1",
									"numoutlets" : 1,
									"fontsize" : 12.0,
									"patching_rect" : [ 371.723511, 477.789429, 34.0, 18.0 ],
									"outlettype" : [ "" ],
									"id" : "obj-110",
									"fontname" : "Arial",
									"numinlets" : 2
								}

							}
, 							{
								"box" : 								{
									"maxclass" : "message",
									"text" : "56 1",
									"numoutlets" : 1,
									"fontsize" : 12.0,
									"patching_rect" : [ 261.578735, 400.736786, 34.0, 18.0 ],
									"outlettype" : [ "" ],
									"id" : "obj-103",
									"fontname" : "Arial",
									"numinlets" : 2
								}

							}
, 							{
								"box" : 								{
									"maxclass" : "message",
									"text" : "68 1",
									"numoutlets" : 1,
									"fontsize" : 12.0,
									"patching_rect" : [ 202.578735, 401.736786, 34.0, 18.0 ],
									"outlettype" : [ "" ],
									"id" : "obj-104",
									"fontname" : "Arial",
									"numinlets" : 2
								}

							}
, 							{
								"box" : 								{
									"maxclass" : "message",
									"text" : "51 1",
									"numoutlets" : 1,
									"fontsize" : 12.0,
									"patching_rect" : [ 124.578735, 401.736786, 34.0, 18.0 ],
									"outlettype" : [ "" ],
									"id" : "obj-105",
									"fontname" : "Arial",
									"numinlets" : 2
								}

							}
, 							{
								"box" : 								{
									"maxclass" : "message",
									"text" : "49 1",
									"numoutlets" : 1,
									"fontsize" : 12.0,
									"patching_rect" : [ 55.578735, 400.736786, 34.0, 18.0 ],
									"outlettype" : [ "" ],
									"id" : "obj-106",
									"fontname" : "Arial",
									"numinlets" : 2
								}

							}
, 							{
								"box" : 								{
									"maxclass" : "message",
									"text" : "55 1",
									"numoutlets" : 1,
									"fontsize" : 12.0,
									"patching_rect" : [ 588.499878, 332.92099, 34.0, 18.0 ],
									"outlettype" : [ "" ],
									"id" : "obj-98",
									"fontname" : "Arial",
									"numinlets" : 2
								}

							}
, 							{
								"box" : 								{
									"maxclass" : "message",
									"text" : "57 1",
									"numoutlets" : 1,
									"fontsize" : 12.0,
									"patching_rect" : [ 528.499878, 333.92099, 34.0, 18.0 ],
									"outlettype" : [ "" ],
									"id" : "obj-100",
									"fontname" : "Arial",
									"numinlets" : 2
								}

							}
, 							{
								"box" : 								{
									"maxclass" : "message",
									"text" : "59 1",
									"numoutlets" : 1,
									"fontsize" : 12.0,
									"patching_rect" : [ 451.499878, 333.92099, 34.0, 18.0 ],
									"outlettype" : [ "" ],
									"id" : "obj-101",
									"fontname" : "Arial",
									"numinlets" : 2
								}

							}
, 							{
								"box" : 								{
									"maxclass" : "message",
									"text" : "60 1",
									"numoutlets" : 1,
									"fontsize" : 12.0,
									"patching_rect" : [ 382.499878, 332.92099, 34.0, 18.0 ],
									"outlettype" : [ "" ],
									"id" : "obj-102",
									"fontname" : "Arial",
									"numinlets" : 2
								}

							}
, 							{
								"box" : 								{
									"maxclass" : "message",
									"text" : "63 1",
									"numoutlets" : 1,
									"fontsize" : 12.0,
									"patching_rect" : [ 304.091919, 243.302551, 34.0, 18.0 ],
									"outlettype" : [ "" ],
									"id" : "obj-96",
									"fontname" : "Arial",
									"numinlets" : 2
								}

							}
, 							{
								"box" : 								{
									"maxclass" : "message",
									"text" : "65 1",
									"numoutlets" : 1,
									"fontsize" : 12.0,
									"patching_rect" : [ 245.091919, 244.302551, 34.0, 18.0 ],
									"outlettype" : [ "" ],
									"id" : "obj-97",
									"fontname" : "Arial",
									"numinlets" : 2
								}

							}
, 							{
								"box" : 								{
									"maxclass" : "message",
									"text" : "69 1",
									"numoutlets" : 1,
									"fontsize" : 12.0,
									"patching_rect" : [ 167.091919, 244.302551, 34.0, 18.0 ],
									"outlettype" : [ "" ],
									"id" : "obj-95",
									"fontname" : "Arial",
									"numinlets" : 2
								}

							}
, 							{
								"box" : 								{
									"maxclass" : "message",
									"text" : "61 1",
									"numoutlets" : 1,
									"fontsize" : 12.0,
									"patching_rect" : [ 98.091919, 243.302551, 34.0, 18.0 ],
									"outlettype" : [ "" ],
									"id" : "obj-93",
									"fontname" : "Arial",
									"numinlets" : 2
								}

							}
, 							{
								"box" : 								{
									"maxclass" : "outlet",
									"numoutlets" : 0,
									"patching_rect" : [ 331.683838, 556.789429, 25.0, 25.0 ],
									"id" : "obj-268",
									"numinlets" : 1,
									"comment" : ""
								}

							}
 ],
						"lines" : [ 							{
								"patchline" : 								{
									"source" : [ "obj-98", 0 ],
									"destination" : [ "obj-268", 0 ],
									"hidden" : 0,
									"midpoints" : [  ]
								}

							}
, 							{
								"patchline" : 								{
									"source" : [ "obj-107", 0 ],
									"destination" : [ "obj-268", 0 ],
									"hidden" : 0,
									"midpoints" : [  ]
								}

							}
, 							{
								"patchline" : 								{
									"source" : [ "obj-100", 0 ],
									"destination" : [ "obj-268", 0 ],
									"hidden" : 0,
									"midpoints" : [  ]
								}

							}
, 							{
								"patchline" : 								{
									"source" : [ "obj-108", 0 ],
									"destination" : [ "obj-268", 0 ],
									"hidden" : 0,
									"midpoints" : [  ]
								}

							}
, 							{
								"patchline" : 								{
									"source" : [ "obj-101", 0 ],
									"destination" : [ "obj-268", 0 ],
									"hidden" : 0,
									"midpoints" : [  ]
								}

							}
, 							{
								"patchline" : 								{
									"source" : [ "obj-109", 0 ],
									"destination" : [ "obj-268", 0 ],
									"hidden" : 0,
									"midpoints" : [  ]
								}

							}
, 							{
								"patchline" : 								{
									"source" : [ "obj-102", 0 ],
									"destination" : [ "obj-268", 0 ],
									"hidden" : 0,
									"midpoints" : [  ]
								}

							}
, 							{
								"patchline" : 								{
									"source" : [ "obj-110", 0 ],
									"destination" : [ "obj-268", 0 ],
									"hidden" : 0,
									"midpoints" : [  ]
								}

							}
, 							{
								"patchline" : 								{
									"source" : [ "obj-96", 0 ],
									"destination" : [ "obj-268", 0 ],
									"hidden" : 0,
									"midpoints" : [  ]
								}

							}
, 							{
								"patchline" : 								{
									"source" : [ "obj-103", 0 ],
									"destination" : [ "obj-268", 0 ],
									"hidden" : 0,
									"midpoints" : [  ]
								}

							}
, 							{
								"patchline" : 								{
									"source" : [ "obj-97", 0 ],
									"destination" : [ "obj-268", 0 ],
									"hidden" : 0,
									"midpoints" : [  ]
								}

							}
, 							{
								"patchline" : 								{
									"source" : [ "obj-104", 0 ],
									"destination" : [ "obj-268", 0 ],
									"hidden" : 0,
									"midpoints" : [  ]
								}

							}
, 							{
								"patchline" : 								{
									"source" : [ "obj-95", 0 ],
									"destination" : [ "obj-268", 0 ],
									"hidden" : 0,
									"midpoints" : [  ]
								}

							}
, 							{
								"patchline" : 								{
									"source" : [ "obj-105", 0 ],
									"destination" : [ "obj-268", 0 ],
									"hidden" : 0,
									"midpoints" : [  ]
								}

							}
, 							{
								"patchline" : 								{
									"source" : [ "obj-93", 0 ],
									"destination" : [ "obj-268", 0 ],
									"hidden" : 0,
									"midpoints" : [  ]
								}

							}
, 							{
								"patchline" : 								{
									"source" : [ "obj-106", 0 ],
									"destination" : [ "obj-268", 0 ],
									"hidden" : 0,
									"midpoints" : [  ]
								}

							}
, 							{
								"patchline" : 								{
									"source" : [ "obj-267", 15 ],
									"destination" : [ "obj-249", 0 ],
									"hidden" : 0,
									"midpoints" : [ 308.671143, 265.158569, 613.52417, 265.158569 ]
								}

							}
, 							{
								"patchline" : 								{
									"source" : [ "obj-267", 14 ],
									"destination" : [ "obj-254", 0 ],
									"hidden" : 0,
									"midpoints" : [ 295.171143, 265.158569, 540.655762, 265.158569 ]
								}

							}
, 							{
								"patchline" : 								{
									"source" : [ "obj-267", 13 ],
									"destination" : [ "obj-259", 0 ],
									"hidden" : 0,
									"midpoints" : [ 281.671143, 265.415131, 457.52417, 265.415131 ]
								}

							}
, 							{
								"patchline" : 								{
									"source" : [ "obj-267", 12 ],
									"destination" : [ "obj-264", 0 ],
									"hidden" : 0,
									"midpoints" : [ 268.171143, 265.415131, 384.655762, 265.415131 ]
								}

							}
, 							{
								"patchline" : 								{
									"source" : [ "obj-267", 11 ],
									"destination" : [ "obj-229", 0 ],
									"hidden" : 0,
									"midpoints" : [ 254.671143, 224.875641, 289.208252, 224.875641 ]
								}

							}
, 							{
								"patchline" : 								{
									"source" : [ "obj-267", 10 ],
									"destination" : [ "obj-234", 0 ],
									"hidden" : 0,
									"midpoints" : [ 241.171143, 224.875641, 216.339844, 224.875641 ]
								}

							}
, 							{
								"patchline" : 								{
									"source" : [ "obj-267", 9 ],
									"destination" : [ "obj-239", 0 ],
									"hidden" : 0,
									"midpoints" : [ 227.671143, 225.132217, 133.208252, 225.132217 ]
								}

							}
, 							{
								"patchline" : 								{
									"source" : [ "obj-267", 8 ],
									"destination" : [ "obj-244", 0 ],
									"hidden" : 0,
									"midpoints" : [ 214.171143, 225.132217, 60.339844, 225.132217 ]
								}

							}
, 							{
								"patchline" : 								{
									"source" : [ "obj-267", 7 ],
									"destination" : [ "obj-209", 0 ],
									"hidden" : 0,
									"midpoints" : [ 200.671143, 188.18483, 620.19519, 188.18483 ]
								}

							}
, 							{
								"patchline" : 								{
									"source" : [ "obj-267", 6 ],
									"destination" : [ "obj-214", 0 ],
									"hidden" : 0,
									"midpoints" : [ 187.171143, 188.18483, 547.326782, 188.18483 ]
								}

							}
, 							{
								"patchline" : 								{
									"source" : [ "obj-267", 5 ],
									"destination" : [ "obj-219", 0 ],
									"hidden" : 0,
									"midpoints" : [ 173.671143, 188.441406, 464.19519, 188.441406 ]
								}

							}
, 							{
								"patchline" : 								{
									"source" : [ "obj-267", 4 ],
									"destination" : [ "obj-224", 0 ],
									"hidden" : 0,
									"midpoints" : [ 160.171143, 188.441406, 391.326782, 188.441406 ]
								}

							}
, 							{
								"patchline" : 								{
									"source" : [ "obj-267", 3 ],
									"destination" : [ "obj-199", 0 ],
									"hidden" : 0,
									"midpoints" : [ 146.671143, 146.105865, 336.418823, 146.105865 ]
								}

							}
, 							{
								"patchline" : 								{
									"source" : [ "obj-267", 2 ],
									"destination" : [ "obj-204", 0 ],
									"hidden" : 0,
									"midpoints" : [ 133.171143, 146.105865, 263.550415, 146.105865 ]
								}

							}
, 							{
								"patchline" : 								{
									"source" : [ "obj-267", 1 ],
									"destination" : [ "obj-194", 0 ],
									"hidden" : 0,
									"midpoints" : [ 119.671143, 146.362457, 180.418823, 146.362457 ]
								}

							}
, 							{
								"patchline" : 								{
									"source" : [ "obj-267", 0 ],
									"destination" : [ "obj-115", 0 ],
									"hidden" : 0,
									"midpoints" : [ 106.171143, 146.362457, 107.550415, 146.362457 ]
								}

							}
, 							{
								"patchline" : 								{
									"source" : [ "obj-265", 0 ],
									"destination" : [ "obj-110", 0 ],
									"hidden" : 0,
									"midpoints" : [  ]
								}

							}
, 							{
								"patchline" : 								{
									"source" : [ "obj-260", 0 ],
									"destination" : [ "obj-109", 0 ],
									"hidden" : 0,
									"midpoints" : [  ]
								}

							}
, 							{
								"patchline" : 								{
									"source" : [ "obj-255", 0 ],
									"destination" : [ "obj-108", 0 ],
									"hidden" : 0,
									"midpoints" : [  ]
								}

							}
, 							{
								"patchline" : 								{
									"source" : [ "obj-250", 0 ],
									"destination" : [ "obj-107", 0 ],
									"hidden" : 0,
									"midpoints" : [  ]
								}

							}
, 							{
								"patchline" : 								{
									"source" : [ "obj-256", 0 ],
									"destination" : [ "obj-255", 0 ],
									"hidden" : 0,
									"midpoints" : [  ]
								}

							}
, 							{
								"patchline" : 								{
									"source" : [ "obj-254", 0 ],
									"destination" : [ "obj-256", 0 ],
									"hidden" : 0,
									"midpoints" : [  ]
								}

							}
, 							{
								"patchline" : 								{
									"source" : [ "obj-253", 0 ],
									"destination" : [ "obj-254", 0 ],
									"hidden" : 0,
									"midpoints" : [  ]
								}

							}
, 							{
								"patchline" : 								{
									"source" : [ "obj-252", 0 ],
									"destination" : [ "obj-253", 0 ],
									"hidden" : 0,
									"midpoints" : [  ]
								}

							}
, 							{
								"patchline" : 								{
									"source" : [ "obj-247", 0 ],
									"destination" : [ "obj-248", 0 ],
									"hidden" : 0,
									"midpoints" : [  ]
								}

							}
, 							{
								"patchline" : 								{
									"source" : [ "obj-248", 0 ],
									"destination" : [ "obj-249", 0 ],
									"hidden" : 0,
									"midpoints" : [  ]
								}

							}
, 							{
								"patchline" : 								{
									"source" : [ "obj-249", 0 ],
									"destination" : [ "obj-251", 0 ],
									"hidden" : 0,
									"midpoints" : [  ]
								}

							}
, 							{
								"patchline" : 								{
									"source" : [ "obj-251", 0 ],
									"destination" : [ "obj-250", 0 ],
									"hidden" : 0,
									"midpoints" : [  ]
								}

							}
, 							{
								"patchline" : 								{
									"source" : [ "obj-261", 0 ],
									"destination" : [ "obj-260", 0 ],
									"hidden" : 0,
									"midpoints" : [  ]
								}

							}
, 							{
								"patchline" : 								{
									"source" : [ "obj-259", 0 ],
									"destination" : [ "obj-261", 0 ],
									"hidden" : 0,
									"midpoints" : [  ]
								}

							}
, 							{
								"patchline" : 								{
									"source" : [ "obj-258", 0 ],
									"destination" : [ "obj-259", 0 ],
									"hidden" : 0,
									"midpoints" : [  ]
								}

							}
, 							{
								"patchline" : 								{
									"source" : [ "obj-257", 0 ],
									"destination" : [ "obj-258", 0 ],
									"hidden" : 0,
									"midpoints" : [  ]
								}

							}
, 							{
								"patchline" : 								{
									"source" : [ "obj-262", 0 ],
									"destination" : [ "obj-263", 0 ],
									"hidden" : 0,
									"midpoints" : [  ]
								}

							}
, 							{
								"patchline" : 								{
									"source" : [ "obj-263", 0 ],
									"destination" : [ "obj-264", 0 ],
									"hidden" : 0,
									"midpoints" : [  ]
								}

							}
, 							{
								"patchline" : 								{
									"source" : [ "obj-264", 0 ],
									"destination" : [ "obj-266", 0 ],
									"hidden" : 0,
									"midpoints" : [  ]
								}

							}
, 							{
								"patchline" : 								{
									"source" : [ "obj-266", 0 ],
									"destination" : [ "obj-265", 0 ],
									"hidden" : 0,
									"midpoints" : [  ]
								}

							}
, 							{
								"patchline" : 								{
									"source" : [ "obj-245", 0 ],
									"destination" : [ "obj-106", 0 ],
									"hidden" : 0,
									"midpoints" : [  ]
								}

							}
, 							{
								"patchline" : 								{
									"source" : [ "obj-240", 0 ],
									"destination" : [ "obj-105", 0 ],
									"hidden" : 0,
									"midpoints" : [  ]
								}

							}
, 							{
								"patchline" : 								{
									"source" : [ "obj-235", 0 ],
									"destination" : [ "obj-104", 0 ],
									"hidden" : 0,
									"midpoints" : [  ]
								}

							}
, 							{
								"patchline" : 								{
									"source" : [ "obj-230", 0 ],
									"destination" : [ "obj-103", 0 ],
									"hidden" : 0,
									"midpoints" : [  ]
								}

							}
, 							{
								"patchline" : 								{
									"source" : [ "obj-246", 0 ],
									"destination" : [ "obj-245", 0 ],
									"hidden" : 0,
									"midpoints" : [  ]
								}

							}
, 							{
								"patchline" : 								{
									"source" : [ "obj-244", 0 ],
									"destination" : [ "obj-246", 0 ],
									"hidden" : 0,
									"midpoints" : [  ]
								}

							}
, 							{
								"patchline" : 								{
									"source" : [ "obj-243", 0 ],
									"destination" : [ "obj-244", 0 ],
									"hidden" : 0,
									"midpoints" : [  ]
								}

							}
, 							{
								"patchline" : 								{
									"source" : [ "obj-242", 0 ],
									"destination" : [ "obj-243", 0 ],
									"hidden" : 0,
									"midpoints" : [  ]
								}

							}
, 							{
								"patchline" : 								{
									"source" : [ "obj-237", 0 ],
									"destination" : [ "obj-238", 0 ],
									"hidden" : 0,
									"midpoints" : [  ]
								}

							}
, 							{
								"patchline" : 								{
									"source" : [ "obj-238", 0 ],
									"destination" : [ "obj-239", 0 ],
									"hidden" : 0,
									"midpoints" : [  ]
								}

							}
, 							{
								"patchline" : 								{
									"source" : [ "obj-239", 0 ],
									"destination" : [ "obj-241", 0 ],
									"hidden" : 0,
									"midpoints" : [  ]
								}

							}
, 							{
								"patchline" : 								{
									"source" : [ "obj-241", 0 ],
									"destination" : [ "obj-240", 0 ],
									"hidden" : 0,
									"midpoints" : [  ]
								}

							}
, 							{
								"patchline" : 								{
									"source" : [ "obj-231", 0 ],
									"destination" : [ "obj-230", 0 ],
									"hidden" : 0,
									"midpoints" : [  ]
								}

							}
, 							{
								"patchline" : 								{
									"source" : [ "obj-229", 0 ],
									"destination" : [ "obj-231", 0 ],
									"hidden" : 0,
									"midpoints" : [  ]
								}

							}
, 							{
								"patchline" : 								{
									"source" : [ "obj-228", 0 ],
									"destination" : [ "obj-229", 0 ],
									"hidden" : 0,
									"midpoints" : [  ]
								}

							}
, 							{
								"patchline" : 								{
									"source" : [ "obj-227", 0 ],
									"destination" : [ "obj-228", 0 ],
									"hidden" : 0,
									"midpoints" : [  ]
								}

							}
, 							{
								"patchline" : 								{
									"source" : [ "obj-232", 0 ],
									"destination" : [ "obj-233", 0 ],
									"hidden" : 0,
									"midpoints" : [  ]
								}

							}
, 							{
								"patchline" : 								{
									"source" : [ "obj-233", 0 ],
									"destination" : [ "obj-234", 0 ],
									"hidden" : 0,
									"midpoints" : [  ]
								}

							}
, 							{
								"patchline" : 								{
									"source" : [ "obj-234", 0 ],
									"destination" : [ "obj-236", 0 ],
									"hidden" : 0,
									"midpoints" : [  ]
								}

							}
, 							{
								"patchline" : 								{
									"source" : [ "obj-236", 0 ],
									"destination" : [ "obj-235", 0 ],
									"hidden" : 0,
									"midpoints" : [  ]
								}

							}
, 							{
								"patchline" : 								{
									"source" : [ "obj-210", 0 ],
									"destination" : [ "obj-98", 0 ],
									"hidden" : 0,
									"midpoints" : [  ]
								}

							}
, 							{
								"patchline" : 								{
									"source" : [ "obj-215", 0 ],
									"destination" : [ "obj-100", 0 ],
									"hidden" : 0,
									"midpoints" : [  ]
								}

							}
, 							{
								"patchline" : 								{
									"source" : [ "obj-220", 0 ],
									"destination" : [ "obj-101", 0 ],
									"hidden" : 0,
									"midpoints" : [  ]
								}

							}
, 							{
								"patchline" : 								{
									"source" : [ "obj-225", 0 ],
									"destination" : [ "obj-102", 0 ],
									"hidden" : 0,
									"midpoints" : [  ]
								}

							}
, 							{
								"patchline" : 								{
									"source" : [ "obj-226", 0 ],
									"destination" : [ "obj-225", 0 ],
									"hidden" : 0,
									"midpoints" : [  ]
								}

							}
, 							{
								"patchline" : 								{
									"source" : [ "obj-224", 0 ],
									"destination" : [ "obj-226", 0 ],
									"hidden" : 0,
									"midpoints" : [  ]
								}

							}
, 							{
								"patchline" : 								{
									"source" : [ "obj-223", 0 ],
									"destination" : [ "obj-224", 0 ],
									"hidden" : 0,
									"midpoints" : [  ]
								}

							}
, 							{
								"patchline" : 								{
									"source" : [ "obj-222", 0 ],
									"destination" : [ "obj-223", 0 ],
									"hidden" : 0,
									"midpoints" : [  ]
								}

							}
, 							{
								"patchline" : 								{
									"source" : [ "obj-217", 0 ],
									"destination" : [ "obj-218", 0 ],
									"hidden" : 0,
									"midpoints" : [  ]
								}

							}
, 							{
								"patchline" : 								{
									"source" : [ "obj-218", 0 ],
									"destination" : [ "obj-219", 0 ],
									"hidden" : 0,
									"midpoints" : [  ]
								}

							}
, 							{
								"patchline" : 								{
									"source" : [ "obj-219", 0 ],
									"destination" : [ "obj-221", 0 ],
									"hidden" : 0,
									"midpoints" : [  ]
								}

							}
, 							{
								"patchline" : 								{
									"source" : [ "obj-221", 0 ],
									"destination" : [ "obj-220", 0 ],
									"hidden" : 0,
									"midpoints" : [  ]
								}

							}
, 							{
								"patchline" : 								{
									"source" : [ "obj-211", 0 ],
									"destination" : [ "obj-210", 0 ],
									"hidden" : 0,
									"midpoints" : [  ]
								}

							}
, 							{
								"patchline" : 								{
									"source" : [ "obj-209", 0 ],
									"destination" : [ "obj-211", 0 ],
									"hidden" : 0,
									"midpoints" : [  ]
								}

							}
, 							{
								"patchline" : 								{
									"source" : [ "obj-208", 0 ],
									"destination" : [ "obj-209", 0 ],
									"hidden" : 0,
									"midpoints" : [  ]
								}

							}
, 							{
								"patchline" : 								{
									"source" : [ "obj-207", 0 ],
									"destination" : [ "obj-208", 0 ],
									"hidden" : 0,
									"midpoints" : [  ]
								}

							}
, 							{
								"patchline" : 								{
									"source" : [ "obj-212", 0 ],
									"destination" : [ "obj-213", 0 ],
									"hidden" : 0,
									"midpoints" : [  ]
								}

							}
, 							{
								"patchline" : 								{
									"source" : [ "obj-213", 0 ],
									"destination" : [ "obj-214", 0 ],
									"hidden" : 0,
									"midpoints" : [  ]
								}

							}
, 							{
								"patchline" : 								{
									"source" : [ "obj-214", 0 ],
									"destination" : [ "obj-216", 0 ],
									"hidden" : 0,
									"midpoints" : [  ]
								}

							}
, 							{
								"patchline" : 								{
									"source" : [ "obj-216", 0 ],
									"destination" : [ "obj-215", 0 ],
									"hidden" : 0,
									"midpoints" : [  ]
								}

							}
, 							{
								"patchline" : 								{
									"source" : [ "obj-200", 0 ],
									"destination" : [ "obj-96", 0 ],
									"hidden" : 0,
									"midpoints" : [  ]
								}

							}
, 							{
								"patchline" : 								{
									"source" : [ "obj-205", 0 ],
									"destination" : [ "obj-97", 0 ],
									"hidden" : 0,
									"midpoints" : [  ]
								}

							}
, 							{
								"patchline" : 								{
									"source" : [ "obj-206", 0 ],
									"destination" : [ "obj-205", 0 ],
									"hidden" : 0,
									"midpoints" : [  ]
								}

							}
, 							{
								"patchline" : 								{
									"source" : [ "obj-204", 0 ],
									"destination" : [ "obj-206", 0 ],
									"hidden" : 0,
									"midpoints" : [  ]
								}

							}
, 							{
								"patchline" : 								{
									"source" : [ "obj-203", 0 ],
									"destination" : [ "obj-204", 0 ],
									"hidden" : 0,
									"midpoints" : [  ]
								}

							}
, 							{
								"patchline" : 								{
									"source" : [ "obj-202", 0 ],
									"destination" : [ "obj-203", 0 ],
									"hidden" : 0,
									"midpoints" : [  ]
								}

							}
, 							{
								"patchline" : 								{
									"source" : [ "obj-197", 0 ],
									"destination" : [ "obj-198", 0 ],
									"hidden" : 0,
									"midpoints" : [  ]
								}

							}
, 							{
								"patchline" : 								{
									"source" : [ "obj-198", 0 ],
									"destination" : [ "obj-199", 0 ],
									"hidden" : 0,
									"midpoints" : [  ]
								}

							}
, 							{
								"patchline" : 								{
									"source" : [ "obj-199", 0 ],
									"destination" : [ "obj-201", 0 ],
									"hidden" : 0,
									"midpoints" : [  ]
								}

							}
, 							{
								"patchline" : 								{
									"source" : [ "obj-201", 0 ],
									"destination" : [ "obj-200", 0 ],
									"hidden" : 0,
									"midpoints" : [  ]
								}

							}
, 							{
								"patchline" : 								{
									"source" : [ "obj-195", 0 ],
									"destination" : [ "obj-95", 0 ],
									"hidden" : 0,
									"midpoints" : [  ]
								}

							}
, 							{
								"patchline" : 								{
									"source" : [ "obj-196", 0 ],
									"destination" : [ "obj-195", 0 ],
									"hidden" : 0,
									"midpoints" : [  ]
								}

							}
, 							{
								"patchline" : 								{
									"source" : [ "obj-194", 0 ],
									"destination" : [ "obj-196", 0 ],
									"hidden" : 0,
									"midpoints" : [  ]
								}

							}
, 							{
								"patchline" : 								{
									"source" : [ "obj-193", 0 ],
									"destination" : [ "obj-194", 0 ],
									"hidden" : 0,
									"midpoints" : [  ]
								}

							}
, 							{
								"patchline" : 								{
									"source" : [ "obj-192", 0 ],
									"destination" : [ "obj-193", 0 ],
									"hidden" : 0,
									"midpoints" : [  ]
								}

							}
, 							{
								"patchline" : 								{
									"source" : [ "obj-113", 0 ],
									"destination" : [ "obj-93", 0 ],
									"hidden" : 0,
									"midpoints" : [  ]
								}

							}
, 							{
								"patchline" : 								{
									"source" : [ "obj-186", 0 ],
									"destination" : [ "obj-185", 0 ],
									"hidden" : 0,
									"midpoints" : [  ]
								}

							}
, 							{
								"patchline" : 								{
									"source" : [ "obj-185", 0 ],
									"destination" : [ "obj-115", 0 ],
									"hidden" : 0,
									"midpoints" : [  ]
								}

							}
, 							{
								"patchline" : 								{
									"source" : [ "obj-115", 0 ],
									"destination" : [ "obj-111", 0 ],
									"hidden" : 0,
									"midpoints" : [  ]
								}

							}
, 							{
								"patchline" : 								{
									"source" : [ "obj-111", 0 ],
									"destination" : [ "obj-113", 0 ],
									"hidden" : 0,
									"midpoints" : [  ]
								}

							}
, 							{
								"patchline" : 								{
									"source" : [ "obj-191", 0 ],
									"destination" : [ "obj-187", 0 ],
									"hidden" : 0,
									"midpoints" : [  ]
								}

							}
, 							{
								"patchline" : 								{
									"source" : [ "obj-3", 0 ],
									"destination" : [ "obj-191", 0 ],
									"hidden" : 0,
									"midpoints" : [  ]
								}

							}
, 							{
								"patchline" : 								{
									"source" : [ "obj-1", 0 ],
									"destination" : [ "obj-267", 0 ],
									"hidden" : 0,
									"midpoints" : [  ]
								}

							}
 ]
					}
,
					"saved_object_attributes" : 					{
						"fontface" : 0,
						"fontsize" : 12.0,
						"default_fontname" : "Arial",
						"default_fontsize" : 12.0,
						"fontname" : "Arial",
						"globalpatchername" : "",
						"default_fontface" : 0
					}

				}

			}
, 			{
				"box" : 				{
					"maxclass" : "newobj",
					"text" : "unpack 1 2",
					"numoutlets" : 2,
					"fontsize" : 12.0,
					"patching_rect" : [ 48.420776, 435.644653, 69.0, 20.0 ],
					"outlettype" : [ "int", "int" ],
					"id" : "obj-50",
					"fontname" : "Arial",
					"numinlets" : 1
				}

			}
, 			{
				"box" : 				{
					"maxclass" : "newobj",
					"text" : "noteout 10",
					"numoutlets" : 0,
					"fontsize" : 9.0,
					"patching_rect" : [ 48.239014, 473.302551, 53.0, 17.0 ],
					"id" : "obj-48",
					"fontname" : "Arial",
					"numinlets" : 3
				}

			}
 ],
		"lines" : [ 			{
				"patchline" : 				{
					"source" : [ "obj-25", 1 ],
					"destination" : [ "obj-48", 0 ],
					"hidden" : 0,
					"midpoints" : [ 401.5, 303.151276, 57.739014, 303.151276 ]
				}

			}
, 			{
				"patchline" : 				{
					"source" : [ "obj-50", 1 ],
					"destination" : [ "obj-48", 1 ],
					"hidden" : 0,
					"midpoints" : [ 107.920776, 462.973602, 74.739014, 462.973602 ]
				}

			}
, 			{
				"patchline" : 				{
					"source" : [ "obj-50", 0 ],
					"destination" : [ "obj-48", 0 ],
					"hidden" : 0,
					"midpoints" : [  ]
				}

			}
, 			{
				"patchline" : 				{
					"source" : [ "obj-269", 0 ],
					"destination" : [ "obj-50", 0 ],
					"hidden" : 0,
					"midpoints" : [  ]
				}

			}
, 			{
				"patchline" : 				{
					"source" : [ "obj-316", 0 ],
					"destination" : [ "obj-309", 0 ],
					"hidden" : 0,
					"midpoints" : [  ]
				}

			}
, 			{
				"patchline" : 				{
					"source" : [ "obj-320", 0 ],
					"destination" : [ "obj-316", 0 ],
					"hidden" : 0,
					"midpoints" : [  ]
				}

			}
, 			{
				"patchline" : 				{
					"source" : [ "obj-192", 0 ],
					"destination" : [ "obj-191", 0 ],
					"hidden" : 1,
					"midpoints" : [  ]
				}

			}
, 			{
				"patchline" : 				{
					"source" : [ "obj-191", 0 ],
					"destination" : [ "obj-190", 0 ],
					"hidden" : 1,
					"midpoints" : [ 533.900024, 281.200012, 536.900024, 281.200012 ]
				}

			}
, 			{
				"patchline" : 				{
					"source" : [ "obj-188", 0 ],
					"destination" : [ "obj-132", 0 ],
					"hidden" : 1,
					"midpoints" : [  ]
				}

			}
, 			{
				"patchline" : 				{
					"source" : [ "obj-132", 0 ],
					"destination" : [ "obj-101", 0 ],
					"hidden" : 1,
					"midpoints" : [ 534.900024, 139.200012, 537.900024, 139.200012 ]
				}

			}
, 			{
				"patchline" : 				{
					"source" : [ "obj-26", 0 ],
					"destination" : [ "obj-5", 0 ],
					"hidden" : 0,
					"midpoints" : [  ]
				}

			}
, 			{
				"patchline" : 				{
					"source" : [ "obj-5", 0 ],
					"destination" : [ "obj-25", 0 ],
					"hidden" : 0,
					"midpoints" : [ 288.5, 108.0, 322.5, 108.0 ]
				}

			}
, 			{
				"patchline" : 				{
					"source" : [ "obj-3", 0 ],
					"destination" : [ "obj-8", 0 ],
					"hidden" : 0,
					"midpoints" : [  ]
				}

			}
, 			{
				"patchline" : 				{
					"source" : [ "obj-8", 1 ],
					"destination" : [ "obj-25", 0 ],
					"hidden" : 0,
					"midpoints" : [  ]
				}

			}
, 			{
				"patchline" : 				{
					"source" : [ "obj-8", 0 ],
					"destination" : [ "obj-26", 0 ],
					"hidden" : 0,
					"midpoints" : [  ]
				}

			}
, 			{
				"patchline" : 				{
					"source" : [ "obj-13", 0 ],
					"destination" : [ "obj-4", 0 ],
					"hidden" : 0,
					"midpoints" : [  ]
				}

			}
, 			{
				"patchline" : 				{
					"source" : [ "obj-28", 4 ],
					"destination" : [ "obj-31", 0 ],
					"hidden" : 0,
					"midpoints" : [  ]
				}

			}
, 			{
				"patchline" : 				{
					"source" : [ "obj-28", 3 ],
					"destination" : [ "obj-17", 0 ],
					"hidden" : 0,
					"midpoints" : [  ]
				}

			}
, 			{
				"patchline" : 				{
					"source" : [ "obj-28", 2 ],
					"destination" : [ "obj-16", 0 ],
					"hidden" : 0,
					"midpoints" : [  ]
				}

			}
, 			{
				"patchline" : 				{
					"source" : [ "obj-28", 1 ],
					"destination" : [ "obj-30", 0 ],
					"hidden" : 0,
					"midpoints" : [  ]
				}

			}
, 			{
				"patchline" : 				{
					"source" : [ "obj-28", 0 ],
					"destination" : [ "obj-29", 0 ],
					"hidden" : 0,
					"midpoints" : [  ]
				}

			}
, 			{
				"patchline" : 				{
					"source" : [ "obj-28", 5 ],
					"destination" : [ "obj-32", 0 ],
					"hidden" : 0,
					"midpoints" : [  ]
				}

			}
, 			{
				"patchline" : 				{
					"source" : [ "obj-28", 6 ],
					"destination" : [ "obj-33", 0 ],
					"hidden" : 0,
					"midpoints" : [  ]
				}

			}
, 			{
				"patchline" : 				{
					"source" : [ "obj-28", 7 ],
					"destination" : [ "obj-34", 0 ],
					"hidden" : 0,
					"midpoints" : [  ]
				}

			}
, 			{
				"patchline" : 				{
					"source" : [ "obj-28", 8 ],
					"destination" : [ "obj-35", 0 ],
					"hidden" : 0,
					"midpoints" : [  ]
				}

			}
, 			{
				"patchline" : 				{
					"source" : [ "obj-28", 9 ],
					"destination" : [ "obj-36", 0 ],
					"hidden" : 0,
					"midpoints" : [  ]
				}

			}
, 			{
				"patchline" : 				{
					"source" : [ "obj-28", 10 ],
					"destination" : [ "obj-42", 0 ],
					"hidden" : 0,
					"midpoints" : [  ]
				}

			}
, 			{
				"patchline" : 				{
					"source" : [ "obj-28", 11 ],
					"destination" : [ "obj-43", 0 ],
					"hidden" : 0,
					"midpoints" : [  ]
				}

			}
, 			{
				"patchline" : 				{
					"source" : [ "obj-28", 12 ],
					"destination" : [ "obj-44", 0 ],
					"hidden" : 0,
					"midpoints" : [  ]
				}

			}
, 			{
				"patchline" : 				{
					"source" : [ "obj-28", 13 ],
					"destination" : [ "obj-45", 0 ],
					"hidden" : 0,
					"midpoints" : [  ]
				}

			}
, 			{
				"patchline" : 				{
					"source" : [ "obj-28", 14 ],
					"destination" : [ "obj-46", 0 ],
					"hidden" : 0,
					"midpoints" : [  ]
				}

			}
, 			{
				"patchline" : 				{
					"source" : [ "obj-28", 15 ],
					"destination" : [ "obj-37", 0 ],
					"hidden" : 0,
					"midpoints" : [  ]
				}

			}
, 			{
				"patchline" : 				{
					"source" : [ "obj-61", 0 ],
					"destination" : [ "obj-28", 0 ],
					"hidden" : 0,
					"midpoints" : [  ]
				}

			}
, 			{
				"patchline" : 				{
					"source" : [ "obj-29", 0 ],
					"destination" : [ "obj-269", 0 ],
					"hidden" : 0,
					"midpoints" : [ 57.5, 398.5, 57.5, 398.5 ]
				}

			}
, 			{
				"patchline" : 				{
					"source" : [ "obj-30", 0 ],
					"destination" : [ "obj-269", 0 ],
					"hidden" : 0,
					"midpoints" : [ 92.5, 398.5, 57.5, 398.5 ]
				}

			}
, 			{
				"patchline" : 				{
					"source" : [ "obj-16", 0 ],
					"destination" : [ "obj-269", 0 ],
					"hidden" : 0,
					"midpoints" : [ 127.5, 398.5, 57.5, 398.5 ]
				}

			}
, 			{
				"patchline" : 				{
					"source" : [ "obj-17", 0 ],
					"destination" : [ "obj-269", 0 ],
					"hidden" : 0,
					"midpoints" : [ 162.5, 398.5, 57.5, 398.5 ]
				}

			}
, 			{
				"patchline" : 				{
					"source" : [ "obj-31", 0 ],
					"destination" : [ "obj-269", 0 ],
					"hidden" : 0,
					"midpoints" : [ 197.5, 398.5, 57.5, 398.5 ]
				}

			}
, 			{
				"patchline" : 				{
					"source" : [ "obj-32", 0 ],
					"destination" : [ "obj-269", 0 ],
					"hidden" : 0,
					"midpoints" : [ 231.5, 398.5, 57.5, 398.5 ]
				}

			}
, 			{
				"patchline" : 				{
					"source" : [ "obj-33", 0 ],
					"destination" : [ "obj-269", 0 ],
					"hidden" : 0,
					"midpoints" : [ 266.5, 398.5, 57.5, 398.5 ]
				}

			}
, 			{
				"patchline" : 				{
					"source" : [ "obj-34", 0 ],
					"destination" : [ "obj-269", 0 ],
					"hidden" : 0,
					"midpoints" : [ 301.5, 398.5, 57.5, 398.5 ]
				}

			}
, 			{
				"patchline" : 				{
					"source" : [ "obj-35", 0 ],
					"destination" : [ "obj-269", 0 ],
					"hidden" : 0,
					"midpoints" : [ 336.5, 398.5, 57.5, 398.5 ]
				}

			}
, 			{
				"patchline" : 				{
					"source" : [ "obj-36", 0 ],
					"destination" : [ "obj-269", 0 ],
					"hidden" : 0,
					"midpoints" : [ 371.5, 398.5, 57.5, 398.5 ]
				}

			}
, 			{
				"patchline" : 				{
					"source" : [ "obj-42", 0 ],
					"destination" : [ "obj-269", 0 ],
					"hidden" : 0,
					"midpoints" : [ 406.5, 398.0, 57.5, 398.0 ]
				}

			}
, 			{
				"patchline" : 				{
					"source" : [ "obj-43", 0 ],
					"destination" : [ "obj-269", 0 ],
					"hidden" : 0,
					"midpoints" : [ 441.5, 398.0, 57.5, 398.0 ]
				}

			}
, 			{
				"patchline" : 				{
					"source" : [ "obj-44", 0 ],
					"destination" : [ "obj-269", 0 ],
					"hidden" : 0,
					"midpoints" : [ 476.5, 398.0, 57.5, 398.0 ]
				}

			}
, 			{
				"patchline" : 				{
					"source" : [ "obj-45", 0 ],
					"destination" : [ "obj-269", 0 ],
					"hidden" : 0,
					"midpoints" : [ 511.5, 398.0, 57.5, 398.0 ]
				}

			}
, 			{
				"patchline" : 				{
					"source" : [ "obj-46", 0 ],
					"destination" : [ "obj-269", 0 ],
					"hidden" : 0,
					"midpoints" : [ 546.5, 398.0, 57.5, 398.0 ]
				}

			}
, 			{
				"patchline" : 				{
					"source" : [ "obj-37", 0 ],
					"destination" : [ "obj-269", 0 ],
					"hidden" : 0,
					"midpoints" : [ 580.5, 398.0, 57.5, 398.0 ]
				}

			}
, 			{
				"patchline" : 				{
					"source" : [ "obj-63", 0 ],
					"destination" : [ "obj-61", 0 ],
					"hidden" : 0,
					"midpoints" : [  ]
				}

			}
, 			{
				"patchline" : 				{
					"source" : [ "obj-63", 1 ],
					"destination" : [ "obj-18", 1 ],
					"hidden" : 0,
					"midpoints" : [ 71.0, 304.5, 162.5, 304.5 ]
				}

			}
, 			{
				"patchline" : 				{
					"source" : [ "obj-62", 0 ],
					"destination" : [ "obj-63", 0 ],
					"hidden" : 0,
					"midpoints" : [  ]
				}

			}
, 			{
				"patchline" : 				{
					"source" : [ "obj-14", 0 ],
					"destination" : [ "obj-63", 0 ],
					"hidden" : 0,
					"midpoints" : [  ]
				}

			}
, 			{
				"patchline" : 				{
					"source" : [ "obj-47", 0 ],
					"destination" : [ "obj-63", 0 ],
					"hidden" : 0,
					"midpoints" : [  ]
				}

			}
, 			{
				"patchline" : 				{
					"source" : [ "obj-18", 0 ],
					"destination" : [ "obj-269", 1 ],
					"hidden" : 0,
					"midpoints" : [ 127.5, 369.5, 99.5, 369.5 ]
				}

			}
, 			{
				"patchline" : 				{
					"source" : [ "obj-4", 0 ],
					"destination" : [ "obj-269", 1 ],
					"hidden" : 0,
					"midpoints" : [ 244.5, 256.0, 99.5, 256.0 ]
				}

			}
, 			{
				"patchline" : 				{
					"source" : [ "obj-65", 0 ],
					"destination" : [ "obj-18", 0 ],
					"hidden" : 0,
					"midpoints" : [  ]
				}

			}
, 			{
				"patchline" : 				{
					"source" : [ "obj-12", 0 ],
					"destination" : [ "obj-63", 0 ],
					"hidden" : 0,
					"midpoints" : [  ]
				}

			}
 ],
		"parameters" : 		{

		}

	}

}
