{
	"patcher" : 	{
		"fileversion" : 1,
		"appversion" : 		{
			"major" : 8,
			"minor" : 1,
			"revision" : 8,
			"architecture" : "x64",
			"modernui" : 1
		}
,
		"classnamespace" : "box",
		"rect" : [ 198.0, 154.0, 845.0, 636.0 ],
		"bglocked" : 0,
		"openinpresentation" : 1,
		"default_fontsize" : 12.0,
		"default_fontface" : 0,
		"default_fontname" : "Arial",
		"gridonopen" : 1,
		"gridsize" : [ 15.0, 15.0 ],
		"gridsnaponopen" : 1,
		"objectsnaponopen" : 1,
		"statusbarvisible" : 2,
		"toolbarvisible" : 1,
		"lefttoolbarpinned" : 0,
		"toptoolbarpinned" : 0,
		"righttoolbarpinned" : 0,
		"bottomtoolbarpinned" : 0,
		"toolbars_unpinned_last_save" : 0,
		"tallnewobj" : 0,
		"boxanimatetime" : 200,
		"enablehscroll" : 1,
		"enablevscroll" : 1,
		"devicewidth" : 0.0,
		"description" : "",
		"digest" : "",
		"tags" : "",
		"style" : "",
		"subpatcher_template" : "",
		"assistshowspatchername" : 0,
		"boxes" : [ 			{
				"box" : 				{
					"id" : "obj-42",
					"linecount" : 2,
					"maxclass" : "comment",
					"numinlets" : 1,
					"numoutlets" : 0,
					"patching_rect" : [ 162.40002400000003, 41.5, 150.0, 33.0 ],
					"presentation" : 1,
					"presentation_rect" : [ 406.0, 5.0, 173.0, 20.0 ],
					"text" : "Use common names in menu"
				}

			}
, 			{
				"box" : 				{
					"id" : "obj-45",
					"maxclass" : "button",
					"numinlets" : 1,
					"numoutlets" : 1,
					"outlettype" : [ "bang" ],
					"parameter_enable" : 0,
					"patching_rect" : [ 137.0, 41.5, 24.0, 24.0 ],
					"presentation" : 1,
					"presentation_rect" : [ 380.59997599999997, 5.0, 24.0, 24.0 ],
					"style" : "EAMIR"
				}

			}
, 			{
				"box" : 				{
					"id" : "obj-41",
					"linecount" : 2,
					"maxclass" : "comment",
					"numinlets" : 1,
					"numoutlets" : 0,
					"patching_rect" : [ 376.0, 46.0, 150.0, 33.0 ],
					"presentation" : 1,
					"presentation_rect" : [ 406.0, 33.5, 173.0, 20.0 ],
					"text" : "Use modal names in menu"
				}

			}
, 			{
				"box" : 				{
					"id" : "obj-32",
					"maxclass" : "button",
					"numinlets" : 1,
					"numoutlets" : 1,
					"outlettype" : [ "bang" ],
					"parameter_enable" : 0,
					"patching_rect" : [ 350.0, 46.0, 24.0, 24.0 ],
					"presentation" : 1,
					"presentation_rect" : [ 380.0, 33.5, 24.0, 24.0 ],
					"style" : "EAMIR"
				}

			}
, 			{
				"box" : 				{
					"fontname" : "Arial",
					"fontsize" : 13.0,
					"id" : "obj-22",
					"maxclass" : "message",
					"numinlets" : 2,
					"numoutlets" : 1,
					"outlettype" : [ "" ],
					"patching_rect" : [ 454.0, 94.0, 107.0, 23.0 ],
					"text" : "setitem 6 aeolian"
				}

			}
, 			{
				"box" : 				{
					"fontname" : "Arial",
					"fontsize" : 13.0,
					"id" : "obj-23",
					"maxclass" : "message",
					"numinlets" : 2,
					"numoutlets" : 1,
					"outlettype" : [ "" ],
					"patching_rect" : [ 350.0, 94.0, 100.0, 23.0 ],
					"text" : "setitem 0 ionian"
				}

			}
, 			{
				"box" : 				{
					"fontname" : "Arial",
					"fontsize" : 13.0,
					"id" : "obj-21",
					"maxclass" : "message",
					"numinlets" : 2,
					"numoutlets" : 1,
					"outlettype" : [ "" ],
					"patching_rect" : [ 240.40002400000003, 101.0, 97.0, 23.0 ],
					"text" : "setitem 6 Minor"
				}

			}
, 			{
				"box" : 				{
					"fontname" : "Arial",
					"fontsize" : 13.0,
					"id" : "obj-17",
					"maxclass" : "message",
					"numinlets" : 2,
					"numoutlets" : 1,
					"outlettype" : [ "" ],
					"patching_rect" : [ 137.0, 101.0, 97.0, 23.0 ],
					"text" : "setitem 0 Major"
				}

			}
, 			{
				"box" : 				{
					"bgmode" : 0,
					"border" : 0,
					"clickthrough" : 0,
					"enablehscroll" : 0,
					"enablevscroll" : 0,
					"id" : "obj-13",
					"lockeddragscroll" : 0,
					"maxclass" : "bpatcher",
					"name" : "EAMIR_info.maxpat",
					"numinlets" : 0,
					"numoutlets" : 0,
					"offset" : [ 0.0, 0.0 ],
					"patching_rect" : [ 645.0, 377.0, 85.0, 110.0 ],
					"viewvisibility" : 1
				}

			}
, 			{
				"box" : 				{
					"comment" : "bypass filtering",
					"id" : "obj-1",
					"index" : 0,
					"maxclass" : "inlet",
					"numinlets" : 0,
					"numoutlets" : 1,
					"outlettype" : [ "" ],
					"patching_rect" : [ 209.0, 355.0, 25.0, 25.0 ]
				}

			}
, 			{
				"box" : 				{
					"fontname" : "Arial",
					"fontsize" : 12.0,
					"id" : "obj-18",
					"linecount" : 2,
					"maxclass" : "comment",
					"numinlets" : 1,
					"numoutlets" : 0,
					"patching_rect" : [ 117.0, 314.0, 51.0, 33.0 ],
					"presentation" : 1,
					"presentation_linecount" : 2,
					"presentation_rect" : [ 26.0, 26.0, 51.0, 33.0 ],
					"text" : "bypass filtering"
				}

			}
, 			{
				"box" : 				{
					"bgcolor" : [ 0.847058823529412, 0.847058823529412, 0.847058823529412, 1.0 ],
					"id" : "obj-16",
					"maxclass" : "toggle",
					"numinlets" : 1,
					"numoutlets" : 1,
					"outlettype" : [ "int" ],
					"parameter_enable" : 0,
					"patching_rect" : [ 96.0, 319.0, 20.0, 20.0 ],
					"presentation" : 1,
					"presentation_rect" : [ 7.0, 32.0, 20.0, 20.0 ]
				}

			}
, 			{
				"box" : 				{
					"fontname" : "Arial",
					"fontsize" : 12.0,
					"id" : "obj-4",
					"maxclass" : "newobj",
					"numinlets" : 2,
					"numoutlets" : 1,
					"outlettype" : [ "int" ],
					"patching_rect" : [ 96.0, 357.0, 32.5, 22.0 ],
					"text" : "+ 1"
				}

			}
, 			{
				"box" : 				{
					"fontname" : "Arial",
					"fontsize" : 12.0,
					"id" : "obj-2",
					"maxclass" : "newobj",
					"numinlets" : 2,
					"numoutlets" : 2,
					"outlettype" : [ "", "" ],
					"patching_rect" : [ 113.0, 386.0, 54.0, 22.0 ],
					"text" : "gate 2 1"
				}

			}
, 			{
				"box" : 				{
					"fontname" : "Arial",
					"fontsize" : 12.0,
					"id" : "obj-145",
					"maxclass" : "newobj",
					"numinlets" : 1,
					"numoutlets" : 1,
					"outlettype" : [ "" ],
					"patching_rect" : [ 301.0, 447.5, 97.0, 22.0 ],
					"text" : "modal_coll_filter"
				}

			}
, 			{
				"box" : 				{
					"color" : [ 0.4, 0.4, 0.8, 1.0 ],
					"fontname" : "Arial",
					"fontsize" : 12.0,
					"id" : "obj-108",
					"maxclass" : "newobj",
					"numinlets" : 1,
					"numoutlets" : 4,
					"outlettype" : [ "", "", "", "" ],
					"patching_rect" : [ 301.0, 478.5, 117.0, 22.0 ],
					"saved_object_attributes" : 					{
						"embed" : 0,
						"precision" : 6
					}
,
					"text" : "coll EAMIR_my_coll"
				}

			}
, 			{
				"box" : 				{
					"fontname" : "Arial",
					"fontsize" : 12.0,
					"id" : "obj-40",
					"maxclass" : "newobj",
					"numinlets" : 1,
					"numoutlets" : 1,
					"outlettype" : [ "" ],
					"patching_rect" : [ 112.0, 431.0, 161.0, 22.0 ],
					"text" : "modal_filter EAMIR_my_coll"
				}

			}
, 			{
				"box" : 				{
					"comment" : "sends out a bang before each note is sent out",
					"id" : "obj-39",
					"index" : 0,
					"maxclass" : "outlet",
					"numinlets" : 1,
					"numoutlets" : 0,
					"patching_rect" : [ 121.0, 583.0, 25.0, 25.0 ]
				}

			}
, 			{
				"box" : 				{
					"fontname" : "Arial",
					"fontsize" : 12.0,
					"id" : "obj-12",
					"maxclass" : "newobj",
					"numinlets" : 1,
					"numoutlets" : 2,
					"outlettype" : [ "int", "bang" ],
					"patching_rect" : [ 89.0, 554.0, 32.5, 22.0 ],
					"text" : "t i b"
				}

			}
, 			{
				"box" : 				{
					"delay" : 1,
					"hint" : "with this checked, filtered notes are not passed through the outlet. This is best used with interfaces that are constantly outputting numbers and not for keyboard controllers.",
					"id" : "obj-44",
					"maxclass" : "hint",
					"numinlets" : 1,
					"numoutlets" : 0,
					"patching_rect" : [ 14.0, 386.0, 19.0, 15.0 ],
					"presentation" : 1,
					"presentation_rect" : [ 205.0, 31.0, 21.0, 20.0 ]
				}

			}
, 			{
				"box" : 				{
					"fontname" : "Arial",
					"fontsize" : 12.0,
					"id" : "obj-43",
					"linecount" : 2,
					"maxclass" : "comment",
					"numinlets" : 1,
					"numoutlets" : 0,
					"patching_rect" : [ 37.0, 442.0, 69.0, 33.0 ],
					"presentation" : 1,
					"presentation_rect" : [ 224.0, 31.0, 132.0, 20.0 ],
					"text" : "Filter Out Repetitions"
				}

			}
, 			{
				"box" : 				{
					"fontname" : "Arial",
					"fontsize" : 12.0,
					"id" : "obj-38",
					"maxclass" : "newobj",
					"numinlets" : 2,
					"numoutlets" : 1,
					"outlettype" : [ "int" ],
					"patching_rect" : [ 15.0, 481.0, 32.5, 22.0 ],
					"text" : "+ 1"
				}

			}
, 			{
				"box" : 				{
					"bgcolor" : [ 0.847058823529412, 0.847058823529412, 0.847058823529412, 1.0 ],
					"id" : "obj-37",
					"maxclass" : "toggle",
					"numinlets" : 1,
					"numoutlets" : 1,
					"outlettype" : [ "int" ],
					"parameter_enable" : 0,
					"patching_rect" : [ 15.0, 455.0, 20.0, 20.0 ],
					"presentation" : 1,
					"presentation_rect" : [ 205.0, 31.0, 20.0, 20.0 ],
					"varname" : "eamir_filtering[4]"
				}

			}
, 			{
				"box" : 				{
					"fontname" : "Arial",
					"fontsize" : 12.0,
					"id" : "obj-35",
					"maxclass" : "newobj",
					"numinlets" : 3,
					"numoutlets" : 1,
					"outlettype" : [ "" ],
					"patching_rect" : [ 89.0, 529.0, 64.0, 22.0 ],
					"text" : "switch 1 1"
				}

			}
, 			{
				"box" : 				{
					"fontname" : "Arial",
					"fontsize" : 12.0,
					"id" : "obj-30",
					"maxclass" : "newobj",
					"numinlets" : 1,
					"numoutlets" : 3,
					"outlettype" : [ "", "int", "int" ],
					"patching_rect" : [ 134.0, 495.0, 50.0, 22.0 ],
					"text" : "change"
				}

			}
, 			{
				"box" : 				{
					"fontname" : "Arial",
					"fontsize" : 8.0,
					"id" : "obj-8",
					"maxclass" : "newobj",
					"numinlets" : 1,
					"numoutlets" : 2,
					"outlettype" : [ "int", "int" ],
					"patching_rect" : [ 677.0, 101.0, 36.0, 17.0 ],
					"text" : "unpack"
				}

			}
, 			{
				"box" : 				{
					"fontname" : "Arial",
					"fontsize" : 10.0,
					"id" : "obj-5",
					"maxclass" : "newobj",
					"numinlets" : 0,
					"numoutlets" : 1,
					"outlettype" : [ "" ],
					"patching_rect" : [ 677.0, 70.0, 104.0, 20.0 ],
					"text" : "r eamir_global_mode"
				}

			}
, 			{
				"box" : 				{
					"delay" : 1,
					"hint" : "this will set the mode (major, minor, etc.) based on the tonic you want",
					"id" : "obj-34",
					"maxclass" : "hint",
					"numinlets" : 1,
					"numoutlets" : 0,
					"patching_rect" : [ 139.0, 202.0, 128.0, 20.0 ],
					"presentation" : 1,
					"presentation_rect" : [ 67.0, 3.0, 128.0, 24.0 ]
				}

			}
, 			{
				"box" : 				{
					"fontname" : "Arial",
					"fontsize" : 8.0,
					"id" : "obj-31",
					"maxclass" : "message",
					"numinlets" : 2,
					"numoutlets" : 1,
					"outlettype" : [ "" ],
					"patching_rect" : [ 611.0, 53.0, 29.0, 17.0 ],
					"text" : "0"
				}

			}
, 			{
				"box" : 				{
					"fontname" : "Arial",
					"fontsize" : 10.0,
					"id" : "obj-29",
					"maxclass" : "newobj",
					"numinlets" : 0,
					"numoutlets" : 1,
					"outlettype" : [ "" ],
					"patching_rect" : [ 611.0, 23.0, 115.0, 20.0 ],
					"text" : "r eamir_filtering_default"
				}

			}
, 			{
				"box" : 				{
					"comment" : "incoming note to be filtered",
					"id" : "obj-11",
					"index" : 0,
					"maxclass" : "inlet",
					"numinlets" : 0,
					"numoutlets" : 1,
					"outlettype" : [ "" ],
					"patching_rect" : [ 148.0, 355.0, 25.0, 25.0 ]
				}

			}
, 			{
				"box" : 				{
					"fontname" : "Arial",
					"fontsize" : 12.0,
					"id" : "obj-10",
					"maxclass" : "comment",
					"numinlets" : 1,
					"numoutlets" : 0,
					"patching_rect" : [ 112.0, 169.0, 51.0, 20.0 ],
					"text" : "mode "
				}

			}
, 			{
				"box" : 				{
					"fontname" : "Arial",
					"fontsize" : 12.0,
					"id" : "obj-9",
					"maxclass" : "comment",
					"numinlets" : 1,
					"numoutlets" : 0,
					"patching_rect" : [ 54.0, 170.0, 51.0, 20.0 ],
					"text" : "tonic"
				}

			}
, 			{
				"box" : 				{
					"bgcolor" : [ 0.866667, 0.866667, 0.866667, 1.0 ],
					"fontname" : "Arial",
					"fontsize" : 9.0,
					"htricolor" : [ 0.87, 0.82, 0.24, 1.0 ],
					"id" : "obj-20",
					"maxclass" : "number",
					"numinlets" : 1,
					"numoutlets" : 2,
					"outlettype" : [ "", "bang" ],
					"parameter_enable" : 0,
					"patching_rect" : [ 112.0, 457.0, 42.0, 19.0 ],
					"textcolor" : [ 0.0, 0.0, 0.0, 1.0 ],
					"tricolor" : [ 0.75, 0.75, 0.75, 1.0 ],
					"triscale" : 0.9
				}

			}
, 			{
				"box" : 				{
					"allowdrag" : 0,
					"bgcolor" : [ 0.94902, 0.894118, 0.984314, 1.0 ],
					"bgfillcolor_color" : [ 0.94902, 0.894118, 0.984314, 1.0 ],
					"bgfillcolor_color1" : [ 0.301961, 0.301961, 0.301961, 1 ],
					"bgfillcolor_color2" : [ 0.2, 0.2, 0.2, 1 ],
					"bgfillcolor_type" : "color",
					"fontname" : "Arial",
					"fontsize" : 14.0,
					"id" : "obj-67",
					"items" : [ "ionian", ",", "dorian", ",", "phrygian", ",", "lydian", ",", "mixolydian", ",", "aeolian", ",", "aeolian", ",", "harmonic_major", ",", "dorian_b5", ",", "phrygian_b4", ",", "lydian_b3", ",", "mixolydian_b2", ",", "aeolian_b1", ",", "locrian_b7", ",", "harmonic_minor", ",", "locrian_#6", ",", "ionian_#5", ",", "dorian_#4", ",", "phrygian_#3", ",", "lydian_#2", ",", "mixolydian_#1", ",", "melodic_minor", ",", "dorian_b2", ",", "lydian_#5", ",", "lydian_b7", ",", "mixolydian_b6", ",", "locrian_#2", ",", "locrian_b4" ],
					"labelclick" : 1,
					"maxclass" : "umenu",
					"numinlets" : 1,
					"numoutlets" : 3,
					"outlettype" : [ "int", "", "" ],
					"parameter_enable" : 0,
					"patching_rect" : [ 137.0, 202.0, 132.0, 24.0 ],
					"presentation" : 1,
					"presentation_rect" : [ 66.0, 4.0, 132.0, 24.0 ],
					"textcolor" : [ 0.0, 0.0, 0.0, 1.0 ],
					"varname" : "eamir_filtering[3]"
				}

			}
, 			{
				"box" : 				{
					"fontname" : "Arial",
					"fontsize" : 28.0,
					"id" : "obj-19",
					"linecount" : 2,
					"maxclass" : "comment",
					"numinlets" : 1,
					"numoutlets" : 0,
					"patching_rect" : [ 14.0, 14.0, 122.0, 69.0 ],
					"text" : "MIDI Filtering"
				}

			}
, 			{
				"box" : 				{
					"comment" : "outgoing note to be filtered",
					"id" : "obj-24",
					"index" : 0,
					"maxclass" : "outlet",
					"numinlets" : 1,
					"numoutlets" : 0,
					"patching_rect" : [ 89.0, 583.0, 25.0, 25.0 ]
				}

			}
, 			{
				"box" : 				{
					"fontname" : "Arial",
					"fontsize" : 12.0,
					"id" : "obj-198",
					"maxclass" : "comment",
					"numinlets" : 1,
					"numoutlets" : 0,
					"patching_rect" : [ 637.5, 512.0, 150.0, 20.0 ],
					"presentation" : 1,
					"presentation_rect" : [ 222.0, 5.0, 150.0, 20.0 ],
					"text" : "Restore filtering defaults"
				}

			}
, 			{
				"box" : 				{
					"fontname" : "Arial",
					"fontsize" : 12.0,
					"id" : "obj-15",
					"linecount" : 2,
					"maxclass" : "comment",
					"numinlets" : 1,
					"numoutlets" : 0,
					"patching_rect" : [ 645.0, 237.0, 154.0, 33.0 ],
					"text" : "sets all UI objects to save settings on close"
				}

			}
, 			{
				"box" : 				{
					"fontname" : "Arial",
					"fontsize" : 12.0,
					"id" : "obj-7",
					"maxclass" : "newobj",
					"numinlets" : 1,
					"numoutlets" : 4,
					"outlettype" : [ "", "", "", "" ],
					"patching_rect" : [ 644.0, 296.0, 137.0, 22.0 ],
					"restore" : 					{
						"eamir_filtering[2]" : [ 0 ],
						"eamir_filtering[3]" : [ 0 ],
						"eamir_filtering[4]" : [ 0 ]
					}
,
					"text" : "autopattr eamir_filtering",
					"varname" : "eamir_filtering[1]"
				}

			}
, 			{
				"box" : 				{
					"fontname" : "Arial",
					"fontsize" : 12.0,
					"id" : "obj-6",
					"maxclass" : "newobj",
					"numinlets" : 1,
					"numoutlets" : 3,
					"outlettype" : [ "", "", "" ],
					"patching_rect" : [ 644.0, 272.0, 113.0, 22.0 ],
					"restore" : [ 0 ],
					"saved_object_attributes" : 					{
						"parameter_enable" : 0,
						"parameter_mappable" : 0
					}
,
					"text" : "pattr eamir_filtering",
					"varname" : "eamir_filtering"
				}

			}
, 			{
				"box" : 				{
					"fontname" : "Arial",
					"fontsize" : 10.0,
					"id" : "obj-76",
					"maxclass" : "newobj",
					"numinlets" : 1,
					"numoutlets" : 0,
					"patching_rect" : [ 620.5, 535.0, 117.0, 20.0 ],
					"text" : "s eamir_filtering_default"
				}

			}
, 			{
				"box" : 				{
					"delay" : 1,
					"hint" : "restores MIDI output, device, and timbre to default. Otherwise, the software will load the last settings you used when it loads up.",
					"id" : "obj-202",
					"maxclass" : "hint",
					"numinlets" : 1,
					"numoutlets" : 0,
					"patching_rect" : [ 620.5, 481.0, 20.0, 21.0 ],
					"presentation" : 1,
					"presentation_rect" : [ 208.0, 8.0, 16.0, 16.0 ]
				}

			}
, 			{
				"box" : 				{
					"bgcolor" : [ 0.847058823529412, 0.847058823529412, 0.847058823529412, 1.0 ],
					"blinkcolor" : [ 1.0, 0.0, 0.0, 1.0 ],
					"id" : "obj-75",
					"maxclass" : "button",
					"numinlets" : 1,
					"numoutlets" : 1,
					"outlettype" : [ "bang" ],
					"parameter_enable" : 0,
					"patching_rect" : [ 620.5, 512.0, 20.0, 20.0 ],
					"presentation" : 1,
					"presentation_rect" : [ 205.0, 5.0, 20.0, 20.0 ]
				}

			}
, 			{
				"box" : 				{
					"delay" : 1,
					"hint" : "this will set the tonic for the mode (major, minor, etc.) you want",
					"id" : "obj-33",
					"maxclass" : "hint",
					"numinlets" : 1,
					"numoutlets" : 0,
					"patching_rect" : [ 55.0, 201.0, 72.0, 23.0 ],
					"presentation" : 1,
					"presentation_rect" : [ 4.0, 0.0, 56.0, 31.0 ]
				}

			}
, 			{
				"box" : 				{
					"allowdrag" : 0,
					"bgcolor" : [ 0.94902, 0.894118, 0.984314, 1.0 ],
					"bgfillcolor_color" : [ 0.94902, 0.894118, 0.984314, 1.0 ],
					"bgfillcolor_color1" : [ 0.301961, 0.301961, 0.301961, 1 ],
					"bgfillcolor_color2" : [ 0.2, 0.2, 0.2, 1 ],
					"bgfillcolor_type" : "color",
					"fontname" : "Arial",
					"fontsize" : 14.0,
					"id" : "obj-3",
					"items" : [ "C", ",", "C#/Db", ",", "D", ",", "D#/Eb", ",", "E", ",", "F", ",", "F#/Gb", ",", "G", ",", "G#/Ab", ",", "A", ",", "A#/Bb", ",", "B" ],
					"labelclick" : 1,
					"maxclass" : "umenu",
					"numinlets" : 1,
					"numoutlets" : 3,
					"outlettype" : [ "int", "", "" ],
					"parameter_enable" : 0,
					"patching_rect" : [ 54.0, 202.0, 74.0, 24.0 ],
					"presentation" : 1,
					"presentation_rect" : [ 4.0, 4.0, 54.0, 24.0 ],
					"textcolor" : [ 0.0, 0.0, 0.0, 1.0 ],
					"varname" : "eamir_filtering[2]"
				}

			}
, 			{
				"box" : 				{
					"bottomcolor" : [ 0.92549, 0.85098, 1.0, 1.0 ],
					"id" : "obj-138",
					"maxclass" : "modal_change",
					"numinlets" : 2,
					"numoutlets" : 9,
					"outlettype" : [ "int", "int", "int", "int", "int", "int", "int", "int", "list" ],
					"patching_rect" : [ 55.0, 237.0, 512.0, 59.0 ],
					"presentation" : 1,
					"presentation_rect" : [ 6.0, 61.0, 512.0, 59.0 ],
					"topcolor" : [ 0.490196, 0.262745, 0.717647, 1.0 ],
					"varname" : "modal_change"
				}

			}
 ],
		"lines" : [ 			{
				"patchline" : 				{
					"destination" : [ "obj-16", 0 ],
					"midpoints" : [ 218.5, 386.0, 195.0, 386.0, 195.0, 303.0, 105.5, 303.0 ],
					"source" : [ "obj-1", 0 ]
				}

			}
, 			{
				"patchline" : 				{
					"destination" : [ "obj-2", 1 ],
					"source" : [ "obj-11", 0 ]
				}

			}
, 			{
				"patchline" : 				{
					"destination" : [ "obj-24", 0 ],
					"source" : [ "obj-12", 0 ]
				}

			}
, 			{
				"patchline" : 				{
					"destination" : [ "obj-39", 0 ],
					"midpoints" : [ 112.0, 577.5, 130.5, 577.5 ],
					"source" : [ "obj-12", 1 ]
				}

			}
, 			{
				"patchline" : 				{
					"destination" : [ "obj-145", 0 ],
					"midpoints" : [ 557.5, 300.5, 310.5, 300.5 ],
					"source" : [ "obj-138", 8 ]
				}

			}
, 			{
				"patchline" : 				{
					"destination" : [ "obj-108", 0 ],
					"source" : [ "obj-145", 0 ]
				}

			}
, 			{
				"patchline" : 				{
					"destination" : [ "obj-4", 0 ],
					"source" : [ "obj-16", 0 ]
				}

			}
, 			{
				"patchline" : 				{
					"destination" : [ "obj-67", 0 ],
					"source" : [ "obj-17", 0 ]
				}

			}
, 			{
				"patchline" : 				{
					"destination" : [ "obj-24", 0 ],
					"midpoints" : [ 157.5, 427.0, 83.0, 427.0, 83.0, 579.0, 98.5, 579.0 ],
					"source" : [ "obj-2", 1 ]
				}

			}
, 			{
				"patchline" : 				{
					"destination" : [ "obj-40", 0 ],
					"source" : [ "obj-2", 0 ]
				}

			}
, 			{
				"patchline" : 				{
					"destination" : [ "obj-30", 0 ],
					"midpoints" : [ 121.5, 484.0, 143.5, 484.0 ],
					"order" : 0,
					"source" : [ "obj-20", 0 ]
				}

			}
, 			{
				"patchline" : 				{
					"destination" : [ "obj-35", 1 ],
					"order" : 1,
					"source" : [ "obj-20", 0 ]
				}

			}
, 			{
				"patchline" : 				{
					"destination" : [ "obj-67", 0 ],
					"midpoints" : [ 249.90002400000003, 162.5, 146.5, 162.5 ],
					"source" : [ "obj-21", 0 ]
				}

			}
, 			{
				"patchline" : 				{
					"destination" : [ "obj-67", 0 ],
					"midpoints" : [ 463.5, 167.0, 146.5, 167.0 ],
					"source" : [ "obj-22", 0 ]
				}

			}
, 			{
				"patchline" : 				{
					"destination" : [ "obj-67", 0 ],
					"midpoints" : [ 359.5, 183.0, 146.5, 183.0 ],
					"source" : [ "obj-23", 0 ]
				}

			}
, 			{
				"patchline" : 				{
					"destination" : [ "obj-31", 0 ],
					"source" : [ "obj-29", 0 ]
				}

			}
, 			{
				"patchline" : 				{
					"destination" : [ "obj-138", 0 ],
					"midpoints" : [ 63.5, 217.0, 64.5, 217.0 ],
					"source" : [ "obj-3", 0 ]
				}

			}
, 			{
				"patchline" : 				{
					"destination" : [ "obj-35", 2 ],
					"source" : [ "obj-30", 0 ]
				}

			}
, 			{
				"patchline" : 				{
					"destination" : [ "obj-3", 0 ],
					"midpoints" : [ 620.5, 185.0, 63.5, 185.0 ],
					"order" : 1,
					"source" : [ "obj-31", 0 ]
				}

			}
, 			{
				"patchline" : 				{
					"destination" : [ "obj-37", 0 ],
					"midpoints" : [ 620.5, 420.0, 24.5, 420.0 ],
					"order" : 2,
					"source" : [ "obj-31", 0 ]
				}

			}
, 			{
				"patchline" : 				{
					"destination" : [ "obj-67", 0 ],
					"midpoints" : [ 620.5, 168.0, 146.5, 168.0 ],
					"order" : 0,
					"source" : [ "obj-31", 0 ]
				}

			}
, 			{
				"patchline" : 				{
					"destination" : [ "obj-22", 0 ],
					"midpoints" : [ 359.5, 81.5, 463.5, 81.5 ],
					"order" : 0,
					"source" : [ "obj-32", 0 ]
				}

			}
, 			{
				"patchline" : 				{
					"destination" : [ "obj-23", 0 ],
					"order" : 1,
					"source" : [ "obj-32", 0 ]
				}

			}
, 			{
				"patchline" : 				{
					"destination" : [ "obj-12", 0 ],
					"source" : [ "obj-35", 0 ]
				}

			}
, 			{
				"patchline" : 				{
					"destination" : [ "obj-38", 0 ],
					"source" : [ "obj-37", 0 ]
				}

			}
, 			{
				"patchline" : 				{
					"destination" : [ "obj-35", 0 ],
					"midpoints" : [ 24.5, 514.5, 98.5, 514.5 ],
					"source" : [ "obj-38", 0 ]
				}

			}
, 			{
				"patchline" : 				{
					"destination" : [ "obj-2", 0 ],
					"midpoints" : [ 105.5, 381.0, 122.5, 381.0 ],
					"source" : [ "obj-4", 0 ]
				}

			}
, 			{
				"patchline" : 				{
					"destination" : [ "obj-20", 0 ],
					"source" : [ "obj-40", 0 ]
				}

			}
, 			{
				"patchline" : 				{
					"destination" : [ "obj-17", 0 ],
					"order" : 1,
					"source" : [ "obj-45", 0 ]
				}

			}
, 			{
				"patchline" : 				{
					"destination" : [ "obj-21", 0 ],
					"midpoints" : [ 146.5, 86.0, 249.90002400000003, 86.0 ],
					"order" : 0,
					"source" : [ "obj-45", 0 ]
				}

			}
, 			{
				"patchline" : 				{
					"destination" : [ "obj-8", 0 ],
					"source" : [ "obj-5", 0 ]
				}

			}
, 			{
				"patchline" : 				{
					"destination" : [ "obj-138", 1 ],
					"midpoints" : [ 203.0, 227.0, 557.5, 227.0 ],
					"source" : [ "obj-67", 1 ]
				}

			}
, 			{
				"patchline" : 				{
					"destination" : [ "obj-76", 0 ],
					"source" : [ "obj-75", 0 ]
				}

			}
, 			{
				"patchline" : 				{
					"destination" : [ "obj-3", 0 ],
					"midpoints" : [ 686.5, 157.0, 63.5, 157.0 ],
					"source" : [ "obj-8", 0 ]
				}

			}
, 			{
				"patchline" : 				{
					"destination" : [ "obj-67", 0 ],
					"midpoints" : [ 703.5, 163.0, 146.5, 163.0 ],
					"source" : [ "obj-8", 1 ]
				}

			}
 ],
		"dependency_cache" : [ 			{
				"name" : "modal_filter.maxpat",
				"bootpath" : "~/Documents/Max 8/Packages/EAMIR SDK/externals/Modal_Object_Library/Modal_filter/modal_filter 1.1",
				"patcherrelativepath" : "../../externals/Modal_Object_Library/Modal_filter/modal_filter 1.1",
				"type" : "JSON",
				"implicit" : 1
			}
, 			{
				"name" : "modal_coll_filter.maxpat",
				"bootpath" : "~/Documents/Max 8/Packages/EAMIR SDK/externals/Modal_Object_Library/modal_coll_filter",
				"patcherrelativepath" : "../../externals/Modal_Object_Library/modal_coll_filter",
				"type" : "JSON",
				"implicit" : 1
			}
, 			{
				"name" : "vj.subtrahend.maxpat",
				"bootpath" : "~/Documents/Max 8/Packages/EAMIR SDK/externals/V Objects/vj.subtrahend",
				"patcherrelativepath" : "../../externals/V Objects/vj.subtrahend",
				"type" : "JSON",
				"implicit" : 1
			}
, 			{
				"name" : "modal_offset.pat",
				"bootpath" : "~/Documents/Max 8/Packages/EAMIR SDK/externals/Modal_Object_Library/aux_files/p_data",
				"patcherrelativepath" : "../../externals/Modal_Object_Library/aux_files/p_data",
				"type" : "maxb",
				"implicit" : 1
			}
, 			{
				"name" : "mc_3_major_modes.maxpat",
				"bootpath" : "~/Documents/Max 8/Packages/EAMIR SDK/externals/Modal_Object_Library/modal_coll_filter",
				"patcherrelativepath" : "../../externals/Modal_Object_Library/modal_coll_filter",
				"type" : "JSON",
				"implicit" : 1
			}
, 			{
				"name" : "mc_3_harm_minor_modes.maxpat",
				"bootpath" : "~/Documents/Max 8/Packages/EAMIR SDK/externals/Modal_Object_Library/modal_coll_filter",
				"patcherrelativepath" : "../../externals/Modal_Object_Library/modal_coll_filter",
				"type" : "JSON",
				"implicit" : 1
			}
, 			{
				"name" : "mc_3_mel_minor_modes.maxpat",
				"bootpath" : "~/Documents/Max 8/Packages/EAMIR SDK/externals/Modal_Object_Library/modal_coll_filter",
				"patcherrelativepath" : "../../externals/Modal_Object_Library/modal_coll_filter",
				"type" : "JSON",
				"implicit" : 1
			}
, 			{
				"name" : "mc_3_harm_major_modes.maxpat",
				"bootpath" : "~/Documents/Max 8/Packages/EAMIR SDK/externals/Modal_Object_Library/modal_coll_filter",
				"patcherrelativepath" : "../../externals/Modal_Object_Library/modal_coll_filter",
				"type" : "JSON",
				"implicit" : 1
			}
, 			{
				"name" : "EAMIR_info.maxpat",
				"bootpath" : "~/Documents/Max 8/Packages/EAMIR SDK/patchers/EAMIR_modules",
				"patcherrelativepath" : ".",
				"type" : "JSON",
				"implicit" : 1
			}
, 			{
				"name" : "EAMIR_logo.png",
				"bootpath" : "~/Documents/Max 8/Packages/EAMIR SDK/patchers",
				"patcherrelativepath" : "..",
				"type" : "PNG",
				"implicit" : 1
			}
, 			{
				"name" : "modal_change.mxo",
				"type" : "iLaX"
			}
 ],
		"autosave" : 0,
		"styles" : [ 			{
				"name" : "EAMIR",
				"newobj" : 				{
					"accentcolor" : [ 0.466667, 0.254902, 0.607843, 1.0 ],
					"textcolor_inverse" : [ 0.231373, 0.121569, 0.305882, 1.0 ],
					"fontface" : [ 0 ],
					"bgcolor" : [ 0.93025, 0.756547, 1.0, 0.25 ]
				}
,
				"default" : 				{
					"accentcolor" : [ 0.466667, 0.254902, 0.607843, 1.0 ],
					"elementcolor" : [ 0.376471, 0.384314, 0.4, 0.39 ],
					"patchlinecolor" : [ 0.231373, 0.121569, 0.305882, 0.9 ],
					"textcolor_inverse" : [ 0.231373, 0.121569, 0.305882, 1.0 ],
					"fontface" : [ 0 ],
					"bgfillcolor" : 					{
						"type" : "color",
						"color" : [ 0.850253, 0.837059, 0.878431, 1.0 ],
						"color1" : [ 1.0, 1.0, 1.0, 1.0 ],
						"color2" : [ 0.290196, 0.309804, 0.301961, 1.0 ],
						"angle" : 270.0,
						"proportion" : 0.39,
						"autogradient" : 0
					}
,
					"color" : [ 0.8, 0.4, 1.0, 1.0 ],
					"bgcolor" : [ 0.929412, 0.756863, 1.0, 1.0 ]
				}
,
				"umenu" : 				{
					"textcolor_inverse" : [ 0.231373, 0.121569, 0.305882, 1.0 ],
					"fontface" : [ 0 ],
					"bgfillcolor" : 					{
						"type" : "color",
						"color" : [ 0.701961, 0.415686, 0.886275, 0.37 ],
						"color1" : [ 1.0, 1.0, 1.0, 1.0 ],
						"color2" : [ 0.290196, 0.309804, 0.301961, 1.0 ],
						"angle" : 270.0,
						"proportion" : 0.39,
						"autogradient" : 0
					}

				}
,
				"parentstyle" : "",
				"multi" : 0
			}
 ]
	}

}
