{
	"patcher" : 	{
		"fileversion" : 1,
		"rect" : [ 29.0, 67.0, 640.0, 480.0 ],
		"bglocked" : 0,
		"defrect" : [ 29.0, 67.0, 640.0, 480.0 ],
		"openrect" : [ 0.0, 0.0, 0.0, 0.0 ],
		"openinpresentation" : 0,
		"default_fontsize" : 12.0,
		"default_fontface" : 0,
		"default_fontname" : "Arial",
		"gridonopen" : 0,
		"gridsize" : [ 15.0, 15.0 ],
		"gridsnaponopen" : 0,
		"toolbarvisible" : 1,
		"boxanimatetime" : 200,
		"imprint" : 0,
		"enablehscroll" : 1,
		"enablevscroll" : 1,
		"devicewidth" : 0.0,
		"boxes" : [ 			{
				"box" : 				{
					"maxclass" : "newobj",
					"text" : "r eamir_nanoKontrol_button_mode",
					"linecount" : 6,
					"outlettype" : [ "" ],
					"id" : "obj-123",
					"fontsize" : 12.0,
					"patching_rect" : [ 50.0, 100.0, 50.0, 89.0 ],
					"numinlets" : 0,
					"fontname" : "Arial",
					"numoutlets" : 1
				}

			}
, 			{
				"box" : 				{
					"maxclass" : "number",
					"outlettype" : [ "int", "bang" ],
					"id" : "obj-120",
					"fontsize" : 12.0,
					"patching_rect" : [ 73.0, 229.0, 50.0, 20.0 ],
					"numinlets" : 1,
					"fontname" : "Arial",
					"numoutlets" : 2
				}

			}
, 			{
				"box" : 				{
					"maxclass" : "newobj",
					"text" : "switch 3 1",
					"outlettype" : [ "" ],
					"id" : "obj-121",
					"fontsize" : 12.0,
					"patching_rect" : [ 50.0, 265.0, 89.0, 20.0 ],
					"numinlets" : 4,
					"fontname" : "Arial",
					"numoutlets" : 1
				}

			}
, 			{
				"box" : 				{
					"maxclass" : "inlet",
					"outlettype" : [ "int" ],
					"id" : "obj-145",
					"patching_rect" : [ 73.0, 40.0, 25.0, 25.0 ],
					"numinlets" : 0,
					"numoutlets" : 1,
					"comment" : ""
				}

			}
, 			{
				"box" : 				{
					"maxclass" : "inlet",
					"outlettype" : [ "bang" ],
					"id" : "obj-146",
					"patching_rect" : [ 96.0, 40.0, 25.0, 25.0 ],
					"numinlets" : 0,
					"numoutlets" : 1,
					"comment" : ""
				}

			}
, 			{
				"box" : 				{
					"maxclass" : "inlet",
					"outlettype" : [ "int" ],
					"id" : "obj-147",
					"patching_rect" : [ 120.0, 40.0, 25.0, 25.0 ],
					"numinlets" : 0,
					"numoutlets" : 1,
					"comment" : ""
				}

			}
, 			{
				"box" : 				{
					"maxclass" : "outlet",
					"id" : "obj-148",
					"patching_rect" : [ 50.0, 345.0, 25.0, 25.0 ],
					"numinlets" : 1,
					"numoutlets" : 0,
					"comment" : ""
				}

			}
 ],
		"lines" : [ 			{
				"patchline" : 				{
					"source" : [ "obj-123", 0 ],
					"destination" : [ "obj-121", 0 ],
					"hidden" : 0,
					"midpoints" : [  ]
				}

			}
, 			{
				"patchline" : 				{
					"source" : [ "obj-120", 0 ],
					"destination" : [ "obj-121", 1 ],
					"hidden" : 0,
					"midpoints" : [  ]
				}

			}
, 			{
				"patchline" : 				{
					"source" : [ "obj-145", 0 ],
					"destination" : [ "obj-120", 0 ],
					"hidden" : 0,
					"midpoints" : [  ]
				}

			}
, 			{
				"patchline" : 				{
					"source" : [ "obj-146", 0 ],
					"destination" : [ "obj-121", 2 ],
					"hidden" : 0,
					"midpoints" : [  ]
				}

			}
, 			{
				"patchline" : 				{
					"source" : [ "obj-147", 0 ],
					"destination" : [ "obj-121", 3 ],
					"hidden" : 0,
					"midpoints" : [  ]
				}

			}
, 			{
				"patchline" : 				{
					"source" : [ "obj-121", 0 ],
					"destination" : [ "obj-148", 0 ],
					"hidden" : 0,
					"midpoints" : [  ]
				}

			}
 ]
	}

}
