{
	"patcher" : 	{
		"fileversion" : 1,
		"rect" : [ 590.0, 55.0, 751.0, 625.0 ],
		"bglocked" : 0,
		"defrect" : [ 590.0, 55.0, 751.0, 625.0 ],
		"openrect" : [ 0.0, 0.0, 0.0, 0.0 ],
		"openinpresentation" : 1,
		"default_fontsize" : 12.0,
		"default_fontface" : 0,
		"default_fontname" : "Arial",
		"gridonopen" : 0,
		"gridsize" : [ 15.0, 15.0 ],
		"gridsnaponopen" : 0,
		"toolbarvisible" : 1,
		"boxanimatetime" : 200,
		"imprint" : 0,
		"enablehscroll" : 1,
		"enablevscroll" : 1,
		"devicewidth" : 0.0,
		"boxes" : [ 			{
				"box" : 				{
					"maxclass" : "newobj",
					"text" : "r eamir_gain_default",
					"numinlets" : 0,
					"numoutlets" : 1,
					"patching_rect" : [ 84.0, 6.0, 102.0, 18.0 ],
					"id" : "obj-13",
					"fontsize" : 10.0,
					"outlettype" : [ "" ],
					"fontname" : "Arial"
				}

			}
, 			{
				"box" : 				{
					"maxclass" : "message",
					"text" : "0",
					"numinlets" : 2,
					"numoutlets" : 1,
					"patching_rect" : [ 84.0, 28.0, 32.5, 18.0 ],
					"id" : "obj-12",
					"fontsize" : 12.0,
					"outlettype" : [ "" ],
					"fontname" : "Arial"
				}

			}
, 			{
				"box" : 				{
					"maxclass" : "outlet",
					"numinlets" : 1,
					"numoutlets" : 0,
					"patching_rect" : [ 10.0, 201.0, 25.0, 25.0 ],
					"id" : "obj-8",
					"comment" : "audio output"
				}

			}
, 			{
				"box" : 				{
					"maxclass" : "inlet",
					"numinlets" : 0,
					"numoutlets" : 1,
					"patching_rect" : [ 10.0, 16.0, 25.0, 25.0 ],
					"id" : "obj-4",
					"outlettype" : [ "" ],
					"comment" : "audio input"
				}

			}
, 			{
				"box" : 				{
					"maxclass" : "hint",
					"hint" : "in case of \"stuck notes\" click this button.",
					"numinlets" : 1,
					"delay" : 1,
					"numoutlets" : 0,
					"patching_rect" : [ 322.0, 63.0, 20.0, 21.0 ],
					"presentation" : 1,
					"id" : "obj-201",
					"presentation_rect" : [ 56.0, 56.0, 16.0, 16.0 ]
				}

			}
, 			{
				"box" : 				{
					"maxclass" : "newobj",
					"text" : "loadbang",
					"numinlets" : 1,
					"numoutlets" : 1,
					"patching_rect" : [ 203.0, 188.0, 43.0, 16.0 ],
					"id" : "obj-320",
					"fontsize" : 8.0,
					"outlettype" : [ "bang" ],
					"fontname" : "Arial"
				}

			}
, 			{
				"box" : 				{
					"maxclass" : "message",
					"text" : "patcher Gain",
					"numinlets" : 2,
					"numoutlets" : 1,
					"patching_rect" : [ 203.0, 207.0, 77.0, 18.0 ],
					"id" : "obj-316",
					"fontsize" : 11.595187,
					"outlettype" : [ "" ],
					"fontname" : "Arial"
				}

			}
, 			{
				"box" : 				{
					"maxclass" : "newobj",
					"text" : "thispatcher",
					"numinlets" : 1,
					"numoutlets" : 2,
					"patching_rect" : [ 203.0, 231.0, 50.0, 16.0 ],
					"id" : "obj-309",
					"fontsize" : 8.0,
					"outlettype" : [ "", "" ],
					"fontname" : "Arial",
					"save" : [ "#N", "thispatcher", ";", "#Q", "end", ";" ]
				}

			}
, 			{
				"box" : 				{
					"maxclass" : "comment",
					"text" : "restore default",
					"linecount" : 2,
					"presentation_linecount" : 2,
					"numinlets" : 1,
					"numoutlets" : 0,
					"patching_rect" : [ 340.0, 55.0, 78.0, 34.0 ],
					"presentation" : 1,
					"id" : "obj-199",
					"fontsize" : 12.0,
					"presentation_rect" : [ 74.0, 53.0, 49.0, 34.0 ],
					"fontname" : "Arial"
				}

			}
, 			{
				"box" : 				{
					"maxclass" : "comment",
					"text" : "vj@vjmanzo.com",
					"numinlets" : 1,
					"numoutlets" : 0,
					"patching_rect" : [ 83.0, 367.0, 85.0, 18.0 ],
					"id" : "obj-196",
					"fontsize" : 10.0,
					"hidden" : 1,
					"fontname" : "Arial"
				}

			}
, 			{
				"box" : 				{
					"maxclass" : "newobj",
					"text" : "p launchURL",
					"numinlets" : 1,
					"numoutlets" : 0,
					"patching_rect" : [ 30.400024, 403.200073, 62.0, 17.0 ],
					"id" : "obj-190",
					"fontsize" : 9.0,
					"hidden" : 1,
					"fontname" : "Arial",
					"patcher" : 					{
						"fileversion" : 1,
						"rect" : [ 15.0, 55.0, 600.0, 426.0 ],
						"bglocked" : 0,
						"defrect" : [ 15.0, 55.0, 600.0, 426.0 ],
						"openrect" : [ 0.0, 0.0, 0.0, 0.0 ],
						"openinpresentation" : 0,
						"default_fontsize" : 12.0,
						"default_fontface" : 0,
						"default_fontname" : "Arial",
						"gridonopen" : 0,
						"gridsize" : [ 15.0, 15.0 ],
						"gridsnaponopen" : 0,
						"toolbarvisible" : 1,
						"boxanimatetime" : 200,
						"imprint" : 0,
						"enablehscroll" : 1,
						"enablevscroll" : 1,
						"devicewidth" : 0.0,
						"boxes" : [ 							{
								"box" : 								{
									"maxclass" : "newobj",
									"text" : "t b s",
									"numinlets" : 1,
									"numoutlets" : 2,
									"patching_rect" : [ 50.0, 50.0, 27.0, 17.0 ],
									"id" : "obj-1",
									"fontsize" : 9.0,
									"outlettype" : [ "bang", "" ],
									"fontname" : "Arial"
								}

							}
, 							{
								"box" : 								{
									"maxclass" : "message",
									"text" : ";\rmax launch_browser http://www.vjmanzo.com/portfolio",
									"linecount" : 2,
									"numinlets" : 2,
									"numoutlets" : 1,
									"patching_rect" : [ 67.0, 108.0, 344.0, 25.0 ],
									"id" : "obj-2",
									"fontsize" : 9.0,
									"outlettype" : [ "" ],
									"fontname" : "Arial"
								}

							}
, 							{
								"box" : 								{
									"maxclass" : "newobj",
									"text" : "sprintf set \\; max launch_browser %s",
									"numinlets" : 1,
									"numoutlets" : 1,
									"patching_rect" : [ 67.0, 79.0, 164.0, 17.0 ],
									"id" : "obj-3",
									"fontsize" : 9.0,
									"outlettype" : [ "" ],
									"fontname" : "Arial"
								}

							}
, 							{
								"box" : 								{
									"maxclass" : "inlet",
									"numinlets" : 0,
									"numoutlets" : 1,
									"patching_rect" : [ 50.0, 30.0, 15.0, 15.0 ],
									"id" : "obj-4",
									"outlettype" : [ "" ],
									"comment" : ""
								}

							}
 ],
						"lines" : [ 							{
								"patchline" : 								{
									"source" : [ "obj-1", 0 ],
									"destination" : [ "obj-2", 0 ],
									"hidden" : 0,
									"midpoints" : [ 59.5, 102.0, 76.5, 102.0 ]
								}

							}
, 							{
								"patchline" : 								{
									"source" : [ "obj-3", 0 ],
									"destination" : [ "obj-2", 0 ],
									"hidden" : 0,
									"midpoints" : [  ]
								}

							}
, 							{
								"patchline" : 								{
									"source" : [ "obj-1", 1 ],
									"destination" : [ "obj-3", 0 ],
									"hidden" : 0,
									"midpoints" : [  ]
								}

							}
, 							{
								"patchline" : 								{
									"source" : [ "obj-4", 0 ],
									"destination" : [ "obj-1", 0 ],
									"hidden" : 0,
									"midpoints" : [  ]
								}

							}
 ]
					}
,
					"saved_object_attributes" : 					{
						"fontface" : 0,
						"fontsize" : 12.0,
						"default_fontface" : 0,
						"globalpatchername" : "",
						"default_fontname" : "Arial",
						"fontname" : "Arial",
						"default_fontsize" : 12.0
					}

				}

			}
, 			{
				"box" : 				{
					"maxclass" : "message",
					"text" : "http://www.vjmanzo.com/portfolio",
					"numinlets" : 2,
					"numoutlets" : 1,
					"patching_rect" : [ 27.400024, 386.199951, 157.0, 16.0 ],
					"id" : "obj-191",
					"fontsize" : 10.0,
					"outlettype" : [ "" ],
					"gradient" : 1,
					"bgcolor2" : [ 1.0, 1.0, 1.0, 1.0 ],
					"bgcolor" : [ 0.792157, 0.898039, 1.0, 1.0 ],
					"hidden" : 1,
					"fontname" : "Arial"
				}

			}
, 			{
				"box" : 				{
					"maxclass" : "ubutton",
					"numinlets" : 1,
					"numoutlets" : 4,
					"patching_rect" : [ 27.0, 344.0, 142.0, 40.0 ],
					"presentation" : 1,
					"id" : "obj-192",
					"handoff" : "",
					"outlettype" : [ "bang", "bang", "", "int" ],
					"presentation_rect" : [ 7.0, 217.0, 57.0, 36.0 ]
				}

			}
, 			{
				"box" : 				{
					"maxclass" : "newobj",
					"text" : "p launchURL",
					"numinlets" : 1,
					"numoutlets" : 0,
					"patching_rect" : [ 31.400024, 261.200073, 62.0, 17.0 ],
					"id" : "obj-101",
					"fontsize" : 9.0,
					"hidden" : 1,
					"fontname" : "Arial",
					"patcher" : 					{
						"fileversion" : 1,
						"rect" : [ 15.0, 55.0, 600.0, 426.0 ],
						"bglocked" : 0,
						"defrect" : [ 15.0, 55.0, 600.0, 426.0 ],
						"openrect" : [ 0.0, 0.0, 0.0, 0.0 ],
						"openinpresentation" : 0,
						"default_fontsize" : 12.0,
						"default_fontface" : 0,
						"default_fontname" : "Arial",
						"gridonopen" : 0,
						"gridsize" : [ 15.0, 15.0 ],
						"gridsnaponopen" : 0,
						"toolbarvisible" : 1,
						"boxanimatetime" : 200,
						"imprint" : 0,
						"enablehscroll" : 1,
						"enablevscroll" : 1,
						"devicewidth" : 0.0,
						"boxes" : [ 							{
								"box" : 								{
									"maxclass" : "newobj",
									"text" : "t b s",
									"numinlets" : 1,
									"numoutlets" : 2,
									"patching_rect" : [ 50.0, 50.0, 27.0, 17.0 ],
									"id" : "obj-1",
									"fontsize" : 9.0,
									"outlettype" : [ "bang", "" ],
									"fontname" : "Arial"
								}

							}
, 							{
								"box" : 								{
									"maxclass" : "message",
									"text" : ";\rmax launch_browser http://www.eamir.org",
									"linecount" : 2,
									"numinlets" : 2,
									"numoutlets" : 1,
									"patching_rect" : [ 67.0, 108.0, 344.0, 25.0 ],
									"id" : "obj-2",
									"fontsize" : 9.0,
									"outlettype" : [ "" ],
									"fontname" : "Arial"
								}

							}
, 							{
								"box" : 								{
									"maxclass" : "newobj",
									"text" : "sprintf set \\; max launch_browser %s",
									"numinlets" : 1,
									"numoutlets" : 1,
									"patching_rect" : [ 67.0, 79.0, 164.0, 17.0 ],
									"id" : "obj-3",
									"fontsize" : 9.0,
									"outlettype" : [ "" ],
									"fontname" : "Arial"
								}

							}
, 							{
								"box" : 								{
									"maxclass" : "inlet",
									"numinlets" : 0,
									"numoutlets" : 1,
									"patching_rect" : [ 50.0, 30.0, 15.0, 15.0 ],
									"id" : "obj-4",
									"outlettype" : [ "" ],
									"comment" : ""
								}

							}
 ],
						"lines" : [ 							{
								"patchline" : 								{
									"source" : [ "obj-1", 0 ],
									"destination" : [ "obj-2", 0 ],
									"hidden" : 0,
									"midpoints" : [ 59.5, 102.0, 76.5, 102.0 ]
								}

							}
, 							{
								"patchline" : 								{
									"source" : [ "obj-3", 0 ],
									"destination" : [ "obj-2", 0 ],
									"hidden" : 0,
									"midpoints" : [  ]
								}

							}
, 							{
								"patchline" : 								{
									"source" : [ "obj-1", 1 ],
									"destination" : [ "obj-3", 0 ],
									"hidden" : 0,
									"midpoints" : [  ]
								}

							}
, 							{
								"patchline" : 								{
									"source" : [ "obj-4", 0 ],
									"destination" : [ "obj-1", 0 ],
									"hidden" : 0,
									"midpoints" : [  ]
								}

							}
 ]
					}
,
					"saved_object_attributes" : 					{
						"fontface" : 0,
						"fontsize" : 12.0,
						"default_fontface" : 0,
						"globalpatchername" : "",
						"default_fontname" : "Arial",
						"fontname" : "Arial",
						"default_fontsize" : 12.0
					}

				}

			}
, 			{
				"box" : 				{
					"maxclass" : "message",
					"text" : "http://www.eamir.org",
					"numinlets" : 2,
					"numoutlets" : 1,
					"patching_rect" : [ 28.400024, 244.200012, 102.0, 16.0 ],
					"id" : "obj-132",
					"fontsize" : 10.0,
					"outlettype" : [ "" ],
					"gradient" : 1,
					"bgcolor2" : [ 1.0, 1.0, 1.0, 1.0 ],
					"bgcolor" : [ 0.917647, 0.85098, 1.0, 1.0 ],
					"hidden" : 1,
					"fontname" : "Arial"
				}

			}
, 			{
				"box" : 				{
					"maxclass" : "ubutton",
					"numinlets" : 1,
					"numoutlets" : 4,
					"patching_rect" : [ 28.0, 281.0, 64.0, 62.0 ],
					"presentation" : 1,
					"id" : "obj-188",
					"handoff" : "",
					"outlettype" : [ "bang", "bang", "", "int" ],
					"hltcolor" : [ 0.305882, 0.0, 0.407843, 0.501961 ],
					"presentation_rect" : [ 6.0, 152.0, 60.0, 61.0 ]
				}

			}
, 			{
				"box" : 				{
					"maxclass" : "comment",
					"text" : "EAMIR\ncreated by\nV.J. Manzo",
					"linecount" : 3,
					"presentation_linecount" : 3,
					"numinlets" : 1,
					"numoutlets" : 0,
					"patching_rect" : [ 27.400024, 344.200073, 143.0, 41.0 ],
					"presentation" : 1,
					"id" : "obj-189",
					"fontsize" : 10.0,
					"presentation_rect" : [ 3.400024, 214.200073, 62.0, 41.0 ],
					"fontname" : "Arial"
				}

			}
, 			{
				"box" : 				{
					"maxclass" : "fpic",
					"numinlets" : 1,
					"numoutlets" : 0,
					"patching_rect" : [ 27.0, 281.0, 65.0, 63.0 ],
					"pic" : "EAMIR_logo.png",
					"presentation" : 1,
					"id" : "obj-185",
					"presentation_rect" : [ 3.0, 151.0, 65.0, 63.0 ]
				}

			}
, 			{
				"box" : 				{
					"maxclass" : "comment",
					"text" : "sets all UI objects to save settings on close",
					"linecount" : 2,
					"numinlets" : 1,
					"numoutlets" : 0,
					"patching_rect" : [ 322.0, 113.0, 154.0, 34.0 ],
					"id" : "obj-1",
					"fontsize" : 12.0,
					"fontname" : "Arial"
				}

			}
, 			{
				"box" : 				{
					"maxclass" : "newobj",
					"varname" : "eamir_gain[1]",
					"text" : "autopattr eamir_gain",
					"numinlets" : 1,
					"numoutlets" : 4,
					"patching_rect" : [ 321.0, 172.0, 121.0, 20.0 ],
					"id" : "obj-2",
					"fontsize" : 12.0,
					"outlettype" : [ "", "", "", "" ],
					"fontname" : "Arial",
					"restore" : 					{
						"live.button" : [ 0.0 ],
						"live.gain~" : [ 0.0 ]
					}

				}

			}
, 			{
				"box" : 				{
					"maxclass" : "newobj",
					"varname" : "eamir_gain",
					"text" : "pattr eamir_gain",
					"numinlets" : 1,
					"numoutlets" : 3,
					"patching_rect" : [ 321.0, 148.0, 97.0, 20.0 ],
					"id" : "obj-6",
					"fontsize" : 12.0,
					"outlettype" : [ "", "", "" ],
					"fontname" : "Arial",
					"restore" : [ 0 ],
					"saved_object_attributes" : 					{
						"parameter_enable" : 0
					}

				}

			}
, 			{
				"box" : 				{
					"maxclass" : "newobj",
					"text" : "s eamir_gain_default",
					"numinlets" : 1,
					"numoutlets" : 0,
					"patching_rect" : [ 322.0, 86.0, 103.0, 18.0 ],
					"id" : "obj-72",
					"fontsize" : 10.0,
					"fontname" : "Arial"
				}

			}
, 			{
				"box" : 				{
					"maxclass" : "hint",
					"hint" : "input gain and level ater gain stage",
					"numinlets" : 1,
					"delay" : 1,
					"numoutlets" : 0,
					"patching_rect" : [ 10.0, 45.0, 36.0, 140.0 ],
					"presentation" : 1,
					"id" : "obj-16",
					"presentation_rect" : [ 1.0, 3.0, 36.0, 140.0 ]
				}

			}
, 			{
				"box" : 				{
					"maxclass" : "live.gain~",
					"varname" : "live.gain~",
					"numinlets" : 2,
					"numoutlets" : 5,
					"patching_rect" : [ 10.0, 45.0, 36.0, 140.0 ],
					"presentation" : 1,
					"modulationcolor" : [ 0.403922, 0.109804, 0.701961, 1.0 ],
					"id" : "obj-10",
					"showname" : 0,
					"fontsize" : 12.0,
					"parameter_enable" : 1,
					"outlettype" : [ "signal", "signal", "", "float", "list" ],
					"presentation_rect" : [ 1.0, 3.0, 36.0, 140.0 ],
					"saved_attribute_attributes" : 					{
						"valueof" : 						{
							"parameter_mmin" : -70.0,
							"parameter_initial" : [ 0.0 ],
							"parameter_type" : 0,
							"parameter_initial_enable" : 0,
							"parameter_shortname" : "live.gain~",
							"parameter_invisible" : 0,
							"parameter_modmax" : 127.0,
							"parameter_annotation_name" : "",
							"parameter_longname" : "live.gain~",
							"parameter_modmin" : 0.0,
							"parameter_linknames" : 0,
							"parameter_modmode" : 0,
							"parameter_info" : "",
							"parameter_order" : 0,
							"parameter_units" : "",
							"parameter_speedlim" : 1,
							"parameter_steps" : 0,
							"parameter_exponent" : 1.0,
							"parameter_unitstyle" : 4,
							"parameter_mmax" : 6.0
						}

					}

				}

			}
, 			{
				"box" : 				{
					"maxclass" : "live.button",
					"varname" : "live.button",
					"numinlets" : 1,
					"activebgoncolor" : [ 0.403922, 0.109804, 0.701961, 1.0 ],
					"numoutlets" : 1,
					"patching_rect" : [ 322.0, 63.0, 20.0, 21.0 ],
					"presentation" : 1,
					"id" : "obj-11",
					"parameter_enable" : 1,
					"outlettype" : [ "" ],
					"presentation_rect" : [ 56.0, 52.0, 20.0, 20.0 ],
					"saved_attribute_attributes" : 					{
						"valueof" : 						{
							"parameter_mmin" : 0.0,
							"parameter_type" : 2,
							"parameter_initial_enable" : 0,
							"parameter_shortname" : "live.button",
							"parameter_invisible" : 0,
							"parameter_modmax" : 127.0,
							"parameter_annotation_name" : "",
							"parameter_longname" : "live.button",
							"parameter_modmin" : 0.0,
							"parameter_linknames" : 0,
							"parameter_modmode" : 0,
							"parameter_info" : "",
							"parameter_order" : 0,
							"parameter_units" : "",
							"parameter_speedlim" : 1,
							"parameter_steps" : 0,
							"parameter_enum" : [ "off", "on" ],
							"parameter_exponent" : 1.0,
							"parameter_unitstyle" : 10,
							"parameter_mmax" : 1.0
						}

					}

				}

			}
 ],
		"lines" : [ 			{
				"patchline" : 				{
					"source" : [ "obj-11", 0 ],
					"destination" : [ "obj-72", 0 ],
					"hidden" : 0,
					"midpoints" : [  ]
				}

			}
, 			{
				"patchline" : 				{
					"source" : [ "obj-13", 0 ],
					"destination" : [ "obj-12", 0 ],
					"hidden" : 0,
					"midpoints" : [  ]
				}

			}
, 			{
				"patchline" : 				{
					"source" : [ "obj-12", 0 ],
					"destination" : [ "obj-10", 1 ],
					"hidden" : 0,
					"midpoints" : [  ]
				}

			}
, 			{
				"patchline" : 				{
					"source" : [ "obj-12", 0 ],
					"destination" : [ "obj-10", 0 ],
					"hidden" : 0,
					"midpoints" : [  ]
				}

			}
, 			{
				"patchline" : 				{
					"source" : [ "obj-4", 0 ],
					"destination" : [ "obj-10", 1 ],
					"hidden" : 0,
					"midpoints" : [  ]
				}

			}
, 			{
				"patchline" : 				{
					"source" : [ "obj-4", 0 ],
					"destination" : [ "obj-10", 0 ],
					"hidden" : 0,
					"midpoints" : [  ]
				}

			}
, 			{
				"patchline" : 				{
					"source" : [ "obj-10", 1 ],
					"destination" : [ "obj-8", 0 ],
					"hidden" : 0,
					"midpoints" : [  ]
				}

			}
, 			{
				"patchline" : 				{
					"source" : [ "obj-10", 0 ],
					"destination" : [ "obj-8", 0 ],
					"hidden" : 0,
					"midpoints" : [  ]
				}

			}
, 			{
				"patchline" : 				{
					"source" : [ "obj-316", 0 ],
					"destination" : [ "obj-309", 0 ],
					"hidden" : 0,
					"midpoints" : [  ]
				}

			}
, 			{
				"patchline" : 				{
					"source" : [ "obj-320", 0 ],
					"destination" : [ "obj-316", 0 ],
					"hidden" : 0,
					"midpoints" : [  ]
				}

			}
, 			{
				"patchline" : 				{
					"source" : [ "obj-192", 0 ],
					"destination" : [ "obj-191", 0 ],
					"hidden" : 1,
					"midpoints" : [  ]
				}

			}
, 			{
				"patchline" : 				{
					"source" : [ "obj-191", 0 ],
					"destination" : [ "obj-190", 0 ],
					"hidden" : 1,
					"midpoints" : [ 36.900024, 402.200012, 39.900024, 402.200012 ]
				}

			}
, 			{
				"patchline" : 				{
					"source" : [ "obj-188", 0 ],
					"destination" : [ "obj-132", 0 ],
					"hidden" : 1,
					"midpoints" : [  ]
				}

			}
, 			{
				"patchline" : 				{
					"source" : [ "obj-132", 0 ],
					"destination" : [ "obj-101", 0 ],
					"hidden" : 1,
					"midpoints" : [ 37.900024, 260.200012, 40.900024, 260.200012 ]
				}

			}
 ],
		"parameters" : 		{
			"obj-10" : [ "live.gain~", "live.gain~", 0 ],
			"obj-11" : [ "live.button", "live.button", 0 ]
		}

	}

}
