{
	"patcher" : 	{
		"fileversion" : 1,
		"rect" : [ 624.0, 106.0, 654.0, 516.0 ],
		"bglocked" : 0,
		"defrect" : [ 624.0, 106.0, 654.0, 516.0 ],
		"openrect" : [ 0.0, 0.0, 0.0, 0.0 ],
		"openinpresentation" : 1,
		"default_fontsize" : 12.0,
		"default_fontface" : 0,
		"default_fontname" : "Arial",
		"gridonopen" : 0,
		"gridsize" : [ 15.0, 15.0 ],
		"gridsnaponopen" : 0,
		"toolbarvisible" : 1,
		"boxanimatetime" : 200,
		"imprint" : 0,
		"enablehscroll" : 1,
		"enablevscroll" : 1,
		"devicewidth" : 0.0,
		"boxes" : [ 			{
				"box" : 				{
					"maxclass" : "live.numbox",
					"varname" : "live.numbox[2]",
					"numinlets" : 1,
					"numoutlets" : 2,
					"patching_rect" : [ 245.0, 261.0, 61.0, 17.0 ],
					"presentation" : 1,
					"id" : "obj-14",
					"fontsize" : 12.0,
					"parameter_enable" : 1,
					"outlettype" : [ "", "float" ],
					"activetricolor2" : [ 0.403922, 0.109804, 0.701961, 1.0 ],
					"activebgcolor" : [ 1.0, 1.0, 1.0, 1.0 ],
					"presentation_rect" : [ 145.0, 3.0, 61.0, 17.0 ],
					"saved_attribute_attributes" : 					{
						"valueof" : 						{
							"parameter_mmin" : 0.0,
							"parameter_type" : 0,
							"parameter_initial_enable" : 0,
							"parameter_shortname" : "live.numbox",
							"parameter_invisible" : 0,
							"parameter_modmax" : 127.0,
							"parameter_annotation_name" : "",
							"parameter_longname" : "live.numbox[2]",
							"parameter_modmin" : 0.0,
							"parameter_linknames" : 0,
							"parameter_modmode" : 0,
							"parameter_info" : "",
							"parameter_order" : 0,
							"parameter_units" : "",
							"parameter_speedlim" : 1,
							"parameter_steps" : 0,
							"parameter_exponent" : 1.0,
							"parameter_unitstyle" : 0,
							"parameter_mmax" : 127.0
						}

					}

				}

			}
, 			{
				"box" : 				{
					"maxclass" : "live.numbox",
					"varname" : "live.numbox[1]",
					"numinlets" : 1,
					"numoutlets" : 2,
					"patching_rect" : [ 143.0, 236.0, 57.0, 17.0 ],
					"presentation" : 1,
					"id" : "obj-11",
					"fontsize" : 12.0,
					"parameter_enable" : 1,
					"outlettype" : [ "", "float" ],
					"activetricolor2" : [ 0.403922, 0.109804, 0.701961, 1.0 ],
					"activebgcolor" : [ 1.0, 1.0, 1.0, 1.0 ],
					"presentation_rect" : [ 70.0, 3.0, 57.0, 17.0 ],
					"saved_attribute_attributes" : 					{
						"valueof" : 						{
							"parameter_mmin" : 0.0,
							"parameter_type" : 0,
							"parameter_initial_enable" : 0,
							"parameter_shortname" : "live.numbox",
							"parameter_invisible" : 0,
							"parameter_modmax" : 127.0,
							"parameter_annotation_name" : "",
							"parameter_longname" : "live.numbox[1]",
							"parameter_modmin" : 0.0,
							"parameter_linknames" : 0,
							"parameter_modmode" : 0,
							"parameter_info" : "",
							"parameter_order" : 0,
							"parameter_units" : "",
							"parameter_speedlim" : 1,
							"parameter_steps" : 0,
							"parameter_exponent" : 1.0,
							"parameter_unitstyle" : 0,
							"parameter_mmax" : 127.0
						}

					}

				}

			}
, 			{
				"box" : 				{
					"maxclass" : "live.numbox",
					"varname" : "live.numbox",
					"numinlets" : 1,
					"numoutlets" : 2,
					"patching_rect" : [ 71.0, 278.0, 49.0, 17.0 ],
					"presentation" : 1,
					"id" : "obj-8",
					"fontsize" : 12.0,
					"parameter_enable" : 1,
					"outlettype" : [ "", "float" ],
					"activetricolor2" : [ 0.403922, 0.109804, 0.701961, 1.0 ],
					"activebgcolor" : [ 1.0, 1.0, 1.0, 1.0 ],
					"presentation_rect" : [ 4.0, 3.0, 49.0, 17.0 ],
					"saved_attribute_attributes" : 					{
						"valueof" : 						{
							"parameter_mmin" : 0.0,
							"parameter_type" : 0,
							"parameter_initial_enable" : 0,
							"parameter_shortname" : "live.numbox",
							"parameter_invisible" : 0,
							"parameter_modmax" : 127.0,
							"parameter_annotation_name" : "",
							"parameter_longname" : "live.numbox",
							"parameter_modmin" : 0.0,
							"parameter_linknames" : 0,
							"parameter_modmode" : 0,
							"parameter_info" : "",
							"parameter_order" : 0,
							"parameter_units" : "",
							"parameter_speedlim" : 1,
							"parameter_steps" : 0,
							"parameter_exponent" : 1.0,
							"parameter_unitstyle" : 0,
							"parameter_mmax" : 127.0
						}

					}

				}

			}
, 			{
				"box" : 				{
					"maxclass" : "comment",
					"text" : "original defaults: 2048 512 4096 blackman70 0 1 10 3",
					"numinlets" : 1,
					"numoutlets" : 0,
					"patching_rect" : [ 31.0, 162.0, 262.0, 18.0 ],
					"id" : "obj-18",
					"fontsize" : 10.0,
					"hidden" : 1,
					"fontname" : "Arial"
				}

			}
, 			{
				"box" : 				{
					"maxclass" : "inlet",
					"numinlets" : 0,
					"numoutlets" : 1,
					"patching_rect" : [ 14.0, 59.0, 25.0, 25.0 ],
					"id" : "obj-13",
					"outlettype" : [ "" ],
					"comment" : "audio signal to be analyzed"
				}

			}
, 			{
				"box" : 				{
					"maxclass" : "ubutton",
					"numinlets" : 1,
					"numoutlets" : 4,
					"patching_rect" : [ 400.0, 222.0, 154.0, 50.0 ],
					"id" : "obj-12",
					"handoff" : "",
					"outlettype" : [ "bang", "bang", "", "int" ]
				}

			}
, 			{
				"box" : 				{
					"maxclass" : "comment",
					"text" : "pitch~ was created by Tristan Jehan based on fiddle~ by Miller Puckette",
					"linecount" : 3,
					"numinlets" : 1,
					"numoutlets" : 0,
					"patching_rect" : [ 400.0, 224.0, 157.0, 48.0 ],
					"id" : "obj-10",
					"fontsize" : 12.0,
					"fontname" : "Arial"
				}

			}
, 			{
				"box" : 				{
					"maxclass" : "newobj",
					"text" : "p launchURL",
					"numinlets" : 1,
					"numoutlets" : 0,
					"patching_rect" : [ 400.400024, 295.200073, 62.0, 17.0 ],
					"id" : "obj-6",
					"fontsize" : 9.0,
					"fontname" : "Arial",
					"patcher" : 					{
						"fileversion" : 1,
						"rect" : [ 15.0, 55.0, 600.0, 426.0 ],
						"bglocked" : 0,
						"defrect" : [ 15.0, 55.0, 600.0, 426.0 ],
						"openrect" : [ 0.0, 0.0, 0.0, 0.0 ],
						"openinpresentation" : 0,
						"default_fontsize" : 12.0,
						"default_fontface" : 0,
						"default_fontname" : "Arial",
						"gridonopen" : 0,
						"gridsize" : [ 15.0, 15.0 ],
						"gridsnaponopen" : 0,
						"toolbarvisible" : 1,
						"boxanimatetime" : 200,
						"imprint" : 0,
						"enablehscroll" : 1,
						"enablevscroll" : 1,
						"devicewidth" : 0.0,
						"boxes" : [ 							{
								"box" : 								{
									"maxclass" : "newobj",
									"text" : "t b s",
									"numinlets" : 1,
									"numoutlets" : 2,
									"patching_rect" : [ 50.0, 50.0, 27.0, 17.0 ],
									"id" : "obj-1",
									"fontsize" : 9.0,
									"outlettype" : [ "bang", "" ],
									"fontname" : "Arial"
								}

							}
, 							{
								"box" : 								{
									"maxclass" : "message",
									"text" : ";\rmax launch_browser http://www.vjmanzo.com/portfolio",
									"linecount" : 2,
									"numinlets" : 2,
									"numoutlets" : 1,
									"patching_rect" : [ 67.0, 108.0, 344.0, 25.0 ],
									"id" : "obj-2",
									"fontsize" : 9.0,
									"outlettype" : [ "" ],
									"fontname" : "Arial"
								}

							}
, 							{
								"box" : 								{
									"maxclass" : "newobj",
									"text" : "sprintf set \\; max launch_browser %s",
									"numinlets" : 1,
									"numoutlets" : 1,
									"patching_rect" : [ 67.0, 79.0, 164.0, 17.0 ],
									"id" : "obj-3",
									"fontsize" : 9.0,
									"outlettype" : [ "" ],
									"fontname" : "Arial"
								}

							}
, 							{
								"box" : 								{
									"maxclass" : "inlet",
									"numinlets" : 0,
									"numoutlets" : 1,
									"patching_rect" : [ 50.0, 30.0, 15.0, 15.0 ],
									"id" : "obj-4",
									"outlettype" : [ "" ],
									"comment" : ""
								}

							}
 ],
						"lines" : [ 							{
								"patchline" : 								{
									"source" : [ "obj-1", 0 ],
									"destination" : [ "obj-2", 0 ],
									"hidden" : 0,
									"midpoints" : [ 59.5, 102.0, 76.5, 102.0 ]
								}

							}
, 							{
								"patchline" : 								{
									"source" : [ "obj-3", 0 ],
									"destination" : [ "obj-2", 0 ],
									"hidden" : 0,
									"midpoints" : [  ]
								}

							}
, 							{
								"patchline" : 								{
									"source" : [ "obj-1", 1 ],
									"destination" : [ "obj-3", 0 ],
									"hidden" : 0,
									"midpoints" : [  ]
								}

							}
, 							{
								"patchline" : 								{
									"source" : [ "obj-4", 0 ],
									"destination" : [ "obj-1", 0 ],
									"hidden" : 0,
									"midpoints" : [  ]
								}

							}
 ]
					}
,
					"saved_object_attributes" : 					{
						"fontface" : 0,
						"fontsize" : 12.0,
						"default_fontface" : 0,
						"globalpatchername" : "",
						"default_fontname" : "Arial",
						"fontname" : "Arial",
						"default_fontsize" : 12.0
					}

				}

			}
, 			{
				"box" : 				{
					"maxclass" : "message",
					"text" : "http://web.media.mit.edu/~tristan/",
					"numinlets" : 2,
					"numoutlets" : 1,
					"patching_rect" : [ 397.400024, 278.199951, 158.0, 16.0 ],
					"id" : "obj-7",
					"fontsize" : 10.0,
					"outlettype" : [ "" ],
					"gradient" : 1,
					"bgcolor2" : [ 1.0, 1.0, 1.0, 1.0 ],
					"bgcolor" : [ 0.792157, 0.898039, 1.0, 1.0 ],
					"fontname" : "Arial"
				}

			}
, 			{
				"box" : 				{
					"maxclass" : "outlet",
					"numinlets" : 1,
					"numoutlets" : 0,
					"patching_rect" : [ 245.0, 345.0, 25.0, 25.0 ],
					"id" : "obj-5",
					"comment" : "Amplitude (dB)"
				}

			}
, 			{
				"box" : 				{
					"maxclass" : "outlet",
					"numinlets" : 1,
					"numoutlets" : 0,
					"patching_rect" : [ 143.0, 345.0, 25.0, 25.0 ],
					"id" : "obj-3",
					"comment" : "Frequency"
				}

			}
, 			{
				"box" : 				{
					"maxclass" : "outlet",
					"numinlets" : 1,
					"numoutlets" : 0,
					"patching_rect" : [ 71.0, 345.0, 25.0, 25.0 ],
					"id" : "obj-1",
					"comment" : "MIDI Note"
				}

			}
, 			{
				"box" : 				{
					"maxclass" : "newobj",
					"text" : "loadbang",
					"numinlets" : 1,
					"numoutlets" : 1,
					"patching_rect" : [ 327.0, 326.0, 43.0, 16.0 ],
					"id" : "obj-320",
					"fontsize" : 8.0,
					"outlettype" : [ "bang" ],
					"fontname" : "Arial"
				}

			}
, 			{
				"box" : 				{
					"maxclass" : "message",
					"text" : "patcher \"Pitch to MIDI | pitch~ object created by Tristan Jehan |\"",
					"linecount" : 2,
					"numinlets" : 2,
					"numoutlets" : 1,
					"patching_rect" : [ 327.0, 345.0, 296.0, 31.0 ],
					"id" : "obj-316",
					"fontsize" : 11.595187,
					"outlettype" : [ "" ],
					"fontname" : "Arial"
				}

			}
, 			{
				"box" : 				{
					"maxclass" : "newobj",
					"text" : "thispatcher",
					"numinlets" : 1,
					"numoutlets" : 2,
					"patching_rect" : [ 327.0, 382.0, 50.0, 16.0 ],
					"id" : "obj-309",
					"fontsize" : 8.0,
					"outlettype" : [ "", "" ],
					"fontname" : "Arial",
					"save" : [ "#N", "thispatcher", ";", "#Q", "end", ";" ]
				}

			}
, 			{
				"box" : 				{
					"maxclass" : "comment",
					"text" : "vj@vjmanzo.com",
					"numinlets" : 1,
					"numoutlets" : 0,
					"patching_rect" : [ 459.0, 151.0, 85.0, 18.0 ],
					"id" : "obj-196",
					"fontsize" : 10.0,
					"fontname" : "Arial"
				}

			}
, 			{
				"box" : 				{
					"maxclass" : "newobj",
					"text" : "p launchURL",
					"numinlets" : 1,
					"numoutlets" : 0,
					"patching_rect" : [ 406.400024, 187.200073, 62.0, 17.0 ],
					"id" : "obj-190",
					"fontsize" : 9.0,
					"fontname" : "Arial",
					"patcher" : 					{
						"fileversion" : 1,
						"rect" : [ 15.0, 55.0, 600.0, 426.0 ],
						"bglocked" : 0,
						"defrect" : [ 15.0, 55.0, 600.0, 426.0 ],
						"openrect" : [ 0.0, 0.0, 0.0, 0.0 ],
						"openinpresentation" : 0,
						"default_fontsize" : 12.0,
						"default_fontface" : 0,
						"default_fontname" : "Arial",
						"gridonopen" : 0,
						"gridsize" : [ 15.0, 15.0 ],
						"gridsnaponopen" : 0,
						"toolbarvisible" : 1,
						"boxanimatetime" : 200,
						"imprint" : 0,
						"enablehscroll" : 1,
						"enablevscroll" : 1,
						"devicewidth" : 0.0,
						"boxes" : [ 							{
								"box" : 								{
									"maxclass" : "newobj",
									"text" : "t b s",
									"numinlets" : 1,
									"numoutlets" : 2,
									"patching_rect" : [ 50.0, 50.0, 27.0, 17.0 ],
									"id" : "obj-1",
									"fontsize" : 9.0,
									"outlettype" : [ "bang", "" ],
									"fontname" : "Arial"
								}

							}
, 							{
								"box" : 								{
									"maxclass" : "message",
									"text" : ";\rmax launch_browser http://www.vjmanzo.com/portfolio",
									"linecount" : 2,
									"numinlets" : 2,
									"numoutlets" : 1,
									"patching_rect" : [ 67.0, 108.0, 344.0, 25.0 ],
									"id" : "obj-2",
									"fontsize" : 9.0,
									"outlettype" : [ "" ],
									"fontname" : "Arial"
								}

							}
, 							{
								"box" : 								{
									"maxclass" : "newobj",
									"text" : "sprintf set \\; max launch_browser %s",
									"numinlets" : 1,
									"numoutlets" : 1,
									"patching_rect" : [ 67.0, 79.0, 164.0, 17.0 ],
									"id" : "obj-3",
									"fontsize" : 9.0,
									"outlettype" : [ "" ],
									"fontname" : "Arial"
								}

							}
, 							{
								"box" : 								{
									"maxclass" : "inlet",
									"numinlets" : 0,
									"numoutlets" : 1,
									"patching_rect" : [ 50.0, 30.0, 15.0, 15.0 ],
									"id" : "obj-4",
									"outlettype" : [ "" ],
									"comment" : ""
								}

							}
 ],
						"lines" : [ 							{
								"patchline" : 								{
									"source" : [ "obj-4", 0 ],
									"destination" : [ "obj-1", 0 ],
									"hidden" : 0,
									"midpoints" : [  ]
								}

							}
, 							{
								"patchline" : 								{
									"source" : [ "obj-1", 1 ],
									"destination" : [ "obj-3", 0 ],
									"hidden" : 0,
									"midpoints" : [  ]
								}

							}
, 							{
								"patchline" : 								{
									"source" : [ "obj-3", 0 ],
									"destination" : [ "obj-2", 0 ],
									"hidden" : 0,
									"midpoints" : [  ]
								}

							}
, 							{
								"patchline" : 								{
									"source" : [ "obj-1", 0 ],
									"destination" : [ "obj-2", 0 ],
									"hidden" : 0,
									"midpoints" : [ 59.5, 102.0, 76.5, 102.0 ]
								}

							}
 ]
					}
,
					"saved_object_attributes" : 					{
						"fontface" : 0,
						"fontsize" : 12.0,
						"default_fontface" : 0,
						"globalpatchername" : "",
						"default_fontname" : "Arial",
						"fontname" : "Arial",
						"default_fontsize" : 12.0
					}

				}

			}
, 			{
				"box" : 				{
					"maxclass" : "message",
					"text" : "http://www.vjmanzo.com/cv",
					"numinlets" : 2,
					"numoutlets" : 1,
					"patching_rect" : [ 403.400024, 170.199951, 131.0, 16.0 ],
					"id" : "obj-191",
					"fontsize" : 10.0,
					"outlettype" : [ "" ],
					"gradient" : 1,
					"bgcolor2" : [ 1.0, 1.0, 1.0, 1.0 ],
					"bgcolor" : [ 0.792157, 0.898039, 1.0, 1.0 ],
					"fontname" : "Arial"
				}

			}
, 			{
				"box" : 				{
					"maxclass" : "ubutton",
					"numinlets" : 1,
					"numoutlets" : 4,
					"patching_rect" : [ 403.0, 128.0, 142.0, 40.0 ],
					"presentation" : 1,
					"id" : "obj-192",
					"handoff" : "",
					"outlettype" : [ "bang", "bang", "", "int" ],
					"presentation_rect" : [ 8.0, 127.0, 57.0, 36.0 ]
				}

			}
, 			{
				"box" : 				{
					"maxclass" : "newobj",
					"text" : "p launchURL",
					"numinlets" : 1,
					"numoutlets" : 0,
					"patching_rect" : [ 407.400024, 45.200073, 62.0, 17.0 ],
					"id" : "obj-101",
					"fontsize" : 9.0,
					"fontname" : "Arial",
					"patcher" : 					{
						"fileversion" : 1,
						"rect" : [ 15.0, 55.0, 600.0, 426.0 ],
						"bglocked" : 0,
						"defrect" : [ 15.0, 55.0, 600.0, 426.0 ],
						"openrect" : [ 0.0, 0.0, 0.0, 0.0 ],
						"openinpresentation" : 0,
						"default_fontsize" : 12.0,
						"default_fontface" : 0,
						"default_fontname" : "Arial",
						"gridonopen" : 0,
						"gridsize" : [ 15.0, 15.0 ],
						"gridsnaponopen" : 0,
						"toolbarvisible" : 1,
						"boxanimatetime" : 200,
						"imprint" : 0,
						"enablehscroll" : 1,
						"enablevscroll" : 1,
						"devicewidth" : 0.0,
						"boxes" : [ 							{
								"box" : 								{
									"maxclass" : "newobj",
									"text" : "t b s",
									"numinlets" : 1,
									"numoutlets" : 2,
									"patching_rect" : [ 50.0, 50.0, 27.0, 17.0 ],
									"id" : "obj-1",
									"fontsize" : 9.0,
									"outlettype" : [ "bang", "" ],
									"fontname" : "Arial"
								}

							}
, 							{
								"box" : 								{
									"maxclass" : "message",
									"text" : ";\rmax launch_browser http://www.eamir.org",
									"linecount" : 2,
									"numinlets" : 2,
									"numoutlets" : 1,
									"patching_rect" : [ 67.0, 108.0, 344.0, 25.0 ],
									"id" : "obj-2",
									"fontsize" : 9.0,
									"outlettype" : [ "" ],
									"fontname" : "Arial"
								}

							}
, 							{
								"box" : 								{
									"maxclass" : "newobj",
									"text" : "sprintf set \\; max launch_browser %s",
									"numinlets" : 1,
									"numoutlets" : 1,
									"patching_rect" : [ 67.0, 79.0, 164.0, 17.0 ],
									"id" : "obj-3",
									"fontsize" : 9.0,
									"outlettype" : [ "" ],
									"fontname" : "Arial"
								}

							}
, 							{
								"box" : 								{
									"maxclass" : "inlet",
									"numinlets" : 0,
									"numoutlets" : 1,
									"patching_rect" : [ 50.0, 30.0, 15.0, 15.0 ],
									"id" : "obj-4",
									"outlettype" : [ "" ],
									"comment" : ""
								}

							}
 ],
						"lines" : [ 							{
								"patchline" : 								{
									"source" : [ "obj-4", 0 ],
									"destination" : [ "obj-1", 0 ],
									"hidden" : 0,
									"midpoints" : [  ]
								}

							}
, 							{
								"patchline" : 								{
									"source" : [ "obj-1", 1 ],
									"destination" : [ "obj-3", 0 ],
									"hidden" : 0,
									"midpoints" : [  ]
								}

							}
, 							{
								"patchline" : 								{
									"source" : [ "obj-3", 0 ],
									"destination" : [ "obj-2", 0 ],
									"hidden" : 0,
									"midpoints" : [  ]
								}

							}
, 							{
								"patchline" : 								{
									"source" : [ "obj-1", 0 ],
									"destination" : [ "obj-2", 0 ],
									"hidden" : 0,
									"midpoints" : [ 59.5, 102.0, 76.5, 102.0 ]
								}

							}
 ]
					}
,
					"saved_object_attributes" : 					{
						"fontface" : 0,
						"fontsize" : 12.0,
						"default_fontface" : 0,
						"globalpatchername" : "",
						"default_fontname" : "Arial",
						"fontname" : "Arial",
						"default_fontsize" : 12.0
					}

				}

			}
, 			{
				"box" : 				{
					"maxclass" : "message",
					"text" : "http://www.eamir.org",
					"numinlets" : 2,
					"numoutlets" : 1,
					"patching_rect" : [ 404.400024, 28.200012, 102.0, 16.0 ],
					"id" : "obj-132",
					"fontsize" : 10.0,
					"outlettype" : [ "" ],
					"gradient" : 1,
					"bgcolor2" : [ 1.0, 1.0, 1.0, 1.0 ],
					"bgcolor" : [ 0.917647, 0.85098, 1.0, 1.0 ],
					"fontname" : "Arial"
				}

			}
, 			{
				"box" : 				{
					"maxclass" : "ubutton",
					"numinlets" : 1,
					"numoutlets" : 4,
					"patching_rect" : [ 404.0, 65.0, 64.0, 62.0 ],
					"presentation" : 1,
					"id" : "obj-188",
					"handoff" : "",
					"outlettype" : [ "bang", "bang", "", "int" ],
					"hltcolor" : [ 0.305882, 0.0, 0.407843, 0.501961 ],
					"presentation_rect" : [ 7.0, 62.0, 60.0, 61.0 ]
				}

			}
, 			{
				"box" : 				{
					"maxclass" : "comment",
					"text" : "EAMIR\ncreated by\nV.J. Manzo",
					"linecount" : 3,
					"presentation_linecount" : 3,
					"numinlets" : 1,
					"numoutlets" : 0,
					"patching_rect" : [ 403.400024, 128.200073, 143.0, 41.0 ],
					"presentation" : 1,
					"id" : "obj-189",
					"fontsize" : 10.0,
					"presentation_rect" : [ 4.400024, 124.200073, 62.0, 41.0 ],
					"fontname" : "Arial"
				}

			}
, 			{
				"box" : 				{
					"maxclass" : "fpic",
					"numinlets" : 1,
					"numoutlets" : 0,
					"patching_rect" : [ 403.0, 65.0, 65.0, 63.0 ],
					"pic" : "EAMIR_logo.png",
					"presentation" : 1,
					"id" : "obj-185",
					"presentation_rect" : [ 4.0, 61.0, 65.0, 63.0 ]
				}

			}
, 			{
				"box" : 				{
					"maxclass" : "comment",
					"text" : "Frequency",
					"numinlets" : 1,
					"numoutlets" : 0,
					"patching_rect" : [ 152.0, 219.0, 66.0, 20.0 ],
					"presentation" : 1,
					"id" : "obj-17",
					"fontsize" : 12.0,
					"presentation_rect" : [ 69.0, 21.0, 66.0, 20.0 ],
					"fontname" : "Arial"
				}

			}
, 			{
				"box" : 				{
					"maxclass" : "comment",
					"text" : "Amplitude (dB)",
					"numinlets" : 1,
					"numoutlets" : 0,
					"patching_rect" : [ 259.0, 234.0, 94.0, 20.0 ],
					"presentation" : 1,
					"id" : "obj-112",
					"fontsize" : 12.0,
					"presentation_rect" : [ 139.0, 21.0, 94.0, 20.0 ],
					"fontname" : "Arial"
				}

			}
, 			{
				"box" : 				{
					"maxclass" : "comment",
					"text" : "MIDI note",
					"numinlets" : 1,
					"numoutlets" : 0,
					"patching_rect" : [ 4.0, 277.0, 66.0, 20.0 ],
					"presentation" : 1,
					"id" : "obj-15",
					"fontsize" : 12.0,
					"presentation_rect" : [ 3.0, 21.0, 66.0, 20.0 ],
					"fontname" : "Arial"
				}

			}
, 			{
				"box" : 				{
					"maxclass" : "newobj",
					"text" : "+ 0.5",
					"numinlets" : 2,
					"numoutlets" : 1,
					"patching_rect" : [ 71.0, 256.0, 35.0, 19.0 ],
					"id" : "obj-9",
					"fontsize" : 11.0,
					"outlettype" : [ "float" ],
					"fontname" : "Arial"
				}

			}
, 			{
				"box" : 				{
					"maxclass" : "newobj",
					"text" : "loadbang",
					"numinlets" : 1,
					"numoutlets" : 1,
					"patching_rect" : [ 48.0, 102.0, 56.0, 19.0 ],
					"id" : "obj-4",
					"fontsize" : 11.0,
					"outlettype" : [ "bang" ],
					"fontname" : "Arial"
				}

			}
, 			{
				"box" : 				{
					"maxclass" : "flonum",
					"numinlets" : 1,
					"numoutlets" : 2,
					"patching_rect" : [ 71.0, 234.0, 60.0, 20.0 ],
					"id" : "obj-75",
					"fontsize" : 12.0,
					"outlettype" : [ "float", "bang" ],
					"triscale" : 0.9,
					"fontname" : "Arial",
					"htextcolor" : [ 0.870588, 0.870588, 0.870588, 1.0 ]
				}

			}
, 			{
				"box" : 				{
					"maxclass" : "newobj",
					"text" : "unpack 0. 0.",
					"numinlets" : 1,
					"numoutlets" : 2,
					"patching_rect" : [ 71.0, 209.0, 73.0, 19.0 ],
					"id" : "obj-76",
					"fontsize" : 11.0,
					"outlettype" : [ "float", "float" ],
					"fontname" : "Arial"
				}

			}
, 			{
				"box" : 				{
					"maxclass" : "message",
					"text" : "npartial 7",
					"numinlets" : 2,
					"numoutlets" : 1,
					"patching_rect" : [ 327.0, 138.0, 57.0, 17.0 ],
					"id" : "obj-54",
					"fontsize" : 11.0,
					"outlettype" : [ "" ],
					"fontname" : "Arial"
				}

			}
, 			{
				"box" : 				{
					"maxclass" : "message",
					"text" : "reattack 100 10",
					"numinlets" : 2,
					"numoutlets" : 1,
					"patching_rect" : [ 233.0, 138.0, 93.0, 17.0 ],
					"id" : "obj-55",
					"fontsize" : 11.0,
					"outlettype" : [ "" ],
					"fontname" : "Arial"
				}

			}
, 			{
				"box" : 				{
					"maxclass" : "message",
					"text" : "vibrato 50 0.5",
					"numinlets" : 2,
					"numoutlets" : 1,
					"patching_rect" : [ 147.0, 138.0, 84.0, 17.0 ],
					"id" : "obj-56",
					"fontsize" : 11.0,
					"outlettype" : [ "" ],
					"fontname" : "Arial"
				}

			}
, 			{
				"box" : 				{
					"maxclass" : "message",
					"text" : "amp-range 40 50",
					"numinlets" : 2,
					"numoutlets" : 1,
					"patching_rect" : [ 48.0, 138.0, 97.0, 17.0 ],
					"id" : "obj-57",
					"fontsize" : 11.0,
					"outlettype" : [ "" ],
					"fontname" : "Arial"
				}

			}
, 			{
				"box" : 				{
					"maxclass" : "newobj",
					"text" : "pitch~ 2048 512 1024 blackman70 0 1 10 3",
					"numinlets" : 1,
					"numoutlets" : 5,
					"patching_rect" : [ 14.0, 179.0, 222.0, 19.0 ],
					"id" : "obj-107",
					"fontsize" : 11.0,
					"outlettype" : [ "bang", "list", "list", "float", "list" ],
					"color" : [ 0.156863, 0.8, 0.54902, 1.0 ],
					"fontname" : "Arial"
				}

			}
 ],
		"lines" : [ 			{
				"patchline" : 				{
					"source" : [ "obj-9", 0 ],
					"destination" : [ "obj-8", 0 ],
					"hidden" : 0,
					"midpoints" : [  ]
				}

			}
, 			{
				"patchline" : 				{
					"source" : [ "obj-8", 0 ],
					"destination" : [ "obj-1", 0 ],
					"hidden" : 0,
					"midpoints" : [  ]
				}

			}
, 			{
				"patchline" : 				{
					"source" : [ "obj-11", 0 ],
					"destination" : [ "obj-3", 0 ],
					"hidden" : 0,
					"midpoints" : [  ]
				}

			}
, 			{
				"patchline" : 				{
					"source" : [ "obj-76", 1 ],
					"destination" : [ "obj-11", 0 ],
					"hidden" : 0,
					"midpoints" : [ 134.5, 232.0, 152.5, 232.0 ]
				}

			}
, 			{
				"patchline" : 				{
					"source" : [ "obj-14", 0 ],
					"destination" : [ "obj-5", 0 ],
					"hidden" : 0,
					"midpoints" : [  ]
				}

			}
, 			{
				"patchline" : 				{
					"source" : [ "obj-107", 3 ],
					"destination" : [ "obj-14", 0 ],
					"hidden" : 0,
					"midpoints" : [ 175.75, 209.0, 254.5, 209.0 ]
				}

			}
, 			{
				"patchline" : 				{
					"source" : [ "obj-12", 1 ],
					"destination" : [ "obj-7", 0 ],
					"hidden" : 0,
					"midpoints" : [ 454.5, 275.099976, 406.900024, 275.099976 ]
				}

			}
, 			{
				"patchline" : 				{
					"source" : [ "obj-7", 0 ],
					"destination" : [ "obj-6", 0 ],
					"hidden" : 1,
					"midpoints" : [ 406.900024, 294.200012, 409.900024, 294.200012 ]
				}

			}
, 			{
				"patchline" : 				{
					"source" : [ "obj-132", 0 ],
					"destination" : [ "obj-101", 0 ],
					"hidden" : 1,
					"midpoints" : [ 413.900024, 44.200012, 416.900024, 44.200012 ]
				}

			}
, 			{
				"patchline" : 				{
					"source" : [ "obj-188", 0 ],
					"destination" : [ "obj-132", 0 ],
					"hidden" : 1,
					"midpoints" : [  ]
				}

			}
, 			{
				"patchline" : 				{
					"source" : [ "obj-191", 0 ],
					"destination" : [ "obj-190", 0 ],
					"hidden" : 1,
					"midpoints" : [ 412.900024, 186.200012, 415.900024, 186.200012 ]
				}

			}
, 			{
				"patchline" : 				{
					"source" : [ "obj-192", 0 ],
					"destination" : [ "obj-191", 0 ],
					"hidden" : 1,
					"midpoints" : [  ]
				}

			}
, 			{
				"patchline" : 				{
					"source" : [ "obj-320", 0 ],
					"destination" : [ "obj-316", 0 ],
					"hidden" : 0,
					"midpoints" : [  ]
				}

			}
, 			{
				"patchline" : 				{
					"source" : [ "obj-316", 0 ],
					"destination" : [ "obj-309", 0 ],
					"hidden" : 0,
					"midpoints" : [  ]
				}

			}
, 			{
				"patchline" : 				{
					"source" : [ "obj-76", 0 ],
					"destination" : [ "obj-75", 0 ],
					"hidden" : 0,
					"midpoints" : [  ]
				}

			}
, 			{
				"patchline" : 				{
					"source" : [ "obj-4", 0 ],
					"destination" : [ "obj-57", 0 ],
					"hidden" : 0,
					"midpoints" : [ 57.5, 129.5, 57.5, 129.5 ]
				}

			}
, 			{
				"patchline" : 				{
					"source" : [ "obj-4", 0 ],
					"destination" : [ "obj-56", 0 ],
					"hidden" : 0,
					"midpoints" : [ 57.5, 129.5, 156.5, 129.5 ]
				}

			}
, 			{
				"patchline" : 				{
					"source" : [ "obj-4", 0 ],
					"destination" : [ "obj-55", 0 ],
					"hidden" : 0,
					"midpoints" : [ 57.5, 129.0, 242.5, 129.0 ]
				}

			}
, 			{
				"patchline" : 				{
					"source" : [ "obj-4", 0 ],
					"destination" : [ "obj-54", 0 ],
					"hidden" : 0,
					"midpoints" : [ 57.5, 129.0, 336.5, 129.0 ]
				}

			}
, 			{
				"patchline" : 				{
					"source" : [ "obj-75", 0 ],
					"destination" : [ "obj-9", 0 ],
					"hidden" : 0,
					"midpoints" : [  ]
				}

			}
, 			{
				"patchline" : 				{
					"source" : [ "obj-13", 0 ],
					"destination" : [ "obj-107", 0 ],
					"hidden" : 0,
					"midpoints" : [  ]
				}

			}
, 			{
				"patchline" : 				{
					"source" : [ "obj-57", 0 ],
					"destination" : [ "obj-107", 0 ],
					"hidden" : 0,
					"midpoints" : [ 57.5, 160.0, 23.5, 160.0 ]
				}

			}
, 			{
				"patchline" : 				{
					"source" : [ "obj-56", 0 ],
					"destination" : [ "obj-107", 0 ],
					"hidden" : 0,
					"midpoints" : [ 156.5, 160.0, 23.5, 160.0 ]
				}

			}
, 			{
				"patchline" : 				{
					"source" : [ "obj-55", 0 ],
					"destination" : [ "obj-107", 0 ],
					"hidden" : 0,
					"midpoints" : [ 242.5, 160.5, 23.5, 160.5 ]
				}

			}
, 			{
				"patchline" : 				{
					"source" : [ "obj-54", 0 ],
					"destination" : [ "obj-107", 0 ],
					"hidden" : 0,
					"midpoints" : [ 336.5, 160.5, 23.5, 160.5 ]
				}

			}
, 			{
				"patchline" : 				{
					"source" : [ "obj-107", 1 ],
					"destination" : [ "obj-76", 0 ],
					"hidden" : 0,
					"midpoints" : [ 74.25, 203.0, 80.5, 203.0 ]
				}

			}
 ],
		"parameters" : 		{
			"obj-14" : [ "live.numbox[2]", "live.numbox", 0 ],
			"obj-8" : [ "live.numbox", "live.numbox", 0 ],
			"obj-11" : [ "live.numbox[1]", "live.numbox", 0 ]
		}

	}

}
