{
	"patcher" : 	{
		"fileversion" : 1,
		"rect" : [ 156.0, 150.0, 883.0, 500.0 ],
		"bglocked" : 0,
		"defrect" : [ 156.0, 150.0, 883.0, 500.0 ],
		"openrect" : [ 0.0, 0.0, 0.0, 0.0 ],
		"openinpresentation" : 1,
		"default_fontsize" : 12.0,
		"default_fontface" : 0,
		"default_fontname" : "Arial",
		"gridonopen" : 0,
		"gridsize" : [ 15.0, 15.0 ],
		"gridsnaponopen" : 0,
		"toolbarvisible" : 1,
		"boxanimatetime" : 200,
		"imprint" : 0,
		"enablehscroll" : 1,
		"enablevscroll" : 1,
		"devicewidth" : 0.0,
		"boxes" : [ 			{
				"box" : 				{
					"maxclass" : "live.button",
					"varname" : "live.button[2]",
					"patching_rect" : [ 287.0, 335.0, 20.0, 20.0 ],
					"presentation" : 1,
					"id" : "obj-41",
					"numinlets" : 1,
					"parameter_enable" : 1,
					"numoutlets" : 1,
					"outlettype" : [ "" ],
					"presentation_rect" : [ 368.0, 81.0, 20.0, 20.0 ],
					"activebgoncolor" : [ 0.403922, 0.109804, 0.701961, 1.0 ],
					"saved_attribute_attributes" : 					{
						"valueof" : 						{
							"parameter_mmax" : 1.0,
							"parameter_mmin" : 0.0,
							"parameter_type" : 2,
							"parameter_initial_enable" : 0,
							"parameter_shortname" : "live.button",
							"parameter_modmax" : 127.0,
							"parameter_longname" : "live.button[2]",
							"parameter_modmin" : 0.0,
							"parameter_linknames" : 0,
							"parameter_modmode" : 0,
							"parameter_info" : "",
							"parameter_units" : "",
							"parameter_order" : 0,
							"parameter_defer" : 0,
							"parameter_speedlim" : 1.0,
							"parameter_steps" : 0,
							"parameter_invisible" : 0,
							"parameter_enum" : [ "off", "on" ],
							"parameter_exponent" : 1.0,
							"parameter_annotation_name" : "",
							"parameter_unitstyle" : 10
						}

					}

				}

			}
, 			{
				"box" : 				{
					"maxclass" : "live.button",
					"varname" : "live.button[1]",
					"patching_rect" : [ 229.0, 335.0, 20.0, 20.0 ],
					"presentation" : 1,
					"id" : "obj-40",
					"numinlets" : 1,
					"parameter_enable" : 1,
					"numoutlets" : 1,
					"outlettype" : [ "" ],
					"presentation_rect" : [ 239.0, 81.0, 20.0, 20.0 ],
					"activebgoncolor" : [ 0.403922, 0.109804, 0.701961, 1.0 ],
					"saved_attribute_attributes" : 					{
						"valueof" : 						{
							"parameter_mmax" : 1.0,
							"parameter_mmin" : 0.0,
							"parameter_type" : 2,
							"parameter_initial_enable" : 0,
							"parameter_shortname" : "live.button",
							"parameter_modmax" : 127.0,
							"parameter_longname" : "live.button[1]",
							"parameter_modmin" : 0.0,
							"parameter_linknames" : 0,
							"parameter_modmode" : 0,
							"parameter_info" : "",
							"parameter_units" : "",
							"parameter_order" : 0,
							"parameter_defer" : 0,
							"parameter_speedlim" : 1.0,
							"parameter_steps" : 0,
							"parameter_invisible" : 0,
							"parameter_enum" : [ "off", "on" ],
							"parameter_exponent" : 1.0,
							"parameter_annotation_name" : "",
							"parameter_unitstyle" : 10
						}

					}

				}

			}
, 			{
				"box" : 				{
					"maxclass" : "live.numbox",
					"varname" : "live.numbox[3]",
					"patching_rect" : [ 58.0, 485.0, 67.0, 17.0 ],
					"presentation" : 1,
					"id" : "obj-38",
					"numinlets" : 1,
					"parameter_enable" : 1,
					"numoutlets" : 2,
					"activetricolor2" : [ 0.403922, 0.109804, 0.701961, 1.0 ],
					"outlettype" : [ "", "float" ],
					"fontsize" : 12.0,
					"presentation_rect" : [ 106.0, 58.0, 128.0, 17.0 ],
					"activebgcolor" : [ 1.0, 1.0, 1.0, 1.0 ],
					"saved_attribute_attributes" : 					{
						"valueof" : 						{
							"parameter_mmax" : 127.0,
							"parameter_mmin" : 0.0,
							"parameter_type" : 0,
							"parameter_initial_enable" : 0,
							"parameter_shortname" : "live.numbox",
							"parameter_modmax" : 127.0,
							"parameter_longname" : "live.numbox[3]",
							"parameter_modmin" : 0.0,
							"parameter_linknames" : 0,
							"parameter_modmode" : 0,
							"parameter_info" : "",
							"parameter_units" : "",
							"parameter_order" : 0,
							"parameter_defer" : 0,
							"parameter_speedlim" : 1.0,
							"parameter_steps" : 0,
							"parameter_invisible" : 0,
							"parameter_exponent" : 1.0,
							"parameter_annotation_name" : "",
							"parameter_unitstyle" : 0
						}

					}

				}

			}
, 			{
				"box" : 				{
					"maxclass" : "live.numbox",
					"varname" : "live.numbox[2]",
					"patching_rect" : [ 243.0, 247.0, 128.0, 17.0 ],
					"presentation" : 1,
					"id" : "obj-36",
					"numinlets" : 1,
					"parameter_enable" : 1,
					"numoutlets" : 2,
					"activetricolor2" : [ 0.403922, 0.109804, 0.701961, 1.0 ],
					"outlettype" : [ "", "float" ],
					"fontsize" : 12.0,
					"presentation_rect" : [ 240.0, 58.0, 128.0, 17.0 ],
					"activebgcolor" : [ 1.0, 1.0, 1.0, 1.0 ],
					"saved_attribute_attributes" : 					{
						"valueof" : 						{
							"parameter_mmax" : 127.0,
							"parameter_mmin" : 0.0,
							"parameter_type" : 0,
							"parameter_initial_enable" : 0,
							"parameter_shortname" : "live.numbox",
							"parameter_modmax" : 127.0,
							"parameter_longname" : "live.numbox[2]",
							"parameter_modmin" : 0.0,
							"parameter_linknames" : 0,
							"parameter_modmode" : 0,
							"parameter_info" : "",
							"parameter_units" : "",
							"parameter_order" : 0,
							"parameter_defer" : 0,
							"parameter_speedlim" : 1.0,
							"parameter_steps" : 0,
							"parameter_invisible" : 0,
							"parameter_exponent" : 1.0,
							"parameter_annotation_name" : "",
							"parameter_unitstyle" : 0
						}

					}

				}

			}
, 			{
				"box" : 				{
					"maxclass" : "live.numbox",
					"varname" : "live.numbox[1]",
					"patching_rect" : [ 301.0, 274.0, 108.0, 17.0 ],
					"presentation" : 1,
					"id" : "obj-35",
					"numinlets" : 1,
					"parameter_enable" : 1,
					"numoutlets" : 2,
					"activetricolor2" : [ 0.403922, 0.109804, 0.701961, 1.0 ],
					"outlettype" : [ "", "float" ],
					"fontsize" : 12.0,
					"presentation_rect" : [ 372.0, 58.0, 139.0, 17.0 ],
					"activebgcolor" : [ 1.0, 1.0, 1.0, 1.0 ],
					"saved_attribute_attributes" : 					{
						"valueof" : 						{
							"parameter_mmax" : 127.0,
							"parameter_mmin" : 0.0,
							"parameter_type" : 0,
							"parameter_initial_enable" : 0,
							"parameter_shortname" : "live.numbox",
							"parameter_modmax" : 127.0,
							"parameter_longname" : "live.numbox[1]",
							"parameter_modmin" : 0.0,
							"parameter_linknames" : 0,
							"parameter_modmode" : 0,
							"parameter_info" : "",
							"parameter_units" : "",
							"parameter_order" : 0,
							"parameter_defer" : 0,
							"parameter_speedlim" : 1.0,
							"parameter_steps" : 0,
							"parameter_invisible" : 0,
							"parameter_exponent" : 1.0,
							"parameter_annotation_name" : "",
							"parameter_unitstyle" : 0
						}

					}

				}

			}
, 			{
				"box" : 				{
					"maxclass" : "live.numbox",
					"varname" : "live.numbox",
					"patching_rect" : [ 90.0, 173.0, 80.0, 17.0 ],
					"presentation" : 1,
					"id" : "obj-34",
					"numinlets" : 1,
					"parameter_enable" : 1,
					"numoutlets" : 2,
					"activetricolor2" : [ 0.403922, 0.109804, 0.701961, 1.0 ],
					"outlettype" : [ "", "float" ],
					"fontsize" : 12.0,
					"presentation_rect" : [ 15.0, 58.0, 80.0, 17.0 ],
					"activebgcolor" : [ 1.0, 1.0, 1.0, 1.0 ],
					"saved_attribute_attributes" : 					{
						"valueof" : 						{
							"parameter_mmax" : 127.0,
							"parameter_mmin" : 0.0,
							"parameter_type" : 0,
							"parameter_initial_enable" : 0,
							"parameter_shortname" : "live.numbox",
							"parameter_modmax" : 127.0,
							"parameter_longname" : "live.numbox",
							"parameter_modmin" : 0.0,
							"parameter_linknames" : 0,
							"parameter_modmode" : 0,
							"parameter_info" : "",
							"parameter_units" : "",
							"parameter_order" : 0,
							"parameter_defer" : 0,
							"parameter_speedlim" : 1.0,
							"parameter_steps" : 0,
							"parameter_invisible" : 0,
							"parameter_exponent" : 1.0,
							"parameter_annotation_name" : "",
							"parameter_unitstyle" : 0
						}

					}

				}

			}
, 			{
				"box" : 				{
					"maxclass" : "live.button",
					"varname" : "live.button",
					"patching_rect" : [ 590.0, 67.0, 20.0, 20.0 ],
					"presentation" : 1,
					"id" : "obj-33",
					"numinlets" : 1,
					"parameter_enable" : 1,
					"numoutlets" : 1,
					"outlettype" : [ "" ],
					"presentation_rect" : [ 108.0, 15.0, 20.0, 20.0 ],
					"activebgoncolor" : [ 0.403922, 0.109804, 0.701961, 1.0 ],
					"saved_attribute_attributes" : 					{
						"valueof" : 						{
							"parameter_mmax" : 1.0,
							"parameter_mmin" : 0.0,
							"parameter_type" : 2,
							"parameter_initial_enable" : 0,
							"parameter_shortname" : "live.button",
							"parameter_modmax" : 127.0,
							"parameter_longname" : "live.button",
							"parameter_modmin" : 0.0,
							"parameter_linknames" : 0,
							"parameter_modmode" : 0,
							"parameter_info" : "",
							"parameter_units" : "",
							"parameter_order" : 0,
							"parameter_defer" : 0,
							"parameter_speedlim" : 1.0,
							"parameter_steps" : 0,
							"parameter_invisible" : 0,
							"parameter_enum" : [ "off", "on" ],
							"parameter_exponent" : 1.0,
							"parameter_annotation_name" : "",
							"parameter_unitstyle" : 10
						}

					}

				}

			}
, 			{
				"box" : 				{
					"maxclass" : "live.toggle",
					"varname" : "live.toggle",
					"patching_rect" : [ 229.0, 381.0, 20.0, 20.0 ],
					"presentation" : 1,
					"id" : "obj-30",
					"numinlets" : 1,
					"parameter_enable" : 1,
					"numoutlets" : 1,
					"outlettype" : [ "" ],
					"presentation_rect" : [ 515.0, 58.0, 20.0, 20.0 ],
					"activebgoncolor" : [ 0.403922, 0.109804, 0.701961, 1.0 ],
					"saved_attribute_attributes" : 					{
						"valueof" : 						{
							"parameter_mmax" : 1.0,
							"parameter_mmin" : 0.0,
							"parameter_type" : 2,
							"parameter_initial_enable" : 0,
							"parameter_shortname" : "live.toggle",
							"parameter_modmax" : 127.0,
							"parameter_longname" : "live.toggle",
							"parameter_modmin" : 0.0,
							"parameter_linknames" : 0,
							"parameter_modmode" : 0,
							"parameter_info" : "",
							"parameter_units" : "",
							"parameter_order" : 0,
							"parameter_defer" : 0,
							"parameter_speedlim" : 1.0,
							"parameter_steps" : 0,
							"parameter_invisible" : 0,
							"parameter_enum" : [ "off", "on" ],
							"parameter_exponent" : 1.0,
							"parameter_annotation_name" : "",
							"parameter_unitstyle" : 10
						}

					}

				}

			}
, 			{
				"box" : 				{
					"maxclass" : "live.toggle",
					"varname" : "live.toggle[1]",
					"patching_rect" : [ 28.0, 49.0, 20.0, 20.0 ],
					"presentation" : 1,
					"id" : "obj-29",
					"numinlets" : 1,
					"parameter_enable" : 1,
					"numoutlets" : 1,
					"outlettype" : [ "" ],
					"presentation_rect" : [ 16.0, 15.0, 20.0, 20.0 ],
					"activebgoncolor" : [ 0.403922, 0.109804, 0.701961, 1.0 ],
					"saved_attribute_attributes" : 					{
						"valueof" : 						{
							"parameter_mmax" : 1.0,
							"parameter_mmin" : 0.0,
							"parameter_type" : 2,
							"parameter_initial_enable" : 0,
							"parameter_shortname" : "live.toggle",
							"parameter_modmax" : 127.0,
							"parameter_longname" : "live.toggle[1]",
							"parameter_modmin" : 0.0,
							"parameter_linknames" : 0,
							"parameter_modmode" : 0,
							"parameter_info" : "",
							"parameter_units" : "",
							"parameter_order" : 0,
							"parameter_defer" : 0,
							"parameter_speedlim" : 1.0,
							"parameter_steps" : 0,
							"parameter_invisible" : 0,
							"parameter_enum" : [ "off", "on" ],
							"parameter_exponent" : 1.0,
							"parameter_annotation_name" : "",
							"parameter_unitstyle" : 10
						}

					}

				}

			}
, 			{
				"box" : 				{
					"maxclass" : "comment",
					"text" : "calibrate",
					"patching_rect" : [ 48.0, 49.0, 56.0, 20.0 ],
					"presentation" : 1,
					"id" : "obj-1",
					"fontname" : "Arial",
					"numinlets" : 1,
					"numoutlets" : 0,
					"fontsize" : 12.0,
					"presentation_rect" : [ 40.0, 15.0, 60.0, 20.0 ]
				}

			}
, 			{
				"box" : 				{
					"maxclass" : "newobj",
					"text" : "gate 1 1",
					"patching_rect" : [ 202.0, 101.0, 54.0, 20.0 ],
					"id" : "obj-56",
					"fontname" : "Arial",
					"numinlets" : 2,
					"numoutlets" : 1,
					"outlettype" : [ "" ],
					"fontsize" : 12.0
				}

			}
, 			{
				"box" : 				{
					"maxclass" : "inlet",
					"patching_rect" : [ 187.0, 40.0, 24.0, 24.0 ],
					"id" : "obj-60",
					"numinlets" : 0,
					"numoutlets" : 1,
					"outlettype" : [ "" ],
					"comment" : "get data from route object"
				}

			}
, 			{
				"box" : 				{
					"maxclass" : "message",
					"text" : "1",
					"patching_rect" : [ 28.0, 108.0, 23.5, 18.0 ],
					"id" : "obj-58",
					"fontname" : "Arial",
					"numinlets" : 2,
					"numoutlets" : 1,
					"outlettype" : [ "" ],
					"fontsize" : 12.0
				}

			}
, 			{
				"box" : 				{
					"maxclass" : "newobj",
					"text" : "sel 0",
					"patching_rect" : [ 28.0, 81.0, 36.0, 20.0 ],
					"id" : "obj-55",
					"fontname" : "Arial",
					"numinlets" : 2,
					"numoutlets" : 2,
					"outlettype" : [ "bang", "" ],
					"fontsize" : 12.0
				}

			}
, 			{
				"box" : 				{
					"maxclass" : "newobj",
					"text" : "gate",
					"patching_rect" : [ 90.0, 82.0, 34.0, 20.0 ],
					"id" : "obj-48",
					"fontname" : "Arial",
					"numinlets" : 2,
					"numoutlets" : 1,
					"outlettype" : [ "" ],
					"fontsize" : 12.0
				}

			}
, 			{
				"box" : 				{
					"maxclass" : "comment",
					"text" : "Button Grabber",
					"patching_rect" : [ 373.0, 24.0, 168.0, 32.0 ],
					"id" : "obj-27",
					"fontname" : "Arial",
					"numinlets" : 1,
					"numoutlets" : 0,
					"fontsize" : 22.0
				}

			}
, 			{
				"box" : 				{
					"maxclass" : "newobj",
					"text" : "loadbang",
					"patching_rect" : [ 648.0, 151.0, 43.0, 16.0 ],
					"id" : "obj-320",
					"fontname" : "Arial",
					"numinlets" : 1,
					"numoutlets" : 1,
					"outlettype" : [ "bang" ],
					"fontsize" : 8.0
				}

			}
, 			{
				"box" : 				{
					"maxclass" : "message",
					"text" : "patcher \"Button Grabber\"",
					"patching_rect" : [ 648.0, 170.0, 140.0, 18.0 ],
					"id" : "obj-316",
					"fontname" : "Arial",
					"numinlets" : 2,
					"numoutlets" : 1,
					"outlettype" : [ "" ],
					"fontsize" : 11.595187
				}

			}
, 			{
				"box" : 				{
					"maxclass" : "newobj",
					"text" : "thispatcher",
					"patching_rect" : [ 648.0, 194.0, 50.0, 16.0 ],
					"id" : "obj-309",
					"fontname" : "Arial",
					"numinlets" : 1,
					"numoutlets" : 2,
					"outlettype" : [ "", "" ],
					"fontsize" : 8.0,
					"save" : [ "#N", "thispatcher", ";", "#Q", "end", ";" ]
				}

			}
, 			{
				"box" : 				{
					"maxclass" : "comment",
					"text" : "vj@vjmanzo.com",
					"patching_rect" : [ 648.0, 445.0, 85.0, 18.0 ],
					"id" : "obj-196",
					"fontname" : "Arial",
					"numinlets" : 1,
					"numoutlets" : 0,
					"hidden" : 1,
					"fontsize" : 10.0
				}

			}
, 			{
				"box" : 				{
					"maxclass" : "newobj",
					"text" : "p launchURL",
					"patching_rect" : [ 648.0, 481.200073, 62.0, 17.0 ],
					"id" : "obj-190",
					"fontname" : "Arial",
					"numinlets" : 1,
					"numoutlets" : 0,
					"hidden" : 1,
					"fontsize" : 9.0,
					"patcher" : 					{
						"fileversion" : 1,
						"rect" : [ 15.0, 55.0, 600.0, 426.0 ],
						"bglocked" : 0,
						"defrect" : [ 15.0, 55.0, 600.0, 426.0 ],
						"openrect" : [ 0.0, 0.0, 0.0, 0.0 ],
						"openinpresentation" : 0,
						"default_fontsize" : 12.0,
						"default_fontface" : 0,
						"default_fontname" : "Arial",
						"gridonopen" : 0,
						"gridsize" : [ 15.0, 15.0 ],
						"gridsnaponopen" : 0,
						"toolbarvisible" : 1,
						"boxanimatetime" : 200,
						"imprint" : 0,
						"enablehscroll" : 1,
						"enablevscroll" : 1,
						"devicewidth" : 0.0,
						"boxes" : [ 							{
								"box" : 								{
									"maxclass" : "newobj",
									"text" : "t b s",
									"patching_rect" : [ 50.0, 50.0, 27.0, 17.0 ],
									"id" : "obj-1",
									"fontname" : "Arial",
									"numinlets" : 1,
									"numoutlets" : 2,
									"outlettype" : [ "bang", "" ],
									"fontsize" : 9.0
								}

							}
, 							{
								"box" : 								{
									"maxclass" : "message",
									"text" : ";\rmax launch_browser http://www.vjmanzo.com/portfolio",
									"linecount" : 2,
									"patching_rect" : [ 67.0, 108.0, 344.0, 25.0 ],
									"id" : "obj-2",
									"fontname" : "Arial",
									"numinlets" : 2,
									"numoutlets" : 1,
									"outlettype" : [ "" ],
									"fontsize" : 9.0
								}

							}
, 							{
								"box" : 								{
									"maxclass" : "newobj",
									"text" : "sprintf set \\; max launch_browser %s",
									"patching_rect" : [ 67.0, 79.0, 164.0, 17.0 ],
									"id" : "obj-3",
									"fontname" : "Arial",
									"numinlets" : 1,
									"numoutlets" : 1,
									"outlettype" : [ "" ],
									"fontsize" : 9.0
								}

							}
, 							{
								"box" : 								{
									"maxclass" : "inlet",
									"patching_rect" : [ 50.0, 30.0, 15.0, 15.0 ],
									"id" : "obj-4",
									"numinlets" : 0,
									"numoutlets" : 1,
									"outlettype" : [ "" ],
									"comment" : ""
								}

							}
 ],
						"lines" : [ 							{
								"patchline" : 								{
									"source" : [ "obj-1", 0 ],
									"destination" : [ "obj-2", 0 ],
									"hidden" : 0,
									"midpoints" : [ 59.5, 102.0, 76.5, 102.0 ]
								}

							}
, 							{
								"patchline" : 								{
									"source" : [ "obj-3", 0 ],
									"destination" : [ "obj-2", 0 ],
									"hidden" : 0,
									"midpoints" : [  ]
								}

							}
, 							{
								"patchline" : 								{
									"source" : [ "obj-1", 1 ],
									"destination" : [ "obj-3", 0 ],
									"hidden" : 0,
									"midpoints" : [  ]
								}

							}
, 							{
								"patchline" : 								{
									"source" : [ "obj-4", 0 ],
									"destination" : [ "obj-1", 0 ],
									"hidden" : 0,
									"midpoints" : [  ]
								}

							}
 ]
					}
,
					"saved_object_attributes" : 					{
						"fontname" : "Arial",
						"globalpatchername" : "",
						"default_fontface" : 0,
						"fontface" : 0,
						"fontsize" : 12.0,
						"default_fontname" : "Arial",
						"default_fontsize" : 12.0
					}

				}

			}
, 			{
				"box" : 				{
					"maxclass" : "message",
					"text" : "http://www.vjmanzo.com/portfolio",
					"patching_rect" : [ 648.0, 464.200012, 157.0, 16.0 ],
					"id" : "obj-191",
					"fontname" : "Arial",
					"numinlets" : 2,
					"numoutlets" : 1,
					"hidden" : 1,
					"gradient" : 1,
					"outlettype" : [ "" ],
					"fontsize" : 10.0,
					"bgcolor" : [ 0.792157, 0.898039, 1.0, 1.0 ],
					"bgcolor2" : [ 1.0, 1.0, 1.0, 1.0 ]
				}

			}
, 			{
				"box" : 				{
					"maxclass" : "ubutton",
					"patching_rect" : [ 648.0, 422.0, 142.0, 40.0 ],
					"presentation" : 1,
					"id" : "obj-192",
					"numinlets" : 1,
					"numoutlets" : 4,
					"handoff" : "",
					"outlettype" : [ "bang", "bang", "", "int" ],
					"presentation_rect" : [ 19.0, 249.0, 57.0, 36.0 ]
				}

			}
, 			{
				"box" : 				{
					"maxclass" : "newobj",
					"text" : "p launchURL",
					"patching_rect" : [ 648.0, 339.200073, 62.0, 17.0 ],
					"id" : "obj-101",
					"fontname" : "Arial",
					"numinlets" : 1,
					"numoutlets" : 0,
					"hidden" : 1,
					"fontsize" : 9.0,
					"patcher" : 					{
						"fileversion" : 1,
						"rect" : [ 15.0, 55.0, 600.0, 426.0 ],
						"bglocked" : 0,
						"defrect" : [ 15.0, 55.0, 600.0, 426.0 ],
						"openrect" : [ 0.0, 0.0, 0.0, 0.0 ],
						"openinpresentation" : 0,
						"default_fontsize" : 12.0,
						"default_fontface" : 0,
						"default_fontname" : "Arial",
						"gridonopen" : 0,
						"gridsize" : [ 15.0, 15.0 ],
						"gridsnaponopen" : 0,
						"toolbarvisible" : 1,
						"boxanimatetime" : 200,
						"imprint" : 0,
						"enablehscroll" : 1,
						"enablevscroll" : 1,
						"devicewidth" : 0.0,
						"boxes" : [ 							{
								"box" : 								{
									"maxclass" : "newobj",
									"text" : "t b s",
									"patching_rect" : [ 50.0, 50.0, 27.0, 17.0 ],
									"id" : "obj-1",
									"fontname" : "Arial",
									"numinlets" : 1,
									"numoutlets" : 2,
									"outlettype" : [ "bang", "" ],
									"fontsize" : 9.0
								}

							}
, 							{
								"box" : 								{
									"maxclass" : "message",
									"text" : ";\rmax launch_browser http://www.eamir.org",
									"linecount" : 2,
									"patching_rect" : [ 67.0, 108.0, 344.0, 25.0 ],
									"id" : "obj-2",
									"fontname" : "Arial",
									"numinlets" : 2,
									"numoutlets" : 1,
									"outlettype" : [ "" ],
									"fontsize" : 9.0
								}

							}
, 							{
								"box" : 								{
									"maxclass" : "newobj",
									"text" : "sprintf set \\; max launch_browser %s",
									"patching_rect" : [ 67.0, 79.0, 164.0, 17.0 ],
									"id" : "obj-3",
									"fontname" : "Arial",
									"numinlets" : 1,
									"numoutlets" : 1,
									"outlettype" : [ "" ],
									"fontsize" : 9.0
								}

							}
, 							{
								"box" : 								{
									"maxclass" : "inlet",
									"patching_rect" : [ 50.0, 30.0, 15.0, 15.0 ],
									"id" : "obj-4",
									"numinlets" : 0,
									"numoutlets" : 1,
									"outlettype" : [ "" ],
									"comment" : ""
								}

							}
 ],
						"lines" : [ 							{
								"patchline" : 								{
									"source" : [ "obj-1", 0 ],
									"destination" : [ "obj-2", 0 ],
									"hidden" : 0,
									"midpoints" : [ 59.5, 102.0, 76.5, 102.0 ]
								}

							}
, 							{
								"patchline" : 								{
									"source" : [ "obj-3", 0 ],
									"destination" : [ "obj-2", 0 ],
									"hidden" : 0,
									"midpoints" : [  ]
								}

							}
, 							{
								"patchline" : 								{
									"source" : [ "obj-1", 1 ],
									"destination" : [ "obj-3", 0 ],
									"hidden" : 0,
									"midpoints" : [  ]
								}

							}
, 							{
								"patchline" : 								{
									"source" : [ "obj-4", 0 ],
									"destination" : [ "obj-1", 0 ],
									"hidden" : 0,
									"midpoints" : [  ]
								}

							}
 ]
					}
,
					"saved_object_attributes" : 					{
						"fontname" : "Arial",
						"globalpatchername" : "",
						"default_fontface" : 0,
						"fontface" : 0,
						"fontsize" : 12.0,
						"default_fontname" : "Arial",
						"default_fontsize" : 12.0
					}

				}

			}
, 			{
				"box" : 				{
					"maxclass" : "message",
					"text" : "http://www.eamir.org",
					"patching_rect" : [ 648.0, 322.200012, 102.0, 16.0 ],
					"id" : "obj-132",
					"fontname" : "Arial",
					"numinlets" : 2,
					"numoutlets" : 1,
					"hidden" : 1,
					"gradient" : 1,
					"outlettype" : [ "" ],
					"fontsize" : 10.0,
					"bgcolor" : [ 0.917647, 0.85098, 1.0, 1.0 ],
					"bgcolor2" : [ 1.0, 1.0, 1.0, 1.0 ]
				}

			}
, 			{
				"box" : 				{
					"maxclass" : "ubutton",
					"patching_rect" : [ 648.0, 359.0, 64.0, 62.0 ],
					"presentation" : 1,
					"id" : "obj-188",
					"numinlets" : 1,
					"numoutlets" : 4,
					"handoff" : "",
					"outlettype" : [ "bang", "bang", "", "int" ],
					"presentation_rect" : [ 18.0, 184.0, 60.0, 61.0 ],
					"hltcolor" : [ 0.305882, 0.0, 0.407843, 0.501961 ]
				}

			}
, 			{
				"box" : 				{
					"maxclass" : "comment",
					"text" : "EAMIR\ncreated by\nV.J. Manzo",
					"linecount" : 3,
					"presentation_linecount" : 3,
					"patching_rect" : [ 648.0, 422.200073, 143.0, 41.0 ],
					"presentation" : 1,
					"id" : "obj-189",
					"fontname" : "Arial",
					"numinlets" : 1,
					"numoutlets" : 0,
					"fontsize" : 10.0,
					"presentation_rect" : [ 15.400024, 246.200073, 62.0, 41.0 ]
				}

			}
, 			{
				"box" : 				{
					"maxclass" : "fpic",
					"patching_rect" : [ 648.0, 359.0, 65.0, 63.0 ],
					"pic" : "EAMIR_logo.png",
					"presentation" : 1,
					"id" : "obj-185",
					"numinlets" : 1,
					"numoutlets" : 0,
					"presentation_rect" : [ 15.0, 183.0, 65.0, 63.0 ]
				}

			}
, 			{
				"box" : 				{
					"maxclass" : "comment",
					"text" : "sets all game control values to save settings on close",
					"linecount" : 2,
					"patching_rect" : [ 648.0, 221.0, 176.0, 34.0 ],
					"id" : "obj-12",
					"fontname" : "Arial",
					"numinlets" : 1,
					"numoutlets" : 0,
					"fontsize" : 12.0
				}

			}
, 			{
				"box" : 				{
					"maxclass" : "newobj",
					"varname" : "eamir_hi_button[1]",
					"text" : "autopattr eamir_hi_button",
					"patching_rect" : [ 648.0, 288.0, 147.0, 20.0 ],
					"id" : "obj-8",
					"fontname" : "Arial",
					"numinlets" : 1,
					"numoutlets" : 4,
					"outlettype" : [ "", "", "", "" ],
					"fontsize" : 12.0,
					"restore" : 					{
						"eamir_hi_button[4]" : [ 0.0 ],
						"live.button" : [ 0.0 ],
						"live.button[1]" : [ 0.0 ],
						"live.button[2]" : [ 0.0 ],
						"live.numbox" : [ 0.0 ],
						"live.numbox[1]" : [ 0.0 ],
						"live.numbox[2]" : [ 0.0 ],
						"live.numbox[3]" : [ 0.0 ],
						"live.toggle" : [ 0.0 ],
						"live.toggle[1]" : [ 0.0 ]
					}

				}

			}
, 			{
				"box" : 				{
					"maxclass" : "newobj",
					"varname" : "eamir_hi_button",
					"text" : "pattr eamir_hi_button",
					"patching_rect" : [ 648.0, 255.0, 124.0, 20.0 ],
					"id" : "obj-6",
					"fontname" : "Arial",
					"numinlets" : 1,
					"numoutlets" : 3,
					"outlettype" : [ "", "", "" ],
					"fontsize" : 12.0,
					"restore" : [ 0 ],
					"saved_object_attributes" : 					{
						"parameter_enable" : 0
					}

				}

			}
, 			{
				"box" : 				{
					"maxclass" : "comment",
					"text" : "reset button",
					"patching_rect" : [ 617.0, 68.0, 83.0, 20.0 ],
					"presentation" : 1,
					"id" : "obj-5",
					"fontname" : "Arial",
					"numinlets" : 1,
					"numoutlets" : 0,
					"fontsize" : 12.0,
					"presentation_rect" : [ 129.0, 15.0, 82.0, 20.0 ]
				}

			}
, 			{
				"box" : 				{
					"maxclass" : "inlet",
					"patching_rect" : [ 105.0, 42.0, 24.0, 24.0 ],
					"id" : "obj-2",
					"numinlets" : 0,
					"numoutlets" : 1,
					"outlettype" : [ "" ],
					"comment" : "get data from game interface"
				}

			}
, 			{
				"box" : 				{
					"maxclass" : "comment",
					"text" : "to calibrate this button, click the \"calibrate\" switch, then press the button on the controller that you wish to calibrate. To calibrate a joystick-type control, click calibrate button and move the joystick from its lowest position to its highest position. Be sure to uncheck the \"calibrate\" button when you are done. Then simply copy the control ID# to the route object place outside of this patcher.",
					"linecount" : 7,
					"presentation_linecount" : 4,
					"patching_rect" : [ 701.0, 117.0, 331.0, 103.0 ],
					"presentation" : 1,
					"id" : "obj-39",
					"fontname" : "Arial",
					"numinlets" : 1,
					"numoutlets" : 0,
					"fontsize" : 12.0,
					"presentation_rect" : [ 14.0, 111.0, 606.0, 62.0 ]
				}

			}
, 			{
				"box" : 				{
					"maxclass" : "message",
					"text" : "0",
					"patching_rect" : [ 590.0, 99.0, 22.5, 18.0 ],
					"id" : "obj-37",
					"fontname" : "Arial",
					"numinlets" : 2,
					"numoutlets" : 1,
					"outlettype" : [ "" ],
					"fontsize" : 12.0
				}

			}
, 			{
				"box" : 				{
					"maxclass" : "outlet",
					"patching_rect" : [ 422.0, 529.0, 25.0, 25.0 ],
					"id" : "obj-26",
					"numinlets" : 1,
					"numoutlets" : 0,
					"comment" : "toggle between lowest & highest control value reached. X = highest"
				}

			}
, 			{
				"box" : 				{
					"maxclass" : "outlet",
					"patching_rect" : [ 385.0, 529.0, 25.0, 25.0 ],
					"id" : "obj-19",
					"numinlets" : 1,
					"numoutlets" : 0,
					"comment" : "bang on highest control value reached"
				}

			}
, 			{
				"box" : 				{
					"maxclass" : "outlet",
					"patching_rect" : [ 350.0, 529.0, 25.0, 25.0 ],
					"id" : "obj-25",
					"numinlets" : 1,
					"numoutlets" : 0,
					"comment" : "bang on lowest control value reached"
				}

			}
, 			{
				"box" : 				{
					"maxclass" : "outlet",
					"patching_rect" : [ 301.0, 529.0, 25.0, 25.0 ],
					"id" : "obj-15",
					"numinlets" : 1,
					"numoutlets" : 0,
					"comment" : "highest control value"
				}

			}
, 			{
				"box" : 				{
					"maxclass" : "outlet",
					"patching_rect" : [ 243.0, 529.0, 25.0, 25.0 ],
					"id" : "obj-17",
					"numinlets" : 1,
					"numoutlets" : 0,
					"comment" : "lowest control value"
				}

			}
, 			{
				"box" : 				{
					"maxclass" : "outlet",
					"patching_rect" : [ 187.0, 529.0, 25.0, 25.0 ],
					"id" : "obj-14",
					"numinlets" : 1,
					"numoutlets" : 0,
					"comment" : "current control value"
				}

			}
, 			{
				"box" : 				{
					"maxclass" : "outlet",
					"patching_rect" : [ 90.0, 529.0, 25.0, 25.0 ],
					"id" : "obj-13",
					"numinlets" : 1,
					"numoutlets" : 0,
					"comment" : "control ID #"
				}

			}
, 			{
				"box" : 				{
					"maxclass" : "newobj",
					"text" : "t f 0",
					"patching_rect" : [ 58.0, 426.0, 32.5, 20.0 ],
					"id" : "obj-11",
					"fontname" : "Arial",
					"numinlets" : 1,
					"numoutlets" : 2,
					"outlettype" : [ "float", "int" ],
					"fontsize" : 12.0
				}

			}
, 			{
				"box" : 				{
					"maxclass" : "message",
					"text" : "0",
					"patching_rect" : [ 270.0, 197.0, 32.5, 18.0 ],
					"id" : "obj-10",
					"fontname" : "Arial",
					"numinlets" : 2,
					"numoutlets" : 1,
					"outlettype" : [ "" ],
					"fontsize" : 12.0
				}

			}
, 			{
				"box" : 				{
					"maxclass" : "comment",
					"text" : "control ID #",
					"patching_rect" : [ 21.0, 173.0, 77.0, 20.0 ],
					"presentation" : 1,
					"id" : "obj-4",
					"fontname" : "Arial",
					"numinlets" : 1,
					"numoutlets" : 0,
					"fontsize" : 12.0,
					"presentation_rect" : [ 16.0, 41.0, 76.0, 20.0 ]
				}

			}
, 			{
				"box" : 				{
					"maxclass" : "newobj",
					"text" : "change",
					"patching_rect" : [ 58.0, 401.0, 50.0, 20.0 ],
					"id" : "obj-51",
					"fontname" : "Arial",
					"numinlets" : 1,
					"numoutlets" : 3,
					"outlettype" : [ "", "int", "int" ],
					"fontsize" : 12.0
				}

			}
, 			{
				"box" : 				{
					"maxclass" : "newobj",
					"text" : "sel 0",
					"patching_rect" : [ 41.0, 460.0, 36.0, 20.0 ],
					"id" : "obj-47",
					"fontname" : "Arial",
					"numinlets" : 2,
					"numoutlets" : 2,
					"outlettype" : [ "bang", "" ],
					"fontsize" : 12.0
				}

			}
, 			{
				"box" : 				{
					"maxclass" : "comment",
					"text" : "toggles between lowest value and highest values",
					"presentation_linecount" : 3,
					"patching_rect" : [ 249.0, 382.0, 283.0, 20.0 ],
					"presentation" : 1,
					"id" : "obj-45",
					"fontname" : "Arial",
					"numinlets" : 1,
					"numoutlets" : 0,
					"fontsize" : 12.0,
					"presentation_rect" : [ 536.0, 53.0, 101.0, 48.0 ]
				}

			}
, 			{
				"box" : 				{
					"maxclass" : "comment",
					"text" : "current control value",
					"patching_rect" : [ 125.0, 486.0, 129.0, 20.0 ],
					"presentation" : 1,
					"id" : "obj-44",
					"fontname" : "Arial",
					"numinlets" : 1,
					"numoutlets" : 0,
					"fontsize" : 12.0,
					"presentation_rect" : [ 104.0, 41.0, 127.0, 20.0 ]
				}

			}
, 			{
				"box" : 				{
					"maxclass" : "comment",
					"text" : "lowest control value",
					"patching_rect" : [ 372.0, 245.0, 121.0, 20.0 ],
					"presentation" : 1,
					"id" : "obj-43",
					"fontname" : "Arial",
					"numinlets" : 1,
					"numoutlets" : 0,
					"fontsize" : 12.0,
					"presentation_rect" : [ 245.0, 41.0, 120.0, 20.0 ]
				}

			}
, 			{
				"box" : 				{
					"maxclass" : "comment",
					"text" : "highest control value",
					"patching_rect" : [ 408.0, 275.0, 132.0, 20.0 ],
					"presentation" : 1,
					"id" : "obj-42",
					"fontname" : "Arial",
					"numinlets" : 1,
					"numoutlets" : 0,
					"fontsize" : 12.0,
					"presentation_rect" : [ 378.0, 41.0, 122.0, 20.0 ]
				}

			}
, 			{
				"box" : 				{
					"maxclass" : "newobj",
					"text" : "trough",
					"patching_rect" : [ 243.0, 222.0, 46.0, 20.0 ],
					"id" : "obj-21",
					"fontname" : "Arial",
					"numinlets" : 2,
					"numoutlets" : 3,
					"outlettype" : [ "int", "int", "int" ],
					"fontsize" : 12.0
				}

			}
, 			{
				"box" : 				{
					"maxclass" : "newobj",
					"text" : "sel",
					"patching_rect" : [ 229.0, 302.0, 32.5, 20.0 ],
					"id" : "obj-20",
					"fontname" : "Arial",
					"numinlets" : 2,
					"numoutlets" : 2,
					"outlettype" : [ "bang", "" ],
					"fontsize" : 12.0
				}

			}
, 			{
				"box" : 				{
					"maxclass" : "newobj",
					"text" : "peak",
					"patching_rect" : [ 301.0, 222.0, 46.0, 20.0 ],
					"id" : "obj-18",
					"fontname" : "Arial",
					"numinlets" : 2,
					"numoutlets" : 3,
					"outlettype" : [ "int", "int", "int" ],
					"fontsize" : 12.0
				}

			}
, 			{
				"box" : 				{
					"maxclass" : "newobj",
					"text" : "sel",
					"patching_rect" : [ 287.0, 302.0, 32.5, 20.0 ],
					"id" : "obj-16",
					"fontname" : "Arial",
					"numinlets" : 2,
					"numoutlets" : 2,
					"outlettype" : [ "bang", "" ],
					"fontsize" : 12.0
				}

			}
, 			{
				"box" : 				{
					"maxclass" : "flonum",
					"varname" : "eamir_hi_button[4]",
					"patching_rect" : [ 188.0, 175.0, 136.0, 20.0 ],
					"id" : "obj-9",
					"fontname" : "Arial",
					"numinlets" : 1,
					"numoutlets" : 2,
					"outlettype" : [ "float", "bang" ],
					"fontsize" : 12.0
				}

			}
, 			{
				"box" : 				{
					"maxclass" : "newobj",
					"text" : "unpack 0 0",
					"patching_rect" : [ 90.0, 134.0, 65.0, 20.0 ],
					"id" : "obj-24",
					"fontname" : "Arial",
					"numinlets" : 1,
					"numoutlets" : 2,
					"outlettype" : [ "int", "int" ],
					"fontsize" : 11.595187
				}

			}
 ],
		"lines" : [ 			{
				"patchline" : 				{
					"source" : [ "obj-37", 0 ],
					"destination" : [ "obj-21", 1 ],
					"hidden" : 0,
					"midpoints" : [ 599.5, 218.0, 279.5, 218.0 ]
				}

			}
, 			{
				"patchline" : 				{
					"source" : [ "obj-37", 0 ],
					"destination" : [ "obj-18", 1 ],
					"hidden" : 0,
					"midpoints" : [ 599.5, 215.0, 337.5, 215.0 ]
				}

			}
, 			{
				"patchline" : 				{
					"source" : [ "obj-37", 0 ],
					"destination" : [ "obj-51", 0 ],
					"hidden" : 0,
					"midpoints" : [ 599.5, 369.5, 67.5, 369.5 ]
				}

			}
, 			{
				"patchline" : 				{
					"source" : [ "obj-37", 0 ],
					"destination" : [ "obj-9", 0 ],
					"hidden" : 0,
					"midpoints" : [ 599.5, 164.5, 197.5, 164.5 ]
				}

			}
, 			{
				"patchline" : 				{
					"source" : [ "obj-9", 0 ],
					"destination" : [ "obj-14", 0 ],
					"hidden" : 0,
					"midpoints" : [  ]
				}

			}
, 			{
				"patchline" : 				{
					"source" : [ "obj-11", 1 ],
					"destination" : [ "obj-18", 1 ],
					"hidden" : 0,
					"midpoints" : [ 81.0, 454.0, 145.0, 454.0, 145.0, 213.0, 337.5, 213.0 ]
				}

			}
, 			{
				"patchline" : 				{
					"source" : [ "obj-11", 1 ],
					"destination" : [ "obj-21", 1 ],
					"hidden" : 0,
					"midpoints" : [ 81.0, 454.0, 146.0, 454.0, 146.0, 213.0, 279.5, 213.0 ]
				}

			}
, 			{
				"patchline" : 				{
					"source" : [ "obj-51", 0 ],
					"destination" : [ "obj-11", 0 ],
					"hidden" : 0,
					"midpoints" : [  ]
				}

			}
, 			{
				"patchline" : 				{
					"source" : [ "obj-10", 0 ],
					"destination" : [ "obj-21", 1 ],
					"hidden" : 0,
					"midpoints" : [  ]
				}

			}
, 			{
				"patchline" : 				{
					"source" : [ "obj-10", 0 ],
					"destination" : [ "obj-18", 1 ],
					"hidden" : 0,
					"midpoints" : [ 279.5, 218.0, 337.5, 218.0 ]
				}

			}
, 			{
				"patchline" : 				{
					"source" : [ "obj-24", 1 ],
					"destination" : [ "obj-9", 0 ],
					"hidden" : 0,
					"midpoints" : [ 145.5, 162.0, 197.5, 162.0 ]
				}

			}
, 			{
				"patchline" : 				{
					"source" : [ "obj-316", 0 ],
					"destination" : [ "obj-309", 0 ],
					"hidden" : 0,
					"midpoints" : [  ]
				}

			}
, 			{
				"patchline" : 				{
					"source" : [ "obj-320", 0 ],
					"destination" : [ "obj-316", 0 ],
					"hidden" : 0,
					"midpoints" : [  ]
				}

			}
, 			{
				"patchline" : 				{
					"source" : [ "obj-192", 0 ],
					"destination" : [ "obj-191", 0 ],
					"hidden" : 1,
					"midpoints" : [  ]
				}

			}
, 			{
				"patchline" : 				{
					"source" : [ "obj-191", 0 ],
					"destination" : [ "obj-190", 0 ],
					"hidden" : 1,
					"midpoints" : [ 657.5, 480.200012, 657.5, 480.200012 ]
				}

			}
, 			{
				"patchline" : 				{
					"source" : [ "obj-188", 0 ],
					"destination" : [ "obj-132", 0 ],
					"hidden" : 1,
					"midpoints" : [  ]
				}

			}
, 			{
				"patchline" : 				{
					"source" : [ "obj-132", 0 ],
					"destination" : [ "obj-101", 0 ],
					"hidden" : 1,
					"midpoints" : [ 657.5, 338.200012, 657.5, 338.200012 ]
				}

			}
, 			{
				"patchline" : 				{
					"source" : [ "obj-9", 0 ],
					"destination" : [ "obj-47", 0 ],
					"hidden" : 0,
					"midpoints" : [ 197.5, 214.0, 50.5, 214.0 ]
				}

			}
, 			{
				"patchline" : 				{
					"source" : [ "obj-37", 0 ],
					"destination" : [ "obj-47", 1 ],
					"hidden" : 0,
					"midpoints" : [ 599.5, 456.0, 67.5, 456.0 ]
				}

			}
, 			{
				"patchline" : 				{
					"source" : [ "obj-11", 0 ],
					"destination" : [ "obj-47", 1 ],
					"hidden" : 0,
					"midpoints" : [  ]
				}

			}
, 			{
				"patchline" : 				{
					"source" : [ "obj-2", 0 ],
					"destination" : [ "obj-48", 1 ],
					"hidden" : 0,
					"midpoints" : [  ]
				}

			}
, 			{
				"patchline" : 				{
					"source" : [ "obj-48", 0 ],
					"destination" : [ "obj-24", 0 ],
					"hidden" : 0,
					"midpoints" : [  ]
				}

			}
, 			{
				"patchline" : 				{
					"source" : [ "obj-55", 0 ],
					"destination" : [ "obj-58", 0 ],
					"hidden" : 0,
					"midpoints" : [  ]
				}

			}
, 			{
				"patchline" : 				{
					"source" : [ "obj-29", 0 ],
					"destination" : [ "obj-48", 0 ],
					"hidden" : 0,
					"midpoints" : [  ]
				}

			}
, 			{
				"patchline" : 				{
					"source" : [ "obj-29", 0 ],
					"destination" : [ "obj-55", 0 ],
					"hidden" : 0,
					"midpoints" : [  ]
				}

			}
, 			{
				"patchline" : 				{
					"source" : [ "obj-37", 0 ],
					"destination" : [ "obj-30", 0 ],
					"hidden" : 0,
					"midpoints" : [ 599.5, 368.5, 238.5, 368.5 ]
				}

			}
, 			{
				"patchline" : 				{
					"source" : [ "obj-30", 0 ],
					"destination" : [ "obj-26", 0 ],
					"hidden" : 0,
					"midpoints" : [ 238.5, 459.0, 431.5, 459.0 ]
				}

			}
, 			{
				"patchline" : 				{
					"source" : [ "obj-33", 0 ],
					"destination" : [ "obj-37", 0 ],
					"hidden" : 0,
					"midpoints" : [  ]
				}

			}
, 			{
				"patchline" : 				{
					"source" : [ "obj-24", 0 ],
					"destination" : [ "obj-34", 0 ],
					"hidden" : 0,
					"midpoints" : [  ]
				}

			}
, 			{
				"patchline" : 				{
					"source" : [ "obj-37", 0 ],
					"destination" : [ "obj-34", 0 ],
					"hidden" : 0,
					"midpoints" : [ 599.5, 166.5, 99.5, 166.5 ]
				}

			}
, 			{
				"patchline" : 				{
					"source" : [ "obj-34", 0 ],
					"destination" : [ "obj-51", 0 ],
					"hidden" : 0,
					"midpoints" : [ 99.5, 224.0, 67.5, 224.0 ]
				}

			}
, 			{
				"patchline" : 				{
					"source" : [ "obj-34", 0 ],
					"destination" : [ "obj-13", 0 ],
					"hidden" : 0,
					"midpoints" : [  ]
				}

			}
, 			{
				"patchline" : 				{
					"source" : [ "obj-35", 0 ],
					"destination" : [ "obj-15", 0 ],
					"hidden" : 0,
					"midpoints" : [  ]
				}

			}
, 			{
				"patchline" : 				{
					"source" : [ "obj-35", 0 ],
					"destination" : [ "obj-16", 1 ],
					"hidden" : 0,
					"midpoints" : [  ]
				}

			}
, 			{
				"patchline" : 				{
					"source" : [ "obj-18", 0 ],
					"destination" : [ "obj-35", 0 ],
					"hidden" : 0,
					"midpoints" : [  ]
				}

			}
, 			{
				"patchline" : 				{
					"source" : [ "obj-37", 0 ],
					"destination" : [ "obj-35", 0 ],
					"hidden" : 0,
					"midpoints" : [ 599.5, 270.0, 310.5, 270.0 ]
				}

			}
, 			{
				"patchline" : 				{
					"source" : [ "obj-36", 0 ],
					"destination" : [ "obj-20", 1 ],
					"hidden" : 0,
					"midpoints" : [  ]
				}

			}
, 			{
				"patchline" : 				{
					"source" : [ "obj-36", 0 ],
					"destination" : [ "obj-17", 0 ],
					"hidden" : 0,
					"midpoints" : [  ]
				}

			}
, 			{
				"patchline" : 				{
					"source" : [ "obj-37", 0 ],
					"destination" : [ "obj-36", 0 ],
					"hidden" : 0,
					"midpoints" : [ 599.5, 245.5, 252.5, 245.5 ]
				}

			}
, 			{
				"patchline" : 				{
					"source" : [ "obj-21", 0 ],
					"destination" : [ "obj-36", 0 ],
					"hidden" : 0,
					"midpoints" : [  ]
				}

			}
, 			{
				"patchline" : 				{
					"source" : [ "obj-60", 0 ],
					"destination" : [ "obj-38", 0 ],
					"hidden" : 0,
					"midpoints" : [  ]
				}

			}
, 			{
				"patchline" : 				{
					"source" : [ "obj-38", 0 ],
					"destination" : [ "obj-16", 0 ],
					"hidden" : 0,
					"midpoints" : [ 67.5, 514.0, 182.0, 514.0, 182.0, 292.0, 296.5, 292.0 ]
				}

			}
, 			{
				"patchline" : 				{
					"source" : [ "obj-38", 0 ],
					"destination" : [ "obj-20", 0 ],
					"hidden" : 0,
					"midpoints" : [ 67.5, 514.0, 153.0, 514.0, 153.0, 292.0, 238.5, 292.0 ]
				}

			}
, 			{
				"patchline" : 				{
					"source" : [ "obj-38", 0 ],
					"destination" : [ "obj-18", 0 ],
					"hidden" : 0,
					"midpoints" : [ 67.5, 515.0, 190.0, 515.0, 190.0, 218.0, 310.5, 218.0 ]
				}

			}
, 			{
				"patchline" : 				{
					"source" : [ "obj-38", 0 ],
					"destination" : [ "obj-21", 0 ],
					"hidden" : 0,
					"midpoints" : [ 67.5, 509.0, 146.0, 509.0, 146.0, 217.0, 252.5, 217.0 ]
				}

			}
, 			{
				"patchline" : 				{
					"source" : [ "obj-37", 0 ],
					"destination" : [ "obj-38", 0 ],
					"hidden" : 0,
					"midpoints" : [ 599.5, 480.0, 67.5, 480.0 ]
				}

			}
, 			{
				"patchline" : 				{
					"source" : [ "obj-47", 1 ],
					"destination" : [ "obj-38", 0 ],
					"hidden" : 0,
					"midpoints" : [  ]
				}

			}
, 			{
				"patchline" : 				{
					"source" : [ "obj-20", 0 ],
					"destination" : [ "obj-40", 0 ],
					"hidden" : 0,
					"midpoints" : [  ]
				}

			}
, 			{
				"patchline" : 				{
					"source" : [ "obj-40", 0 ],
					"destination" : [ "obj-25", 0 ],
					"hidden" : 0,
					"midpoints" : [ 238.5, 459.5, 359.5, 459.5 ]
				}

			}
, 			{
				"patchline" : 				{
					"source" : [ "obj-40", 0 ],
					"destination" : [ "obj-30", 0 ],
					"hidden" : 0,
					"midpoints" : [  ]
				}

			}
, 			{
				"patchline" : 				{
					"source" : [ "obj-16", 0 ],
					"destination" : [ "obj-41", 0 ],
					"hidden" : 0,
					"midpoints" : [  ]
				}

			}
, 			{
				"patchline" : 				{
					"source" : [ "obj-41", 0 ],
					"destination" : [ "obj-19", 0 ],
					"hidden" : 0,
					"midpoints" : [ 296.5, 459.5, 394.5, 459.5 ]
				}

			}
, 			{
				"patchline" : 				{
					"source" : [ "obj-41", 0 ],
					"destination" : [ "obj-30", 0 ],
					"hidden" : 0,
					"midpoints" : [ 296.5, 367.5, 238.5, 367.5 ]
				}

			}
 ],
		"parameters" : 		{
			"obj-34" : [ "live.numbox", "live.numbox", 0 ],
			"obj-36" : [ "live.numbox[2]", "live.numbox", 0 ],
			"obj-29" : [ "live.toggle[1]", "live.toggle", 0 ],
			"obj-40" : [ "live.button[1]", "live.button", 0 ],
			"obj-33" : [ "live.button", "live.button", 0 ],
			"obj-41" : [ "live.button[2]", "live.button", 0 ],
			"obj-35" : [ "live.numbox[1]", "live.numbox", 0 ],
			"obj-30" : [ "live.toggle", "live.toggle", 0 ],
			"obj-38" : [ "live.numbox[3]", "live.numbox", 0 ]
		}

	}

}
