{
	"patcher" : 	{
		"fileversion" : 1,
		"rect" : [ 370.0, 164.0, 759.0, 480.0 ],
		"bglocked" : 0,
		"defrect" : [ 370.0, 164.0, 759.0, 480.0 ],
		"openrect" : [ 0.0, 0.0, 0.0, 0.0 ],
		"openinpresentation" : 1,
		"default_fontsize" : 12.0,
		"default_fontface" : 0,
		"default_fontname" : "Arial",
		"gridonopen" : 0,
		"gridsize" : [ 15.0, 15.0 ],
		"gridsnaponopen" : 0,
		"toolbarvisible" : 1,
		"boxanimatetime" : 200,
		"imprint" : 0,
		"enablehscroll" : 1,
		"enablevscroll" : 1,
		"devicewidth" : 0.0,
		"title" : "EAMIR Leprecon LD-360 Light Dimmer",
		"boxes" : [ 			{
				"box" : 				{
					"maxclass" : "live.numbox",
					"varname" : "live.numbox[6]",
					"presentation_rect" : [ 187.0, 30.0, 50.0, 17.0 ],
					"numinlets" : 1,
					"activebgcolor" : [ 1.0, 1.0, 1.0, 1.0 ],
					"numoutlets" : 2,
					"patching_rect" : [ 90.0, 129.0, 50.0, 17.0 ],
					"presentation" : 1,
					"fontsize" : 12.0,
					"id" : "obj-56",
					"outlettype" : [ "", "float" ],
					"parameter_enable" : 1,
					"activetricolor2" : [ 0.403922, 0.109804, 0.701961, 1.0 ],
					"saved_attribute_attributes" : 					{
						"valueof" : 						{
							"parameter_mmax" : 127.0,
							"parameter_mmin" : 0.0,
							"parameter_type" : 0,
							"parameter_initial_enable" : 0,
							"parameter_shortname" : "live.numbox",
							"parameter_modmax" : 127.0,
							"parameter_longname" : "live.numbox[6]",
							"parameter_modmin" : 0.0,
							"parameter_linknames" : 0,
							"parameter_modmode" : 0,
							"parameter_info" : "",
							"parameter_units" : "",
							"parameter_order" : 0,
							"parameter_defer" : 0,
							"parameter_speedlim" : 1.0,
							"parameter_steps" : 0,
							"parameter_exponent" : 1.0,
							"parameter_invisible" : 0,
							"parameter_unitstyle" : 0,
							"parameter_annotation_name" : ""
						}

					}

				}

			}
, 			{
				"box" : 				{
					"maxclass" : "live.numbox",
					"varname" : "live.numbox[5]",
					"presentation_rect" : [ 300.0, 65.0, 53.0, 17.0 ],
					"numinlets" : 1,
					"activebgcolor" : [ 1.0, 1.0, 1.0, 1.0 ],
					"numoutlets" : 2,
					"patching_rect" : [ 456.0, 272.0, 53.0, 17.0 ],
					"presentation" : 1,
					"fontsize" : 12.0,
					"id" : "obj-55",
					"outlettype" : [ "", "float" ],
					"parameter_enable" : 1,
					"activetricolor2" : [ 0.403922, 0.109804, 0.701961, 1.0 ],
					"saved_attribute_attributes" : 					{
						"valueof" : 						{
							"parameter_mmax" : 127.0,
							"parameter_mmin" : 0.0,
							"parameter_type" : 0,
							"parameter_initial_enable" : 0,
							"parameter_shortname" : "live.numbox",
							"parameter_modmax" : 127.0,
							"parameter_longname" : "live.numbox[5]",
							"parameter_modmin" : 0.0,
							"parameter_linknames" : 0,
							"parameter_modmode" : 0,
							"parameter_info" : "",
							"parameter_units" : "",
							"parameter_order" : 0,
							"parameter_defer" : 0,
							"parameter_speedlim" : 1.0,
							"parameter_steps" : 0,
							"parameter_exponent" : 1.0,
							"parameter_invisible" : 0,
							"parameter_unitstyle" : 0,
							"parameter_annotation_name" : ""
						}

					}

				}

			}
, 			{
				"box" : 				{
					"maxclass" : "live.numbox",
					"varname" : "live.numbox[3]",
					"presentation_rect" : [ 241.0, 65.0, 53.0, 17.0 ],
					"numinlets" : 1,
					"activebgcolor" : [ 1.0, 1.0, 1.0, 1.0 ],
					"numoutlets" : 2,
					"patching_rect" : [ 383.0, 272.0, 53.0, 17.0 ],
					"presentation" : 1,
					"fontsize" : 12.0,
					"id" : "obj-54",
					"outlettype" : [ "", "float" ],
					"parameter_enable" : 1,
					"activetricolor2" : [ 0.403922, 0.109804, 0.701961, 1.0 ],
					"saved_attribute_attributes" : 					{
						"valueof" : 						{
							"parameter_mmax" : 127.0,
							"parameter_mmin" : 0.0,
							"parameter_type" : 0,
							"parameter_initial_enable" : 0,
							"parameter_shortname" : "live.numbox",
							"parameter_modmax" : 127.0,
							"parameter_longname" : "live.numbox[3]",
							"parameter_modmin" : 0.0,
							"parameter_linknames" : 0,
							"parameter_modmode" : 0,
							"parameter_info" : "",
							"parameter_units" : "",
							"parameter_order" : 0,
							"parameter_defer" : 0,
							"parameter_speedlim" : 1.0,
							"parameter_steps" : 0,
							"parameter_exponent" : 1.0,
							"parameter_invisible" : 0,
							"parameter_unitstyle" : 0,
							"parameter_annotation_name" : ""
						}

					}

				}

			}
, 			{
				"box" : 				{
					"maxclass" : "live.numbox",
					"varname" : "live.numbox[4]",
					"presentation_rect" : [ 181.0, 65.0, 53.0, 17.0 ],
					"numinlets" : 1,
					"activebgcolor" : [ 1.0, 1.0, 1.0, 1.0 ],
					"numoutlets" : 2,
					"patching_rect" : [ 307.0, 272.0, 53.0, 17.0 ],
					"presentation" : 1,
					"fontsize" : 12.0,
					"id" : "obj-52",
					"outlettype" : [ "", "float" ],
					"parameter_enable" : 1,
					"activetricolor2" : [ 0.403922, 0.109804, 0.701961, 1.0 ],
					"saved_attribute_attributes" : 					{
						"valueof" : 						{
							"parameter_mmax" : 127.0,
							"parameter_mmin" : 0.0,
							"parameter_type" : 0,
							"parameter_initial_enable" : 0,
							"parameter_shortname" : "live.numbox",
							"parameter_modmax" : 127.0,
							"parameter_longname" : "live.numbox[4]",
							"parameter_modmin" : 0.0,
							"parameter_linknames" : 0,
							"parameter_modmode" : 0,
							"parameter_info" : "",
							"parameter_units" : "",
							"parameter_order" : 0,
							"parameter_defer" : 0,
							"parameter_speedlim" : 1.0,
							"parameter_steps" : 0,
							"parameter_exponent" : 1.0,
							"parameter_invisible" : 0,
							"parameter_unitstyle" : 0,
							"parameter_annotation_name" : ""
						}

					}

				}

			}
, 			{
				"box" : 				{
					"maxclass" : "live.numbox",
					"varname" : "live.numbox[2]",
					"presentation_rect" : [ 120.0, 65.0, 53.0, 17.0 ],
					"numinlets" : 1,
					"activebgcolor" : [ 1.0, 1.0, 1.0, 1.0 ],
					"numoutlets" : 2,
					"patching_rect" : [ 230.0, 272.0, 53.0, 17.0 ],
					"presentation" : 1,
					"fontsize" : 12.0,
					"id" : "obj-50",
					"outlettype" : [ "", "float" ],
					"parameter_enable" : 1,
					"activetricolor2" : [ 0.403922, 0.109804, 0.701961, 1.0 ],
					"saved_attribute_attributes" : 					{
						"valueof" : 						{
							"parameter_mmax" : 127.0,
							"parameter_mmin" : 0.0,
							"parameter_type" : 0,
							"parameter_initial_enable" : 0,
							"parameter_shortname" : "live.numbox",
							"parameter_modmax" : 127.0,
							"parameter_longname" : "live.numbox[2]",
							"parameter_modmin" : 0.0,
							"parameter_linknames" : 0,
							"parameter_modmode" : 0,
							"parameter_info" : "",
							"parameter_units" : "",
							"parameter_order" : 0,
							"parameter_defer" : 0,
							"parameter_speedlim" : 1.0,
							"parameter_steps" : 0,
							"parameter_exponent" : 1.0,
							"parameter_invisible" : 0,
							"parameter_unitstyle" : 0,
							"parameter_annotation_name" : ""
						}

					}

				}

			}
, 			{
				"box" : 				{
					"maxclass" : "live.numbox",
					"varname" : "live.numbox[1]",
					"presentation_rect" : [ 59.0, 65.0, 53.0, 17.0 ],
					"numinlets" : 1,
					"activebgcolor" : [ 1.0, 1.0, 1.0, 1.0 ],
					"numoutlets" : 2,
					"patching_rect" : [ 152.0, 272.0, 53.0, 17.0 ],
					"presentation" : 1,
					"fontsize" : 12.0,
					"id" : "obj-49",
					"outlettype" : [ "", "float" ],
					"parameter_enable" : 1,
					"activetricolor2" : [ 0.403922, 0.109804, 0.701961, 1.0 ],
					"saved_attribute_attributes" : 					{
						"valueof" : 						{
							"parameter_mmax" : 127.0,
							"parameter_mmin" : 0.0,
							"parameter_type" : 0,
							"parameter_initial_enable" : 0,
							"parameter_shortname" : "live.numbox",
							"parameter_modmax" : 127.0,
							"parameter_longname" : "live.numbox[1]",
							"parameter_modmin" : 0.0,
							"parameter_linknames" : 0,
							"parameter_modmode" : 0,
							"parameter_info" : "",
							"parameter_units" : "",
							"parameter_order" : 0,
							"parameter_defer" : 0,
							"parameter_speedlim" : 1.0,
							"parameter_steps" : 0,
							"parameter_exponent" : 1.0,
							"parameter_invisible" : 0,
							"parameter_unitstyle" : 0,
							"parameter_annotation_name" : ""
						}

					}

				}

			}
, 			{
				"box" : 				{
					"maxclass" : "live.numbox",
					"varname" : "live.numbox",
					"presentation_rect" : [ 0.0, 65.0, 53.0, 17.0 ],
					"numinlets" : 1,
					"activebgcolor" : [ 1.0, 1.0, 1.0, 1.0 ],
					"numoutlets" : 2,
					"patching_rect" : [ 75.0, 272.0, 53.0, 17.0 ],
					"presentation" : 1,
					"fontsize" : 12.0,
					"id" : "obj-47",
					"outlettype" : [ "", "float" ],
					"parameter_enable" : 1,
					"activetricolor2" : [ 0.403922, 0.109804, 0.701961, 1.0 ],
					"saved_attribute_attributes" : 					{
						"valueof" : 						{
							"parameter_mmax" : 127.0,
							"parameter_mmin" : 0.0,
							"parameter_type" : 0,
							"parameter_initial_enable" : 0,
							"parameter_shortname" : "live.numbox",
							"parameter_modmax" : 127.0,
							"parameter_longname" : "live.numbox",
							"parameter_modmin" : 0.0,
							"parameter_linknames" : 0,
							"parameter_modmode" : 0,
							"parameter_info" : "",
							"parameter_units" : "",
							"parameter_order" : 0,
							"parameter_defer" : 0,
							"parameter_speedlim" : 1.0,
							"parameter_steps" : 0,
							"parameter_exponent" : 1.0,
							"parameter_invisible" : 0,
							"parameter_unitstyle" : 0,
							"parameter_annotation_name" : ""
						}

					}

				}

			}
, 			{
				"box" : 				{
					"maxclass" : "comment",
					"text" : "attack",
					"fontname" : "Arial",
					"presentation_rect" : [ 191.0, 45.0, 44.0, 20.0 ],
					"numinlets" : 1,
					"numoutlets" : 0,
					"patching_rect" : [ 46.0, 131.0, 44.0, 20.0 ],
					"presentation" : 1,
					"fontsize" : 12.0,
					"id" : "obj-48"
				}

			}
, 			{
				"box" : 				{
					"maxclass" : "newobj",
					"text" : "loadmess 300",
					"fontname" : "Arial",
					"numinlets" : 1,
					"numoutlets" : 1,
					"patching_rect" : [ 69.0, 98.0, 85.0, 20.0 ],
					"fontsize" : 12.0,
					"id" : "obj-46",
					"outlettype" : [ "" ]
				}

			}
, 			{
				"box" : 				{
					"maxclass" : "newobj",
					"text" : "pack 0 300",
					"fontname" : "Arial",
					"numinlets" : 2,
					"numoutlets" : 1,
					"patching_rect" : [ 456.0, 215.0, 69.0, 20.0 ],
					"fontsize" : 12.0,
					"id" : "obj-43",
					"outlettype" : [ "" ]
				}

			}
, 			{
				"box" : 				{
					"maxclass" : "newobj",
					"text" : "line 0",
					"fontname" : "Arial",
					"numinlets" : 3,
					"numoutlets" : 2,
					"patching_rect" : [ 456.0, 242.0, 46.0, 20.0 ],
					"fontsize" : 12.0,
					"id" : "obj-44",
					"outlettype" : [ "", "" ]
				}

			}
, 			{
				"box" : 				{
					"maxclass" : "newobj",
					"text" : "pack 0 300",
					"fontname" : "Arial",
					"numinlets" : 2,
					"numoutlets" : 1,
					"patching_rect" : [ 383.0, 215.0, 69.0, 20.0 ],
					"fontsize" : 12.0,
					"id" : "obj-32",
					"outlettype" : [ "" ]
				}

			}
, 			{
				"box" : 				{
					"maxclass" : "newobj",
					"text" : "line 0",
					"fontname" : "Arial",
					"numinlets" : 3,
					"numoutlets" : 2,
					"patching_rect" : [ 383.0, 242.0, 46.0, 20.0 ],
					"fontsize" : 12.0,
					"id" : "obj-36",
					"outlettype" : [ "", "" ]
				}

			}
, 			{
				"box" : 				{
					"maxclass" : "newobj",
					"text" : "pack 0 300",
					"fontname" : "Arial",
					"numinlets" : 2,
					"numoutlets" : 1,
					"patching_rect" : [ 307.0, 215.0, 69.0, 20.0 ],
					"fontsize" : 12.0,
					"id" : "obj-28",
					"outlettype" : [ "" ]
				}

			}
, 			{
				"box" : 				{
					"maxclass" : "newobj",
					"text" : "line 0",
					"fontname" : "Arial",
					"numinlets" : 3,
					"numoutlets" : 2,
					"patching_rect" : [ 307.0, 242.0, 46.0, 20.0 ],
					"fontsize" : 12.0,
					"id" : "obj-30",
					"outlettype" : [ "", "" ]
				}

			}
, 			{
				"box" : 				{
					"maxclass" : "newobj",
					"text" : "pack 0 300",
					"fontname" : "Arial",
					"numinlets" : 2,
					"numoutlets" : 1,
					"patching_rect" : [ 230.0, 215.0, 69.0, 20.0 ],
					"fontsize" : 12.0,
					"id" : "obj-15",
					"outlettype" : [ "" ]
				}

			}
, 			{
				"box" : 				{
					"maxclass" : "newobj",
					"text" : "line 0",
					"fontname" : "Arial",
					"numinlets" : 3,
					"numoutlets" : 2,
					"patching_rect" : [ 230.0, 242.0, 46.0, 20.0 ],
					"fontsize" : 12.0,
					"id" : "obj-24",
					"outlettype" : [ "", "" ]
				}

			}
, 			{
				"box" : 				{
					"maxclass" : "newobj",
					"text" : "pack 0 300",
					"fontname" : "Arial",
					"numinlets" : 2,
					"numoutlets" : 1,
					"patching_rect" : [ 152.0, 214.0, 69.0, 20.0 ],
					"fontsize" : 12.0,
					"id" : "obj-13",
					"outlettype" : [ "" ]
				}

			}
, 			{
				"box" : 				{
					"maxclass" : "newobj",
					"text" : "line 0",
					"fontname" : "Arial",
					"numinlets" : 3,
					"numoutlets" : 2,
					"patching_rect" : [ 152.0, 241.0, 46.0, 20.0 ],
					"fontsize" : 12.0,
					"id" : "obj-14",
					"outlettype" : [ "", "" ]
				}

			}
, 			{
				"box" : 				{
					"maxclass" : "newobj",
					"text" : "pack 0 300",
					"fontname" : "Arial",
					"numinlets" : 2,
					"numoutlets" : 1,
					"patching_rect" : [ 75.0, 216.0, 69.0, 20.0 ],
					"fontsize" : 12.0,
					"id" : "obj-12",
					"outlettype" : [ "" ]
				}

			}
, 			{
				"box" : 				{
					"maxclass" : "newobj",
					"text" : "line 0",
					"fontname" : "Arial",
					"numinlets" : 3,
					"numoutlets" : 2,
					"patching_rect" : [ 75.0, 243.0, 46.0, 20.0 ],
					"fontsize" : 12.0,
					"id" : "obj-1",
					"outlettype" : [ "", "" ]
				}

			}
, 			{
				"box" : 				{
					"maxclass" : "comment",
					"text" : "6",
					"fontname" : "Arial",
					"presentation_rect" : [ 300.0, 89.0, 23.0, 25.0 ],
					"numinlets" : 1,
					"numoutlets" : 0,
					"patching_rect" : [ 449.0, 334.0, 23.0, 25.0 ],
					"fontface" : 1,
					"presentation" : 1,
					"fontsize" : 16.0,
					"id" : "obj-41"
				}

			}
, 			{
				"box" : 				{
					"maxclass" : "comment",
					"text" : "5",
					"fontname" : "Arial",
					"presentation_rect" : [ 241.0, 88.0, 23.0, 25.0 ],
					"numinlets" : 1,
					"numoutlets" : 0,
					"patching_rect" : [ 376.0, 334.0, 23.0, 25.0 ],
					"fontface" : 1,
					"presentation" : 1,
					"fontsize" : 16.0,
					"id" : "obj-42"
				}

			}
, 			{
				"box" : 				{
					"maxclass" : "comment",
					"text" : "4",
					"fontname" : "Arial",
					"presentation_rect" : [ 181.0, 87.0, 23.0, 25.0 ],
					"numinlets" : 1,
					"numoutlets" : 0,
					"patching_rect" : [ 307.0, 334.0, 23.0, 25.0 ],
					"fontface" : 1,
					"presentation" : 1,
					"fontsize" : 16.0,
					"id" : "obj-39"
				}

			}
, 			{
				"box" : 				{
					"maxclass" : "comment",
					"text" : "3",
					"fontname" : "Arial",
					"presentation_rect" : [ 120.0, 86.0, 23.0, 25.0 ],
					"numinlets" : 1,
					"numoutlets" : 0,
					"patching_rect" : [ 231.0, 334.0, 23.0, 25.0 ],
					"fontface" : 1,
					"presentation" : 1,
					"fontsize" : 16.0,
					"id" : "obj-40"
				}

			}
, 			{
				"box" : 				{
					"maxclass" : "comment",
					"text" : "2",
					"fontname" : "Arial",
					"presentation_rect" : [ 59.0, 89.0, 23.0, 25.0 ],
					"numinlets" : 1,
					"numoutlets" : 0,
					"patching_rect" : [ 141.0, 334.0, 23.0, 25.0 ],
					"fontface" : 1,
					"presentation" : 1,
					"fontsize" : 16.0,
					"id" : "obj-38"
				}

			}
, 			{
				"box" : 				{
					"maxclass" : "comment",
					"text" : "1",
					"fontname" : "Arial",
					"presentation_rect" : [ 0.0, 90.0, 23.0, 25.0 ],
					"numinlets" : 1,
					"numoutlets" : 0,
					"patching_rect" : [ 73.0, 334.0, 23.0, 25.0 ],
					"fontface" : 1,
					"presentation" : 1,
					"fontsize" : 16.0,
					"id" : "obj-37"
				}

			}
, 			{
				"box" : 				{
					"maxclass" : "bpatcher",
					"presentation_rect" : [ 0.0, 128.0, 72.0, 112.0 ],
					"numinlets" : 0,
					"embed" : 1,
					"numoutlets" : 0,
					"patching_rect" : [ 534.0, 207.0, 72.0, 112.0 ],
					"args" : [  ],
					"presentation" : 1,
					"id" : "obj-23",
					"name" : "EAMIR_info.maxpat",
					"patcher" : 					{
						"fileversion" : 1,
						"rect" : [ 0.0, 128.0, 72.0, 112.0 ],
						"bgcolor" : [ 1.0, 1.0, 1.0, 0.0 ],
						"bglocked" : 0,
						"defrect" : [ 0.0, 128.0, 72.0, 112.0 ],
						"openrect" : [ 0.0, 0.0, 0.0, 0.0 ],
						"openinpresentation" : 0,
						"default_fontsize" : 12.0,
						"default_fontface" : 0,
						"default_fontname" : "Arial",
						"gridonopen" : 0,
						"gridsize" : [ 15.0, 15.0 ],
						"gridsnaponopen" : 0,
						"toolbarvisible" : 1,
						"boxanimatetime" : 200,
						"imprint" : 0,
						"enablehscroll" : 1,
						"enablevscroll" : 1,
						"devicewidth" : 0.0,
						"boxes" : [ 							{
								"box" : 								{
									"maxclass" : "ubutton",
									"handoff" : "",
									"presentation_rect" : [ 99.0, 220.0, 57.0, 36.0 ],
									"numinlets" : 1,
									"hltcolor" : [ 0.380392, 0.145098, 0.458824, 0.501961 ],
									"numoutlets" : 4,
									"patching_rect" : [ 2.0, 66.0, 64.0, 40.0 ],
									"presentation" : 1,
									"id" : "obj-192",
									"outlettype" : [ "bang", "bang", "", "int" ]
								}

							}
, 							{
								"box" : 								{
									"maxclass" : "comment",
									"text" : "vj@vjmanzo.com",
									"fontname" : "Arial",
									"numinlets" : 1,
									"hidden" : 1,
									"numoutlets" : 0,
									"patching_rect" : [ 58.0, 89.0, 85.0, 18.0 ],
									"fontsize" : 10.0,
									"id" : "obj-196"
								}

							}
, 							{
								"box" : 								{
									"maxclass" : "newobj",
									"text" : "p launchURL",
									"fontname" : "Arial",
									"numinlets" : 1,
									"hidden" : 1,
									"numoutlets" : 0,
									"patching_rect" : [ 5.400024, 125.200073, 62.0, 17.0 ],
									"fontsize" : 9.0,
									"id" : "obj-190",
									"patcher" : 									{
										"fileversion" : 1,
										"rect" : [ 15.0, 55.0, 600.0, 426.0 ],
										"bglocked" : 0,
										"defrect" : [ 15.0, 55.0, 600.0, 426.0 ],
										"openrect" : [ 0.0, 0.0, 0.0, 0.0 ],
										"openinpresentation" : 0,
										"default_fontsize" : 12.0,
										"default_fontface" : 0,
										"default_fontname" : "Arial",
										"gridonopen" : 0,
										"gridsize" : [ 15.0, 15.0 ],
										"gridsnaponopen" : 0,
										"toolbarvisible" : 1,
										"boxanimatetime" : 200,
										"imprint" : 0,
										"enablehscroll" : 1,
										"enablevscroll" : 1,
										"devicewidth" : 0.0,
										"boxes" : [ 											{
												"box" : 												{
													"maxclass" : "newobj",
													"text" : "t b s",
													"fontname" : "Arial",
													"numinlets" : 1,
													"numoutlets" : 2,
													"patching_rect" : [ 50.0, 50.0, 27.0, 17.0 ],
													"fontsize" : 9.0,
													"id" : "obj-1",
													"outlettype" : [ "bang", "" ]
												}

											}
, 											{
												"box" : 												{
													"maxclass" : "message",
													"text" : ";\rmax launch_browser http://www.vjmanzo.com/portfolio",
													"linecount" : 2,
													"fontname" : "Arial",
													"numinlets" : 2,
													"numoutlets" : 1,
													"patching_rect" : [ 67.0, 108.0, 344.0, 25.0 ],
													"fontsize" : 9.0,
													"id" : "obj-2",
													"outlettype" : [ "" ]
												}

											}
, 											{
												"box" : 												{
													"maxclass" : "newobj",
													"text" : "sprintf set \\; max launch_browser %s",
													"fontname" : "Arial",
													"numinlets" : 1,
													"numoutlets" : 1,
													"patching_rect" : [ 67.0, 79.0, 164.0, 17.0 ],
													"fontsize" : 9.0,
													"id" : "obj-3",
													"outlettype" : [ "" ]
												}

											}
, 											{
												"box" : 												{
													"maxclass" : "inlet",
													"numinlets" : 0,
													"numoutlets" : 1,
													"patching_rect" : [ 50.0, 30.0, 15.0, 15.0 ],
													"id" : "obj-4",
													"outlettype" : [ "" ],
													"comment" : ""
												}

											}
 ],
										"lines" : [ 											{
												"patchline" : 												{
													"source" : [ "obj-1", 0 ],
													"destination" : [ "obj-2", 0 ],
													"hidden" : 0,
													"midpoints" : [ 59.5, 102.0, 76.5, 102.0 ]
												}

											}
, 											{
												"patchline" : 												{
													"source" : [ "obj-3", 0 ],
													"destination" : [ "obj-2", 0 ],
													"hidden" : 0,
													"midpoints" : [  ]
												}

											}
, 											{
												"patchline" : 												{
													"source" : [ "obj-1", 1 ],
													"destination" : [ "obj-3", 0 ],
													"hidden" : 0,
													"midpoints" : [  ]
												}

											}
, 											{
												"patchline" : 												{
													"source" : [ "obj-4", 0 ],
													"destination" : [ "obj-1", 0 ],
													"hidden" : 0,
													"midpoints" : [  ]
												}

											}
 ]
									}
,
									"saved_object_attributes" : 									{
										"default_fontname" : "Arial",
										"fontname" : "Arial",
										"default_fontsize" : 12.0,
										"fontface" : 0,
										"fontsize" : 12.0,
										"default_fontface" : 0,
										"globalpatchername" : ""
									}

								}

							}
, 							{
								"box" : 								{
									"maxclass" : "message",
									"text" : "http://www.vjmanzo.com/portfolio",
									"bgcolor2" : [ 1.0, 1.0, 1.0, 1.0 ],
									"gradient" : 1,
									"fontname" : "Arial",
									"numinlets" : 2,
									"hidden" : 1,
									"numoutlets" : 1,
									"patching_rect" : [ 2.400024, 108.199951, 157.0, 16.0 ],
									"fontsize" : 10.0,
									"id" : "obj-191",
									"outlettype" : [ "" ],
									"bgcolor" : [ 0.792157, 0.898039, 1.0, 1.0 ]
								}

							}
, 							{
								"box" : 								{
									"maxclass" : "newobj",
									"text" : "p launchURL",
									"fontname" : "Arial",
									"numinlets" : 1,
									"hidden" : 1,
									"numoutlets" : 0,
									"patching_rect" : [ 80.400024, 35.200073, 62.0, 17.0 ],
									"fontsize" : 9.0,
									"id" : "obj-101",
									"patcher" : 									{
										"fileversion" : 1,
										"rect" : [ 15.0, 55.0, 600.0, 426.0 ],
										"bglocked" : 0,
										"defrect" : [ 15.0, 55.0, 600.0, 426.0 ],
										"openrect" : [ 0.0, 0.0, 0.0, 0.0 ],
										"openinpresentation" : 0,
										"default_fontsize" : 12.0,
										"default_fontface" : 0,
										"default_fontname" : "Arial",
										"gridonopen" : 0,
										"gridsize" : [ 15.0, 15.0 ],
										"gridsnaponopen" : 0,
										"toolbarvisible" : 1,
										"boxanimatetime" : 200,
										"imprint" : 0,
										"enablehscroll" : 1,
										"enablevscroll" : 1,
										"devicewidth" : 0.0,
										"boxes" : [ 											{
												"box" : 												{
													"maxclass" : "newobj",
													"text" : "t b s",
													"fontname" : "Arial",
													"numinlets" : 1,
													"numoutlets" : 2,
													"patching_rect" : [ 50.0, 50.0, 27.0, 17.0 ],
													"fontsize" : 9.0,
													"id" : "obj-1",
													"outlettype" : [ "bang", "" ]
												}

											}
, 											{
												"box" : 												{
													"maxclass" : "message",
													"text" : ";\rmax launch_browser http://www.eamir.org",
													"linecount" : 2,
													"fontname" : "Arial",
													"numinlets" : 2,
													"numoutlets" : 1,
													"patching_rect" : [ 67.0, 108.0, 344.0, 25.0 ],
													"fontsize" : 9.0,
													"id" : "obj-2",
													"outlettype" : [ "" ]
												}

											}
, 											{
												"box" : 												{
													"maxclass" : "newobj",
													"text" : "sprintf set \\; max launch_browser %s",
													"fontname" : "Arial",
													"numinlets" : 1,
													"numoutlets" : 1,
													"patching_rect" : [ 67.0, 79.0, 164.0, 17.0 ],
													"fontsize" : 9.0,
													"id" : "obj-3",
													"outlettype" : [ "" ]
												}

											}
, 											{
												"box" : 												{
													"maxclass" : "inlet",
													"numinlets" : 0,
													"numoutlets" : 1,
													"patching_rect" : [ 50.0, 30.0, 15.0, 15.0 ],
													"id" : "obj-4",
													"outlettype" : [ "" ],
													"comment" : ""
												}

											}
 ],
										"lines" : [ 											{
												"patchline" : 												{
													"source" : [ "obj-1", 0 ],
													"destination" : [ "obj-2", 0 ],
													"hidden" : 0,
													"midpoints" : [ 59.5, 102.0, 76.5, 102.0 ]
												}

											}
, 											{
												"patchline" : 												{
													"source" : [ "obj-3", 0 ],
													"destination" : [ "obj-2", 0 ],
													"hidden" : 0,
													"midpoints" : [  ]
												}

											}
, 											{
												"patchline" : 												{
													"source" : [ "obj-1", 1 ],
													"destination" : [ "obj-3", 0 ],
													"hidden" : 0,
													"midpoints" : [  ]
												}

											}
, 											{
												"patchline" : 												{
													"source" : [ "obj-4", 0 ],
													"destination" : [ "obj-1", 0 ],
													"hidden" : 0,
													"midpoints" : [  ]
												}

											}
 ]
									}
,
									"saved_object_attributes" : 									{
										"default_fontname" : "Arial",
										"fontname" : "Arial",
										"default_fontsize" : 12.0,
										"fontface" : 0,
										"fontsize" : 12.0,
										"default_fontface" : 0,
										"globalpatchername" : ""
									}

								}

							}
, 							{
								"box" : 								{
									"maxclass" : "message",
									"text" : "http://www.eamir.org",
									"bgcolor2" : [ 1.0, 1.0, 1.0, 1.0 ],
									"gradient" : 1,
									"fontname" : "Arial",
									"numinlets" : 2,
									"hidden" : 1,
									"numoutlets" : 1,
									"patching_rect" : [ 77.400024, 18.200012, 102.0, 16.0 ],
									"fontsize" : 10.0,
									"id" : "obj-132",
									"outlettype" : [ "" ],
									"bgcolor" : [ 0.917647, 0.85098, 1.0, 1.0 ]
								}

							}
, 							{
								"box" : 								{
									"maxclass" : "ubutton",
									"handoff" : "",
									"presentation_rect" : [ 98.0, 155.0, 60.0, 61.0 ],
									"numinlets" : 1,
									"hltcolor" : [ 0.305882, 0.0, 0.407843, 0.501961 ],
									"numoutlets" : 4,
									"patching_rect" : [ 3.0, 3.0, 64.0, 62.0 ],
									"presentation" : 1,
									"id" : "obj-188",
									"outlettype" : [ "bang", "bang", "", "int" ]
								}

							}
, 							{
								"box" : 								{
									"maxclass" : "comment",
									"text" : "EAMIR\ncreated by\nV.J. Manzo",
									"linecount" : 3,
									"presentation_linecount" : 3,
									"fontname" : "Arial",
									"presentation_rect" : [ 95.400024, 217.200073, 62.0, 41.0 ],
									"numinlets" : 1,
									"numoutlets" : 0,
									"patching_rect" : [ 2.400024, 66.200073, 66.0, 41.0 ],
									"presentation" : 1,
									"fontsize" : 10.0,
									"id" : "obj-189"
								}

							}
, 							{
								"box" : 								{
									"maxclass" : "fpic",
									"presentation_rect" : [ 95.0, 154.0, 65.0, 63.0 ],
									"numinlets" : 1,
									"numoutlets" : 0,
									"patching_rect" : [ 2.0, 3.0, 65.0, 63.0 ],
									"pic" : "EAMIR_logo.png",
									"presentation" : 1,
									"id" : "obj-185"
								}

							}
 ],
						"lines" : [ 							{
								"patchline" : 								{
									"source" : [ "obj-192", 0 ],
									"destination" : [ "obj-191", 0 ],
									"hidden" : 1,
									"midpoints" : [  ]
								}

							}
, 							{
								"patchline" : 								{
									"source" : [ "obj-191", 0 ],
									"destination" : [ "obj-190", 0 ],
									"hidden" : 1,
									"midpoints" : [ 11.900024, 124.200012, 14.900024, 124.200012 ]
								}

							}
, 							{
								"patchline" : 								{
									"source" : [ "obj-188", 0 ],
									"destination" : [ "obj-132", 0 ],
									"hidden" : 1,
									"midpoints" : [ 12.5, 65.0, 72.200012, 65.0, 72.200012, 5.200012, 86.900024, 5.200012 ]
								}

							}
, 							{
								"patchline" : 								{
									"source" : [ "obj-132", 0 ],
									"destination" : [ "obj-101", 0 ],
									"hidden" : 1,
									"midpoints" : [ 86.900024, 34.200012, 89.900024, 34.200012 ]
								}

							}
 ]
					}

				}

			}
, 			{
				"box" : 				{
					"maxclass" : "inlet",
					"numinlets" : 0,
					"numoutlets" : 1,
					"patching_rect" : [ 456.0, 174.0, 25.0, 25.0 ],
					"id" : "obj-21",
					"outlettype" : [ "" ],
					"comment" : "6"
				}

			}
, 			{
				"box" : 				{
					"maxclass" : "inlet",
					"numinlets" : 0,
					"numoutlets" : 1,
					"patching_rect" : [ 383.0, 174.0, 25.0, 25.0 ],
					"id" : "obj-22",
					"outlettype" : [ "" ],
					"comment" : "5"
				}

			}
, 			{
				"box" : 				{
					"maxclass" : "inlet",
					"numinlets" : 0,
					"numoutlets" : 1,
					"patching_rect" : [ 307.0, 174.0, 25.0, 25.0 ],
					"id" : "obj-19",
					"outlettype" : [ "" ],
					"comment" : "4"
				}

			}
, 			{
				"box" : 				{
					"maxclass" : "inlet",
					"numinlets" : 0,
					"numoutlets" : 1,
					"patching_rect" : [ 230.0, 174.0, 25.0, 25.0 ],
					"id" : "obj-20",
					"outlettype" : [ "" ],
					"comment" : "2"
				}

			}
, 			{
				"box" : 				{
					"maxclass" : "inlet",
					"numinlets" : 0,
					"numoutlets" : 1,
					"patching_rect" : [ 152.0, 174.0, 25.0, 25.0 ],
					"id" : "obj-18",
					"outlettype" : [ "" ],
					"comment" : "2"
				}

			}
, 			{
				"box" : 				{
					"maxclass" : "inlet",
					"numinlets" : 0,
					"numoutlets" : 1,
					"patching_rect" : [ 75.0, 174.0, 25.0, 25.0 ],
					"id" : "obj-17",
					"outlettype" : [ "" ],
					"comment" : "1"
				}

			}
, 			{
				"box" : 				{
					"maxclass" : "comment",
					"text" : "Leprecon LD-360 Light Dimmer",
					"fontname" : "Arial",
					"presentation_rect" : [ 0.0, 0.0, 286.0, 27.0 ],
					"numinlets" : 1,
					"numoutlets" : 0,
					"patching_rect" : [ 92.0, 21.0, 286.0, 27.0 ],
					"fontface" : 1,
					"presentation" : 1,
					"fontsize" : 18.0,
					"id" : "obj-16"
				}

			}
, 			{
				"box" : 				{
					"maxclass" : "newobj",
					"varname" : "EAMIR_leprecon[1]",
					"text" : "autopattr EAMIR_leprecon",
					"fontname" : "Arial",
					"numinlets" : 1,
					"numoutlets" : 4,
					"patching_rect" : [ 453.0, 90.0, 152.0, 20.0 ],
					"fontsize" : 12.0,
					"id" : "obj-11",
					"outlettype" : [ "", "", "", "" ],
					"restore" : 					{
						"EAMIR_leprecon[2]" : [ 0 ],
						"live.numbox" : [ 0.0 ],
						"live.numbox[1]" : [ 0.0 ],
						"live.numbox[2]" : [ 0.0 ],
						"live.numbox[3]" : [ 0.0 ],
						"live.numbox[4]" : [ 0.0 ],
						"live.numbox[5]" : [ 0.0 ],
						"live.numbox[6]" : [ 0.0 ]
					}

				}

			}
, 			{
				"box" : 				{
					"maxclass" : "newobj",
					"varname" : "EAMIR_leprecon",
					"text" : "pattr EAMIR_leprecon",
					"fontname" : "Arial",
					"numinlets" : 1,
					"numoutlets" : 3,
					"patching_rect" : [ 454.0, 62.0, 129.0, 20.0 ],
					"fontsize" : 12.0,
					"id" : "obj-10",
					"outlettype" : [ "", "", "" ],
					"restore" : [ 0 ],
					"saved_object_attributes" : 					{
						"parameter_enable" : 0
					}

				}

			}
, 			{
				"box" : 				{
					"maxclass" : "hint",
					"hint" : "MIDI Output Device",
					"presentation_rect" : [ 0.0, 30.0, 175.0, 18.0 ],
					"numinlets" : 1,
					"numoutlets" : 0,
					"delay" : 1,
					"patching_rect" : [ 197.0, 127.0, 175.0, 18.0 ],
					"presentation" : 1,
					"id" : "obj-57"
				}

			}
, 			{
				"box" : 				{
					"maxclass" : "newobj",
					"text" : "loadbang",
					"fontname" : "Arial",
					"numinlets" : 1,
					"numoutlets" : 1,
					"patching_rect" : [ 197.0, 58.0, 43.0, 16.0 ],
					"fontsize" : 8.0,
					"id" : "obj-8",
					"outlettype" : [ "bang" ]
				}

			}
, 			{
				"box" : 				{
					"maxclass" : "newobj",
					"text" : "midiinfo",
					"fontname" : "Arial",
					"numinlets" : 2,
					"numoutlets" : 1,
					"patching_rect" : [ 197.0, 96.0, 52.0, 20.0 ],
					"fontsize" : 12.0,
					"id" : "obj-9",
					"outlettype" : [ "" ]
				}

			}
, 			{
				"box" : 				{
					"maxclass" : "button",
					"numinlets" : 1,
					"numoutlets" : 1,
					"patching_rect" : [ 197.0, 75.0, 20.0, 20.0 ],
					"id" : "obj-26",
					"outlettype" : [ "bang" ]
				}

			}
, 			{
				"box" : 				{
					"maxclass" : "umenu",
					"varname" : "EAMIR_leprecon[2]",
					"fontname" : "Arial",
					"presentation_rect" : [ 0.0, 30.0, 177.0, 20.0 ],
					"numinlets" : 1,
					"items" : [ "AU DLS Synth 1", ",", "IAC Driver Bus 1", ",", "from MaxMSP 1", ",", "from MaxMSP 2" ],
					"numoutlets" : 3,
					"types" : [  ],
					"patching_rect" : [ 197.0, 123.0, 177.0, 20.0 ],
					"presentation" : 1,
					"fontsize" : 11.595187,
					"id" : "obj-25",
					"outlettype" : [ "int", "", "" ]
				}

			}
, 			{
				"box" : 				{
					"maxclass" : "newobj",
					"text" : "ctlout 6 16",
					"fontname" : "Arial",
					"numinlets" : 3,
					"numoutlets" : 0,
					"patching_rect" : [ 440.0, 305.0, 66.0, 20.0 ],
					"fontsize" : 12.0,
					"id" : "obj-6"
				}

			}
, 			{
				"box" : 				{
					"maxclass" : "newobj",
					"text" : "ctlout 5 16",
					"fontname" : "Arial",
					"numinlets" : 3,
					"numoutlets" : 0,
					"patching_rect" : [ 365.0, 305.0, 66.0, 20.0 ],
					"fontsize" : 12.0,
					"id" : "obj-7"
				}

			}
, 			{
				"box" : 				{
					"maxclass" : "newobj",
					"text" : "ctlout 4 16",
					"fontname" : "Arial",
					"numinlets" : 3,
					"numoutlets" : 0,
					"patching_rect" : [ 289.0, 306.0, 66.0, 20.0 ],
					"fontsize" : 12.0,
					"id" : "obj-4"
				}

			}
, 			{
				"box" : 				{
					"maxclass" : "newobj",
					"text" : "ctlout 3 16",
					"fontname" : "Arial",
					"numinlets" : 3,
					"numoutlets" : 0,
					"patching_rect" : [ 214.0, 306.0, 66.0, 20.0 ],
					"fontsize" : 12.0,
					"id" : "obj-5"
				}

			}
, 			{
				"box" : 				{
					"maxclass" : "newobj",
					"text" : "ctlout 2 16",
					"fontname" : "Arial",
					"numinlets" : 3,
					"numoutlets" : 0,
					"patching_rect" : [ 135.0, 305.0, 66.0, 20.0 ],
					"fontsize" : 12.0,
					"id" : "obj-3"
				}

			}
, 			{
				"box" : 				{
					"maxclass" : "newobj",
					"text" : "ctlout 1 16",
					"fontname" : "Arial",
					"numinlets" : 3,
					"numoutlets" : 0,
					"patching_rect" : [ 60.0, 305.0, 66.0, 20.0 ],
					"fontsize" : 12.0,
					"id" : "obj-2"
				}

			}
 ],
		"lines" : [ 			{
				"patchline" : 				{
					"source" : [ "obj-8", 0 ],
					"destination" : [ "obj-26", 0 ],
					"hidden" : 0,
					"midpoints" : [  ]
				}

			}
, 			{
				"patchline" : 				{
					"source" : [ "obj-26", 0 ],
					"destination" : [ "obj-9", 0 ],
					"hidden" : 0,
					"midpoints" : [  ]
				}

			}
, 			{
				"patchline" : 				{
					"source" : [ "obj-9", 0 ],
					"destination" : [ "obj-25", 0 ],
					"hidden" : 0,
					"midpoints" : [  ]
				}

			}
, 			{
				"patchline" : 				{
					"source" : [ "obj-25", 1 ],
					"destination" : [ "obj-2", 0 ],
					"hidden" : 0,
					"midpoints" : [ 285.5, 210.5, 69.5, 210.5 ]
				}

			}
, 			{
				"patchline" : 				{
					"source" : [ "obj-25", 1 ],
					"destination" : [ "obj-3", 0 ],
					"hidden" : 0,
					"midpoints" : [ 285.5, 209.5, 144.5, 209.5 ]
				}

			}
, 			{
				"patchline" : 				{
					"source" : [ "obj-25", 1 ],
					"destination" : [ "obj-5", 0 ],
					"hidden" : 0,
					"midpoints" : [ 285.5, 212.0, 223.5, 212.0 ]
				}

			}
, 			{
				"patchline" : 				{
					"source" : [ "obj-25", 1 ],
					"destination" : [ "obj-4", 0 ],
					"hidden" : 0,
					"midpoints" : [ 285.5, 207.0, 298.5, 207.0 ]
				}

			}
, 			{
				"patchline" : 				{
					"source" : [ "obj-25", 1 ],
					"destination" : [ "obj-7", 0 ],
					"hidden" : 0,
					"midpoints" : [ 285.5, 209.5, 374.5, 209.5 ]
				}

			}
, 			{
				"patchline" : 				{
					"source" : [ "obj-25", 1 ],
					"destination" : [ "obj-6", 0 ],
					"hidden" : 0,
					"midpoints" : [ 285.5, 208.5, 449.5, 208.5 ]
				}

			}
, 			{
				"patchline" : 				{
					"source" : [ "obj-12", 0 ],
					"destination" : [ "obj-1", 0 ],
					"hidden" : 0,
					"midpoints" : [  ]
				}

			}
, 			{
				"patchline" : 				{
					"source" : [ "obj-17", 0 ],
					"destination" : [ "obj-12", 0 ],
					"hidden" : 0,
					"midpoints" : [  ]
				}

			}
, 			{
				"patchline" : 				{
					"source" : [ "obj-13", 0 ],
					"destination" : [ "obj-14", 0 ],
					"hidden" : 0,
					"midpoints" : [  ]
				}

			}
, 			{
				"patchline" : 				{
					"source" : [ "obj-18", 0 ],
					"destination" : [ "obj-13", 0 ],
					"hidden" : 0,
					"midpoints" : [  ]
				}

			}
, 			{
				"patchline" : 				{
					"source" : [ "obj-15", 0 ],
					"destination" : [ "obj-24", 0 ],
					"hidden" : 0,
					"midpoints" : [  ]
				}

			}
, 			{
				"patchline" : 				{
					"source" : [ "obj-20", 0 ],
					"destination" : [ "obj-15", 0 ],
					"hidden" : 0,
					"midpoints" : [  ]
				}

			}
, 			{
				"patchline" : 				{
					"source" : [ "obj-28", 0 ],
					"destination" : [ "obj-30", 0 ],
					"hidden" : 0,
					"midpoints" : [  ]
				}

			}
, 			{
				"patchline" : 				{
					"source" : [ "obj-19", 0 ],
					"destination" : [ "obj-28", 0 ],
					"hidden" : 0,
					"midpoints" : [  ]
				}

			}
, 			{
				"patchline" : 				{
					"source" : [ "obj-32", 0 ],
					"destination" : [ "obj-36", 0 ],
					"hidden" : 0,
					"midpoints" : [  ]
				}

			}
, 			{
				"patchline" : 				{
					"source" : [ "obj-22", 0 ],
					"destination" : [ "obj-32", 0 ],
					"hidden" : 0,
					"midpoints" : [  ]
				}

			}
, 			{
				"patchline" : 				{
					"source" : [ "obj-43", 0 ],
					"destination" : [ "obj-44", 0 ],
					"hidden" : 0,
					"midpoints" : [  ]
				}

			}
, 			{
				"patchline" : 				{
					"source" : [ "obj-21", 0 ],
					"destination" : [ "obj-43", 0 ],
					"hidden" : 0,
					"midpoints" : [  ]
				}

			}
, 			{
				"patchline" : 				{
					"source" : [ "obj-1", 0 ],
					"destination" : [ "obj-47", 0 ],
					"hidden" : 0,
					"midpoints" : [  ]
				}

			}
, 			{
				"patchline" : 				{
					"source" : [ "obj-47", 0 ],
					"destination" : [ "obj-2", 0 ],
					"hidden" : 0,
					"midpoints" : [ 84.5, 298.0, 69.5, 298.0 ]
				}

			}
, 			{
				"patchline" : 				{
					"source" : [ "obj-49", 0 ],
					"destination" : [ "obj-3", 0 ],
					"hidden" : 0,
					"midpoints" : [ 161.5, 298.0, 144.5, 298.0 ]
				}

			}
, 			{
				"patchline" : 				{
					"source" : [ "obj-14", 0 ],
					"destination" : [ "obj-49", 0 ],
					"hidden" : 0,
					"midpoints" : [  ]
				}

			}
, 			{
				"patchline" : 				{
					"source" : [ "obj-50", 0 ],
					"destination" : [ "obj-5", 0 ],
					"hidden" : 0,
					"midpoints" : [ 239.5, 298.5, 223.5, 298.5 ]
				}

			}
, 			{
				"patchline" : 				{
					"source" : [ "obj-24", 0 ],
					"destination" : [ "obj-50", 0 ],
					"hidden" : 0,
					"midpoints" : [  ]
				}

			}
, 			{
				"patchline" : 				{
					"source" : [ "obj-30", 0 ],
					"destination" : [ "obj-52", 0 ],
					"hidden" : 0,
					"midpoints" : [  ]
				}

			}
, 			{
				"patchline" : 				{
					"source" : [ "obj-52", 0 ],
					"destination" : [ "obj-4", 0 ],
					"hidden" : 0,
					"midpoints" : [ 316.5, 298.5, 298.5, 298.5 ]
				}

			}
, 			{
				"patchline" : 				{
					"source" : [ "obj-54", 0 ],
					"destination" : [ "obj-7", 0 ],
					"hidden" : 0,
					"midpoints" : [ 392.5, 298.0, 374.5, 298.0 ]
				}

			}
, 			{
				"patchline" : 				{
					"source" : [ "obj-36", 0 ],
					"destination" : [ "obj-54", 0 ],
					"hidden" : 0,
					"midpoints" : [  ]
				}

			}
, 			{
				"patchline" : 				{
					"source" : [ "obj-55", 0 ],
					"destination" : [ "obj-6", 0 ],
					"hidden" : 0,
					"midpoints" : [ 465.5, 298.0, 449.5, 298.0 ]
				}

			}
, 			{
				"patchline" : 				{
					"source" : [ "obj-44", 0 ],
					"destination" : [ "obj-55", 0 ],
					"hidden" : 0,
					"midpoints" : [  ]
				}

			}
, 			{
				"patchline" : 				{
					"source" : [ "obj-56", 0 ],
					"destination" : [ "obj-43", 1 ],
					"hidden" : 0,
					"midpoints" : [ 99.5, 167.0, 515.5, 167.0 ]
				}

			}
, 			{
				"patchline" : 				{
					"source" : [ "obj-56", 0 ],
					"destination" : [ "obj-32", 1 ],
					"hidden" : 0,
					"midpoints" : [ 99.5, 167.0, 442.5, 167.0 ]
				}

			}
, 			{
				"patchline" : 				{
					"source" : [ "obj-56", 0 ],
					"destination" : [ "obj-13", 1 ],
					"hidden" : 0,
					"midpoints" : [ 99.5, 167.0, 211.5, 167.0 ]
				}

			}
, 			{
				"patchline" : 				{
					"source" : [ "obj-56", 0 ],
					"destination" : [ "obj-12", 1 ],
					"hidden" : 0,
					"midpoints" : [ 99.5, 167.5, 134.5, 167.5 ]
				}

			}
, 			{
				"patchline" : 				{
					"source" : [ "obj-56", 0 ],
					"destination" : [ "obj-15", 1 ],
					"hidden" : 0,
					"midpoints" : [ 99.5, 167.0, 289.5, 167.0 ]
				}

			}
, 			{
				"patchline" : 				{
					"source" : [ "obj-46", 0 ],
					"destination" : [ "obj-56", 0 ],
					"hidden" : 0,
					"midpoints" : [ 78.5, 123.0, 99.5, 123.0 ]
				}

			}
 ],
		"parameters" : 		{
			"obj-52" : [ "live.numbox[4]", "live.numbox", 0 ],
			"obj-49" : [ "live.numbox[1]", "live.numbox", 0 ],
			"obj-55" : [ "live.numbox[5]", "live.numbox", 0 ],
			"obj-50" : [ "live.numbox[2]", "live.numbox", 0 ],
			"obj-47" : [ "live.numbox", "live.numbox", 0 ],
			"obj-56" : [ "live.numbox[6]", "live.numbox", 0 ],
			"obj-54" : [ "live.numbox[3]", "live.numbox", 0 ]
		}

	}

}
